  0
SECTION
  2
HEADER
  9
$MEASUREMENT
  70
  1
  9
$INSUNITS
  70
  4
  0
ENDSEC
  0
SECTION
  2
TABLES
  0
TABLE
  2
LTYPE
 70
     1
  0
LTYPE
  2
CONTINUOUS
 70
    64
  3
Ausgezogene Linie
 72
    65
 73
     0
 40
0.0
  0
ENDTAB
  0
TABLE
  2
LAYER
 70
     3
  0
LAYER
  2
Contour
 70
    64
 62
     7
  6
CONTINUOUS
  0
LAYER
  2
Engraving
 70
    64
 62
     7
  6
CONTINUOUS
  0
LAYER
  2
Reference_points
 70
    64
 62
     1
  6
CONTINUOUS
  0
ENDTAB
  0
TABLE
  2
STYLE
 70
     1
  0
STYLE
  2
TXT
 70
    64
 40
0.0
 41
1.0
 50
0.0
 71
     0
 42
3.500000
  3
TXT
  0
ENDTAB
  0
ENDSEC
  0
SECTION
  2
BLOCKS
  0
ENDSEC
  0
SECTION
  2
ENTITIES
  0
LINE
  8
Contour
 62
   7
 39
0.100
  6
CONTINUOUS
 10
30.14000
 20
128.40000
 30
 0
 11
30.14000
 21
0.00000
  0
LINE
  8
Contour
 62
   7
 39
0.100
  6
CONTINUOUS
 10
30.14000
 20
0.00000
 30
 0
 11
0.00000
 21
0.00000
  0
LINE
  8
Contour
 62
   7
 39
0.100
  6
CONTINUOUS
 10
0.00000
 20
0.00000
 30
 0
 11
0.00000
 21
128.40000
  0
LINE
  8
Contour
 62
   7
 39
0.100
  6
CONTINUOUS
 10
0.00000
 20
128.40000
 30
 0
 11
30.14000
 21
128.40000
  0
LINE
  8
Engraving
 62
   7
 39
0.400
  6
CONTINUOUS
 10
14.81335
 20
92.60747
 30
 0
 11
15.07571
 21
92.78910
  0
LINE
  8
Engraving
 62
   7
 39
0.400
  6
CONTINUOUS
 10
15.07571
 20
92.78910
 30
 0
 11
15.33806
 21
93.11200
  0
LINE
  8
Engraving
 62
   7
 39
0.400
  6
CONTINUOUS
 10
15.33806
 20
93.11200
 30
 0
 11
15.33806
 21
90.54900
  0
ARC
  8
Engraving
 62
   7
 39
0.400
  6
CONTINUOUS
 10
15.08264
 20
84.94006
 30
 0
 40
0.58860
 50
103.59010
 51
197.25422
  0
ARC
  8
Engraving
 62
   7
 39
0.400
  6
CONTINUOUS
 10
15.10163
 20
84.98203
 30
 0
 40
0.55300
 50
6.85332
 51
106.52541
  0
ARC
  8
Engraving
 62
   7
 39
0.400
  6
CONTINUOUS
 10
14.42817
 20
84.86672
 30
 0
 40
1.23587
 50
-32.62504
 51
8.43552
  0
ARC
  8
Engraving
 62
   7
 39
0.400
  6
CONTINUOUS
 10
12.93991
 20
85.71927
 30
 0
 40
2.95016
 50
312.79903
 51
329.01325
  0
LINE
  8
Engraving
 62
   7
 39
0.400
  6
CONTINUOUS
 10
14.94434
 20
83.55461
 30
 0
 11
14.48017
 21
83.07027
  0
LINE
  8
Engraving
 62
   7
 39
0.400
  6
CONTINUOUS
 10
14.48017
 20
83.07027
 30
 0
 11
14.48017
 21
82.92900
  0
LINE
  8
Engraving
 62
   7
 39
0.400
  6
CONTINUOUS
 10
14.48017
 20
82.92900
 30
 0
 11
15.67086
 21
82.92900
  0
LINE
  8
Engraving
 62
   7
 39
0.400
  6
CONTINUOUS
 10
15.67086
 20
82.92900
 30
 0
 11
14.48017
 21
82.92900
  0
LINE
  8
Engraving
 62
   7
 39
0.400
  6
CONTINUOUS
 10
14.50017
 20
76.05570
 30
 0
 11
14.50017
 21
75.81353
  0
LINE
  8
Engraving
 62
   7
 39
0.400
  6
CONTINUOUS
 10
14.50017
 20
75.81353
 30
 0
 11
14.54054
 21
75.61172
  0
LINE
  8
Engraving
 62
   7
 39
0.400
  6
CONTINUOUS
 10
14.54054
 20
75.61172
 30
 0
 11
14.64144
 21
75.47045
  0
LINE
  8
Engraving
 62
   7
 39
0.400
  6
CONTINUOUS
 10
14.64144
 20
75.47045
 30
 0
 11
14.76253
 21
75.36954
  0
LINE
  8
Engraving
 62
   7
 39
0.400
  6
CONTINUOUS
 10
14.76253
 20
75.36954
 30
 0
 11
14.96434
 21
75.30900
  0
LINE
  8
Engraving
 62
   7
 39
0.400
  6
CONTINUOUS
 10
14.96434
 20
75.30900
 30
 0
 11
15.06524
 21
75.28882
  0
LINE
  8
Engraving
 62
   7
 39
0.400
  6
CONTINUOUS
 10
15.06524
 20
75.28882
 30
 0
 11
15.24687
 21
75.30900
  0
LINE
  8
Engraving
 62
   7
 39
0.400
  6
CONTINUOUS
 10
15.24687
 20
75.30900
 30
 0
 11
15.38814
 21
75.36954
  0
LINE
  8
Engraving
 62
   7
 39
0.400
  6
CONTINUOUS
 10
15.38814
 20
75.36954
 30
 0
 11
15.50923
 21
75.47045
  0
LINE
  8
Engraving
 62
   7
 39
0.400
  6
CONTINUOUS
 10
15.50923
 20
75.47045
 30
 0
 11
15.61013
 21
75.61172
  0
LINE
  8
Engraving
 62
   7
 39
0.400
  6
CONTINUOUS
 10
15.61013
 20
75.61172
 30
 0
 11
15.65050
 21
75.81353
  0
LINE
  8
Engraving
 62
   7
 39
0.400
  6
CONTINUOUS
 10
15.65050
 20
75.81353
 30
 0
 11
15.65050
 21
76.27769
  0
LINE
  8
Engraving
 62
   7
 39
0.400
  6
CONTINUOUS
 10
15.65050
 20
76.27769
 30
 0
 11
15.61013
 21
76.45932
  0
LINE
  8
Engraving
 62
   7
 39
0.400
  6
CONTINUOUS
 10
15.61013
 20
76.45932
 30
 0
 11
15.50923
 21
76.60059
  0
LINE
  8
Engraving
 62
   7
 39
0.400
  6
CONTINUOUS
 10
15.50923
 20
76.60059
 30
 0
 11
15.32760
 21
76.68131
  0
LINE
  8
Engraving
 62
   7
 39
0.400
  6
CONTINUOUS
 10
15.32760
 20
76.68131
 30
 0
 11
14.84325
 21
76.68131
  0
LINE
  8
Engraving
 62
   7
 39
0.400
  6
CONTINUOUS
 10
14.84325
 20
76.68131
 30
 0
 11
15.32760
 21
76.68131
  0
LINE
  8
Engraving
 62
   7
 39
0.400
  6
CONTINUOUS
 10
15.32760
 20
76.68131
 30
 0
 11
15.48905
 21
76.80240
  0
LINE
  8
Engraving
 62
   7
 39
0.400
  6
CONTINUOUS
 10
15.48905
 20
76.80240
 30
 0
 11
15.58995
 21
76.90331
  0
LINE
  8
Engraving
 62
   7
 39
0.400
  6
CONTINUOUS
 10
15.58995
 20
76.90331
 30
 0
 11
15.61013
 21
77.04457
  0
LINE
  8
Engraving
 62
   7
 39
0.400
  6
CONTINUOUS
 10
15.61013
 20
77.04457
 30
 0
 11
15.61013
 21
77.42802
  0
LINE
  8
Engraving
 62
   7
 39
0.400
  6
CONTINUOUS
 10
15.61013
 20
77.42802
 30
 0
 11
15.58995
 21
77.58946
  0
LINE
  8
Engraving
 62
   7
 39
0.400
  6
CONTINUOUS
 10
15.58995
 20
77.58946
 30
 0
 11
15.50923
 21
77.73073
  0
LINE
  8
Engraving
 62
   7
 39
0.400
  6
CONTINUOUS
 10
15.50923
 20
77.73073
 30
 0
 11
15.38814
 21
77.85182
  0
LINE
  8
Engraving
 62
   7
 39
0.400
  6
CONTINUOUS
 10
15.38814
 20
77.85182
 30
 0
 11
15.24687
 21
77.89218
  0
LINE
  8
Engraving
 62
   7
 39
0.400
  6
CONTINUOUS
 10
15.24687
 20
77.89218
 30
 0
 11
15.12579
 21
77.91236
  0
LINE
  8
Engraving
 62
   7
 39
0.400
  6
CONTINUOUS
 10
15.12579
 20
77.91236
 30
 0
 11
15.02488
 21
77.91236
  0
LINE
  8
Engraving
 62
   7
 39
0.400
  6
CONTINUOUS
 10
15.02488
 20
77.91236
 30
 0
 11
14.86343
 21
77.89218
  0
LINE
  8
Engraving
 62
   7
 39
0.400
  6
CONTINUOUS
 10
14.86343
 20
77.89218
 30
 0
 11
14.72217
 21
77.81146
  0
LINE
  8
Engraving
 62
   7
 39
0.400
  6
CONTINUOUS
 10
14.72217
 20
77.81146
 30
 0
 11
14.62126
 21
77.71055
  0
LINE
  8
Engraving
 62
   7
 39
0.400
  6
CONTINUOUS
 10
14.62126
 20
77.71055
 30
 0
 11
14.56072
 21
77.56928
  0
LINE
  8
Engraving
 62
   7
 39
0.400
  6
CONTINUOUS
 10
14.56072
 20
77.56928
 30
 0
 11
14.52035
 21
77.42802
  0
LINE
  8
Engraving
 62
   7
 39
0.400
  6
CONTINUOUS
 10
14.52035
 20
77.42802
 30
 0
 11
14.52035
 21
77.18584
  0
LINE
  8
Engraving
 62
   7
 39
0.400
  6
CONTINUOUS
 10
15.34850
 20
67.68900
 30
 0
 11
15.34850
 21
70.25200
  0
LINE
  8
Engraving
 62
   7
 39
0.400
  6
CONTINUOUS
 10
15.34850
 20
70.25200
 30
 0
 11
15.24760
 21
70.25200
  0
LINE
  8
Engraving
 62
   7
 39
0.400
  6
CONTINUOUS
 10
15.24760
 20
70.25200
 30
 0
 11
14.42017
 21
68.45588
  0
LINE
  8
Engraving
 62
   7
 39
0.400
  6
CONTINUOUS
 10
14.42017
 20
68.45588
 30
 0
 11
15.73194
 21
68.45588
  0
LINE
  8
Engraving
 62
   7
 39
0.400
  6
CONTINUOUS
 10
15.50923
 20
62.63200
 30
 0
 11
14.56072
 21
62.63200
  0
LINE
  8
Engraving
 62
   7
 39
0.400
  6
CONTINUOUS
 10
14.56072
 20
62.63200
 30
 0
 11
14.52035
 21
61.13860
  0
LINE
  8
Engraving
 62
   7
 39
0.400
  6
CONTINUOUS
 10
14.52035
 20
61.13860
 30
 0
 11
14.58090
 21
61.13860
  0
LINE
  8
Engraving
 62
   7
 39
0.400
  6
CONTINUOUS
 10
14.58090
 20
61.13860
 30
 0
 11
14.66162
 21
61.38077
  0
LINE
  8
Engraving
 62
   7
 39
0.400
  6
CONTINUOUS
 10
14.66162
 20
61.38077
 30
 0
 11
14.76253
 21
61.52204
  0
LINE
  8
Engraving
 62
   7
 39
0.400
  6
CONTINUOUS
 10
14.76253
 20
61.52204
 30
 0
 11
14.90380
 21
61.64313
  0
LINE
  8
Engraving
 62
   7
 39
0.400
  6
CONTINUOUS
 10
14.90380
 20
61.64313
 30
 0
 11
15.04506
 21
61.68349
  0
LINE
  8
Engraving
 62
   7
 39
0.400
  6
CONTINUOUS
 10
15.04506
 20
61.68349
 30
 0
 11
15.22669
 21
61.66331
  0
LINE
  8
Engraving
 62
   7
 39
0.400
  6
CONTINUOUS
 10
15.22669
 20
61.66331
 30
 0
 11
15.36796
 21
61.62294
  0
LINE
  8
Engraving
 62
   7
 39
0.400
  6
CONTINUOUS
 10
15.36796
 20
61.62294
 30
 0
 11
15.50923
 21
61.50186
  0
LINE
  8
Engraving
 62
   7
 39
0.400
  6
CONTINUOUS
 10
15.50923
 20
61.50186
 30
 0
 11
15.61013
 21
61.34041
  0
LINE
  8
Engraving
 62
   7
 39
0.400
  6
CONTINUOUS
 10
15.61013
 20
61.34041
 30
 0
 11
15.65050
 21
61.17896
  0
LINE
  8
Engraving
 62
   7
 39
0.400
  6
CONTINUOUS
 10
15.65050
 20
61.17896
 30
 0
 11
15.65050
 21
60.55335
  0
LINE
  8
Engraving
 62
   7
 39
0.400
  6
CONTINUOUS
 10
15.65050
 20
60.55335
 30
 0
 11
15.58995
 21
60.35154
  0
LINE
  8
Engraving
 62
   7
 39
0.400
  6
CONTINUOUS
 10
15.58995
 20
60.35154
 30
 0
 11
15.50923
 21
60.21027
  0
LINE
  8
Engraving
 62
   7
 39
0.400
  6
CONTINUOUS
 10
15.50923
 20
60.21027
 30
 0
 11
15.38814
 21
60.10936
  0
LINE
  8
Engraving
 62
   7
 39
0.400
  6
CONTINUOUS
 10
15.38814
 20
60.10936
 30
 0
 11
15.18633
 21
60.04882
  0
LINE
  8
Engraving
 62
   7
 39
0.400
  6
CONTINUOUS
 10
15.18633
 20
60.04882
 30
 0
 11
15.00470
 21
60.04882
  0
LINE
  8
Engraving
 62
   7
 39
0.400
  6
CONTINUOUS
 10
15.00470
 20
60.04882
 30
 0
 11
14.86343
 21
60.06900
  0
LINE
  8
Engraving
 62
   7
 39
0.400
  6
CONTINUOUS
 10
14.86343
 20
60.06900
 30
 0
 11
14.64144
 21
60.21027
  0
LINE
  8
Engraving
 62
   7
 39
0.400
  6
CONTINUOUS
 10
14.64144
 20
60.21027
 30
 0
 11
14.54054
 21
60.35154
  0
LINE
  8
Engraving
 62
   7
 39
0.400
  6
CONTINUOUS
 10
14.54054
 20
60.35154
 30
 0
 11
14.50017
 21
60.55335
  0
LINE
  8
Engraving
 62
   7
 39
0.400
  6
CONTINUOUS
 10
14.50017
 20
60.55335
 30
 0
 11
14.50017
 21
60.81570
  0
LINE
  8
Engraving
 62
   7
 39
0.400
  6
CONTINUOUS
 10
15.66086
 20
54.32584
 30
 0
 11
15.66086
 21
54.52765
  0
LINE
  8
Engraving
 62
   7
 39
0.400
  6
CONTINUOUS
 10
15.66086
 20
54.52765
 30
 0
 11
15.62050
 21
54.70928
  0
LINE
  8
Engraving
 62
   7
 39
0.400
  6
CONTINUOUS
 10
15.62050
 20
54.70928
 30
 0
 11
15.55995
 21
54.83037
  0
LINE
  8
Engraving
 62
   7
 39
0.400
  6
CONTINUOUS
 10
15.55995
 20
54.83037
 30
 0
 11
15.45905
 21
54.93128
  0
LINE
  8
Engraving
 62
   7
 39
0.400
  6
CONTINUOUS
 10
15.45905
 20
54.93128
 30
 0
 11
15.31778
 21
55.01200
  0
LINE
  8
Engraving
 62
   7
 39
0.400
  6
CONTINUOUS
 10
15.31778
 20
55.01200
 30
 0
 11
15.13615
 21
55.03218
  0
LINE
  8
Engraving
 62
   7
 39
0.400
  6
CONTINUOUS
 10
15.13615
 20
55.03218
 30
 0
 11
14.99488
 21
55.03218
  0
LINE
  8
Engraving
 62
   7
 39
0.400
  6
CONTINUOUS
 10
14.99488
 20
55.03218
 30
 0
 11
14.83343
 21
55.01200
  0
LINE
  8
Engraving
 62
   7
 39
0.400
  6
CONTINUOUS
 10
14.83343
 20
55.01200
 30
 0
 11
14.71235
 21
54.95146
  0
LINE
  8
Engraving
 62
   7
 39
0.400
  6
CONTINUOUS
 10
14.71235
 20
54.95146
 30
 0
 11
14.59126
 21
54.83037
  0
LINE
  8
Engraving
 62
   7
 39
0.400
  6
CONTINUOUS
 10
14.59126
 20
54.83037
 30
 0
 11
14.53072
 21
54.70928
  0
LINE
  8
Engraving
 62
   7
 39
0.400
  6
CONTINUOUS
 10
14.53072
 20
54.70928
 30
 0
 11
14.49035
 21
54.52765
  0
LINE
  8
Engraving
 62
   7
 39
0.400
  6
CONTINUOUS
 10
14.49035
 20
54.52765
 30
 0
 11
14.49035
 21
53.53878
  0
LINE
  8
Engraving
 62
   7
 39
0.400
  6
CONTINUOUS
 10
14.49035
 20
53.53878
 30
 0
 11
14.49035
 21
52.93335
  0
LINE
  8
Engraving
 62
   7
 39
0.400
  6
CONTINUOUS
 10
14.49035
 20
52.93335
 30
 0
 11
14.53072
 21
52.73154
  0
LINE
  8
Engraving
 62
   7
 39
0.400
  6
CONTINUOUS
 10
14.53072
 20
52.73154
 30
 0
 11
14.63162
 21
52.57009
  0
LINE
  8
Engraving
 62
   7
 39
0.400
  6
CONTINUOUS
 10
14.63162
 20
52.57009
 30
 0
 11
14.77289
 21
52.46918
  0
LINE
  8
Engraving
 62
   7
 39
0.400
  6
CONTINUOUS
 10
14.77289
 20
52.46918
 30
 0
 11
14.99488
 21
52.42882
  0
LINE
  8
Engraving
 62
   7
 39
0.400
  6
CONTINUOUS
 10
14.99488
 20
52.42882
 30
 0
 11
15.13615
 21
52.42882
  0
LINE
  8
Engraving
 62
   7
 39
0.400
  6
CONTINUOUS
 10
15.13615
 20
52.42882
 30
 0
 11
15.35814
 21
52.46918
  0
LINE
  8
Engraving
 62
   7
 39
0.400
  6
CONTINUOUS
 10
15.35814
 20
52.46918
 30
 0
 11
15.51959
 21
52.59027
  0
LINE
  8
Engraving
 62
   7
 39
0.400
  6
CONTINUOUS
 10
15.51959
 20
52.59027
 30
 0
 11
15.62050
 21
52.75172
  0
LINE
  8
Engraving
 62
   7
 39
0.400
  6
CONTINUOUS
 10
15.62050
 20
52.75172
 30
 0
 11
15.66086
 21
52.93335
  0
LINE
  8
Engraving
 62
   7
 39
0.400
  6
CONTINUOUS
 10
15.66086
 20
52.93335
 30
 0
 11
15.66086
 21
53.57914
  0
LINE
  8
Engraving
 62
   7
 39
0.400
  6
CONTINUOUS
 10
15.66086
 20
53.57914
 30
 0
 11
15.62050
 21
53.76077
  0
LINE
  8
Engraving
 62
   7
 39
0.400
  6
CONTINUOUS
 10
15.62050
 20
53.76077
 30
 0
 11
15.49941
 21
53.94240
  0
LINE
  8
Engraving
 62
   7
 39
0.400
  6
CONTINUOUS
 10
15.49941
 20
53.94240
 30
 0
 11
15.35814
 21
54.04331
  0
LINE
  8
Engraving
 62
   7
 39
0.400
  6
CONTINUOUS
 10
15.35814
 20
54.04331
 30
 0
 11
15.09579
 21
54.10385
  0
LINE
  8
Engraving
 62
   7
 39
0.400
  6
CONTINUOUS
 10
15.09579
 20
54.10385
 30
 0
 11
14.85361
 21
54.06349
  0
LINE
  8
Engraving
 62
   7
 39
0.400
  6
CONTINUOUS
 10
14.85361
 20
54.06349
 30
 0
 11
14.65180
 21
53.94240
  0
LINE
  8
Engraving
 62
   7
 39
0.400
  6
CONTINUOUS
 10
14.65180
 20
53.94240
 30
 0
 11
14.49035
 21
53.70023
  0
LINE
  8
Engraving
 62
   7
 39
0.400
  6
CONTINUOUS
 10
14.52017
 20
47.39200
 30
 0
 11
15.63013
 21
47.39200
  0
LINE
  8
Engraving
 62
   7
 39
0.400
  6
CONTINUOUS
 10
15.63013
 20
47.39200
 30
 0
 11
15.63013
 21
47.25073
  0
LINE
  8
Engraving
 62
   7
 39
0.400
  6
CONTINUOUS
 10
15.63013
 20
47.25073
 30
 0
 11
14.72198
 21
44.82900
  0
LINE
  8
Engraving
 62
   7
 39
0.400
  6
CONTINUOUS
 10
14.80289
 20
38.58131
 30
 0
 11
15.34778
 21
38.58131
  0
LINE
  8
Engraving
 62
   7
 39
0.400
  6
CONTINUOUS
 10
15.34778
 20
38.58131
 30
 0
 11
15.48905
 21
38.68222
  0
LINE
  8
Engraving
 62
   7
 39
0.400
  6
CONTINUOUS
 10
15.48905
 20
38.68222
 30
 0
 11
15.56977
 21
38.78313
  0
LINE
  8
Engraving
 62
   7
 39
0.400
  6
CONTINUOUS
 10
15.56977
 20
38.78313
 30
 0
 11
15.63031
 21
38.94457
  0
LINE
  8
Engraving
 62
   7
 39
0.400
  6
CONTINUOUS
 10
15.63031
 20
38.94457
 30
 0
 11
15.63031
 21
39.32802
  0
LINE
  8
Engraving
 62
   7
 39
0.400
  6
CONTINUOUS
 10
15.63031
 20
39.32802
 30
 0
 11
15.61013
 21
39.44910
  0
LINE
  8
Engraving
 62
   7
 39
0.400
  6
CONTINUOUS
 10
15.61013
 20
39.44910
 30
 0
 11
15.52941
 21
39.59037
  0
LINE
  8
Engraving
 62
   7
 39
0.400
  6
CONTINUOUS
 10
15.52941
 20
39.59037
 30
 0
 11
15.42850
 21
39.71146
  0
LINE
  8
Engraving
 62
   7
 39
0.400
  6
CONTINUOUS
 10
15.42850
 20
39.71146
 30
 0
 11
15.28724
 21
39.77200
  0
LINE
  8
Engraving
 62
   7
 39
0.400
  6
CONTINUOUS
 10
15.28724
 20
39.77200
 30
 0
 11
15.16615
 21
39.79218
  0
LINE
  8
Engraving
 62
   7
 39
0.400
  6
CONTINUOUS
 10
15.16615
 20
39.79218
 30
 0
 11
15.02488
 21
39.79218
  0
LINE
  8
Engraving
 62
   7
 39
0.400
  6
CONTINUOUS
 10
15.02488
 20
39.79218
 30
 0
 11
14.84325
 21
39.77200
  0
LINE
  8
Engraving
 62
   7
 39
0.400
  6
CONTINUOUS
 10
14.84325
 20
39.77200
 30
 0
 11
14.72217
 21
39.69128
  0
LINE
  8
Engraving
 62
   7
 39
0.400
  6
CONTINUOUS
 10
14.72217
 20
39.69128
 30
 0
 11
14.62126
 21
39.59037
  0
LINE
  8
Engraving
 62
   7
 39
0.400
  6
CONTINUOUS
 10
14.62126
 20
39.59037
 30
 0
 11
14.56072
 21
39.46928
  0
LINE
  8
Engraving
 62
   7
 39
0.400
  6
CONTINUOUS
 10
14.56072
 20
39.46928
 30
 0
 11
14.54054
 21
39.30783
  0
LINE
  8
Engraving
 62
   7
 39
0.400
  6
CONTINUOUS
 10
14.54054
 20
39.30783
 30
 0
 11
14.54054
 21
38.94457
  0
LINE
  8
Engraving
 62
   7
 39
0.400
  6
CONTINUOUS
 10
14.54054
 20
38.94457
 30
 0
 11
14.58090
 21
38.78313
  0
LINE
  8
Engraving
 62
   7
 39
0.400
  6
CONTINUOUS
 10
14.58090
 20
38.78313
 30
 0
 11
14.64144
 21
38.68222
  0
LINE
  8
Engraving
 62
   7
 39
0.400
  6
CONTINUOUS
 10
14.64144
 20
38.68222
 30
 0
 11
14.80289
 21
38.58131
  0
LINE
  8
Engraving
 62
   7
 39
0.400
  6
CONTINUOUS
 10
14.80289
 20
38.58131
 30
 0
 11
14.64144
 21
38.48041
  0
LINE
  8
Engraving
 62
   7
 39
0.400
  6
CONTINUOUS
 10
14.64144
 20
38.48041
 30
 0
 11
14.56072
 21
38.37950
  0
LINE
  8
Engraving
 62
   7
 39
0.400
  6
CONTINUOUS
 10
14.56072
 20
38.37950
 30
 0
 11
14.50017
 21
38.17769
  0
LINE
  8
Engraving
 62
   7
 39
0.400
  6
CONTINUOUS
 10
14.50017
 20
38.17769
 30
 0
 11
14.50017
 21
37.97588
  0
LINE
  8
Engraving
 62
   7
 39
0.400
  6
CONTINUOUS
 10
14.50017
 20
37.97588
 30
 0
 11
14.50017
 21
37.73371
  0
LINE
  8
Engraving
 62
   7
 39
0.400
  6
CONTINUOUS
 10
14.50017
 20
37.73371
 30
 0
 11
14.54054
 21
37.51172
  0
LINE
  8
Engraving
 62
   7
 39
0.400
  6
CONTINUOUS
 10
14.54054
 20
37.51172
 30
 0
 11
14.62126
 21
37.37045
  0
LINE
  8
Engraving
 62
   7
 39
0.400
  6
CONTINUOUS
 10
14.62126
 20
37.37045
 30
 0
 11
14.72217
 21
37.26954
  0
LINE
  8
Engraving
 62
   7
 39
0.400
  6
CONTINUOUS
 10
14.72217
 20
37.26954
 30
 0
 11
14.86343
 21
37.20900
  0
LINE
  8
Engraving
 62
   7
 39
0.400
  6
CONTINUOUS
 10
14.86343
 20
37.20900
 30
 0
 11
15.02488
 21
37.18882
  0
LINE
  8
Engraving
 62
   7
 39
0.400
  6
CONTINUOUS
 10
15.02488
 20
37.18882
 30
 0
 11
15.16615
 21
37.18882
  0
LINE
  8
Engraving
 62
   7
 39
0.400
  6
CONTINUOUS
 10
15.16615
 20
37.18882
 30
 0
 11
15.32760
 21
37.20900
  0
LINE
  8
Engraving
 62
   7
 39
0.400
  6
CONTINUOUS
 10
15.32760
 20
37.20900
 30
 0
 11
15.46887
 21
37.30991
  0
LINE
  8
Engraving
 62
   7
 39
0.400
  6
CONTINUOUS
 10
15.46887
 20
37.30991
 30
 0
 11
15.58995
 21
37.45117
  0
LINE
  8
Engraving
 62
   7
 39
0.400
  6
CONTINUOUS
 10
15.58995
 20
37.45117
 30
 0
 11
15.63031
 21
37.61262
  0
LINE
  8
Engraving
 62
   7
 39
0.400
  6
CONTINUOUS
 10
15.63031
 20
37.61262
 30
 0
 11
15.65050
 21
37.69335
  0
LINE
  8
Engraving
 62
   7
 39
0.400
  6
CONTINUOUS
 10
15.65050
 20
37.69335
 30
 0
 11
15.65050
 21
38.17769
  0
LINE
  8
Engraving
 62
   7
 39
0.400
  6
CONTINUOUS
 10
15.65050
 20
38.17769
 30
 0
 11
15.63031
 21
38.31896
  0
LINE
  8
Engraving
 62
   7
 39
0.400
  6
CONTINUOUS
 10
15.63031
 20
38.31896
 30
 0
 11
15.56977
 21
38.41987
  0
LINE
  8
Engraving
 62
   7
 39
0.400
  6
CONTINUOUS
 10
15.56977
 20
38.41987
 30
 0
 11
15.48905
 21
38.50059
  0
LINE
  8
Engraving
 62
   7
 39
0.400
  6
CONTINUOUS
 10
15.48905
 20
38.50059
 30
 0
 11
15.34778
 21
38.58131
  0
LINE
  8
Engraving
 62
   7
 39
0.400
  6
CONTINUOUS
 10
6.66068
 20
16.98530
 30
 0
 11
6.66068
 21
17.28802
  0
LINE
  8
Engraving
 62
   7
 39
0.400
  6
CONTINUOUS
 10
6.66068
 20
17.28802
 30
 0
 11
6.64050
 21
17.42928
  0
LINE
  8
Engraving
 62
   7
 39
0.400
  6
CONTINUOUS
 10
6.64050
 20
17.42928
 30
 0
 11
6.57995
 21
17.57055
  0
LINE
  8
Engraving
 62
   7
 39
0.400
  6
CONTINUOUS
 10
6.57995
 20
17.57055
 30
 0
 11
6.47905
 21
17.65128
  0
LINE
  8
Engraving
 62
   7
 39
0.400
  6
CONTINUOUS
 10
6.47905
 20
17.65128
 30
 0
 11
6.37814
 21
17.71182
  0
LINE
  8
Engraving
 62
   7
 39
0.400
  6
CONTINUOUS
 10
6.37814
 20
17.71182
 30
 0
 11
6.25706
 21
17.75218
  0
LINE
  8
Engraving
 62
   7
 39
0.400
  6
CONTINUOUS
 10
6.25706
 20
17.75218
 30
 0
 11
5.97452
 21
17.75218
  0
LINE
  8
Engraving
 62
   7
 39
0.400
  6
CONTINUOUS
 10
5.97452
 20
17.75218
 30
 0
 11
5.79289
 21
17.73200
  0
LINE
  8
Engraving
 62
   7
 39
0.400
  6
CONTINUOUS
 10
5.79289
 20
17.73200
 30
 0
 11
5.65162
 21
17.63109
  0
LINE
  8
Engraving
 62
   7
 39
0.400
  6
CONTINUOUS
 10
5.65162
 20
17.63109
 30
 0
 11
5.57090
 21
17.51001
  0
LINE
  8
Engraving
 62
   7
 39
0.400
  6
CONTINUOUS
 10
5.57090
 20
17.51001
 30
 0
 11
5.51035
 21
17.34856
  0
LINE
  8
Engraving
 62
   7
 39
0.400
  6
CONTINUOUS
 10
5.51035
 20
17.34856
 30
 0
 11
5.51035
 21
15.63317
  0
LINE
  8
Engraving
 62
   7
 39
0.400
  6
CONTINUOUS
 10
5.51035
 20
15.63317
 30
 0
 11
5.55072
 21
15.45154
  0
LINE
  8
Engraving
 62
   7
 39
0.400
  6
CONTINUOUS
 10
5.55072
 20
15.45154
 30
 0
 11
5.61126
 21
15.33045
  0
LINE
  8
Engraving
 62
   7
 39
0.400
  6
CONTINUOUS
 10
5.61126
 20
15.33045
 30
 0
 11
5.73235
 21
15.22954
  0
LINE
  8
Engraving
 62
   7
 39
0.400
  6
CONTINUOUS
 10
5.73235
 20
15.22954
 30
 0
 11
5.83325
 21
15.16900
  0
LINE
  8
Engraving
 62
   7
 39
0.400
  6
CONTINUOUS
 10
5.83325
 20
15.16900
 30
 0
 11
5.99470
 21
15.14882
  0
LINE
  8
Engraving
 62
   7
 39
0.400
  6
CONTINUOUS
 10
5.99470
 20
15.14882
 30
 0
 11
6.19651
 21
15.14882
  0
LINE
  8
Engraving
 62
   7
 39
0.400
  6
CONTINUOUS
 10
6.19651
 20
15.14882
 30
 0
 11
6.33778
 21
15.16900
  0
LINE
  8
Engraving
 62
   7
 39
0.400
  6
CONTINUOUS
 10
6.33778
 20
15.16900
 30
 0
 11
6.49923
 21
15.24972
  0
LINE
  8
Engraving
 62
   7
 39
0.400
  6
CONTINUOUS
 10
6.49923
 20
15.24972
 30
 0
 11
6.60013
 21
15.35063
  0
LINE
  8
Engraving
 62
   7
 39
0.400
  6
CONTINUOUS
 10
6.60013
 20
15.35063
 30
 0
 11
6.68086
 21
15.51208
  0
LINE
  8
Engraving
 62
   7
 39
0.400
  6
CONTINUOUS
 10
6.68086
 20
15.51208
 30
 0
 11
6.68086
 21
15.63317
  0
LINE
  8
Engraving
 62
   7
 39
0.400
  6
CONTINUOUS
 10
6.68086
 20
15.63317
 30
 0
 11
6.68086
 21
15.87534
  0
LINE
  8
Engraving
 62
   7
 39
0.400
  6
CONTINUOUS
 10
7.20635
 20
17.73200
 30
 0
 11
7.20635
 21
15.16900
  0
LINE
  8
Engraving
 62
   7
 39
0.400
  6
CONTINUOUS
 10
7.20635
 20
15.16900
 30
 0
 11
8.21541
 21
15.16900
  0
LINE
  8
Engraving
 62
   7
 39
0.400
  6
CONTINUOUS
 10
8.73935
 20
17.73200
 30
 0
 11
8.73935
 21
15.16900
  0
LINE
  8
Engraving
 62
   7
 39
0.400
  6
CONTINUOUS
 10
9.99058
 20
17.73200
 30
 0
 11
8.73935
 21
16.56150
  0
LINE
  8
Engraving
 62
   7
 39
0.400
  6
CONTINUOUS
 10
8.73935
 20
16.56150
 30
 0
 11
10.03094
 21
15.16900
  0
LINE
  8
Engraving
 62
   7
 39
0.400
  6
CONTINUOUS
 10
20.68506
 20
16.48077
 30
 0
 11
20.86669
 21
16.48077
  0
LINE
  8
Engraving
 62
   7
 39
0.400
  6
CONTINUOUS
 10
20.86669
 20
16.48077
 30
 0
 11
21.02813
 21
16.37987
  0
LINE
  8
Engraving
 62
   7
 39
0.400
  6
CONTINUOUS
 10
21.02813
 20
16.37987
 30
 0
 11
21.12904
 21
16.23860
  0
LINE
  8
Engraving
 62
   7
 39
0.400
  6
CONTINUOUS
 10
21.12904
 20
16.23860
 30
 0
 11
21.14922
 21
16.09733
  0
LINE
  8
Engraving
 62
   7
 39
0.400
  6
CONTINUOUS
 10
21.14922
 20
16.09733
 30
 0
 11
21.14922
 21
15.47172
  0
LINE
  8
Engraving
 62
   7
 39
0.400
  6
CONTINUOUS
 10
21.14922
 20
15.47172
 30
 0
 11
21.16940
 21
15.33045
  0
LINE
  8
Engraving
 62
   7
 39
0.400
  6
CONTINUOUS
 10
21.16940
 20
15.33045
 30
 0
 11
21.18958
 21
15.16900
  0
LINE
  8
Engraving
 62
   7
 39
0.400
  6
CONTINUOUS
 10
19.93835
 20
15.16900
 30
 0
 11
19.93835
 21
17.73200
  0
LINE
  8
Engraving
 62
   7
 39
0.400
  6
CONTINUOUS
 10
19.93835
 20
17.73200
 30
 0
 11
20.66487
 21
17.73200
  0
LINE
  8
Engraving
 62
   7
 39
0.400
  6
CONTINUOUS
 10
20.66487
 20
17.73200
 30
 0
 11
20.88687
 21
17.67146
  0
LINE
  8
Engraving
 62
   7
 39
0.400
  6
CONTINUOUS
 10
20.88687
 20
17.67146
 30
 0
 11
21.02813
 21
17.57055
  0
LINE
  8
Engraving
 62
   7
 39
0.400
  6
CONTINUOUS
 10
21.02813
 20
17.57055
 30
 0
 11
21.12904
 21
17.42928
  0
LINE
  8
Engraving
 62
   7
 39
0.400
  6
CONTINUOUS
 10
21.12904
 20
17.42928
 30
 0
 11
21.14922
 21
17.24765
  0
LINE
  8
Engraving
 62
   7
 39
0.400
  6
CONTINUOUS
 10
21.14922
 20
17.24765
 30
 0
 11
21.14922
 21
16.96512
  0
LINE
  8
Engraving
 62
   7
 39
0.400
  6
CONTINUOUS
 10
21.14922
 20
16.96512
 30
 0
 11
21.12904
 21
16.80367
  0
LINE
  8
Engraving
 62
   7
 39
0.400
  6
CONTINUOUS
 10
21.12904
 20
16.80367
 30
 0
 11
21.02813
 21
16.64222
  0
LINE
  8
Engraving
 62
   7
 39
0.400
  6
CONTINUOUS
 10
21.02813
 20
16.64222
 30
 0
 11
20.90705
 21
16.54131
  0
LINE
  8
Engraving
 62
   7
 39
0.400
  6
CONTINUOUS
 10
20.90705
 20
16.54131
 30
 0
 11
20.68506
 21
16.48077
  0
LINE
  8
Engraving
 62
   7
 39
0.400
  6
CONTINUOUS
 10
20.68506
 20
16.48077
 30
 0
 11
19.93835
 21
16.48077
  0
LINE
  8
Engraving
 62
   7
 39
0.400
  6
CONTINUOUS
 10
21.71435
 20
15.97624
 30
 0
 11
21.71435
 21
15.63317
  0
LINE
  8
Engraving
 62
   7
 39
0.400
  6
CONTINUOUS
 10
21.71435
 20
15.63317
 30
 0
 11
21.75472
 21
15.45154
  0
LINE
  8
Engraving
 62
   7
 39
0.400
  6
CONTINUOUS
 10
21.75472
 20
15.45154
 30
 0
 11
21.85562
 21
15.29009
  0
LINE
  8
Engraving
 62
   7
 39
0.400
  6
CONTINUOUS
 10
21.85562
 20
15.29009
 30
 0
 11
21.99689
 21
15.18918
  0
LINE
  8
Engraving
 62
   7
 39
0.400
  6
CONTINUOUS
 10
21.99689
 20
15.18918
 30
 0
 11
22.19870
 21
15.14882
  0
LINE
  8
Engraving
 62
   7
 39
0.400
  6
CONTINUOUS
 10
22.19870
 20
15.14882
 30
 0
 11
22.44087
 21
15.14882
  0
LINE
  8
Engraving
 62
   7
 39
0.400
  6
CONTINUOUS
 10
22.44087
 20
15.14882
 30
 0
 11
22.58214
 21
15.16900
  0
LINE
  8
Engraving
 62
   7
 39
0.400
  6
CONTINUOUS
 10
22.58214
 20
15.16900
 30
 0
 11
22.76377
 21
15.26991
  0
LINE
  8
Engraving
 62
   7
 39
0.400
  6
CONTINUOUS
 10
22.76377
 20
15.26991
 30
 0
 11
22.88486
 21
15.43135
  0
LINE
  8
Engraving
 62
   7
 39
0.400
  6
CONTINUOUS
 10
22.88486
 20
15.43135
 30
 0
 11
22.92522
 21
15.63317
  0
LINE
  8
Engraving
 62
   7
 39
0.400
  6
CONTINUOUS
 10
22.92522
 20
15.63317
 30
 0
 11
22.92522
 21
15.77443
  0
LINE
  8
Engraving
 62
   7
 39
0.400
  6
CONTINUOUS
 10
22.92522
 20
15.77443
 30
 0
 11
22.88486
 21
15.91570
  0
LINE
  8
Engraving
 62
   7
 39
0.400
  6
CONTINUOUS
 10
22.88486
 20
15.91570
 30
 0
 11
22.80413
 21
16.07715
  0
LINE
  8
Engraving
 62
   7
 39
0.400
  6
CONTINUOUS
 10
22.80413
 20
16.07715
 30
 0
 11
22.72341
 21
16.15787
  0
LINE
  8
Engraving
 62
   7
 39
0.400
  6
CONTINUOUS
 10
22.72341
 20
16.15787
 30
 0
 11
22.60232
 21
16.25878
  0
LINE
  8
Engraving
 62
   7
 39
0.400
  6
CONTINUOUS
 10
22.60232
 20
16.25878
 30
 0
 11
22.01707
 21
16.78349
  0
LINE
  8
Engraving
 62
   7
 39
0.400
  6
CONTINUOUS
 10
22.01707
 20
16.78349
 30
 0
 11
21.91617
 21
16.86421
  0
LINE
  8
Engraving
 62
   7
 39
0.400
  6
CONTINUOUS
 10
21.91617
 20
16.86421
 30
 0
 11
21.81526
 21
16.98530
  0
LINE
  8
Engraving
 62
   7
 39
0.400
  6
CONTINUOUS
 10
21.81526
 20
16.98530
 30
 0
 11
21.77490
 21
17.04584
  0
LINE
  8
Engraving
 62
   7
 39
0.400
  6
CONTINUOUS
 10
21.77490
 20
17.04584
 30
 0
 11
21.75472
 21
17.14675
  0
LINE
  8
Engraving
 62
   7
 39
0.400
  6
CONTINUOUS
 10
21.75472
 20
17.14675
 30
 0
 11
21.75472
 21
17.32838
  0
LINE
  8
Engraving
 62
   7
 39
0.400
  6
CONTINUOUS
 10
21.75472
 20
17.32838
 30
 0
 11
21.81526
 21
17.51001
  0
LINE
  8
Engraving
 62
   7
 39
0.400
  6
CONTINUOUS
 10
21.81526
 20
17.51001
 30
 0
 11
21.89598
 21
17.63109
  0
LINE
  8
Engraving
 62
   7
 39
0.400
  6
CONTINUOUS
 10
21.89598
 20
17.63109
 30
 0
 11
22.01707
 21
17.71182
  0
LINE
  8
Engraving
 62
   7
 39
0.400
  6
CONTINUOUS
 10
22.01707
 20
17.71182
 30
 0
 11
22.21888
 21
17.75218
  0
LINE
  8
Engraving
 62
   7
 39
0.400
  6
CONTINUOUS
 10
22.21888
 20
17.75218
 30
 0
 11
22.42069
 21
17.75218
  0
LINE
  8
Engraving
 62
   7
 39
0.400
  6
CONTINUOUS
 10
22.42069
 20
17.75218
 30
 0
 11
22.54178
 21
17.73200
  0
LINE
  8
Engraving
 62
   7
 39
0.400
  6
CONTINUOUS
 10
22.54178
 20
17.73200
 30
 0
 11
22.68305
 21
17.67146
  0
LINE
  8
Engraving
 62
   7
 39
0.400
  6
CONTINUOUS
 10
22.68305
 20
17.67146
 30
 0
 11
22.78395
 21
17.57055
  0
LINE
  8
Engraving
 62
   7
 39
0.400
  6
CONTINUOUS
 10
22.78395
 20
17.57055
 30
 0
 11
22.86468
 21
17.42928
  0
LINE
  8
Engraving
 62
   7
 39
0.400
  6
CONTINUOUS
 10
22.86468
 20
17.42928
 30
 0
 11
22.88486
 21
17.28802
  0
LINE
  8
Engraving
 62
   7
 39
0.400
  6
CONTINUOUS
 10
22.88486
 20
17.28802
 30
 0
 11
22.88486
 21
17.10639
  0
LINE
  8
Engraving
 62
   7
 39
0.400
  6
CONTINUOUS
 10
24.11533
 20
15.16900
 30
 0
 11
24.11533
 21
17.73200
  0
LINE
  8
Engraving
 62
   7
 39
0.400
  6
CONTINUOUS
 10
23.42917
 20
17.73200
 30
 0
 11
24.82167
 21
17.73200
  0
LINE
  8
Engraving
 62
   7
 39
0.400
  6
CONTINUOUS
 10
22.13476
 20
126.09584
 30
 0
 11
22.13476
 21
126.33802
  0
LINE
  8
Engraving
 62
   7
 39
0.400
  6
CONTINUOUS
 10
22.13476
 20
126.33802
 30
 0
 11
22.11458
 21
126.51965
  0
LINE
  8
Engraving
 62
   7
 39
0.400
  6
CONTINUOUS
 10
22.11458
 20
126.51965
 30
 0
 11
22.03386
 21
126.64073
  0
LINE
  8
Engraving
 62
   7
 39
0.400
  6
CONTINUOUS
 10
22.03386
 20
126.64073
 30
 0
 11
21.91277
 21
126.74164
  0
LINE
  8
Engraving
 62
   7
 39
0.400
  6
CONTINUOUS
 10
21.91277
 20
126.74164
 30
 0
 11
21.79169
 21
126.80218
  0
LINE
  8
Engraving
 62
   7
 39
0.400
  6
CONTINUOUS
 10
21.79169
 20
126.80218
 30
 0
 11
21.67060
 21
126.80218
  0
LINE
  8
Engraving
 62
   7
 39
0.400
  6
CONTINUOUS
 10
21.67060
 20
126.80218
 30
 0
 11
21.32752
 21
126.80218
  0
LINE
  8
Engraving
 62
   7
 39
0.400
  6
CONTINUOUS
 10
21.32752
 20
126.80218
 30
 0
 11
21.16607
 21
126.78200
  0
LINE
  8
Engraving
 62
   7
 39
0.400
  6
CONTINUOUS
 10
21.16607
 20
126.78200
 30
 0
 11
21.02480
 21
126.70128
  0
LINE
  8
Engraving
 62
   7
 39
0.400
  6
CONTINUOUS
 10
21.02480
 20
126.70128
 30
 0
 11
20.94408
 21
126.62055
  0
LINE
  8
Engraving
 62
   7
 39
0.400
  6
CONTINUOUS
 10
20.94408
 20
126.62055
 30
 0
 11
20.88354
 21
126.49946
  0
LINE
  8
Engraving
 62
   7
 39
0.400
  6
CONTINUOUS
 10
20.88354
 20
126.49946
 30
 0
 11
20.86335
 21
126.33802
  0
LINE
  8
Engraving
 62
   7
 39
0.400
  6
CONTINUOUS
 10
20.86335
 20
126.33802
 30
 0
 11
20.86335
 21
124.68317
  0
LINE
  8
Engraving
 62
   7
 39
0.400
  6
CONTINUOUS
 10
20.86335
 20
124.68317
 30
 0
 11
20.88354
 21
124.50154
  0
LINE
  8
Engraving
 62
   7
 39
0.400
  6
CONTINUOUS
 10
20.88354
 20
124.50154
 30
 0
 11
20.98444
 21
124.34009
  0
LINE
  8
Engraving
 62
   7
 39
0.400
  6
CONTINUOUS
 10
20.98444
 20
124.34009
 30
 0
 11
21.12571
 21
124.23918
  0
LINE
  8
Engraving
 62
   7
 39
0.400
  6
CONTINUOUS
 10
21.12571
 20
124.23918
 30
 0
 11
21.30734
 21
124.19882
  0
LINE
  8
Engraving
 62
   7
 39
0.400
  6
CONTINUOUS
 10
21.30734
 20
124.19882
 30
 0
 11
21.48897
 21
124.19882
  0
LINE
  8
Engraving
 62
   7
 39
0.400
  6
CONTINUOUS
 10
21.48897
 20
124.19882
 30
 0
 11
21.71096
 21
124.19882
  0
LINE
  8
Engraving
 62
   7
 39
0.400
  6
CONTINUOUS
 10
21.71096
 20
124.19882
 30
 0
 11
21.93295
 21
124.21900
  0
LINE
  8
Engraving
 62
   7
 39
0.400
  6
CONTINUOUS
 10
21.93295
 20
124.21900
 30
 0
 11
22.15494
 21
124.29972
  0
LINE
  8
Engraving
 62
   7
 39
0.400
  6
CONTINUOUS
 10
22.15494
 20
124.29972
 30
 0
 11
22.15494
 21
125.49041
  0
LINE
  8
Engraving
 62
   7
 39
0.400
  6
CONTINUOUS
 10
22.15494
 20
125.49041
 30
 0
 11
21.48897
 21
125.49041
  0
LINE
  8
Engraving
 62
   7
 39
0.400
  6
CONTINUOUS
 10
22.96289
 20
125.59231
 30
 0
 11
23.50778
 21
125.59231
  0
LINE
  8
Engraving
 62
   7
 39
0.400
  6
CONTINUOUS
 10
23.50778
 20
125.59231
 30
 0
 11
23.64905
 21
125.69322
  0
LINE
  8
Engraving
 62
   7
 39
0.400
  6
CONTINUOUS
 10
23.64905
 20
125.69322
 30
 0
 11
23.72977
 21
125.79413
  0
LINE
  8
Engraving
 62
   7
 39
0.400
  6
CONTINUOUS
 10
23.72977
 20
125.79413
 30
 0
 11
23.79031
 21
125.95557
  0
LINE
  8
Engraving
 62
   7
 39
0.400
  6
CONTINUOUS
 10
23.79031
 20
125.95557
 30
 0
 11
23.79031
 21
126.33902
  0
LINE
  8
Engraving
 62
   7
 39
0.400
  6
CONTINUOUS
 10
23.79031
 20
126.33902
 30
 0
 11
23.77013
 21
126.46010
  0
LINE
  8
Engraving
 62
   7
 39
0.400
  6
CONTINUOUS
 10
23.77013
 20
126.46010
 30
 0
 11
23.68941
 21
126.60137
  0
LINE
  8
Engraving
 62
   7
 39
0.400
  6
CONTINUOUS
 10
23.68941
 20
126.60137
 30
 0
 11
23.58850
 21
126.72246
  0
LINE
  8
Engraving
 62
   7
 39
0.400
  6
CONTINUOUS
 10
23.58850
 20
126.72246
 30
 0
 11
23.44724
 21
126.78300
  0
LINE
  8
Engraving
 62
   7
 39
0.400
  6
CONTINUOUS
 10
23.44724
 20
126.78300
 30
 0
 11
23.32615
 21
126.80318
  0
LINE
  8
Engraving
 62
   7
 39
0.400
  6
CONTINUOUS
 10
23.32615
 20
126.80318
 30
 0
 11
23.18488
 21
126.80318
  0
LINE
  8
Engraving
 62
   7
 39
0.400
  6
CONTINUOUS
 10
23.18488
 20
126.80318
 30
 0
 11
23.00325
 21
126.78300
  0
LINE
  8
Engraving
 62
   7
 39
0.400
  6
CONTINUOUS
 10
23.00325
 20
126.78300
 30
 0
 11
22.88217
 21
126.70228
  0
LINE
  8
Engraving
 62
   7
 39
0.400
  6
CONTINUOUS
 10
22.88217
 20
126.70228
 30
 0
 11
22.78126
 21
126.60137
  0
LINE
  8
Engraving
 62
   7
 39
0.400
  6
CONTINUOUS
 10
22.78126
 20
126.60137
 30
 0
 11
22.72072
 21
126.48028
  0
LINE
  8
Engraving
 62
   7
 39
0.400
  6
CONTINUOUS
 10
22.72072
 20
126.48028
 30
 0
 11
22.70054
 21
126.31883
  0
LINE
  8
Engraving
 62
   7
 39
0.400
  6
CONTINUOUS
 10
22.70054
 20
126.31883
 30
 0
 11
22.70054
 21
125.95557
  0
LINE
  8
Engraving
 62
   7
 39
0.400
  6
CONTINUOUS
 10
22.70054
 20
125.95557
 30
 0
 11
22.74090
 21
125.79413
  0
LINE
  8
Engraving
 62
   7
 39
0.400
  6
CONTINUOUS
 10
22.74090
 20
125.79413
 30
 0
 11
22.80144
 21
125.69322
  0
LINE
  8
Engraving
 62
   7
 39
0.400
  6
CONTINUOUS
 10
22.80144
 20
125.69322
 30
 0
 11
22.96289
 21
125.59231
  0
LINE
  8
Engraving
 62
   7
 39
0.400
  6
CONTINUOUS
 10
22.96289
 20
125.59231
 30
 0
 11
22.80144
 21
125.49141
  0
LINE
  8
Engraving
 62
   7
 39
0.400
  6
CONTINUOUS
 10
22.80144
 20
125.49141
 30
 0
 11
22.72072
 21
125.39050
  0
LINE
  8
Engraving
 62
   7
 39
0.400
  6
CONTINUOUS
 10
22.72072
 20
125.39050
 30
 0
 11
22.66017
 21
125.18869
  0
LINE
  8
Engraving
 62
   7
 39
0.400
  6
CONTINUOUS
 10
22.66017
 20
125.18869
 30
 0
 11
22.66017
 21
124.98688
  0
LINE
  8
Engraving
 62
   7
 39
0.400
  6
CONTINUOUS
 10
22.66017
 20
124.98688
 30
 0
 11
22.66017
 21
124.74471
  0
LINE
  8
Engraving
 62
   7
 39
0.400
  6
CONTINUOUS
 10
22.66017
 20
124.74471
 30
 0
 11
22.70054
 21
124.52272
  0
LINE
  8
Engraving
 62
   7
 39
0.400
  6
CONTINUOUS
 10
22.70054
 20
124.52272
 30
 0
 11
22.78126
 21
124.38145
  0
LINE
  8
Engraving
 62
   7
 39
0.400
  6
CONTINUOUS
 10
22.78126
 20
124.38145
 30
 0
 11
22.88217
 21
124.28054
  0
LINE
  8
Engraving
 62
   7
 39
0.400
  6
CONTINUOUS
 10
22.88217
 20
124.28054
 30
 0
 11
23.02343
 21
124.22000
  0
LINE
  8
Engraving
 62
   7
 39
0.400
  6
CONTINUOUS
 10
23.02343
 20
124.22000
 30
 0
 11
23.18488
 21
124.19982
  0
LINE
  8
Engraving
 62
   7
 39
0.400
  6
CONTINUOUS
 10
23.18488
 20
124.19982
 30
 0
 11
23.32615
 21
124.19982
  0
LINE
  8
Engraving
 62
   7
 39
0.400
  6
CONTINUOUS
 10
23.32615
 20
124.19982
 30
 0
 11
23.48760
 21
124.22000
  0
LINE
  8
Engraving
 62
   7
 39
0.400
  6
CONTINUOUS
 10
23.48760
 20
124.22000
 30
 0
 11
23.62887
 21
124.32091
  0
LINE
  8
Engraving
 62
   7
 39
0.400
  6
CONTINUOUS
 10
23.62887
 20
124.32091
 30
 0
 11
23.74995
 21
124.46217
  0
LINE
  8
Engraving
 62
   7
 39
0.400
  6
CONTINUOUS
 10
23.74995
 20
124.46217
 30
 0
 11
23.79031
 21
124.62362
  0
LINE
  8
Engraving
 62
   7
 39
0.400
  6
CONTINUOUS
 10
23.79031
 20
124.62362
 30
 0
 11
23.81050
 21
124.70435
  0
LINE
  8
Engraving
 62
   7
 39
0.400
  6
CONTINUOUS
 10
23.81050
 20
124.70435
 30
 0
 11
23.81050
 21
125.18869
  0
LINE
  8
Engraving
 62
   7
 39
0.400
  6
CONTINUOUS
 10
23.81050
 20
125.18869
 30
 0
 11
23.79031
 21
125.32996
  0
LINE
  8
Engraving
 62
   7
 39
0.400
  6
CONTINUOUS
 10
23.79031
 20
125.32996
 30
 0
 11
23.72977
 21
125.43087
  0
LINE
  8
Engraving
 62
   7
 39
0.400
  6
CONTINUOUS
 10
23.72977
 20
125.43087
 30
 0
 11
23.64905
 21
125.51159
  0
LINE
  8
Engraving
 62
   7
 39
0.400
  6
CONTINUOUS
 10
23.64905
 20
125.51159
 30
 0
 11
23.50778
 21
125.59231
  0
LINE
  8
Engraving
 62
   7
 39
0.400
  6
CONTINUOUS
 10
24.33535
 20
125.02724
 30
 0
 11
24.33535
 21
124.68417
  0
LINE
  8
Engraving
 62
   7
 39
0.400
  6
CONTINUOUS
 10
24.33535
 20
124.68417
 30
 0
 11
24.37572
 21
124.50254
  0
LINE
  8
Engraving
 62
   7
 39
0.400
  6
CONTINUOUS
 10
24.37572
 20
124.50254
 30
 0
 11
24.47662
 21
124.34109
  0
LINE
  8
Engraving
 62
   7
 39
0.400
  6
CONTINUOUS
 10
24.47662
 20
124.34109
 30
 0
 11
24.61789
 21
124.24018
  0
LINE
  8
Engraving
 62
   7
 39
0.400
  6
CONTINUOUS
 10
24.61789
 20
124.24018
 30
 0
 11
24.81970
 21
124.19982
  0
LINE
  8
Engraving
 62
   7
 39
0.400
  6
CONTINUOUS
 10
24.81970
 20
124.19982
 30
 0
 11
25.06187
 21
124.19982
  0
LINE
  8
Engraving
 62
   7
 39
0.400
  6
CONTINUOUS
 10
25.06187
 20
124.19982
 30
 0
 11
25.20314
 21
124.22000
  0
LINE
  8
Engraving
 62
   7
 39
0.400
  6
CONTINUOUS
 10
25.20314
 20
124.22000
 30
 0
 11
25.38477
 21
124.32091
  0
LINE
  8
Engraving
 62
   7
 39
0.400
  6
CONTINUOUS
 10
25.38477
 20
124.32091
 30
 0
 11
25.50586
 21
124.48235
  0
LINE
  8
Engraving
 62
   7
 39
0.400
  6
CONTINUOUS
 10
25.50586
 20
124.48235
 30
 0
 11
25.54622
 21
124.68417
  0
LINE
  8
Engraving
 62
   7
 39
0.400
  6
CONTINUOUS
 10
25.54622
 20
124.68417
 30
 0
 11
25.54622
 21
124.82543
  0
LINE
  8
Engraving
 62
   7
 39
0.400
  6
CONTINUOUS
 10
25.54622
 20
124.82543
 30
 0
 11
25.50586
 21
124.96670
  0
LINE
  8
Engraving
 62
   7
 39
0.400
  6
CONTINUOUS
 10
25.50586
 20
124.96670
 30
 0
 11
25.42513
 21
125.12815
  0
LINE
  8
Engraving
 62
   7
 39
0.400
  6
CONTINUOUS
 10
25.42513
 20
125.12815
 30
 0
 11
25.34441
 21
125.20887
  0
LINE
  8
Engraving
 62
   7
 39
0.400
  6
CONTINUOUS
 10
25.34441
 20
125.20887
 30
 0
 11
25.22332
 21
125.30978
  0
LINE
  8
Engraving
 62
   7
 39
0.400
  6
CONTINUOUS
 10
25.22332
 20
125.30978
 30
 0
 11
24.63807
 21
125.83449
  0
LINE
  8
Engraving
 62
   7
 39
0.400
  6
CONTINUOUS
 10
24.63807
 20
125.83449
 30
 0
 11
24.53717
 21
125.91521
  0
LINE
  8
Engraving
 62
   7
 39
0.400
  6
CONTINUOUS
 10
24.53717
 20
125.91521
 30
 0
 11
24.43626
 21
126.03630
  0
LINE
  8
Engraving
 62
   7
 39
0.400
  6
CONTINUOUS
 10
24.43626
 20
126.03630
 30
 0
 11
24.39590
 21
126.09684
  0
LINE
  8
Engraving
 62
   7
 39
0.400
  6
CONTINUOUS
 10
24.39590
 20
126.09684
 30
 0
 11
24.37572
 21
126.19775
  0
LINE
  8
Engraving
 62
   7
 39
0.400
  6
CONTINUOUS
 10
24.37572
 20
126.19775
 30
 0
 11
24.37572
 21
126.37938
  0
LINE
  8
Engraving
 62
   7
 39
0.400
  6
CONTINUOUS
 10
24.37572
 20
126.37938
 30
 0
 11
24.43626
 21
126.56101
  0
LINE
  8
Engraving
 62
   7
 39
0.400
  6
CONTINUOUS
 10
24.43626
 20
126.56101
 30
 0
 11
24.51698
 21
126.68209
  0
LINE
  8
Engraving
 62
   7
 39
0.400
  6
CONTINUOUS
 10
24.51698
 20
126.68209
 30
 0
 11
24.63807
 21
126.76282
  0
LINE
  8
Engraving
 62
   7
 39
0.400
  6
CONTINUOUS
 10
24.63807
 20
126.76282
 30
 0
 11
24.83988
 21
126.80318
  0
LINE
  8
Engraving
 62
   7
 39
0.400
  6
CONTINUOUS
 10
24.83988
 20
126.80318
 30
 0
 11
25.04169
 21
126.80318
  0
LINE
  8
Engraving
 62
   7
 39
0.400
  6
CONTINUOUS
 10
25.04169
 20
126.80318
 30
 0
 11
25.16278
 21
126.78300
  0
LINE
  8
Engraving
 62
   7
 39
0.400
  6
CONTINUOUS
 10
25.16278
 20
126.78300
 30
 0
 11
25.30405
 21
126.72246
  0
LINE
  8
Engraving
 62
   7
 39
0.400
  6
CONTINUOUS
 10
25.30405
 20
126.72246
 30
 0
 11
25.40495
 21
126.62155
  0
LINE
  8
Engraving
 62
   7
 39
0.400
  6
CONTINUOUS
 10
25.40495
 20
126.62155
 30
 0
 11
25.48568
 21
126.48028
  0
LINE
  8
Engraving
 62
   7
 39
0.400
  6
CONTINUOUS
 10
25.48568
 20
126.48028
 30
 0
 11
25.50586
 21
126.33902
  0
LINE
  8
Engraving
 62
   7
 39
0.400
  6
CONTINUOUS
 10
25.50586
 20
126.33902
 30
 0
 11
25.50586
 21
126.15739
  0
LINE
  8
Engraving
 62
   7
 39
0.400
  6
CONTINUOUS
 10
27.09959
 20
126.78300
 30
 0
 11
26.05017
 21
126.78300
  0
LINE
  8
Engraving
 62
   7
 39
0.400
  6
CONTINUOUS
 10
26.05017
 20
126.78300
 30
 0
 11
26.05017
 21
124.22000
  0
LINE
  8
Engraving
 62
   7
 39
0.400
  6
CONTINUOUS
 10
26.05017
 20
124.22000
 30
 0
 11
27.11977
 21
124.22000
  0
LINE
  8
Engraving
 62
   7
 39
0.400
  6
CONTINUOUS
 10
27.05923
 20
125.53177
 30
 0
 11
26.05017
 21
125.53177
  0
LINE
  8
Engraving
 62
   7
 39
0.400
  6
CONTINUOUS
 10
27.62417
 20
125.45105
 30
 0
 11
27.62417
 21
124.68417
  0
LINE
  8
Engraving
 62
   7
 39
0.400
  6
CONTINUOUS
 10
27.62417
 20
124.68417
 30
 0
 11
27.68472
 21
124.46217
  0
LINE
  8
Engraving
 62
   7
 39
0.400
  6
CONTINUOUS
 10
27.68472
 20
124.46217
 30
 0
 11
27.76544
 21
124.34109
  0
LINE
  8
Engraving
 62
   7
 39
0.400
  6
CONTINUOUS
 10
27.76544
 20
124.34109
 30
 0
 11
27.90671
 21
124.24018
  0
LINE
  8
Engraving
 62
   7
 39
0.400
  6
CONTINUOUS
 10
27.90671
 20
124.24018
 30
 0
 11
28.10852
 21
124.19982
  0
LINE
  8
Engraving
 62
   7
 39
0.400
  6
CONTINUOUS
 10
28.10852
 20
124.19982
 30
 0
 11
28.45160
 21
124.19982
  0
LINE
  8
Engraving
 62
   7
 39
0.400
  6
CONTINUOUS
 10
28.45160
 20
124.19982
 30
 0
 11
28.63323
 21
124.22000
  0
LINE
  8
Engraving
 62
   7
 39
0.400
  6
CONTINUOUS
 10
28.63323
 20
124.22000
 30
 0
 11
29.13776
 21
124.22000
  0
LINE
  8
Engraving
 62
   7
 39
0.400
  6
CONTINUOUS
 10
29.13776
 20
124.22000
 30
 0
 11
28.63323
 21
124.22000
  0
LINE
  8
Engraving
 62
   7
 39
0.400
  6
CONTINUOUS
 10
28.63323
 20
124.22000
 30
 0
 11
28.77450
 21
124.32091
  0
LINE
  8
Engraving
 62
   7
 39
0.400
  6
CONTINUOUS
 10
28.77450
 20
124.32091
 30
 0
 11
28.89558
 21
124.50254
  0
LINE
  8
Engraving
 62
   7
 39
0.400
  6
CONTINUOUS
 10
28.89558
 20
124.50254
 30
 0
 11
28.93594
 21
124.68417
  0
LINE
  8
Engraving
 62
   7
 39
0.400
  6
CONTINUOUS
 10
28.93594
 20
124.68417
 30
 0
 11
28.93594
 21
126.31883
  0
LINE
  8
Engraving
 62
   7
 39
0.400
  6
CONTINUOUS
 10
28.93594
 20
126.31883
 30
 0
 11
28.89558
 21
126.52065
  0
LINE
  8
Engraving
 62
   7
 39
0.400
  6
CONTINUOUS
 10
28.89558
 20
126.52065
 30
 0
 11
28.81486
 21
126.64173
  0
LINE
  8
Engraving
 62
   7
 39
0.400
  6
CONTINUOUS
 10
28.81486
 20
126.64173
 30
 0
 11
28.65341
 21
126.76282
  0
LINE
  8
Engraving
 62
   7
 39
0.400
  6
CONTINUOUS
 10
28.65341
 20
126.76282
 30
 0
 11
28.45160
 21
126.80318
  0
LINE
  8
Engraving
 62
   7
 39
0.400
  6
CONTINUOUS
 10
28.45160
 20
126.80318
 30
 0
 11
28.10852
 21
126.80318
  0
LINE
  8
Engraving
 62
   7
 39
0.400
  6
CONTINUOUS
 10
28.10852
 20
126.80318
 30
 0
 11
27.92689
 21
126.76282
  0
LINE
  8
Engraving
 62
   7
 39
0.400
  6
CONTINUOUS
 10
27.92689
 20
126.76282
 30
 0
 11
27.78562
 21
126.68209
  0
LINE
  8
Engraving
 62
   7
 39
0.400
  6
CONTINUOUS
 10
27.78562
 20
126.68209
 30
 0
 11
27.68472
 21
126.56101
  0
LINE
  8
Engraving
 62
   7
 39
0.400
  6
CONTINUOUS
 10
27.68472
 20
126.56101
 30
 0
 11
27.62417
 21
126.31883
  0
LINE
  8
Engraving
 62
   7
 39
0.400
  6
CONTINUOUS
 10
27.62417
 20
126.31883
 30
 0
 11
27.62417
 21
125.45105
  0
LINE
  8
Engraving
 62
   7
 39
0.400
  6
CONTINUOUS
 10
22.98239
 20
4.28200
 30
 0
 11
22.25587
 21
2.92987
  0
LINE
  8
Engraving
 62
   7
 39
0.400
  6
CONTINUOUS
 10
22.25587
 20
2.92987
 30
 0
 11
21.52935
 21
4.28200
  0
LINE
  8
Engraving
 62
   7
 39
0.400
  6
CONTINUOUS
 10
22.25587
 20
2.92987
 30
 0
 11
22.25587
 21
1.71900
  0
LINE
  8
Engraving
 62
   7
 39
0.400
  6
CONTINUOUS
 10
23.48717
 20
2.62715
 30
 0
 11
23.48717
 21
2.14280
  0
LINE
  8
Engraving
 62
   7
 39
0.400
  6
CONTINUOUS
 10
23.48717
 20
2.14280
 30
 0
 11
23.52754
 21
1.96117
  0
LINE
  8
Engraving
 62
   7
 39
0.400
  6
CONTINUOUS
 10
23.52754
 20
1.96117
 30
 0
 11
23.62844
 21
1.81991
  0
LINE
  8
Engraving
 62
   7
 39
0.400
  6
CONTINUOUS
 10
23.62844
 20
1.81991
 30
 0
 11
23.81007
 21
1.71900
  0
LINE
  8
Engraving
 62
   7
 39
0.400
  6
CONTINUOUS
 10
23.81007
 20
1.71900
 30
 0
 11
23.95134
 21
1.69882
  0
LINE
  8
Engraving
 62
   7
 39
0.400
  6
CONTINUOUS
 10
23.95134
 20
1.69882
 30
 0
 11
24.13297
 21
1.69882
  0
LINE
  8
Engraving
 62
   7
 39
0.400
  6
CONTINUOUS
 10
24.13297
 20
1.69882
 30
 0
 11
24.29442
 21
1.73918
  0
LINE
  8
Engraving
 62
   7
 39
0.400
  6
CONTINUOUS
 10
24.29442
 20
1.73918
 30
 0
 11
24.41550
 21
1.84009
  0
LINE
  8
Engraving
 62
   7
 39
0.400
  6
CONTINUOUS
 10
24.41550
 20
1.84009
 30
 0
 11
24.51641
 21
2.00154
  0
LINE
  8
Engraving
 62
   7
 39
0.400
  6
CONTINUOUS
 10
24.51641
 20
2.00154
 30
 0
 11
24.55677
 21
2.14280
  0
LINE
  8
Engraving
 62
   7
 39
0.400
  6
CONTINUOUS
 10
24.55677
 20
2.14280
 30
 0
 11
24.55677
 21
3.07113
  0
LINE
  8
Engraving
 62
   7
 39
0.400
  6
CONTINUOUS
 10
24.55677
 20
3.07113
 30
 0
 11
24.49623
 21
3.29313
  0
LINE
  8
Engraving
 62
   7
 39
0.400
  6
CONTINUOUS
 10
24.49623
 20
3.29313
 30
 0
 11
24.39532
 21
3.41421
  0
LINE
  8
Engraving
 62
   7
 39
0.400
  6
CONTINUOUS
 10
24.39532
 20
3.41421
 30
 0
 11
24.25406
 21
3.51512
  0
LINE
  8
Engraving
 62
   7
 39
0.400
  6
CONTINUOUS
 10
24.25406
 20
3.51512
 30
 0
 11
24.09261
 21
3.53530
  0
LINE
  8
Engraving
 62
   7
 39
0.400
  6
CONTINUOUS
 10
24.09261
 20
3.53530
 30
 0
 11
23.95134
 21
3.53530
  0
LINE
  8
Engraving
 62
   7
 39
0.400
  6
CONTINUOUS
 10
23.95134
 20
3.53530
 30
 0
 11
23.74953
 21
3.49494
  0
LINE
  8
Engraving
 62
   7
 39
0.400
  6
CONTINUOUS
 10
23.74953
 20
3.49494
 30
 0
 11
23.60826
 21
3.39403
  0
LINE
  8
Engraving
 62
   7
 39
0.400
  6
CONTINUOUS
 10
23.60826
 20
3.39403
 30
 0
 11
23.52754
 21
3.27294
  0
LINE
  8
Engraving
 62
   7
 39
0.400
  6
CONTINUOUS
 10
23.52754
 20
3.27294
 30
 0
 11
23.48717
 21
3.07113
  0
LINE
  8
Engraving
 62
   7
 39
0.400
  6
CONTINUOUS
 10
23.48717
 20
3.07113
 30
 0
 11
23.48717
 21
2.62715
  0
LINE
  8
Engraving
 62
   7
 39
0.400
  6
CONTINUOUS
 10
25.06217
 20
1.71900
 30
 0
 11
25.06217
 21
4.28200
  0
LINE
  8
Engraving
 62
   7
 39
0.400
  6
CONTINUOUS
 10
25.06217
 20
4.28200
 30
 0
 11
25.24380
 21
4.28200
  0
LINE
  8
Engraving
 62
   7
 39
0.400
  6
CONTINUOUS
 10
25.24380
 20
4.28200
 30
 0
 11
25.99050
 21
1.71900
  0
LINE
  8
Engraving
 62
   7
 39
0.400
  6
CONTINUOUS
 10
25.99050
 20
1.71900
 30
 0
 11
26.71702
 21
4.28200
  0
LINE
  8
Engraving
 62
   7
 39
0.400
  6
CONTINUOUS
 10
26.71702
 20
4.28200
 30
 0
 11
26.89865
 21
4.28200
  0
LINE
  8
Engraving
 62
   7
 39
0.400
  6
CONTINUOUS
 10
26.89865
 20
4.28200
 30
 0
 11
26.89865
 21
1.71900
  0
LINE
  8
Engraving
 62
   7
 39
0.400
  6
CONTINUOUS
 10
27.40317
 20
2.62715
 30
 0
 11
27.40317
 21
2.14280
  0
LINE
  8
Engraving
 62
   7
 39
0.400
  6
CONTINUOUS
 10
27.40317
 20
2.14280
 30
 0
 11
27.44354
 21
1.96117
  0
LINE
  8
Engraving
 62
   7
 39
0.400
  6
CONTINUOUS
 10
27.44354
 20
1.96117
 30
 0
 11
27.54444
 21
1.81991
  0
LINE
  8
Engraving
 62
   7
 39
0.400
  6
CONTINUOUS
 10
27.54444
 20
1.81991
 30
 0
 11
27.72607
 21
1.71900
  0
LINE
  8
Engraving
 62
   7
 39
0.400
  6
CONTINUOUS
 10
27.72607
 20
1.71900
 30
 0
 11
27.86734
 21
1.69882
  0
LINE
  8
Engraving
 62
   7
 39
0.400
  6
CONTINUOUS
 10
27.86734
 20
1.69882
 30
 0
 11
28.04897
 21
1.69882
  0
LINE
  8
Engraving
 62
   7
 39
0.400
  6
CONTINUOUS
 10
28.04897
 20
1.69882
 30
 0
 11
28.21042
 21
1.73918
  0
LINE
  8
Engraving
 62
   7
 39
0.400
  6
CONTINUOUS
 10
28.21042
 20
1.73918
 30
 0
 11
28.33150
 21
1.84009
  0
LINE
  8
Engraving
 62
   7
 39
0.400
  6
CONTINUOUS
 10
28.33150
 20
1.84009
 30
 0
 11
28.43241
 21
2.00154
  0
LINE
  8
Engraving
 62
   7
 39
0.400
  6
CONTINUOUS
 10
28.43241
 20
2.00154
 30
 0
 11
28.47277
 21
2.14280
  0
LINE
  8
Engraving
 62
   7
 39
0.400
  6
CONTINUOUS
 10
28.47277
 20
2.14280
 30
 0
 11
28.47277
 21
3.07113
  0
LINE
  8
Engraving
 62
   7
 39
0.400
  6
CONTINUOUS
 10
28.47277
 20
3.07113
 30
 0
 11
28.41223
 21
3.29313
  0
LINE
  8
Engraving
 62
   7
 39
0.400
  6
CONTINUOUS
 10
28.41223
 20
3.29313
 30
 0
 11
28.31132
 21
3.41421
  0
LINE
  8
Engraving
 62
   7
 39
0.400
  6
CONTINUOUS
 10
28.31132
 20
3.41421
 30
 0
 11
28.17006
 21
3.51512
  0
LINE
  8
Engraving
 62
   7
 39
0.400
  6
CONTINUOUS
 10
28.17006
 20
3.51512
 30
 0
 11
28.00861
 21
3.53530
  0
LINE
  8
Engraving
 62
   7
 39
0.400
  6
CONTINUOUS
 10
28.00861
 20
3.53530
 30
 0
 11
27.86734
 21
3.53530
  0
LINE
  8
Engraving
 62
   7
 39
0.400
  6
CONTINUOUS
 10
27.86734
 20
3.53530
 30
 0
 11
27.66553
 21
3.49494
  0
LINE
  8
Engraving
 62
   7
 39
0.400
  6
CONTINUOUS
 10
27.66553
 20
3.49494
 30
 0
 11
27.52426
 21
3.39403
  0
LINE
  8
Engraving
 62
   7
 39
0.400
  6
CONTINUOUS
 10
27.52426
 20
3.39403
 30
 0
 11
27.44354
 21
3.27294
  0
LINE
  8
Engraving
 62
   7
 39
0.400
  6
CONTINUOUS
 10
27.44354
 20
3.27294
 30
 0
 11
27.40317
 21
3.07113
  0
LINE
  8
Engraving
 62
   7
 39
0.400
  6
CONTINUOUS
 10
27.40317
 20
3.07113
 30
 0
 11
27.40317
 21
2.62715
  0
CIRCLE
  8
Contour
 62
   7
 39
0.100
  6
CONTINUOUS
 10
7.50000
 20
125.50000
 30
 0
 40
1.50000
  0
CIRCLE
  8
Contour
 62
   7
 39
0.100
  6
CONTINUOUS
 10
7.50000
 20
3.00000
 30
 0
 40
1.50000
  0
CIRCLE
  8
Contour
 62
   7
 39
0.100
  6
CONTINUOUS
 10
7.77000
 20
24.52000
 30
 0
 40
3.00000
  0
CIRCLE
  8
Contour
 62
   7
 39
0.100
  6
CONTINUOUS
 10
22.38000
 20
24.52000
 30
 0
 40
3.00000
  0
CIRCLE
  8
Contour
 62
   7
 39
0.100
  6
CONTINUOUS
 10
22.38000
 20
38.49000
 30
 0
 40
3.00000
  0
CIRCLE
  8
Contour
 62
   7
 39
0.100
  6
CONTINUOUS
 10
7.77000
 20
46.11000
 30
 0
 40
3.00000
  0
CIRCLE
  8
Contour
 62
   7
 39
0.100
  6
CONTINUOUS
 10
22.38000
 20
53.73000
 30
 0
 40
3.00000
  0
CIRCLE
  8
Contour
 62
   7
 39
0.100
  6
CONTINUOUS
 10
7.77000
 20
61.35000
 30
 0
 40
3.00000
  0
CIRCLE
  8
Contour
 62
   7
 39
0.100
  6
CONTINUOUS
 10
22.38000
 20
68.97000
 30
 0
 40
3.00000
  0
CIRCLE
  8
Contour
 62
   7
 39
0.100
  6
CONTINUOUS
 10
7.77000
 20
76.59000
 30
 0
 40
3.00000
  0
CIRCLE
  8
Contour
 62
   7
 39
0.100
  6
CONTINUOUS
 10
22.38000
 20
84.21000
 30
 0
 40
3.00000
  0
CIRCLE
  8
Contour
 62
   7
 39
0.100
  6
CONTINUOUS
 10
7.77000
 20
91.83000
 30
 0
 40
3.00000
  0
CIRCLE
  8
Contour
 62
   7
 39
0.100
  6
CONTINUOUS
 10
22.38000
 20
91.83000
 30
 0
 40
1.75000
  0
CIRCLE
  8
Contour
 62
   7
 39
0.100
  6
CONTINUOUS
 10
22.38000
 20
76.59000
 30
 0
 40
1.75000
  0
CIRCLE
  8
Contour
 62
   7
 39
0.100
  6
CONTINUOUS
 10
7.77000
 20
84.21000
 30
 0
 40
1.75000
  0
CIRCLE
  8
Contour
 62
   7
 39
0.100
  6
CONTINUOUS
 10
7.13000
 20
68.97000
 30
 0
 40
1.75000
  0
CIRCLE
  8
Contour
 62
   7
 39
0.100
  6
CONTINUOUS
 10
22.38000
 20
61.35000
 30
 0
 40
1.75000
  0
CIRCLE
  8
Contour
 62
   7
 39
0.100
  6
CONTINUOUS
 10
7.77000
 20
53.73000
 30
 0
 40
1.75000
  0
CIRCLE
  8
Contour
 62
   7
 39
0.100
  6
CONTINUOUS
 10
22.38000
 20
46.11000
 30
 0
 40
1.75000
  0
CIRCLE
  8
Contour
 62
   7
 39
0.100
  6
CONTINUOUS
 10
7.77000
 20
38.49000
 30
 0
 40
1.75000
  0
ENDSEC
  0
EOF
