G04 #@! TF.GenerationSoftware,KiCad,Pcbnew,5.1.4-e60b266~84~ubuntu18.04.1*
G04 #@! TF.CreationDate,2019-10-20T18:50:50+01:00*
G04 #@! TF.ProjectId,triggerseq,74726967-6765-4727-9365-712e6b696361,rev?*
G04 #@! TF.SameCoordinates,Original*
G04 #@! TF.FileFunction,Soldermask,Bot*
G04 #@! TF.FilePolarity,Negative*
%FSLAX46Y46*%
G04 Gerber Fmt 4.6, Leading zero omitted, Abs format (unit mm)*
G04 Created by KiCad (PCBNEW 5.1.4-e60b266~84~ubuntu18.04.1) date 2019-10-20 18:50:50*
%MOMM*%
%LPD*%
G04 APERTURE LIST*
%ADD10C,0.100000*%
G04 APERTURE END LIST*
D10*
G36*
X168939279Y-116410009D02*
G01*
X169009127Y-116438941D01*
X169107908Y-116479857D01*
X169172280Y-116522869D01*
X169259673Y-116581263D01*
X169388737Y-116710327D01*
X169430014Y-116772103D01*
X169490143Y-116862092D01*
X169524070Y-116944000D01*
X169559991Y-117030721D01*
X169595600Y-117209738D01*
X169595600Y-117392262D01*
X169559991Y-117571279D01*
X169541037Y-117617038D01*
X169490143Y-117739908D01*
X169490142Y-117739909D01*
X169388737Y-117891673D01*
X169259673Y-118020737D01*
X169227696Y-118042103D01*
X169107908Y-118122143D01*
X169009127Y-118163059D01*
X168939279Y-118191991D01*
X168760262Y-118227600D01*
X168577738Y-118227600D01*
X168398721Y-118191991D01*
X168328873Y-118163059D01*
X168230092Y-118122143D01*
X168110304Y-118042103D01*
X168078327Y-118020737D01*
X167949263Y-117891673D01*
X167847858Y-117739909D01*
X167847857Y-117739908D01*
X167796963Y-117617038D01*
X167778009Y-117571279D01*
X167742400Y-117392262D01*
X167742400Y-117209738D01*
X167778009Y-117030721D01*
X167813930Y-116944000D01*
X167847857Y-116862092D01*
X167907986Y-116772103D01*
X167949263Y-116710327D01*
X168078327Y-116581263D01*
X168165720Y-116522869D01*
X168230092Y-116479857D01*
X168328873Y-116438941D01*
X168398721Y-116410009D01*
X168577738Y-116374400D01*
X168760262Y-116374400D01*
X168939279Y-116410009D01*
X168939279Y-116410009D01*
G37*
G36*
X153699279Y-116410009D02*
G01*
X153769127Y-116438941D01*
X153867908Y-116479857D01*
X153932280Y-116522869D01*
X154019673Y-116581263D01*
X154148737Y-116710327D01*
X154190014Y-116772103D01*
X154250143Y-116862092D01*
X154284070Y-116944000D01*
X154319991Y-117030721D01*
X154355600Y-117209738D01*
X154355600Y-117392262D01*
X154319991Y-117571279D01*
X154301037Y-117617038D01*
X154250143Y-117739908D01*
X154250142Y-117739909D01*
X154148737Y-117891673D01*
X154019673Y-118020737D01*
X153987696Y-118042103D01*
X153867908Y-118122143D01*
X153769127Y-118163059D01*
X153699279Y-118191991D01*
X153520262Y-118227600D01*
X153337738Y-118227600D01*
X153158721Y-118191991D01*
X153088873Y-118163059D01*
X152990092Y-118122143D01*
X152870304Y-118042103D01*
X152838327Y-118020737D01*
X152709263Y-117891673D01*
X152607858Y-117739909D01*
X152607857Y-117739908D01*
X152556963Y-117617038D01*
X152538009Y-117571279D01*
X152502400Y-117392262D01*
X152502400Y-117209738D01*
X152538009Y-117030721D01*
X152573930Y-116944000D01*
X152607857Y-116862092D01*
X152667986Y-116772103D01*
X152709263Y-116710327D01*
X152838327Y-116581263D01*
X152925720Y-116522869D01*
X152990092Y-116479857D01*
X153088873Y-116438941D01*
X153158721Y-116410009D01*
X153337738Y-116374400D01*
X153520262Y-116374400D01*
X153699279Y-116410009D01*
X153699279Y-116410009D01*
G37*
G36*
X138459279Y-116410009D02*
G01*
X138529127Y-116438941D01*
X138627908Y-116479857D01*
X138692280Y-116522869D01*
X138779673Y-116581263D01*
X138908737Y-116710327D01*
X138950014Y-116772103D01*
X139010143Y-116862092D01*
X139044070Y-116944000D01*
X139079991Y-117030721D01*
X139115600Y-117209738D01*
X139115600Y-117392262D01*
X139079991Y-117571279D01*
X139061037Y-117617038D01*
X139010143Y-117739908D01*
X139010142Y-117739909D01*
X138908737Y-117891673D01*
X138779673Y-118020737D01*
X138747696Y-118042103D01*
X138627908Y-118122143D01*
X138529127Y-118163059D01*
X138459279Y-118191991D01*
X138280262Y-118227600D01*
X138097738Y-118227600D01*
X137918721Y-118191991D01*
X137848873Y-118163059D01*
X137750092Y-118122143D01*
X137630304Y-118042103D01*
X137598327Y-118020737D01*
X137469263Y-117891673D01*
X137367858Y-117739909D01*
X137367857Y-117739908D01*
X137316963Y-117617038D01*
X137298009Y-117571279D01*
X137262400Y-117392262D01*
X137262400Y-117209738D01*
X137298009Y-117030721D01*
X137333930Y-116944000D01*
X137367857Y-116862092D01*
X137427986Y-116772103D01*
X137469263Y-116710327D01*
X137598327Y-116581263D01*
X137685720Y-116522869D01*
X137750092Y-116479857D01*
X137848873Y-116438941D01*
X137918721Y-116410009D01*
X138097738Y-116374400D01*
X138280262Y-116374400D01*
X138459279Y-116410009D01*
X138459279Y-116410009D01*
G37*
G36*
X123219279Y-116410009D02*
G01*
X123289127Y-116438941D01*
X123387908Y-116479857D01*
X123452280Y-116522869D01*
X123539673Y-116581263D01*
X123668737Y-116710327D01*
X123710014Y-116772103D01*
X123770143Y-116862092D01*
X123804070Y-116944000D01*
X123839991Y-117030721D01*
X123875600Y-117209738D01*
X123875600Y-117392262D01*
X123839991Y-117571279D01*
X123821037Y-117617038D01*
X123770143Y-117739908D01*
X123770142Y-117739909D01*
X123668737Y-117891673D01*
X123539673Y-118020737D01*
X123507696Y-118042103D01*
X123387908Y-118122143D01*
X123289127Y-118163059D01*
X123219279Y-118191991D01*
X123040262Y-118227600D01*
X122857738Y-118227600D01*
X122678721Y-118191991D01*
X122608873Y-118163059D01*
X122510092Y-118122143D01*
X122390304Y-118042103D01*
X122358327Y-118020737D01*
X122229263Y-117891673D01*
X122127858Y-117739909D01*
X122127857Y-117739908D01*
X122076963Y-117617038D01*
X122058009Y-117571279D01*
X122022400Y-117392262D01*
X122022400Y-117209738D01*
X122058009Y-117030721D01*
X122093930Y-116944000D01*
X122127857Y-116862092D01*
X122187986Y-116772103D01*
X122229263Y-116710327D01*
X122358327Y-116581263D01*
X122445720Y-116522869D01*
X122510092Y-116479857D01*
X122608873Y-116438941D01*
X122678721Y-116410009D01*
X122857738Y-116374400D01*
X123040262Y-116374400D01*
X123219279Y-116410009D01*
X123219279Y-116410009D01*
G37*
G36*
X162537674Y-116634465D02*
G01*
X162575367Y-116645899D01*
X162610103Y-116664466D01*
X162640548Y-116689452D01*
X162665534Y-116719897D01*
X162684101Y-116754633D01*
X162695535Y-116792326D01*
X162700000Y-116837661D01*
X162700000Y-117924339D01*
X162695535Y-117969674D01*
X162684101Y-118007367D01*
X162665534Y-118042103D01*
X162640548Y-118072548D01*
X162610103Y-118097534D01*
X162575367Y-118116101D01*
X162537674Y-118127535D01*
X162492339Y-118132000D01*
X161655661Y-118132000D01*
X161610326Y-118127535D01*
X161572633Y-118116101D01*
X161537897Y-118097534D01*
X161507452Y-118072548D01*
X161482466Y-118042103D01*
X161463899Y-118007367D01*
X161452465Y-117969674D01*
X161448000Y-117924339D01*
X161448000Y-116837661D01*
X161452465Y-116792326D01*
X161463899Y-116754633D01*
X161482466Y-116719897D01*
X161507452Y-116689452D01*
X161537897Y-116664466D01*
X161572633Y-116645899D01*
X161610326Y-116634465D01*
X161655661Y-116630000D01*
X162492339Y-116630000D01*
X162537674Y-116634465D01*
X162537674Y-116634465D01*
G37*
G36*
X160487674Y-116634465D02*
G01*
X160525367Y-116645899D01*
X160560103Y-116664466D01*
X160590548Y-116689452D01*
X160615534Y-116719897D01*
X160634101Y-116754633D01*
X160645535Y-116792326D01*
X160650000Y-116837661D01*
X160650000Y-117924339D01*
X160645535Y-117969674D01*
X160634101Y-118007367D01*
X160615534Y-118042103D01*
X160590548Y-118072548D01*
X160560103Y-118097534D01*
X160525367Y-118116101D01*
X160487674Y-118127535D01*
X160442339Y-118132000D01*
X159605661Y-118132000D01*
X159560326Y-118127535D01*
X159522633Y-118116101D01*
X159487897Y-118097534D01*
X159457452Y-118072548D01*
X159432466Y-118042103D01*
X159413899Y-118007367D01*
X159402465Y-117969674D01*
X159398000Y-117924339D01*
X159398000Y-116837661D01*
X159402465Y-116792326D01*
X159413899Y-116754633D01*
X159432466Y-116719897D01*
X159457452Y-116689452D01*
X159487897Y-116664466D01*
X159522633Y-116645899D01*
X159560326Y-116634465D01*
X159605661Y-116630000D01*
X160442339Y-116630000D01*
X160487674Y-116634465D01*
X160487674Y-116634465D01*
G37*
G36*
X193374674Y-116490465D02*
G01*
X193412367Y-116501899D01*
X193447103Y-116520466D01*
X193477548Y-116545452D01*
X193502534Y-116575897D01*
X193521101Y-116610633D01*
X193532535Y-116648326D01*
X193537000Y-116693661D01*
X193537000Y-117530339D01*
X193532535Y-117575674D01*
X193521101Y-117613367D01*
X193502534Y-117648103D01*
X193477548Y-117678548D01*
X193447103Y-117703534D01*
X193412367Y-117722101D01*
X193374674Y-117733535D01*
X193329339Y-117738000D01*
X192242661Y-117738000D01*
X192197326Y-117733535D01*
X192159633Y-117722101D01*
X192124897Y-117703534D01*
X192094452Y-117678548D01*
X192069466Y-117648103D01*
X192050899Y-117613367D01*
X192039465Y-117575674D01*
X192035000Y-117530339D01*
X192035000Y-116693661D01*
X192039465Y-116648326D01*
X192050899Y-116610633D01*
X192069466Y-116575897D01*
X192094452Y-116545452D01*
X192124897Y-116520466D01*
X192159633Y-116501899D01*
X192197326Y-116490465D01*
X192242661Y-116486000D01*
X193329339Y-116486000D01*
X193374674Y-116490465D01*
X193374674Y-116490465D01*
G37*
G36*
X190834674Y-116481465D02*
G01*
X190872367Y-116492899D01*
X190907103Y-116511466D01*
X190937548Y-116536452D01*
X190962534Y-116566897D01*
X190981101Y-116601633D01*
X190992535Y-116639326D01*
X190997000Y-116684661D01*
X190997000Y-117521339D01*
X190992535Y-117566674D01*
X190981101Y-117604367D01*
X190962534Y-117639103D01*
X190937548Y-117669548D01*
X190907103Y-117694534D01*
X190872367Y-117713101D01*
X190834674Y-117724535D01*
X190789339Y-117729000D01*
X189702661Y-117729000D01*
X189657326Y-117724535D01*
X189619633Y-117713101D01*
X189584897Y-117694534D01*
X189554452Y-117669548D01*
X189529466Y-117639103D01*
X189510899Y-117604367D01*
X189499465Y-117566674D01*
X189495000Y-117521339D01*
X189495000Y-116684661D01*
X189499465Y-116639326D01*
X189510899Y-116601633D01*
X189529466Y-116566897D01*
X189554452Y-116536452D01*
X189584897Y-116511466D01*
X189619633Y-116492899D01*
X189657326Y-116481465D01*
X189702661Y-116477000D01*
X190789339Y-116477000D01*
X190834674Y-116481465D01*
X190834674Y-116481465D01*
G37*
G36*
X180420674Y-116481465D02*
G01*
X180458367Y-116492899D01*
X180493103Y-116511466D01*
X180523548Y-116536452D01*
X180548534Y-116566897D01*
X180567101Y-116601633D01*
X180578535Y-116639326D01*
X180583000Y-116684661D01*
X180583000Y-117521339D01*
X180578535Y-117566674D01*
X180567101Y-117604367D01*
X180548534Y-117639103D01*
X180523548Y-117669548D01*
X180493103Y-117694534D01*
X180458367Y-117713101D01*
X180420674Y-117724535D01*
X180375339Y-117729000D01*
X179288661Y-117729000D01*
X179243326Y-117724535D01*
X179205633Y-117713101D01*
X179170897Y-117694534D01*
X179140452Y-117669548D01*
X179115466Y-117639103D01*
X179096899Y-117604367D01*
X179085465Y-117566674D01*
X179081000Y-117521339D01*
X179081000Y-116684661D01*
X179085465Y-116639326D01*
X179096899Y-116601633D01*
X179115466Y-116566897D01*
X179140452Y-116536452D01*
X179170897Y-116511466D01*
X179205633Y-116492899D01*
X179243326Y-116481465D01*
X179288661Y-116477000D01*
X180375339Y-116477000D01*
X180420674Y-116481465D01*
X180420674Y-116481465D01*
G37*
G36*
X145247674Y-115999465D02*
G01*
X145285367Y-116010899D01*
X145320103Y-116029466D01*
X145350548Y-116054452D01*
X145375534Y-116084897D01*
X145394101Y-116119633D01*
X145405535Y-116157326D01*
X145410000Y-116202661D01*
X145410000Y-117289339D01*
X145405535Y-117334674D01*
X145394101Y-117372367D01*
X145375534Y-117407103D01*
X145350548Y-117437548D01*
X145320103Y-117462534D01*
X145285367Y-117481101D01*
X145247674Y-117492535D01*
X145202339Y-117497000D01*
X144365661Y-117497000D01*
X144320326Y-117492535D01*
X144282633Y-117481101D01*
X144247897Y-117462534D01*
X144217452Y-117437548D01*
X144192466Y-117407103D01*
X144173899Y-117372367D01*
X144162465Y-117334674D01*
X144158000Y-117289339D01*
X144158000Y-116202661D01*
X144162465Y-116157326D01*
X144173899Y-116119633D01*
X144192466Y-116084897D01*
X144217452Y-116054452D01*
X144247897Y-116029466D01*
X144282633Y-116010899D01*
X144320326Y-115999465D01*
X144365661Y-115995000D01*
X145202339Y-115995000D01*
X145247674Y-115999465D01*
X145247674Y-115999465D01*
G37*
G36*
X147297674Y-115999465D02*
G01*
X147335367Y-116010899D01*
X147370103Y-116029466D01*
X147400548Y-116054452D01*
X147425534Y-116084897D01*
X147444101Y-116119633D01*
X147455535Y-116157326D01*
X147460000Y-116202661D01*
X147460000Y-117289339D01*
X147455535Y-117334674D01*
X147444101Y-117372367D01*
X147425534Y-117407103D01*
X147400548Y-117437548D01*
X147370103Y-117462534D01*
X147335367Y-117481101D01*
X147297674Y-117492535D01*
X147252339Y-117497000D01*
X146415661Y-117497000D01*
X146370326Y-117492535D01*
X146332633Y-117481101D01*
X146297897Y-117462534D01*
X146267452Y-117437548D01*
X146242466Y-117407103D01*
X146223899Y-117372367D01*
X146212465Y-117334674D01*
X146208000Y-117289339D01*
X146208000Y-116202661D01*
X146212465Y-116157326D01*
X146223899Y-116119633D01*
X146242466Y-116084897D01*
X146267452Y-116054452D01*
X146297897Y-116029466D01*
X146332633Y-116010899D01*
X146370326Y-115999465D01*
X146415661Y-115995000D01*
X147252339Y-115995000D01*
X147297674Y-115999465D01*
X147297674Y-115999465D01*
G37*
G36*
X186640473Y-115911938D02*
G01*
X186768049Y-115964782D01*
X186882859Y-116041495D01*
X186980505Y-116139141D01*
X187057218Y-116253951D01*
X187110062Y-116381527D01*
X187137000Y-116516956D01*
X187137000Y-116655044D01*
X187110062Y-116790473D01*
X187057218Y-116918049D01*
X186980505Y-117032859D01*
X186882859Y-117130505D01*
X186768049Y-117207218D01*
X186640473Y-117260062D01*
X186505044Y-117287000D01*
X186366956Y-117287000D01*
X186231527Y-117260062D01*
X186103951Y-117207218D01*
X185989141Y-117130505D01*
X185891495Y-117032859D01*
X185814782Y-116918049D01*
X185761938Y-116790473D01*
X185735000Y-116655044D01*
X185735000Y-116516956D01*
X185761938Y-116381527D01*
X185814782Y-116253951D01*
X185891495Y-116139141D01*
X185989141Y-116041495D01*
X186103951Y-115964782D01*
X186231527Y-115911938D01*
X186366956Y-115885000D01*
X186505044Y-115885000D01*
X186640473Y-115911938D01*
X186640473Y-115911938D01*
G37*
G36*
X185370473Y-114641938D02*
G01*
X185498049Y-114694782D01*
X185612859Y-114771495D01*
X185710505Y-114869141D01*
X185787218Y-114983951D01*
X185840062Y-115111527D01*
X185867000Y-115246956D01*
X185867000Y-115385044D01*
X185840062Y-115520473D01*
X185787218Y-115648049D01*
X185710505Y-115762859D01*
X185612859Y-115860505D01*
X185498049Y-115937218D01*
X185370473Y-115990062D01*
X185235044Y-116017000D01*
X185096956Y-116017000D01*
X184961527Y-115990062D01*
X184833951Y-115937218D01*
X184791444Y-115908816D01*
X184769833Y-115897265D01*
X184746384Y-115890152D01*
X184721998Y-115887750D01*
X184697612Y-115890152D01*
X184674163Y-115897265D01*
X184652553Y-115908817D01*
X184633611Y-115924362D01*
X184618066Y-115943304D01*
X184606515Y-115964915D01*
X184599402Y-115988364D01*
X184597000Y-116012749D01*
X184597000Y-117287000D01*
X183195000Y-117287000D01*
X183195000Y-115885000D01*
X184469251Y-115885000D01*
X184493637Y-115882598D01*
X184517086Y-115875485D01*
X184538697Y-115863934D01*
X184557639Y-115848389D01*
X184573184Y-115829447D01*
X184584735Y-115807836D01*
X184591848Y-115784387D01*
X184594250Y-115760001D01*
X184591848Y-115735615D01*
X184584735Y-115712166D01*
X184573184Y-115690556D01*
X184544782Y-115648049D01*
X184491938Y-115520473D01*
X184465000Y-115385044D01*
X184465000Y-115246956D01*
X184491938Y-115111527D01*
X184544782Y-114983951D01*
X184621495Y-114869141D01*
X184719141Y-114771495D01*
X184833951Y-114694782D01*
X184961527Y-114641938D01*
X185096956Y-114615000D01*
X185235044Y-114615000D01*
X185370473Y-114641938D01*
X185370473Y-114641938D01*
G37*
G36*
X174208674Y-115585465D02*
G01*
X174246367Y-115596899D01*
X174281103Y-115615466D01*
X174311548Y-115640452D01*
X174336534Y-115670897D01*
X174355101Y-115705633D01*
X174366535Y-115743326D01*
X174371000Y-115788661D01*
X174371000Y-116875339D01*
X174366535Y-116920674D01*
X174355101Y-116958367D01*
X174336534Y-116993103D01*
X174311548Y-117023548D01*
X174281103Y-117048534D01*
X174246367Y-117067101D01*
X174208674Y-117078535D01*
X174163339Y-117083000D01*
X173326661Y-117083000D01*
X173281326Y-117078535D01*
X173243633Y-117067101D01*
X173208897Y-117048534D01*
X173178452Y-117023548D01*
X173153466Y-116993103D01*
X173134899Y-116958367D01*
X173123465Y-116920674D01*
X173119000Y-116875339D01*
X173119000Y-115788661D01*
X173123465Y-115743326D01*
X173134899Y-115705633D01*
X173153466Y-115670897D01*
X173178452Y-115640452D01*
X173208897Y-115615466D01*
X173243633Y-115596899D01*
X173281326Y-115585465D01*
X173326661Y-115581000D01*
X174163339Y-115581000D01*
X174208674Y-115585465D01*
X174208674Y-115585465D01*
G37*
G36*
X172158674Y-115585465D02*
G01*
X172196367Y-115596899D01*
X172231103Y-115615466D01*
X172261548Y-115640452D01*
X172286534Y-115670897D01*
X172305101Y-115705633D01*
X172316535Y-115743326D01*
X172321000Y-115788661D01*
X172321000Y-116875339D01*
X172316535Y-116920674D01*
X172305101Y-116958367D01*
X172286534Y-116993103D01*
X172261548Y-117023548D01*
X172231103Y-117048534D01*
X172196367Y-117067101D01*
X172158674Y-117078535D01*
X172113339Y-117083000D01*
X171276661Y-117083000D01*
X171231326Y-117078535D01*
X171193633Y-117067101D01*
X171158897Y-117048534D01*
X171128452Y-117023548D01*
X171103466Y-116993103D01*
X171084899Y-116958367D01*
X171073465Y-116920674D01*
X171069000Y-116875339D01*
X171069000Y-115788661D01*
X171073465Y-115743326D01*
X171084899Y-115705633D01*
X171103466Y-115670897D01*
X171128452Y-115640452D01*
X171158897Y-115615466D01*
X171193633Y-115596899D01*
X171231326Y-115585465D01*
X171276661Y-115581000D01*
X172113339Y-115581000D01*
X172158674Y-115585465D01*
X172158674Y-115585465D01*
G37*
G36*
X109735674Y-115696465D02*
G01*
X109773367Y-115707899D01*
X109808103Y-115726466D01*
X109838548Y-115751452D01*
X109863534Y-115781897D01*
X109882101Y-115816633D01*
X109893535Y-115854326D01*
X109898000Y-115899661D01*
X109898000Y-116736339D01*
X109893535Y-116781674D01*
X109882101Y-116819367D01*
X109863534Y-116854103D01*
X109838548Y-116884548D01*
X109808103Y-116909534D01*
X109773367Y-116928101D01*
X109735674Y-116939535D01*
X109690339Y-116944000D01*
X108603661Y-116944000D01*
X108558326Y-116939535D01*
X108520633Y-116928101D01*
X108485897Y-116909534D01*
X108455452Y-116884548D01*
X108430466Y-116854103D01*
X108411899Y-116819367D01*
X108400465Y-116781674D01*
X108396000Y-116736339D01*
X108396000Y-115899661D01*
X108400465Y-115854326D01*
X108411899Y-115816633D01*
X108430466Y-115781897D01*
X108455452Y-115751452D01*
X108485897Y-115726466D01*
X108520633Y-115707899D01*
X108558326Y-115696465D01*
X108603661Y-115692000D01*
X109690339Y-115692000D01*
X109735674Y-115696465D01*
X109735674Y-115696465D01*
G37*
G36*
X130007674Y-115364465D02*
G01*
X130045367Y-115375899D01*
X130080103Y-115394466D01*
X130110548Y-115419452D01*
X130135534Y-115449897D01*
X130154101Y-115484633D01*
X130165535Y-115522326D01*
X130170000Y-115567661D01*
X130170000Y-116654339D01*
X130165535Y-116699674D01*
X130154101Y-116737367D01*
X130135534Y-116772103D01*
X130110548Y-116802548D01*
X130080103Y-116827534D01*
X130045367Y-116846101D01*
X130007674Y-116857535D01*
X129962339Y-116862000D01*
X129125661Y-116862000D01*
X129080326Y-116857535D01*
X129042633Y-116846101D01*
X129007897Y-116827534D01*
X128977452Y-116802548D01*
X128952466Y-116772103D01*
X128933899Y-116737367D01*
X128922465Y-116699674D01*
X128918000Y-116654339D01*
X128918000Y-115567661D01*
X128922465Y-115522326D01*
X128933899Y-115484633D01*
X128952466Y-115449897D01*
X128977452Y-115419452D01*
X129007897Y-115394466D01*
X129042633Y-115375899D01*
X129080326Y-115364465D01*
X129125661Y-115360000D01*
X129962339Y-115360000D01*
X130007674Y-115364465D01*
X130007674Y-115364465D01*
G37*
G36*
X132057674Y-115364465D02*
G01*
X132095367Y-115375899D01*
X132130103Y-115394466D01*
X132160548Y-115419452D01*
X132185534Y-115449897D01*
X132204101Y-115484633D01*
X132215535Y-115522326D01*
X132220000Y-115567661D01*
X132220000Y-116654339D01*
X132215535Y-116699674D01*
X132204101Y-116737367D01*
X132185534Y-116772103D01*
X132160548Y-116802548D01*
X132130103Y-116827534D01*
X132095367Y-116846101D01*
X132057674Y-116857535D01*
X132012339Y-116862000D01*
X131175661Y-116862000D01*
X131130326Y-116857535D01*
X131092633Y-116846101D01*
X131057897Y-116827534D01*
X131027452Y-116802548D01*
X131002466Y-116772103D01*
X130983899Y-116737367D01*
X130972465Y-116699674D01*
X130968000Y-116654339D01*
X130968000Y-115567661D01*
X130972465Y-115522326D01*
X130983899Y-115484633D01*
X131002466Y-115449897D01*
X131027452Y-115419452D01*
X131057897Y-115394466D01*
X131092633Y-115375899D01*
X131130326Y-115364465D01*
X131175661Y-115360000D01*
X132012339Y-115360000D01*
X132057674Y-115364465D01*
X132057674Y-115364465D01*
G37*
G36*
X193374674Y-114440465D02*
G01*
X193412367Y-114451899D01*
X193447103Y-114470466D01*
X193477548Y-114495452D01*
X193502534Y-114525897D01*
X193521101Y-114560633D01*
X193532535Y-114598326D01*
X193537000Y-114643661D01*
X193537000Y-115480339D01*
X193532535Y-115525674D01*
X193521101Y-115563367D01*
X193502534Y-115598103D01*
X193477548Y-115628548D01*
X193447103Y-115653534D01*
X193412367Y-115672101D01*
X193374674Y-115683535D01*
X193329339Y-115688000D01*
X192242661Y-115688000D01*
X192197326Y-115683535D01*
X192159633Y-115672101D01*
X192124897Y-115653534D01*
X192094452Y-115628548D01*
X192069466Y-115598103D01*
X192050899Y-115563367D01*
X192039465Y-115525674D01*
X192035000Y-115480339D01*
X192035000Y-114643661D01*
X192039465Y-114598326D01*
X192050899Y-114560633D01*
X192069466Y-114525897D01*
X192094452Y-114495452D01*
X192124897Y-114470466D01*
X192159633Y-114451899D01*
X192197326Y-114440465D01*
X192242661Y-114436000D01*
X193329339Y-114436000D01*
X193374674Y-114440465D01*
X193374674Y-114440465D01*
G37*
G36*
X180420674Y-114431465D02*
G01*
X180458367Y-114442899D01*
X180493103Y-114461466D01*
X180523548Y-114486452D01*
X180548534Y-114516897D01*
X180567101Y-114551633D01*
X180578535Y-114589326D01*
X180583000Y-114634661D01*
X180583000Y-115471339D01*
X180578535Y-115516674D01*
X180567101Y-115554367D01*
X180548534Y-115589103D01*
X180523548Y-115619548D01*
X180493103Y-115644534D01*
X180458367Y-115663101D01*
X180420674Y-115674535D01*
X180375339Y-115679000D01*
X179288661Y-115679000D01*
X179243326Y-115674535D01*
X179205633Y-115663101D01*
X179170897Y-115644534D01*
X179140452Y-115619548D01*
X179115466Y-115589103D01*
X179096899Y-115554367D01*
X179085465Y-115516674D01*
X179081000Y-115471339D01*
X179081000Y-114634661D01*
X179085465Y-114589326D01*
X179096899Y-114551633D01*
X179115466Y-114516897D01*
X179140452Y-114486452D01*
X179170897Y-114461466D01*
X179205633Y-114442899D01*
X179243326Y-114431465D01*
X179288661Y-114427000D01*
X180375339Y-114427000D01*
X180420674Y-114431465D01*
X180420674Y-114431465D01*
G37*
G36*
X190834674Y-114431465D02*
G01*
X190872367Y-114442899D01*
X190907103Y-114461466D01*
X190937548Y-114486452D01*
X190962534Y-114516897D01*
X190981101Y-114551633D01*
X190992535Y-114589326D01*
X190997000Y-114634661D01*
X190997000Y-115471339D01*
X190992535Y-115516674D01*
X190981101Y-115554367D01*
X190962534Y-115589103D01*
X190937548Y-115619548D01*
X190907103Y-115644534D01*
X190872367Y-115663101D01*
X190834674Y-115674535D01*
X190789339Y-115679000D01*
X189702661Y-115679000D01*
X189657326Y-115674535D01*
X189619633Y-115663101D01*
X189584897Y-115644534D01*
X189554452Y-115619548D01*
X189529466Y-115589103D01*
X189510899Y-115554367D01*
X189499465Y-115516674D01*
X189495000Y-115471339D01*
X189495000Y-114634661D01*
X189499465Y-114589326D01*
X189510899Y-114551633D01*
X189529466Y-114516897D01*
X189554452Y-114486452D01*
X189584897Y-114461466D01*
X189619633Y-114442899D01*
X189657326Y-114431465D01*
X189702661Y-114427000D01*
X190789339Y-114427000D01*
X190834674Y-114431465D01*
X190834674Y-114431465D01*
G37*
G36*
X119020674Y-113762465D02*
G01*
X119058367Y-113773899D01*
X119093103Y-113792466D01*
X119123548Y-113817452D01*
X119148534Y-113847897D01*
X119167101Y-113882633D01*
X119178535Y-113920326D01*
X119183000Y-113965661D01*
X119183000Y-115052339D01*
X119178535Y-115097674D01*
X119167101Y-115135367D01*
X119148534Y-115170103D01*
X119123548Y-115200548D01*
X119093103Y-115225534D01*
X119058367Y-115244101D01*
X119020674Y-115255535D01*
X118975339Y-115260000D01*
X118138661Y-115260000D01*
X118093326Y-115255535D01*
X118055633Y-115244101D01*
X118020897Y-115225534D01*
X117990452Y-115200548D01*
X117965466Y-115170103D01*
X117946899Y-115135367D01*
X117935465Y-115097674D01*
X117931000Y-115052339D01*
X117931000Y-113965661D01*
X117935465Y-113920326D01*
X117946899Y-113882633D01*
X117965466Y-113847897D01*
X117990452Y-113817452D01*
X118020897Y-113792466D01*
X118055633Y-113773899D01*
X118093326Y-113762465D01*
X118138661Y-113758000D01*
X118975339Y-113758000D01*
X119020674Y-113762465D01*
X119020674Y-113762465D01*
G37*
G36*
X121070674Y-113762465D02*
G01*
X121108367Y-113773899D01*
X121143103Y-113792466D01*
X121173548Y-113817452D01*
X121198534Y-113847897D01*
X121217101Y-113882633D01*
X121228535Y-113920326D01*
X121233000Y-113965661D01*
X121233000Y-115052339D01*
X121228535Y-115097674D01*
X121217101Y-115135367D01*
X121198534Y-115170103D01*
X121173548Y-115200548D01*
X121143103Y-115225534D01*
X121108367Y-115244101D01*
X121070674Y-115255535D01*
X121025339Y-115260000D01*
X120188661Y-115260000D01*
X120143326Y-115255535D01*
X120105633Y-115244101D01*
X120070897Y-115225534D01*
X120040452Y-115200548D01*
X120015466Y-115170103D01*
X119996899Y-115135367D01*
X119985465Y-115097674D01*
X119981000Y-115052339D01*
X119981000Y-113965661D01*
X119985465Y-113920326D01*
X119996899Y-113882633D01*
X120015466Y-113847897D01*
X120040452Y-113817452D01*
X120070897Y-113792466D01*
X120105633Y-113773899D01*
X120143326Y-113762465D01*
X120188661Y-113758000D01*
X121025339Y-113758000D01*
X121070674Y-113762465D01*
X121070674Y-113762465D01*
G37*
G36*
X109735674Y-113646465D02*
G01*
X109773367Y-113657899D01*
X109808103Y-113676466D01*
X109838548Y-113701452D01*
X109863534Y-113731897D01*
X109882101Y-113766633D01*
X109893535Y-113804326D01*
X109898000Y-113849661D01*
X109898000Y-114686339D01*
X109893535Y-114731674D01*
X109882101Y-114769367D01*
X109863534Y-114804103D01*
X109838548Y-114834548D01*
X109808103Y-114859534D01*
X109773367Y-114878101D01*
X109735674Y-114889535D01*
X109690339Y-114894000D01*
X108603661Y-114894000D01*
X108558326Y-114889535D01*
X108520633Y-114878101D01*
X108485897Y-114859534D01*
X108455452Y-114834548D01*
X108430466Y-114804103D01*
X108411899Y-114769367D01*
X108400465Y-114731674D01*
X108396000Y-114686339D01*
X108396000Y-113849661D01*
X108400465Y-113804326D01*
X108411899Y-113766633D01*
X108430466Y-113731897D01*
X108455452Y-113701452D01*
X108485897Y-113676466D01*
X108520633Y-113657899D01*
X108558326Y-113646465D01*
X108603661Y-113642000D01*
X109690339Y-113642000D01*
X109735674Y-113646465D01*
X109735674Y-113646465D01*
G37*
G36*
X176462195Y-112828522D02*
G01*
X176511267Y-112838283D01*
X176649942Y-112895724D01*
X176774747Y-112979116D01*
X176880884Y-113085253D01*
X176964276Y-113210058D01*
X177021717Y-113348733D01*
X177029385Y-113387282D01*
X177051000Y-113495948D01*
X177051000Y-113646052D01*
X177048643Y-113657899D01*
X177021717Y-113793267D01*
X176964276Y-113931942D01*
X176880884Y-114056747D01*
X176774747Y-114162884D01*
X176649942Y-114246276D01*
X176511267Y-114303717D01*
X176462195Y-114313478D01*
X176364052Y-114333000D01*
X176213948Y-114333000D01*
X176115805Y-114313478D01*
X176066733Y-114303717D01*
X175928058Y-114246276D01*
X175803253Y-114162884D01*
X175697116Y-114056747D01*
X175613724Y-113931942D01*
X175556283Y-113793267D01*
X175529357Y-113657899D01*
X175527000Y-113646052D01*
X175527000Y-113495948D01*
X175548615Y-113387282D01*
X175556283Y-113348733D01*
X175613724Y-113210058D01*
X175697116Y-113085253D01*
X175803253Y-112979116D01*
X175928058Y-112895724D01*
X176066733Y-112838283D01*
X176115805Y-112828522D01*
X176213948Y-112809000D01*
X176364052Y-112809000D01*
X176462195Y-112828522D01*
X176462195Y-112828522D01*
G37*
G36*
X145982195Y-112828522D02*
G01*
X146031267Y-112838283D01*
X146169942Y-112895724D01*
X146294747Y-112979116D01*
X146400884Y-113085253D01*
X146484276Y-113210058D01*
X146541717Y-113348733D01*
X146549385Y-113387282D01*
X146571000Y-113495948D01*
X146571000Y-113646052D01*
X146568643Y-113657899D01*
X146541717Y-113793267D01*
X146484276Y-113931942D01*
X146400884Y-114056747D01*
X146294747Y-114162884D01*
X146169942Y-114246276D01*
X146031267Y-114303717D01*
X145982195Y-114313478D01*
X145884052Y-114333000D01*
X145733948Y-114333000D01*
X145635805Y-114313478D01*
X145586733Y-114303717D01*
X145448058Y-114246276D01*
X145323253Y-114162884D01*
X145217116Y-114056747D01*
X145133724Y-113931942D01*
X145076283Y-113793267D01*
X145049357Y-113657899D01*
X145047000Y-113646052D01*
X145047000Y-113495948D01*
X145068615Y-113387282D01*
X145076283Y-113348733D01*
X145133724Y-113210058D01*
X145217116Y-113085253D01*
X145323253Y-112979116D01*
X145448058Y-112895724D01*
X145586733Y-112838283D01*
X145635805Y-112828522D01*
X145733948Y-112809000D01*
X145884052Y-112809000D01*
X145982195Y-112828522D01*
X145982195Y-112828522D01*
G37*
G36*
X130742195Y-112828522D02*
G01*
X130791267Y-112838283D01*
X130929942Y-112895724D01*
X131054747Y-112979116D01*
X131160884Y-113085253D01*
X131244276Y-113210058D01*
X131301717Y-113348733D01*
X131309385Y-113387282D01*
X131331000Y-113495948D01*
X131331000Y-113646052D01*
X131328643Y-113657899D01*
X131301717Y-113793267D01*
X131244276Y-113931942D01*
X131160884Y-114056747D01*
X131054747Y-114162884D01*
X130929942Y-114246276D01*
X130791267Y-114303717D01*
X130742195Y-114313478D01*
X130644052Y-114333000D01*
X130493948Y-114333000D01*
X130395805Y-114313478D01*
X130346733Y-114303717D01*
X130208058Y-114246276D01*
X130083253Y-114162884D01*
X129977116Y-114056747D01*
X129893724Y-113931942D01*
X129836283Y-113793267D01*
X129809357Y-113657899D01*
X129807000Y-113646052D01*
X129807000Y-113495948D01*
X129828615Y-113387282D01*
X129836283Y-113348733D01*
X129893724Y-113210058D01*
X129977116Y-113085253D01*
X130083253Y-112979116D01*
X130208058Y-112895724D01*
X130346733Y-112838283D01*
X130395805Y-112828522D01*
X130493948Y-112809000D01*
X130644052Y-112809000D01*
X130742195Y-112828522D01*
X130742195Y-112828522D01*
G37*
G36*
X161222195Y-112828522D02*
G01*
X161271267Y-112838283D01*
X161409942Y-112895724D01*
X161534747Y-112979116D01*
X161640884Y-113085253D01*
X161724276Y-113210058D01*
X161781717Y-113348733D01*
X161789385Y-113387282D01*
X161811000Y-113495948D01*
X161811000Y-113646052D01*
X161808643Y-113657899D01*
X161781717Y-113793267D01*
X161724276Y-113931942D01*
X161640884Y-114056747D01*
X161534747Y-114162884D01*
X161409942Y-114246276D01*
X161271267Y-114303717D01*
X161222195Y-114313478D01*
X161124052Y-114333000D01*
X160973948Y-114333000D01*
X160875805Y-114313478D01*
X160826733Y-114303717D01*
X160688058Y-114246276D01*
X160563253Y-114162884D01*
X160457116Y-114056747D01*
X160373724Y-113931942D01*
X160316283Y-113793267D01*
X160289357Y-113657899D01*
X160287000Y-113646052D01*
X160287000Y-113495948D01*
X160308615Y-113387282D01*
X160316283Y-113348733D01*
X160373724Y-113210058D01*
X160457116Y-113085253D01*
X160563253Y-112979116D01*
X160688058Y-112895724D01*
X160826733Y-112838283D01*
X160875805Y-112828522D01*
X160973948Y-112809000D01*
X161124052Y-112809000D01*
X161222195Y-112828522D01*
X161222195Y-112828522D01*
G37*
G36*
X139745674Y-111910465D02*
G01*
X139783367Y-111921899D01*
X139818103Y-111940466D01*
X139848548Y-111965452D01*
X139873534Y-111995897D01*
X139892101Y-112030633D01*
X139903535Y-112068326D01*
X139908000Y-112113661D01*
X139908000Y-113200339D01*
X139903535Y-113245674D01*
X139892101Y-113283367D01*
X139873534Y-113318103D01*
X139848548Y-113348548D01*
X139818103Y-113373534D01*
X139783367Y-113392101D01*
X139745674Y-113403535D01*
X139700339Y-113408000D01*
X138863661Y-113408000D01*
X138818326Y-113403535D01*
X138780633Y-113392101D01*
X138745897Y-113373534D01*
X138715452Y-113348548D01*
X138690466Y-113318103D01*
X138671899Y-113283367D01*
X138660465Y-113245674D01*
X138656000Y-113200339D01*
X138656000Y-112113661D01*
X138660465Y-112068326D01*
X138671899Y-112030633D01*
X138690466Y-111995897D01*
X138715452Y-111965452D01*
X138745897Y-111940466D01*
X138780633Y-111921899D01*
X138818326Y-111910465D01*
X138863661Y-111906000D01*
X139700339Y-111906000D01*
X139745674Y-111910465D01*
X139745674Y-111910465D01*
G37*
G36*
X137695674Y-111910465D02*
G01*
X137733367Y-111921899D01*
X137768103Y-111940466D01*
X137798548Y-111965452D01*
X137823534Y-111995897D01*
X137842101Y-112030633D01*
X137853535Y-112068326D01*
X137858000Y-112113661D01*
X137858000Y-113200339D01*
X137853535Y-113245674D01*
X137842101Y-113283367D01*
X137823534Y-113318103D01*
X137798548Y-113348548D01*
X137768103Y-113373534D01*
X137733367Y-113392101D01*
X137695674Y-113403535D01*
X137650339Y-113408000D01*
X136813661Y-113408000D01*
X136768326Y-113403535D01*
X136730633Y-113392101D01*
X136695897Y-113373534D01*
X136665452Y-113348548D01*
X136640466Y-113318103D01*
X136621899Y-113283367D01*
X136610465Y-113245674D01*
X136606000Y-113200339D01*
X136606000Y-112113661D01*
X136610465Y-112068326D01*
X136621899Y-112030633D01*
X136640466Y-111995897D01*
X136665452Y-111965452D01*
X136695897Y-111940466D01*
X136730633Y-111921899D01*
X136768326Y-111910465D01*
X136813661Y-111906000D01*
X137650339Y-111906000D01*
X137695674Y-111910465D01*
X137695674Y-111910465D01*
G37*
G36*
X124135674Y-111897465D02*
G01*
X124173367Y-111908899D01*
X124208103Y-111927466D01*
X124238548Y-111952452D01*
X124263534Y-111982897D01*
X124282101Y-112017633D01*
X124293535Y-112055326D01*
X124298000Y-112100661D01*
X124298000Y-113187339D01*
X124293535Y-113232674D01*
X124282101Y-113270367D01*
X124263534Y-113305103D01*
X124238548Y-113335548D01*
X124208103Y-113360534D01*
X124173367Y-113379101D01*
X124135674Y-113390535D01*
X124090339Y-113395000D01*
X123253661Y-113395000D01*
X123208326Y-113390535D01*
X123170633Y-113379101D01*
X123135897Y-113360534D01*
X123105452Y-113335548D01*
X123080466Y-113305103D01*
X123061899Y-113270367D01*
X123050465Y-113232674D01*
X123046000Y-113187339D01*
X123046000Y-112100661D01*
X123050465Y-112055326D01*
X123061899Y-112017633D01*
X123080466Y-111982897D01*
X123105452Y-111952452D01*
X123135897Y-111927466D01*
X123170633Y-111908899D01*
X123208326Y-111897465D01*
X123253661Y-111893000D01*
X124090339Y-111893000D01*
X124135674Y-111897465D01*
X124135674Y-111897465D01*
G37*
G36*
X126185674Y-111897465D02*
G01*
X126223367Y-111908899D01*
X126258103Y-111927466D01*
X126288548Y-111952452D01*
X126313534Y-111982897D01*
X126332101Y-112017633D01*
X126343535Y-112055326D01*
X126348000Y-112100661D01*
X126348000Y-113187339D01*
X126343535Y-113232674D01*
X126332101Y-113270367D01*
X126313534Y-113305103D01*
X126288548Y-113335548D01*
X126258103Y-113360534D01*
X126223367Y-113379101D01*
X126185674Y-113390535D01*
X126140339Y-113395000D01*
X125303661Y-113395000D01*
X125258326Y-113390535D01*
X125220633Y-113379101D01*
X125185897Y-113360534D01*
X125155452Y-113335548D01*
X125130466Y-113305103D01*
X125111899Y-113270367D01*
X125100465Y-113232674D01*
X125096000Y-113187339D01*
X125096000Y-112100661D01*
X125100465Y-112055326D01*
X125111899Y-112017633D01*
X125130466Y-111982897D01*
X125155452Y-111952452D01*
X125185897Y-111927466D01*
X125220633Y-111908899D01*
X125258326Y-111897465D01*
X125303661Y-111893000D01*
X126140339Y-111893000D01*
X126185674Y-111897465D01*
X126185674Y-111897465D01*
G37*
G36*
X115749279Y-111410009D02*
G01*
X115819127Y-111438941D01*
X115917908Y-111479857D01*
X115973116Y-111516746D01*
X116069673Y-111581263D01*
X116198737Y-111710327D01*
X116234411Y-111763717D01*
X116300143Y-111862092D01*
X116327221Y-111927466D01*
X116369955Y-112030633D01*
X116369991Y-112030722D01*
X116405600Y-112209738D01*
X116405600Y-112392262D01*
X116369991Y-112571278D01*
X116300143Y-112739908D01*
X116258966Y-112801534D01*
X116198737Y-112891673D01*
X116069673Y-113020737D01*
X116034435Y-113044282D01*
X115917908Y-113122143D01*
X115819127Y-113163059D01*
X115749279Y-113191991D01*
X115570262Y-113227600D01*
X115387738Y-113227600D01*
X115208721Y-113191991D01*
X115138873Y-113163059D01*
X115040092Y-113122143D01*
X114923565Y-113044282D01*
X114888327Y-113020737D01*
X114759263Y-112891673D01*
X114699034Y-112801534D01*
X114657857Y-112739908D01*
X114588009Y-112571278D01*
X114552400Y-112392262D01*
X114552400Y-112209738D01*
X114588009Y-112030722D01*
X114588046Y-112030633D01*
X114630779Y-111927466D01*
X114657857Y-111862092D01*
X114723589Y-111763717D01*
X114759263Y-111710327D01*
X114888327Y-111581263D01*
X114984884Y-111516746D01*
X115040092Y-111479857D01*
X115138873Y-111438941D01*
X115208721Y-111410009D01*
X115387738Y-111374400D01*
X115570262Y-111374400D01*
X115749279Y-111410009D01*
X115749279Y-111410009D01*
G37*
G36*
X112749279Y-111410009D02*
G01*
X112819127Y-111438941D01*
X112917908Y-111479857D01*
X112973116Y-111516746D01*
X113069673Y-111581263D01*
X113198737Y-111710327D01*
X113234411Y-111763717D01*
X113300143Y-111862092D01*
X113327221Y-111927466D01*
X113369955Y-112030633D01*
X113369991Y-112030722D01*
X113405600Y-112209738D01*
X113405600Y-112392262D01*
X113369991Y-112571278D01*
X113300143Y-112739908D01*
X113258966Y-112801534D01*
X113198737Y-112891673D01*
X113069673Y-113020737D01*
X113034435Y-113044282D01*
X112917908Y-113122143D01*
X112819127Y-113163059D01*
X112749279Y-113191991D01*
X112570262Y-113227600D01*
X112387738Y-113227600D01*
X112208721Y-113191991D01*
X112138873Y-113163059D01*
X112040092Y-113122143D01*
X111923565Y-113044282D01*
X111888327Y-113020737D01*
X111759263Y-112891673D01*
X111699034Y-112801534D01*
X111657857Y-112739908D01*
X111588009Y-112571278D01*
X111552400Y-112392262D01*
X111552400Y-112209738D01*
X111588009Y-112030722D01*
X111588046Y-112030633D01*
X111630779Y-111927466D01*
X111657857Y-111862092D01*
X111723589Y-111763717D01*
X111759263Y-111710327D01*
X111888327Y-111581263D01*
X111984884Y-111516746D01*
X112040092Y-111479857D01*
X112138873Y-111438941D01*
X112208721Y-111410009D01*
X112387738Y-111374400D01*
X112570262Y-111374400D01*
X112749279Y-111410009D01*
X112749279Y-111410009D01*
G37*
G36*
X104249279Y-111410009D02*
G01*
X104319127Y-111438941D01*
X104417908Y-111479857D01*
X104473116Y-111516746D01*
X104569673Y-111581263D01*
X104698737Y-111710327D01*
X104734411Y-111763717D01*
X104800143Y-111862092D01*
X104827221Y-111927466D01*
X104869955Y-112030633D01*
X104869991Y-112030722D01*
X104905600Y-112209738D01*
X104905600Y-112392262D01*
X104869991Y-112571278D01*
X104800143Y-112739908D01*
X104758966Y-112801534D01*
X104698737Y-112891673D01*
X104569673Y-113020737D01*
X104534435Y-113044282D01*
X104417908Y-113122143D01*
X104319127Y-113163059D01*
X104249279Y-113191991D01*
X104070262Y-113227600D01*
X103887738Y-113227600D01*
X103708721Y-113191991D01*
X103638873Y-113163059D01*
X103540092Y-113122143D01*
X103423565Y-113044282D01*
X103388327Y-113020737D01*
X103259263Y-112891673D01*
X103199034Y-112801534D01*
X103157857Y-112739908D01*
X103088009Y-112571278D01*
X103052400Y-112392262D01*
X103052400Y-112209738D01*
X103088009Y-112030722D01*
X103088046Y-112030633D01*
X103130779Y-111927466D01*
X103157857Y-111862092D01*
X103223589Y-111763717D01*
X103259263Y-111710327D01*
X103388327Y-111581263D01*
X103484884Y-111516746D01*
X103540092Y-111479857D01*
X103638873Y-111438941D01*
X103708721Y-111410009D01*
X103887738Y-111374400D01*
X104070262Y-111374400D01*
X104249279Y-111410009D01*
X104249279Y-111410009D01*
G37*
G36*
X155192674Y-111567465D02*
G01*
X155230367Y-111578899D01*
X155265103Y-111597466D01*
X155295548Y-111622452D01*
X155320534Y-111652897D01*
X155339101Y-111687633D01*
X155350535Y-111725326D01*
X155355000Y-111770661D01*
X155355000Y-112857339D01*
X155350535Y-112902674D01*
X155339101Y-112940367D01*
X155320534Y-112975103D01*
X155295548Y-113005548D01*
X155265103Y-113030534D01*
X155230367Y-113049101D01*
X155192674Y-113060535D01*
X155147339Y-113065000D01*
X154310661Y-113065000D01*
X154265326Y-113060535D01*
X154227633Y-113049101D01*
X154192897Y-113030534D01*
X154162452Y-113005548D01*
X154137466Y-112975103D01*
X154118899Y-112940367D01*
X154107465Y-112902674D01*
X154103000Y-112857339D01*
X154103000Y-111770661D01*
X154107465Y-111725326D01*
X154118899Y-111687633D01*
X154137466Y-111652897D01*
X154162452Y-111622452D01*
X154192897Y-111597466D01*
X154227633Y-111578899D01*
X154265326Y-111567465D01*
X154310661Y-111563000D01*
X155147339Y-111563000D01*
X155192674Y-111567465D01*
X155192674Y-111567465D01*
G37*
G36*
X153142674Y-111567465D02*
G01*
X153180367Y-111578899D01*
X153215103Y-111597466D01*
X153245548Y-111622452D01*
X153270534Y-111652897D01*
X153289101Y-111687633D01*
X153300535Y-111725326D01*
X153305000Y-111770661D01*
X153305000Y-112857339D01*
X153300535Y-112902674D01*
X153289101Y-112940367D01*
X153270534Y-112975103D01*
X153245548Y-113005548D01*
X153215103Y-113030534D01*
X153180367Y-113049101D01*
X153142674Y-113060535D01*
X153097339Y-113065000D01*
X152260661Y-113065000D01*
X152215326Y-113060535D01*
X152177633Y-113049101D01*
X152142897Y-113030534D01*
X152112452Y-113005548D01*
X152087466Y-112975103D01*
X152068899Y-112940367D01*
X152057465Y-112902674D01*
X152053000Y-112857339D01*
X152053000Y-111770661D01*
X152057465Y-111725326D01*
X152068899Y-111687633D01*
X152087466Y-111652897D01*
X152112452Y-111622452D01*
X152142897Y-111597466D01*
X152177633Y-111578899D01*
X152215326Y-111567465D01*
X152260661Y-111563000D01*
X153097339Y-111563000D01*
X153142674Y-111567465D01*
X153142674Y-111567465D01*
G37*
G36*
X167806674Y-111338465D02*
G01*
X167844367Y-111349899D01*
X167879103Y-111368466D01*
X167909548Y-111393452D01*
X167934534Y-111423897D01*
X167953101Y-111458633D01*
X167964535Y-111496326D01*
X167969000Y-111541661D01*
X167969000Y-112628339D01*
X167964535Y-112673674D01*
X167953101Y-112711367D01*
X167934534Y-112746103D01*
X167909548Y-112776548D01*
X167879103Y-112801534D01*
X167844367Y-112820101D01*
X167806674Y-112831535D01*
X167761339Y-112836000D01*
X166924661Y-112836000D01*
X166879326Y-112831535D01*
X166841633Y-112820101D01*
X166806897Y-112801534D01*
X166776452Y-112776548D01*
X166751466Y-112746103D01*
X166732899Y-112711367D01*
X166721465Y-112673674D01*
X166717000Y-112628339D01*
X166717000Y-111541661D01*
X166721465Y-111496326D01*
X166732899Y-111458633D01*
X166751466Y-111423897D01*
X166776452Y-111393452D01*
X166806897Y-111368466D01*
X166841633Y-111349899D01*
X166879326Y-111338465D01*
X166924661Y-111334000D01*
X167761339Y-111334000D01*
X167806674Y-111338465D01*
X167806674Y-111338465D01*
G37*
G36*
X169856674Y-111338465D02*
G01*
X169894367Y-111349899D01*
X169929103Y-111368466D01*
X169959548Y-111393452D01*
X169984534Y-111423897D01*
X170003101Y-111458633D01*
X170014535Y-111496326D01*
X170019000Y-111541661D01*
X170019000Y-112628339D01*
X170014535Y-112673674D01*
X170003101Y-112711367D01*
X169984534Y-112746103D01*
X169959548Y-112776548D01*
X169929103Y-112801534D01*
X169894367Y-112820101D01*
X169856674Y-112831535D01*
X169811339Y-112836000D01*
X168974661Y-112836000D01*
X168929326Y-112831535D01*
X168891633Y-112820101D01*
X168856897Y-112801534D01*
X168826452Y-112776548D01*
X168801466Y-112746103D01*
X168782899Y-112711367D01*
X168771465Y-112673674D01*
X168767000Y-112628339D01*
X168767000Y-111541661D01*
X168771465Y-111496326D01*
X168782899Y-111458633D01*
X168801466Y-111423897D01*
X168826452Y-111393452D01*
X168856897Y-111368466D01*
X168891633Y-111349899D01*
X168929326Y-111338465D01*
X168974661Y-111334000D01*
X169811339Y-111334000D01*
X169856674Y-111338465D01*
X169856674Y-111338465D01*
G37*
G36*
X186091600Y-112461600D02*
G01*
X184388400Y-112461600D01*
X184388400Y-111058400D01*
X186091600Y-111058400D01*
X186091600Y-112461600D01*
X186091600Y-112461600D01*
G37*
G36*
X188991600Y-112461600D02*
G01*
X187288400Y-112461600D01*
X187288400Y-111058400D01*
X188991600Y-111058400D01*
X188991600Y-112461600D01*
X188991600Y-112461600D01*
G37*
G36*
X130742195Y-110288522D02*
G01*
X130791267Y-110298283D01*
X130929942Y-110355724D01*
X131054747Y-110439116D01*
X131160884Y-110545253D01*
X131244276Y-110670058D01*
X131301717Y-110808733D01*
X131331000Y-110955950D01*
X131331000Y-111106050D01*
X131301717Y-111253267D01*
X131244276Y-111391942D01*
X131160884Y-111516747D01*
X131054747Y-111622884D01*
X130929942Y-111706276D01*
X130791267Y-111763717D01*
X130756357Y-111770661D01*
X130644052Y-111793000D01*
X130493948Y-111793000D01*
X130381643Y-111770661D01*
X130346733Y-111763717D01*
X130208058Y-111706276D01*
X130083253Y-111622884D01*
X129977116Y-111516747D01*
X129893724Y-111391942D01*
X129836283Y-111253267D01*
X129807000Y-111106050D01*
X129807000Y-110955950D01*
X129836283Y-110808733D01*
X129893724Y-110670058D01*
X129977116Y-110545253D01*
X130083253Y-110439116D01*
X130208058Y-110355724D01*
X130346733Y-110298283D01*
X130395805Y-110288522D01*
X130493948Y-110269000D01*
X130644052Y-110269000D01*
X130742195Y-110288522D01*
X130742195Y-110288522D01*
G37*
G36*
X145982195Y-110288522D02*
G01*
X146031267Y-110298283D01*
X146169942Y-110355724D01*
X146294747Y-110439116D01*
X146400884Y-110545253D01*
X146484276Y-110670058D01*
X146541717Y-110808733D01*
X146571000Y-110955950D01*
X146571000Y-111106050D01*
X146541717Y-111253267D01*
X146484276Y-111391942D01*
X146400884Y-111516747D01*
X146294747Y-111622884D01*
X146169942Y-111706276D01*
X146031267Y-111763717D01*
X145996357Y-111770661D01*
X145884052Y-111793000D01*
X145733948Y-111793000D01*
X145621643Y-111770661D01*
X145586733Y-111763717D01*
X145448058Y-111706276D01*
X145323253Y-111622884D01*
X145217116Y-111516747D01*
X145133724Y-111391942D01*
X145076283Y-111253267D01*
X145047000Y-111106050D01*
X145047000Y-110955950D01*
X145076283Y-110808733D01*
X145133724Y-110670058D01*
X145217116Y-110545253D01*
X145323253Y-110439116D01*
X145448058Y-110355724D01*
X145586733Y-110298283D01*
X145635805Y-110288522D01*
X145733948Y-110269000D01*
X145884052Y-110269000D01*
X145982195Y-110288522D01*
X145982195Y-110288522D01*
G37*
G36*
X161222195Y-110288522D02*
G01*
X161271267Y-110298283D01*
X161409942Y-110355724D01*
X161534747Y-110439116D01*
X161640884Y-110545253D01*
X161724276Y-110670058D01*
X161781717Y-110808733D01*
X161811000Y-110955950D01*
X161811000Y-111106050D01*
X161781717Y-111253267D01*
X161724276Y-111391942D01*
X161640884Y-111516747D01*
X161534747Y-111622884D01*
X161409942Y-111706276D01*
X161271267Y-111763717D01*
X161236357Y-111770661D01*
X161124052Y-111793000D01*
X160973948Y-111793000D01*
X160861643Y-111770661D01*
X160826733Y-111763717D01*
X160688058Y-111706276D01*
X160563253Y-111622884D01*
X160457116Y-111516747D01*
X160373724Y-111391942D01*
X160316283Y-111253267D01*
X160287000Y-111106050D01*
X160287000Y-110955950D01*
X160316283Y-110808733D01*
X160373724Y-110670058D01*
X160457116Y-110545253D01*
X160563253Y-110439116D01*
X160688058Y-110355724D01*
X160826733Y-110298283D01*
X160875805Y-110288522D01*
X160973948Y-110269000D01*
X161124052Y-110269000D01*
X161222195Y-110288522D01*
X161222195Y-110288522D01*
G37*
G36*
X176462195Y-110288522D02*
G01*
X176511267Y-110298283D01*
X176649942Y-110355724D01*
X176774747Y-110439116D01*
X176880884Y-110545253D01*
X176964276Y-110670058D01*
X177021717Y-110808733D01*
X177051000Y-110955950D01*
X177051000Y-111106050D01*
X177021717Y-111253267D01*
X176964276Y-111391942D01*
X176880884Y-111516747D01*
X176774747Y-111622884D01*
X176649942Y-111706276D01*
X176511267Y-111763717D01*
X176476357Y-111770661D01*
X176364052Y-111793000D01*
X176213948Y-111793000D01*
X176101643Y-111770661D01*
X176066733Y-111763717D01*
X175928058Y-111706276D01*
X175803253Y-111622884D01*
X175697116Y-111516747D01*
X175613724Y-111391942D01*
X175556283Y-111253267D01*
X175527000Y-111106050D01*
X175527000Y-110955950D01*
X175556283Y-110808733D01*
X175613724Y-110670058D01*
X175697116Y-110545253D01*
X175803253Y-110439116D01*
X175928058Y-110355724D01*
X176066733Y-110298283D01*
X176115805Y-110288522D01*
X176213948Y-110269000D01*
X176364052Y-110269000D01*
X176462195Y-110288522D01*
X176462195Y-110288522D01*
G37*
G36*
X118551600Y-111451600D02*
G01*
X117148400Y-111451600D01*
X117148400Y-109748400D01*
X118551600Y-109748400D01*
X118551600Y-111451600D01*
X118551600Y-111451600D01*
G37*
G36*
X113676000Y-109901000D02*
G01*
X111674000Y-109901000D01*
X111674000Y-108999000D01*
X113676000Y-108999000D01*
X113676000Y-109901000D01*
X113676000Y-109901000D01*
G37*
G36*
X138459279Y-107910009D02*
G01*
X138529127Y-107938941D01*
X138627908Y-107979857D01*
X138703275Y-108030216D01*
X138779673Y-108081263D01*
X138908737Y-108210327D01*
X138959784Y-108286725D01*
X139010143Y-108362092D01*
X139051059Y-108460873D01*
X139079991Y-108530721D01*
X139115600Y-108709738D01*
X139115600Y-108892262D01*
X139079991Y-109071279D01*
X139052775Y-109136983D01*
X139010143Y-109239908D01*
X138989679Y-109270534D01*
X138908737Y-109391673D01*
X138779673Y-109520737D01*
X138730490Y-109553600D01*
X138627908Y-109622143D01*
X138529127Y-109663059D01*
X138459279Y-109691991D01*
X138280262Y-109727600D01*
X138097738Y-109727600D01*
X137918721Y-109691991D01*
X137848873Y-109663059D01*
X137750092Y-109622143D01*
X137647510Y-109553600D01*
X137598327Y-109520737D01*
X137469263Y-109391673D01*
X137388321Y-109270534D01*
X137367857Y-109239908D01*
X137325225Y-109136983D01*
X137298009Y-109071279D01*
X137262400Y-108892262D01*
X137262400Y-108709738D01*
X137298009Y-108530721D01*
X137326941Y-108460873D01*
X137367857Y-108362092D01*
X137418216Y-108286725D01*
X137469263Y-108210327D01*
X137598327Y-108081263D01*
X137674725Y-108030216D01*
X137750092Y-107979857D01*
X137848873Y-107938941D01*
X137918721Y-107910009D01*
X138097738Y-107874400D01*
X138280262Y-107874400D01*
X138459279Y-107910009D01*
X138459279Y-107910009D01*
G37*
G36*
X168939279Y-107910009D02*
G01*
X169009127Y-107938941D01*
X169107908Y-107979857D01*
X169183275Y-108030216D01*
X169259673Y-108081263D01*
X169388737Y-108210327D01*
X169439784Y-108286725D01*
X169490143Y-108362092D01*
X169531059Y-108460873D01*
X169559991Y-108530721D01*
X169595600Y-108709738D01*
X169595600Y-108892262D01*
X169559991Y-109071279D01*
X169532775Y-109136983D01*
X169490143Y-109239908D01*
X169469679Y-109270534D01*
X169388737Y-109391673D01*
X169259673Y-109520737D01*
X169210490Y-109553600D01*
X169107908Y-109622143D01*
X169009127Y-109663059D01*
X168939279Y-109691991D01*
X168760262Y-109727600D01*
X168577738Y-109727600D01*
X168398721Y-109691991D01*
X168328873Y-109663059D01*
X168230092Y-109622143D01*
X168127510Y-109553600D01*
X168078327Y-109520737D01*
X167949263Y-109391673D01*
X167868321Y-109270534D01*
X167847857Y-109239908D01*
X167805225Y-109136983D01*
X167778009Y-109071279D01*
X167742400Y-108892262D01*
X167742400Y-108709738D01*
X167778009Y-108530721D01*
X167806941Y-108460873D01*
X167847857Y-108362092D01*
X167898216Y-108286725D01*
X167949263Y-108210327D01*
X168078327Y-108081263D01*
X168154725Y-108030216D01*
X168230092Y-107979857D01*
X168328873Y-107938941D01*
X168398721Y-107910009D01*
X168577738Y-107874400D01*
X168760262Y-107874400D01*
X168939279Y-107910009D01*
X168939279Y-107910009D01*
G37*
G36*
X153699279Y-107910009D02*
G01*
X153769127Y-107938941D01*
X153867908Y-107979857D01*
X153943275Y-108030216D01*
X154019673Y-108081263D01*
X154148737Y-108210327D01*
X154199784Y-108286725D01*
X154250143Y-108362092D01*
X154291059Y-108460873D01*
X154319991Y-108530721D01*
X154355600Y-108709738D01*
X154355600Y-108892262D01*
X154319991Y-109071279D01*
X154292775Y-109136983D01*
X154250143Y-109239908D01*
X154229679Y-109270534D01*
X154148737Y-109391673D01*
X154019673Y-109520737D01*
X153970490Y-109553600D01*
X153867908Y-109622143D01*
X153769127Y-109663059D01*
X153699279Y-109691991D01*
X153520262Y-109727600D01*
X153337738Y-109727600D01*
X153158721Y-109691991D01*
X153088873Y-109663059D01*
X152990092Y-109622143D01*
X152887510Y-109553600D01*
X152838327Y-109520737D01*
X152709263Y-109391673D01*
X152628321Y-109270534D01*
X152607857Y-109239908D01*
X152565225Y-109136983D01*
X152538009Y-109071279D01*
X152502400Y-108892262D01*
X152502400Y-108709738D01*
X152538009Y-108530721D01*
X152566941Y-108460873D01*
X152607857Y-108362092D01*
X152658216Y-108286725D01*
X152709263Y-108210327D01*
X152838327Y-108081263D01*
X152914725Y-108030216D01*
X152990092Y-107979857D01*
X153088873Y-107938941D01*
X153158721Y-107910009D01*
X153337738Y-107874400D01*
X153520262Y-107874400D01*
X153699279Y-107910009D01*
X153699279Y-107910009D01*
G37*
G36*
X123219279Y-107910009D02*
G01*
X123289127Y-107938941D01*
X123387908Y-107979857D01*
X123463275Y-108030216D01*
X123539673Y-108081263D01*
X123668737Y-108210327D01*
X123719784Y-108286725D01*
X123770143Y-108362092D01*
X123811059Y-108460873D01*
X123839991Y-108530721D01*
X123875600Y-108709738D01*
X123875600Y-108892262D01*
X123839991Y-109071279D01*
X123812775Y-109136983D01*
X123770143Y-109239908D01*
X123749679Y-109270534D01*
X123668737Y-109391673D01*
X123539673Y-109520737D01*
X123490490Y-109553600D01*
X123387908Y-109622143D01*
X123289127Y-109663059D01*
X123219279Y-109691991D01*
X123040262Y-109727600D01*
X122857738Y-109727600D01*
X122678721Y-109691991D01*
X122608873Y-109663059D01*
X122510092Y-109622143D01*
X122407510Y-109553600D01*
X122358327Y-109520737D01*
X122229263Y-109391673D01*
X122148321Y-109270534D01*
X122127857Y-109239908D01*
X122085225Y-109136983D01*
X122058009Y-109071279D01*
X122022400Y-108892262D01*
X122022400Y-108709738D01*
X122058009Y-108530721D01*
X122086941Y-108460873D01*
X122127857Y-108362092D01*
X122178216Y-108286725D01*
X122229263Y-108210327D01*
X122358327Y-108081263D01*
X122434725Y-108030216D01*
X122510092Y-107979857D01*
X122608873Y-107938941D01*
X122678721Y-107910009D01*
X122857738Y-107874400D01*
X123040262Y-107874400D01*
X123219279Y-107910009D01*
X123219279Y-107910009D01*
G37*
G36*
X127423600Y-109553600D02*
G01*
X126020400Y-109553600D01*
X126020400Y-107850400D01*
X127423600Y-107850400D01*
X127423600Y-109553600D01*
X127423600Y-109553600D01*
G37*
G36*
X134936674Y-108057465D02*
G01*
X134974367Y-108068899D01*
X135009103Y-108087466D01*
X135039548Y-108112452D01*
X135064534Y-108142897D01*
X135083101Y-108177633D01*
X135094535Y-108215326D01*
X135099000Y-108260661D01*
X135099000Y-109097339D01*
X135094535Y-109142674D01*
X135083101Y-109180367D01*
X135064534Y-109215103D01*
X135039548Y-109245548D01*
X135009103Y-109270534D01*
X134974367Y-109289101D01*
X134936674Y-109300535D01*
X134891339Y-109305000D01*
X133804661Y-109305000D01*
X133759326Y-109300535D01*
X133721633Y-109289101D01*
X133686897Y-109270534D01*
X133656452Y-109245548D01*
X133631466Y-109215103D01*
X133612899Y-109180367D01*
X133601465Y-109142674D01*
X133597000Y-109097339D01*
X133597000Y-108260661D01*
X133601465Y-108215326D01*
X133612899Y-108177633D01*
X133631466Y-108142897D01*
X133656452Y-108112452D01*
X133686897Y-108087466D01*
X133721633Y-108068899D01*
X133759326Y-108057465D01*
X133804661Y-108053000D01*
X134891339Y-108053000D01*
X134936674Y-108057465D01*
X134936674Y-108057465D01*
G37*
G36*
X191058800Y-109093000D02*
G01*
X190195200Y-109093000D01*
X190195200Y-106857800D01*
X191058800Y-106857800D01*
X191058800Y-109093000D01*
X191058800Y-109093000D01*
G37*
G36*
X193598800Y-109093000D02*
G01*
X192735200Y-109093000D01*
X192735200Y-106857800D01*
X193598800Y-106857800D01*
X193598800Y-109093000D01*
X193598800Y-109093000D01*
G37*
G36*
X189788800Y-109093000D02*
G01*
X188925200Y-109093000D01*
X188925200Y-106857800D01*
X189788800Y-106857800D01*
X189788800Y-109093000D01*
X189788800Y-109093000D01*
G37*
G36*
X187248800Y-109093000D02*
G01*
X186385200Y-109093000D01*
X186385200Y-106857800D01*
X187248800Y-106857800D01*
X187248800Y-109093000D01*
X187248800Y-109093000D01*
G37*
G36*
X184708800Y-109093000D02*
G01*
X183845200Y-109093000D01*
X183845200Y-106857800D01*
X184708800Y-106857800D01*
X184708800Y-109093000D01*
X184708800Y-109093000D01*
G37*
G36*
X188518800Y-109093000D02*
G01*
X187655200Y-109093000D01*
X187655200Y-106857800D01*
X188518800Y-106857800D01*
X188518800Y-109093000D01*
X188518800Y-109093000D01*
G37*
G36*
X185978800Y-109093000D02*
G01*
X185115200Y-109093000D01*
X185115200Y-106857800D01*
X185978800Y-106857800D01*
X185978800Y-109093000D01*
X185978800Y-109093000D01*
G37*
G36*
X192328800Y-109093000D02*
G01*
X191465200Y-109093000D01*
X191465200Y-106857800D01*
X192328800Y-106857800D01*
X192328800Y-109093000D01*
X192328800Y-109093000D01*
G37*
G36*
X110676000Y-108951000D02*
G01*
X108674000Y-108951000D01*
X108674000Y-108049000D01*
X110676000Y-108049000D01*
X110676000Y-108951000D01*
X110676000Y-108951000D01*
G37*
G36*
X118551600Y-108551600D02*
G01*
X117148400Y-108551600D01*
X117148400Y-106848400D01*
X118551600Y-106848400D01*
X118551600Y-108551600D01*
X118551600Y-108551600D01*
G37*
G36*
X113676000Y-108001000D02*
G01*
X111674000Y-108001000D01*
X111674000Y-107099000D01*
X113676000Y-107099000D01*
X113676000Y-108001000D01*
X113676000Y-108001000D01*
G37*
G36*
X134936674Y-106007465D02*
G01*
X134974367Y-106018899D01*
X135009103Y-106037466D01*
X135039548Y-106062452D01*
X135064534Y-106092897D01*
X135083101Y-106127633D01*
X135094535Y-106165326D01*
X135099000Y-106210661D01*
X135099000Y-107047339D01*
X135094535Y-107092674D01*
X135083101Y-107130367D01*
X135064534Y-107165103D01*
X135039548Y-107195548D01*
X135009103Y-107220534D01*
X134974367Y-107239101D01*
X134936674Y-107250535D01*
X134891339Y-107255000D01*
X133804661Y-107255000D01*
X133759326Y-107250535D01*
X133721633Y-107239101D01*
X133686897Y-107220534D01*
X133656452Y-107195548D01*
X133631466Y-107165103D01*
X133612899Y-107130367D01*
X133601465Y-107092674D01*
X133597000Y-107047339D01*
X133597000Y-106210661D01*
X133601465Y-106165326D01*
X133612899Y-106127633D01*
X133631466Y-106092897D01*
X133656452Y-106062452D01*
X133686897Y-106037466D01*
X133721633Y-106018899D01*
X133759326Y-106007465D01*
X133804661Y-106003000D01*
X134891339Y-106003000D01*
X134936674Y-106007465D01*
X134936674Y-106007465D01*
G37*
G36*
X153699279Y-104910009D02*
G01*
X153713351Y-104915838D01*
X153867908Y-104979857D01*
X153867909Y-104979858D01*
X154019673Y-105081263D01*
X154148737Y-105210327D01*
X154148738Y-105210329D01*
X154250143Y-105362092D01*
X154268337Y-105406017D01*
X154319991Y-105530721D01*
X154355600Y-105709738D01*
X154355600Y-105892262D01*
X154319991Y-106071279D01*
X154298169Y-106123962D01*
X154250143Y-106239908D01*
X154221791Y-106282339D01*
X154148737Y-106391673D01*
X154019673Y-106520737D01*
X153943275Y-106571784D01*
X153867908Y-106622143D01*
X153791963Y-106653600D01*
X153699279Y-106691991D01*
X153520262Y-106727600D01*
X153337738Y-106727600D01*
X153158721Y-106691991D01*
X153066037Y-106653600D01*
X152990092Y-106622143D01*
X152914725Y-106571784D01*
X152838327Y-106520737D01*
X152709263Y-106391673D01*
X152636209Y-106282339D01*
X152607857Y-106239908D01*
X152559831Y-106123962D01*
X152538009Y-106071279D01*
X152502400Y-105892262D01*
X152502400Y-105709738D01*
X152538009Y-105530721D01*
X152589663Y-105406017D01*
X152607857Y-105362092D01*
X152709262Y-105210329D01*
X152709263Y-105210327D01*
X152838327Y-105081263D01*
X152990091Y-104979858D01*
X152990092Y-104979857D01*
X153144649Y-104915838D01*
X153158721Y-104910009D01*
X153337738Y-104874400D01*
X153520262Y-104874400D01*
X153699279Y-104910009D01*
X153699279Y-104910009D01*
G37*
G36*
X123219279Y-104910009D02*
G01*
X123233351Y-104915838D01*
X123387908Y-104979857D01*
X123387909Y-104979858D01*
X123539673Y-105081263D01*
X123668737Y-105210327D01*
X123668738Y-105210329D01*
X123770143Y-105362092D01*
X123788337Y-105406017D01*
X123839991Y-105530721D01*
X123875600Y-105709738D01*
X123875600Y-105892262D01*
X123839991Y-106071279D01*
X123818169Y-106123962D01*
X123770143Y-106239908D01*
X123741791Y-106282339D01*
X123668737Y-106391673D01*
X123539673Y-106520737D01*
X123463275Y-106571784D01*
X123387908Y-106622143D01*
X123311963Y-106653600D01*
X123219279Y-106691991D01*
X123040262Y-106727600D01*
X122857738Y-106727600D01*
X122678721Y-106691991D01*
X122586037Y-106653600D01*
X122510092Y-106622143D01*
X122434725Y-106571784D01*
X122358327Y-106520737D01*
X122229263Y-106391673D01*
X122156209Y-106282339D01*
X122127857Y-106239908D01*
X122079831Y-106123962D01*
X122058009Y-106071279D01*
X122022400Y-105892262D01*
X122022400Y-105709738D01*
X122058009Y-105530721D01*
X122109663Y-105406017D01*
X122127857Y-105362092D01*
X122229262Y-105210329D01*
X122229263Y-105210327D01*
X122358327Y-105081263D01*
X122510091Y-104979858D01*
X122510092Y-104979857D01*
X122664649Y-104915838D01*
X122678721Y-104910009D01*
X122857738Y-104874400D01*
X123040262Y-104874400D01*
X123219279Y-104910009D01*
X123219279Y-104910009D01*
G37*
G36*
X138459279Y-104910009D02*
G01*
X138473351Y-104915838D01*
X138627908Y-104979857D01*
X138627909Y-104979858D01*
X138779673Y-105081263D01*
X138908737Y-105210327D01*
X138908738Y-105210329D01*
X139010143Y-105362092D01*
X139028337Y-105406017D01*
X139079991Y-105530721D01*
X139115600Y-105709738D01*
X139115600Y-105892262D01*
X139079991Y-106071279D01*
X139058169Y-106123962D01*
X139010143Y-106239908D01*
X138981791Y-106282339D01*
X138908737Y-106391673D01*
X138779673Y-106520737D01*
X138703275Y-106571784D01*
X138627908Y-106622143D01*
X138551963Y-106653600D01*
X138459279Y-106691991D01*
X138280262Y-106727600D01*
X138097738Y-106727600D01*
X137918721Y-106691991D01*
X137826037Y-106653600D01*
X137750092Y-106622143D01*
X137674725Y-106571784D01*
X137598327Y-106520737D01*
X137469263Y-106391673D01*
X137396209Y-106282339D01*
X137367857Y-106239908D01*
X137319831Y-106123962D01*
X137298009Y-106071279D01*
X137262400Y-105892262D01*
X137262400Y-105709738D01*
X137298009Y-105530721D01*
X137349663Y-105406017D01*
X137367857Y-105362092D01*
X137469262Y-105210329D01*
X137469263Y-105210327D01*
X137598327Y-105081263D01*
X137750091Y-104979858D01*
X137750092Y-104979857D01*
X137904649Y-104915838D01*
X137918721Y-104910009D01*
X138097738Y-104874400D01*
X138280262Y-104874400D01*
X138459279Y-104910009D01*
X138459279Y-104910009D01*
G37*
G36*
X168939279Y-104910009D02*
G01*
X168953351Y-104915838D01*
X169107908Y-104979857D01*
X169107909Y-104979858D01*
X169259673Y-105081263D01*
X169388737Y-105210327D01*
X169388738Y-105210329D01*
X169490143Y-105362092D01*
X169508337Y-105406017D01*
X169559991Y-105530721D01*
X169595600Y-105709738D01*
X169595600Y-105892262D01*
X169559991Y-106071279D01*
X169538169Y-106123962D01*
X169490143Y-106239908D01*
X169461791Y-106282339D01*
X169388737Y-106391673D01*
X169259673Y-106520737D01*
X169183275Y-106571784D01*
X169107908Y-106622143D01*
X169031963Y-106653600D01*
X168939279Y-106691991D01*
X168760262Y-106727600D01*
X168577738Y-106727600D01*
X168398721Y-106691991D01*
X168306037Y-106653600D01*
X168230092Y-106622143D01*
X168154725Y-106571784D01*
X168078327Y-106520737D01*
X167949263Y-106391673D01*
X167876209Y-106282339D01*
X167847857Y-106239908D01*
X167799831Y-106123962D01*
X167778009Y-106071279D01*
X167742400Y-105892262D01*
X167742400Y-105709738D01*
X167778009Y-105530721D01*
X167829663Y-105406017D01*
X167847857Y-105362092D01*
X167949262Y-105210329D01*
X167949263Y-105210327D01*
X168078327Y-105081263D01*
X168230091Y-104979858D01*
X168230092Y-104979857D01*
X168384649Y-104915838D01*
X168398721Y-104910009D01*
X168577738Y-104874400D01*
X168760262Y-104874400D01*
X168939279Y-104910009D01*
X168939279Y-104910009D01*
G37*
G36*
X127423600Y-106653600D02*
G01*
X126020400Y-106653600D01*
X126020400Y-104950400D01*
X127423600Y-104950400D01*
X127423600Y-106653600D01*
X127423600Y-106653600D01*
G37*
G36*
X172708674Y-105242465D02*
G01*
X172746367Y-105253899D01*
X172781103Y-105272466D01*
X172811548Y-105297452D01*
X172836534Y-105327897D01*
X172855101Y-105362633D01*
X172866535Y-105400326D01*
X172871000Y-105445661D01*
X172871000Y-106282339D01*
X172866535Y-106327674D01*
X172855101Y-106365367D01*
X172836534Y-106400103D01*
X172811548Y-106430548D01*
X172781103Y-106455534D01*
X172746367Y-106474101D01*
X172708674Y-106485535D01*
X172663339Y-106490000D01*
X171576661Y-106490000D01*
X171531326Y-106485535D01*
X171493633Y-106474101D01*
X171458897Y-106455534D01*
X171428452Y-106430548D01*
X171403466Y-106400103D01*
X171384899Y-106365367D01*
X171373465Y-106327674D01*
X171369000Y-106282339D01*
X171369000Y-105445661D01*
X171373465Y-105400326D01*
X171384899Y-105362633D01*
X171403466Y-105327897D01*
X171428452Y-105297452D01*
X171458897Y-105272466D01*
X171493633Y-105253899D01*
X171531326Y-105242465D01*
X171576661Y-105238000D01*
X172663339Y-105238000D01*
X172708674Y-105242465D01*
X172708674Y-105242465D01*
G37*
G36*
X142577674Y-105170465D02*
G01*
X142615367Y-105181899D01*
X142650103Y-105200466D01*
X142680548Y-105225452D01*
X142705534Y-105255897D01*
X142724101Y-105290633D01*
X142735535Y-105328326D01*
X142740000Y-105373661D01*
X142740000Y-106210339D01*
X142735535Y-106255674D01*
X142724101Y-106293367D01*
X142705534Y-106328103D01*
X142680548Y-106358548D01*
X142650103Y-106383534D01*
X142615367Y-106402101D01*
X142577674Y-106413535D01*
X142532339Y-106418000D01*
X141445661Y-106418000D01*
X141400326Y-106413535D01*
X141362633Y-106402101D01*
X141327897Y-106383534D01*
X141297452Y-106358548D01*
X141272466Y-106328103D01*
X141253899Y-106293367D01*
X141242465Y-106255674D01*
X141238000Y-106210339D01*
X141238000Y-105373661D01*
X141242465Y-105328326D01*
X141253899Y-105290633D01*
X141272466Y-105255897D01*
X141297452Y-105225452D01*
X141327897Y-105200466D01*
X141362633Y-105181899D01*
X141400326Y-105170465D01*
X141445661Y-105166000D01*
X142532339Y-105166000D01*
X142577674Y-105170465D01*
X142577674Y-105170465D01*
G37*
G36*
X104376000Y-106151000D02*
G01*
X102374000Y-106151000D01*
X102374000Y-105249000D01*
X104376000Y-105249000D01*
X104376000Y-106151000D01*
X104376000Y-106151000D01*
G37*
G36*
X107376000Y-105201000D02*
G01*
X105374000Y-105201000D01*
X105374000Y-104299000D01*
X107376000Y-104299000D01*
X107376000Y-105201000D01*
X107376000Y-105201000D01*
G37*
G36*
X176559279Y-103305109D02*
G01*
X176577443Y-103312633D01*
X176727908Y-103374957D01*
X176775751Y-103406925D01*
X176879673Y-103476363D01*
X177008737Y-103605427D01*
X177037494Y-103648465D01*
X177110143Y-103757192D01*
X177132852Y-103812017D01*
X177179991Y-103925821D01*
X177215600Y-104104838D01*
X177215600Y-104287362D01*
X177190987Y-104411101D01*
X177179991Y-104466378D01*
X177110143Y-104635008D01*
X177110142Y-104635009D01*
X177008737Y-104786773D01*
X176879673Y-104915837D01*
X176803275Y-104966884D01*
X176727908Y-105017243D01*
X176629127Y-105058159D01*
X176559279Y-105087091D01*
X176380262Y-105122700D01*
X176197738Y-105122700D01*
X176018721Y-105087091D01*
X175948873Y-105058159D01*
X175850092Y-105017243D01*
X175774725Y-104966884D01*
X175698327Y-104915837D01*
X175569263Y-104786773D01*
X175467858Y-104635009D01*
X175467857Y-104635008D01*
X175398009Y-104466378D01*
X175387014Y-104411101D01*
X175362400Y-104287362D01*
X175362400Y-104104838D01*
X175398009Y-103925821D01*
X175445148Y-103812017D01*
X175467857Y-103757192D01*
X175540506Y-103648465D01*
X175569263Y-103605427D01*
X175698327Y-103476363D01*
X175802249Y-103406925D01*
X175850092Y-103374957D01*
X176000557Y-103312633D01*
X176018721Y-103305109D01*
X176197738Y-103269500D01*
X176380262Y-103269500D01*
X176559279Y-103305109D01*
X176559279Y-103305109D01*
G37*
G36*
X130839279Y-103305109D02*
G01*
X130857443Y-103312633D01*
X131007908Y-103374957D01*
X131055751Y-103406925D01*
X131159673Y-103476363D01*
X131288737Y-103605427D01*
X131317494Y-103648465D01*
X131390143Y-103757192D01*
X131412852Y-103812017D01*
X131459991Y-103925821D01*
X131495600Y-104104838D01*
X131495600Y-104287362D01*
X131470987Y-104411101D01*
X131459991Y-104466378D01*
X131390143Y-104635008D01*
X131390142Y-104635009D01*
X131288737Y-104786773D01*
X131159673Y-104915837D01*
X131083275Y-104966884D01*
X131007908Y-105017243D01*
X130909127Y-105058159D01*
X130839279Y-105087091D01*
X130660262Y-105122700D01*
X130477738Y-105122700D01*
X130298721Y-105087091D01*
X130228873Y-105058159D01*
X130130092Y-105017243D01*
X130054725Y-104966884D01*
X129978327Y-104915837D01*
X129849263Y-104786773D01*
X129747858Y-104635009D01*
X129747857Y-104635008D01*
X129678009Y-104466378D01*
X129667014Y-104411101D01*
X129642400Y-104287362D01*
X129642400Y-104104838D01*
X129678009Y-103925821D01*
X129725148Y-103812017D01*
X129747857Y-103757192D01*
X129820506Y-103648465D01*
X129849263Y-103605427D01*
X129978327Y-103476363D01*
X130082249Y-103406925D01*
X130130092Y-103374957D01*
X130280557Y-103312633D01*
X130298721Y-103305109D01*
X130477738Y-103269500D01*
X130660262Y-103269500D01*
X130839279Y-103305109D01*
X130839279Y-103305109D01*
G37*
G36*
X146079279Y-103305109D02*
G01*
X146097443Y-103312633D01*
X146247908Y-103374957D01*
X146295751Y-103406925D01*
X146399673Y-103476363D01*
X146528737Y-103605427D01*
X146557494Y-103648465D01*
X146630143Y-103757192D01*
X146652852Y-103812017D01*
X146699991Y-103925821D01*
X146735600Y-104104838D01*
X146735600Y-104287362D01*
X146710987Y-104411101D01*
X146699991Y-104466378D01*
X146630143Y-104635008D01*
X146630142Y-104635009D01*
X146528737Y-104786773D01*
X146399673Y-104915837D01*
X146323275Y-104966884D01*
X146247908Y-105017243D01*
X146149127Y-105058159D01*
X146079279Y-105087091D01*
X145900262Y-105122700D01*
X145717738Y-105122700D01*
X145538721Y-105087091D01*
X145468873Y-105058159D01*
X145370092Y-105017243D01*
X145294725Y-104966884D01*
X145218327Y-104915837D01*
X145089263Y-104786773D01*
X144987858Y-104635009D01*
X144987857Y-104635008D01*
X144918009Y-104466378D01*
X144907014Y-104411101D01*
X144882400Y-104287362D01*
X144882400Y-104104838D01*
X144918009Y-103925821D01*
X144965148Y-103812017D01*
X144987857Y-103757192D01*
X145060506Y-103648465D01*
X145089263Y-103605427D01*
X145218327Y-103476363D01*
X145322249Y-103406925D01*
X145370092Y-103374957D01*
X145520557Y-103312633D01*
X145538721Y-103305109D01*
X145717738Y-103269500D01*
X145900262Y-103269500D01*
X146079279Y-103305109D01*
X146079279Y-103305109D01*
G37*
G36*
X161319279Y-103305109D02*
G01*
X161337443Y-103312633D01*
X161487908Y-103374957D01*
X161535751Y-103406925D01*
X161639673Y-103476363D01*
X161768737Y-103605427D01*
X161797494Y-103648465D01*
X161870143Y-103757192D01*
X161892852Y-103812017D01*
X161939991Y-103925821D01*
X161975600Y-104104838D01*
X161975600Y-104287362D01*
X161950987Y-104411101D01*
X161939991Y-104466378D01*
X161870143Y-104635008D01*
X161870142Y-104635009D01*
X161768737Y-104786773D01*
X161639673Y-104915837D01*
X161563275Y-104966884D01*
X161487908Y-105017243D01*
X161389127Y-105058159D01*
X161319279Y-105087091D01*
X161140262Y-105122700D01*
X160957738Y-105122700D01*
X160778721Y-105087091D01*
X160708873Y-105058159D01*
X160610092Y-105017243D01*
X160534725Y-104966884D01*
X160458327Y-104915837D01*
X160329263Y-104786773D01*
X160227858Y-104635009D01*
X160227857Y-104635008D01*
X160158009Y-104466378D01*
X160147014Y-104411101D01*
X160122400Y-104287362D01*
X160122400Y-104104838D01*
X160158009Y-103925821D01*
X160205148Y-103812017D01*
X160227857Y-103757192D01*
X160300506Y-103648465D01*
X160329263Y-103605427D01*
X160458327Y-103476363D01*
X160562249Y-103406925D01*
X160610092Y-103374957D01*
X160760557Y-103312633D01*
X160778721Y-103305109D01*
X160957738Y-103269500D01*
X161140262Y-103269500D01*
X161319279Y-103305109D01*
X161319279Y-103305109D01*
G37*
G36*
X157410674Y-103648465D02*
G01*
X157448367Y-103659899D01*
X157483103Y-103678466D01*
X157513548Y-103703452D01*
X157538534Y-103733897D01*
X157557101Y-103768633D01*
X157568535Y-103806326D01*
X157573000Y-103851661D01*
X157573000Y-104688339D01*
X157568535Y-104733674D01*
X157557101Y-104771367D01*
X157538534Y-104806103D01*
X157513548Y-104836548D01*
X157483103Y-104861534D01*
X157448367Y-104880101D01*
X157410674Y-104891535D01*
X157365339Y-104896000D01*
X156278661Y-104896000D01*
X156233326Y-104891535D01*
X156195633Y-104880101D01*
X156160897Y-104861534D01*
X156130452Y-104836548D01*
X156105466Y-104806103D01*
X156086899Y-104771367D01*
X156075465Y-104733674D01*
X156071000Y-104688339D01*
X156071000Y-103851661D01*
X156075465Y-103806326D01*
X156086899Y-103768633D01*
X156105466Y-103733897D01*
X156130452Y-103703452D01*
X156160897Y-103678466D01*
X156195633Y-103659899D01*
X156233326Y-103648465D01*
X156278661Y-103644000D01*
X157365339Y-103644000D01*
X157410674Y-103648465D01*
X157410674Y-103648465D01*
G37*
G36*
X172708674Y-103192465D02*
G01*
X172746367Y-103203899D01*
X172781103Y-103222466D01*
X172811548Y-103247452D01*
X172836534Y-103277897D01*
X172855101Y-103312633D01*
X172866535Y-103350326D01*
X172871000Y-103395661D01*
X172871000Y-104232339D01*
X172866535Y-104277674D01*
X172855101Y-104315367D01*
X172836534Y-104350103D01*
X172811548Y-104380548D01*
X172781103Y-104405534D01*
X172746367Y-104424101D01*
X172708674Y-104435535D01*
X172663339Y-104440000D01*
X171576661Y-104440000D01*
X171531326Y-104435535D01*
X171493633Y-104424101D01*
X171458897Y-104405534D01*
X171428452Y-104380548D01*
X171403466Y-104350103D01*
X171384899Y-104315367D01*
X171373465Y-104277674D01*
X171369000Y-104232339D01*
X171369000Y-103395661D01*
X171373465Y-103350326D01*
X171384899Y-103312633D01*
X171403466Y-103277897D01*
X171428452Y-103247452D01*
X171458897Y-103222466D01*
X171493633Y-103203899D01*
X171531326Y-103192465D01*
X171576661Y-103188000D01*
X172663339Y-103188000D01*
X172708674Y-103192465D01*
X172708674Y-103192465D01*
G37*
G36*
X113377674Y-103179465D02*
G01*
X113415367Y-103190899D01*
X113450103Y-103209466D01*
X113480548Y-103234452D01*
X113505534Y-103264897D01*
X113524101Y-103299633D01*
X113535535Y-103337326D01*
X113540000Y-103382661D01*
X113540000Y-104219339D01*
X113535535Y-104264674D01*
X113524101Y-104302367D01*
X113505534Y-104337103D01*
X113480548Y-104367548D01*
X113450103Y-104392534D01*
X113415367Y-104411101D01*
X113377674Y-104422535D01*
X113332339Y-104427000D01*
X112245661Y-104427000D01*
X112200326Y-104422535D01*
X112162633Y-104411101D01*
X112127897Y-104392534D01*
X112097452Y-104367548D01*
X112072466Y-104337103D01*
X112053899Y-104302367D01*
X112042465Y-104264674D01*
X112038000Y-104219339D01*
X112038000Y-103382661D01*
X112042465Y-103337326D01*
X112053899Y-103299633D01*
X112072466Y-103264897D01*
X112097452Y-103234452D01*
X112127897Y-103209466D01*
X112162633Y-103190899D01*
X112200326Y-103179465D01*
X112245661Y-103175000D01*
X113332339Y-103175000D01*
X113377674Y-103179465D01*
X113377674Y-103179465D01*
G37*
G36*
X109988674Y-103178465D02*
G01*
X110026367Y-103189899D01*
X110061103Y-103208466D01*
X110091548Y-103233452D01*
X110116534Y-103263897D01*
X110135101Y-103298633D01*
X110146535Y-103336326D01*
X110151000Y-103381661D01*
X110151000Y-104218339D01*
X110146535Y-104263674D01*
X110135101Y-104301367D01*
X110116534Y-104336103D01*
X110091548Y-104366548D01*
X110061103Y-104391534D01*
X110026367Y-104410101D01*
X109988674Y-104421535D01*
X109943339Y-104426000D01*
X108856661Y-104426000D01*
X108811326Y-104421535D01*
X108773633Y-104410101D01*
X108738897Y-104391534D01*
X108708452Y-104366548D01*
X108683466Y-104336103D01*
X108664899Y-104301367D01*
X108653465Y-104263674D01*
X108649000Y-104218339D01*
X108649000Y-103381661D01*
X108653465Y-103336326D01*
X108664899Y-103298633D01*
X108683466Y-103263897D01*
X108708452Y-103233452D01*
X108738897Y-103208466D01*
X108773633Y-103189899D01*
X108811326Y-103178465D01*
X108856661Y-103174000D01*
X109943339Y-103174000D01*
X109988674Y-103178465D01*
X109988674Y-103178465D01*
G37*
G36*
X142577674Y-103120465D02*
G01*
X142615367Y-103131899D01*
X142650103Y-103150466D01*
X142680548Y-103175452D01*
X142705534Y-103205897D01*
X142724101Y-103240633D01*
X142735535Y-103278326D01*
X142740000Y-103323661D01*
X142740000Y-104160339D01*
X142735535Y-104205674D01*
X142724101Y-104243367D01*
X142705534Y-104278103D01*
X142680548Y-104308548D01*
X142650103Y-104333534D01*
X142615367Y-104352101D01*
X142577674Y-104363535D01*
X142532339Y-104368000D01*
X141445661Y-104368000D01*
X141400326Y-104363535D01*
X141362633Y-104352101D01*
X141327897Y-104333534D01*
X141297452Y-104308548D01*
X141272466Y-104278103D01*
X141253899Y-104243367D01*
X141242465Y-104205674D01*
X141238000Y-104160339D01*
X141238000Y-103323661D01*
X141242465Y-103278326D01*
X141253899Y-103240633D01*
X141272466Y-103205897D01*
X141297452Y-103175452D01*
X141327897Y-103150466D01*
X141362633Y-103131899D01*
X141400326Y-103120465D01*
X141445661Y-103116000D01*
X142532339Y-103116000D01*
X142577674Y-103120465D01*
X142577674Y-103120465D01*
G37*
G36*
X104376000Y-104251000D02*
G01*
X102374000Y-104251000D01*
X102374000Y-103349000D01*
X104376000Y-103349000D01*
X104376000Y-104251000D01*
X104376000Y-104251000D01*
G37*
G36*
X117726000Y-104201000D02*
G01*
X115724000Y-104201000D01*
X115724000Y-103299000D01*
X117726000Y-103299000D01*
X117726000Y-104201000D01*
X117726000Y-104201000D01*
G37*
G36*
X124988674Y-102128465D02*
G01*
X125026367Y-102139899D01*
X125061103Y-102158466D01*
X125091548Y-102183452D01*
X125116534Y-102213897D01*
X125135101Y-102248633D01*
X125146535Y-102286326D01*
X125151000Y-102331661D01*
X125151000Y-103418339D01*
X125146535Y-103463674D01*
X125135101Y-103501367D01*
X125116534Y-103536103D01*
X125091548Y-103566548D01*
X125061103Y-103591534D01*
X125026367Y-103610101D01*
X124988674Y-103621535D01*
X124943339Y-103626000D01*
X124106661Y-103626000D01*
X124061326Y-103621535D01*
X124023633Y-103610101D01*
X123988897Y-103591534D01*
X123958452Y-103566548D01*
X123933466Y-103536103D01*
X123914899Y-103501367D01*
X123903465Y-103463674D01*
X123899000Y-103418339D01*
X123899000Y-102331661D01*
X123903465Y-102286326D01*
X123914899Y-102248633D01*
X123933466Y-102213897D01*
X123958452Y-102183452D01*
X123988897Y-102158466D01*
X124023633Y-102139899D01*
X124061326Y-102128465D01*
X124106661Y-102124000D01*
X124943339Y-102124000D01*
X124988674Y-102128465D01*
X124988674Y-102128465D01*
G37*
G36*
X122938674Y-102128465D02*
G01*
X122976367Y-102139899D01*
X123011103Y-102158466D01*
X123041548Y-102183452D01*
X123066534Y-102213897D01*
X123085101Y-102248633D01*
X123096535Y-102286326D01*
X123101000Y-102331661D01*
X123101000Y-103418339D01*
X123096535Y-103463674D01*
X123085101Y-103501367D01*
X123066534Y-103536103D01*
X123041548Y-103566548D01*
X123011103Y-103591534D01*
X122976367Y-103610101D01*
X122938674Y-103621535D01*
X122893339Y-103626000D01*
X122056661Y-103626000D01*
X122011326Y-103621535D01*
X121973633Y-103610101D01*
X121938897Y-103591534D01*
X121908452Y-103566548D01*
X121883466Y-103536103D01*
X121864899Y-103501367D01*
X121853465Y-103463674D01*
X121849000Y-103418339D01*
X121849000Y-102331661D01*
X121853465Y-102286326D01*
X121864899Y-102248633D01*
X121883466Y-102213897D01*
X121908452Y-102183452D01*
X121938897Y-102158466D01*
X121973633Y-102139899D01*
X122011326Y-102128465D01*
X122056661Y-102124000D01*
X122893339Y-102124000D01*
X122938674Y-102128465D01*
X122938674Y-102128465D01*
G37*
G36*
X120726000Y-103251000D02*
G01*
X118724000Y-103251000D01*
X118724000Y-102349000D01*
X120726000Y-102349000D01*
X120726000Y-103251000D01*
X120726000Y-103251000D01*
G37*
G36*
X192328800Y-102946200D02*
G01*
X191465200Y-102946200D01*
X191465200Y-100711000D01*
X192328800Y-100711000D01*
X192328800Y-102946200D01*
X192328800Y-102946200D01*
G37*
G36*
X189788800Y-102946200D02*
G01*
X188925200Y-102946200D01*
X188925200Y-100711000D01*
X189788800Y-100711000D01*
X189788800Y-102946200D01*
X189788800Y-102946200D01*
G37*
G36*
X188518800Y-102946200D02*
G01*
X187655200Y-102946200D01*
X187655200Y-100711000D01*
X188518800Y-100711000D01*
X188518800Y-102946200D01*
X188518800Y-102946200D01*
G37*
G36*
X191058800Y-102946200D02*
G01*
X190195200Y-102946200D01*
X190195200Y-100711000D01*
X191058800Y-100711000D01*
X191058800Y-102946200D01*
X191058800Y-102946200D01*
G37*
G36*
X187248800Y-102946200D02*
G01*
X186385200Y-102946200D01*
X186385200Y-100711000D01*
X187248800Y-100711000D01*
X187248800Y-102946200D01*
X187248800Y-102946200D01*
G37*
G36*
X185978800Y-102946200D02*
G01*
X185115200Y-102946200D01*
X185115200Y-100711000D01*
X185978800Y-100711000D01*
X185978800Y-102946200D01*
X185978800Y-102946200D01*
G37*
G36*
X184708800Y-102946200D02*
G01*
X183845200Y-102946200D01*
X183845200Y-100711000D01*
X184708800Y-100711000D01*
X184708800Y-102946200D01*
X184708800Y-102946200D01*
G37*
G36*
X193598800Y-102946200D02*
G01*
X192735200Y-102946200D01*
X192735200Y-100711000D01*
X193598800Y-100711000D01*
X193598800Y-102946200D01*
X193598800Y-102946200D01*
G37*
G36*
X157410674Y-101598465D02*
G01*
X157448367Y-101609899D01*
X157483103Y-101628466D01*
X157513548Y-101653452D01*
X157538534Y-101683897D01*
X157557101Y-101718633D01*
X157568535Y-101756326D01*
X157573000Y-101801661D01*
X157573000Y-102638339D01*
X157568535Y-102683674D01*
X157557101Y-102721367D01*
X157538534Y-102756103D01*
X157513548Y-102786548D01*
X157483103Y-102811534D01*
X157448367Y-102830101D01*
X157410674Y-102841535D01*
X157365339Y-102846000D01*
X156278661Y-102846000D01*
X156233326Y-102841535D01*
X156195633Y-102830101D01*
X156160897Y-102811534D01*
X156130452Y-102786548D01*
X156105466Y-102756103D01*
X156086899Y-102721367D01*
X156075465Y-102683674D01*
X156071000Y-102638339D01*
X156071000Y-101801661D01*
X156075465Y-101756326D01*
X156086899Y-101718633D01*
X156105466Y-101683897D01*
X156130452Y-101653452D01*
X156160897Y-101628466D01*
X156195633Y-101609899D01*
X156233326Y-101598465D01*
X156278661Y-101594000D01*
X157365339Y-101594000D01*
X157410674Y-101598465D01*
X157410674Y-101598465D01*
G37*
G36*
X113377674Y-101129465D02*
G01*
X113415367Y-101140899D01*
X113450103Y-101159466D01*
X113480548Y-101184452D01*
X113505534Y-101214897D01*
X113524101Y-101249633D01*
X113535535Y-101287326D01*
X113540000Y-101332661D01*
X113540000Y-102169339D01*
X113535535Y-102214674D01*
X113524101Y-102252367D01*
X113505534Y-102287103D01*
X113480548Y-102317548D01*
X113450103Y-102342534D01*
X113415367Y-102361101D01*
X113377674Y-102372535D01*
X113332339Y-102377000D01*
X112245661Y-102377000D01*
X112200326Y-102372535D01*
X112162633Y-102361101D01*
X112127897Y-102342534D01*
X112097452Y-102317548D01*
X112072466Y-102287103D01*
X112053899Y-102252367D01*
X112042465Y-102214674D01*
X112038000Y-102169339D01*
X112038000Y-101332661D01*
X112042465Y-101287326D01*
X112053899Y-101249633D01*
X112072466Y-101214897D01*
X112097452Y-101184452D01*
X112127897Y-101159466D01*
X112162633Y-101140899D01*
X112200326Y-101129465D01*
X112245661Y-101125000D01*
X113332339Y-101125000D01*
X113377674Y-101129465D01*
X113377674Y-101129465D01*
G37*
G36*
X109988674Y-101128465D02*
G01*
X110026367Y-101139899D01*
X110061103Y-101158466D01*
X110091548Y-101183452D01*
X110116534Y-101213897D01*
X110135101Y-101248633D01*
X110146535Y-101286326D01*
X110151000Y-101331661D01*
X110151000Y-102168339D01*
X110146535Y-102213674D01*
X110135101Y-102251367D01*
X110116534Y-102286103D01*
X110091548Y-102316548D01*
X110061103Y-102341534D01*
X110026367Y-102360101D01*
X109988674Y-102371535D01*
X109943339Y-102376000D01*
X108856661Y-102376000D01*
X108811326Y-102371535D01*
X108773633Y-102360101D01*
X108738897Y-102341534D01*
X108708452Y-102316548D01*
X108683466Y-102286103D01*
X108664899Y-102251367D01*
X108653465Y-102213674D01*
X108649000Y-102168339D01*
X108649000Y-101331661D01*
X108653465Y-101286326D01*
X108664899Y-101248633D01*
X108683466Y-101213897D01*
X108708452Y-101183452D01*
X108738897Y-101158466D01*
X108773633Y-101139899D01*
X108811326Y-101128465D01*
X108856661Y-101124000D01*
X109943339Y-101124000D01*
X109988674Y-101128465D01*
X109988674Y-101128465D01*
G37*
G36*
X117726000Y-102301000D02*
G01*
X115724000Y-102301000D01*
X115724000Y-101399000D01*
X117726000Y-101399000D01*
X117726000Y-102301000D01*
X117726000Y-102301000D01*
G37*
G36*
X176559279Y-100305109D02*
G01*
X176629127Y-100334041D01*
X176727908Y-100374957D01*
X176727909Y-100374958D01*
X176879673Y-100476363D01*
X177008737Y-100605427D01*
X177008738Y-100605429D01*
X177110143Y-100757192D01*
X177179991Y-100925822D01*
X177215600Y-101104838D01*
X177215600Y-101287362D01*
X177179991Y-101466378D01*
X177110143Y-101635008D01*
X177110142Y-101635009D01*
X177008737Y-101786773D01*
X176879673Y-101915837D01*
X176803275Y-101966884D01*
X176727908Y-102017243D01*
X176629127Y-102058159D01*
X176559279Y-102087091D01*
X176380262Y-102122700D01*
X176197738Y-102122700D01*
X176018721Y-102087091D01*
X175948873Y-102058159D01*
X175850092Y-102017243D01*
X175774725Y-101966884D01*
X175698327Y-101915837D01*
X175569263Y-101786773D01*
X175467858Y-101635009D01*
X175467857Y-101635008D01*
X175398009Y-101466378D01*
X175362400Y-101287362D01*
X175362400Y-101104838D01*
X175398009Y-100925822D01*
X175467857Y-100757192D01*
X175569262Y-100605429D01*
X175569263Y-100605427D01*
X175698327Y-100476363D01*
X175850091Y-100374958D01*
X175850092Y-100374957D01*
X175948873Y-100334041D01*
X176018721Y-100305109D01*
X176197738Y-100269500D01*
X176380262Y-100269500D01*
X176559279Y-100305109D01*
X176559279Y-100305109D01*
G37*
G36*
X161319279Y-100305109D02*
G01*
X161389127Y-100334041D01*
X161487908Y-100374957D01*
X161487909Y-100374958D01*
X161639673Y-100476363D01*
X161768737Y-100605427D01*
X161768738Y-100605429D01*
X161870143Y-100757192D01*
X161939991Y-100925822D01*
X161975600Y-101104838D01*
X161975600Y-101287362D01*
X161939991Y-101466378D01*
X161870143Y-101635008D01*
X161870142Y-101635009D01*
X161768737Y-101786773D01*
X161639673Y-101915837D01*
X161563275Y-101966884D01*
X161487908Y-102017243D01*
X161389127Y-102058159D01*
X161319279Y-102087091D01*
X161140262Y-102122700D01*
X160957738Y-102122700D01*
X160778721Y-102087091D01*
X160708873Y-102058159D01*
X160610092Y-102017243D01*
X160534725Y-101966884D01*
X160458327Y-101915837D01*
X160329263Y-101786773D01*
X160227858Y-101635009D01*
X160227857Y-101635008D01*
X160158009Y-101466378D01*
X160122400Y-101287362D01*
X160122400Y-101104838D01*
X160158009Y-100925822D01*
X160227857Y-100757192D01*
X160329262Y-100605429D01*
X160329263Y-100605427D01*
X160458327Y-100476363D01*
X160610091Y-100374958D01*
X160610092Y-100374957D01*
X160708873Y-100334041D01*
X160778721Y-100305109D01*
X160957738Y-100269500D01*
X161140262Y-100269500D01*
X161319279Y-100305109D01*
X161319279Y-100305109D01*
G37*
G36*
X130839279Y-100305109D02*
G01*
X130909127Y-100334041D01*
X131007908Y-100374957D01*
X131007909Y-100374958D01*
X131159673Y-100476363D01*
X131288737Y-100605427D01*
X131288738Y-100605429D01*
X131390143Y-100757192D01*
X131459991Y-100925822D01*
X131495600Y-101104838D01*
X131495600Y-101287362D01*
X131459991Y-101466378D01*
X131390143Y-101635008D01*
X131390142Y-101635009D01*
X131288737Y-101786773D01*
X131159673Y-101915837D01*
X131083275Y-101966884D01*
X131007908Y-102017243D01*
X130909127Y-102058159D01*
X130839279Y-102087091D01*
X130660262Y-102122700D01*
X130477738Y-102122700D01*
X130298721Y-102087091D01*
X130228873Y-102058159D01*
X130130092Y-102017243D01*
X130054725Y-101966884D01*
X129978327Y-101915837D01*
X129849263Y-101786773D01*
X129747858Y-101635009D01*
X129747857Y-101635008D01*
X129678009Y-101466378D01*
X129642400Y-101287362D01*
X129642400Y-101104838D01*
X129678009Y-100925822D01*
X129747857Y-100757192D01*
X129849262Y-100605429D01*
X129849263Y-100605427D01*
X129978327Y-100476363D01*
X130130091Y-100374958D01*
X130130092Y-100374957D01*
X130228873Y-100334041D01*
X130298721Y-100305109D01*
X130477738Y-100269500D01*
X130660262Y-100269500D01*
X130839279Y-100305109D01*
X130839279Y-100305109D01*
G37*
G36*
X146079279Y-100305109D02*
G01*
X146149127Y-100334041D01*
X146247908Y-100374957D01*
X146247909Y-100374958D01*
X146399673Y-100476363D01*
X146528737Y-100605427D01*
X146528738Y-100605429D01*
X146630143Y-100757192D01*
X146699991Y-100925822D01*
X146735600Y-101104838D01*
X146735600Y-101287362D01*
X146699991Y-101466378D01*
X146630143Y-101635008D01*
X146630142Y-101635009D01*
X146528737Y-101786773D01*
X146399673Y-101915837D01*
X146323275Y-101966884D01*
X146247908Y-102017243D01*
X146149127Y-102058159D01*
X146079279Y-102087091D01*
X145900262Y-102122700D01*
X145717738Y-102122700D01*
X145538721Y-102087091D01*
X145468873Y-102058159D01*
X145370092Y-102017243D01*
X145294725Y-101966884D01*
X145218327Y-101915837D01*
X145089263Y-101786773D01*
X144987858Y-101635009D01*
X144987857Y-101635008D01*
X144918009Y-101466378D01*
X144882400Y-101287362D01*
X144882400Y-101104838D01*
X144918009Y-100925822D01*
X144987857Y-100757192D01*
X145089262Y-100605429D01*
X145089263Y-100605427D01*
X145218327Y-100476363D01*
X145370091Y-100374958D01*
X145370092Y-100374957D01*
X145468873Y-100334041D01*
X145538721Y-100305109D01*
X145717738Y-100269500D01*
X145900262Y-100269500D01*
X146079279Y-100305109D01*
X146079279Y-100305109D01*
G37*
G36*
X110198674Y-98522765D02*
G01*
X110236367Y-98534199D01*
X110271103Y-98552766D01*
X110301548Y-98577752D01*
X110326534Y-98608197D01*
X110345101Y-98642933D01*
X110356535Y-98680626D01*
X110361000Y-98725961D01*
X110361000Y-99562639D01*
X110356535Y-99607974D01*
X110345101Y-99645667D01*
X110326534Y-99680403D01*
X110301548Y-99710848D01*
X110271103Y-99735834D01*
X110236367Y-99754401D01*
X110198674Y-99765835D01*
X110153339Y-99770300D01*
X109066661Y-99770300D01*
X109021326Y-99765835D01*
X108983633Y-99754401D01*
X108948897Y-99735834D01*
X108918452Y-99710848D01*
X108893466Y-99680403D01*
X108874899Y-99645667D01*
X108863465Y-99607974D01*
X108859000Y-99562639D01*
X108859000Y-98725961D01*
X108863465Y-98680626D01*
X108874899Y-98642933D01*
X108893466Y-98608197D01*
X108918452Y-98577752D01*
X108948897Y-98552766D01*
X108983633Y-98534199D01*
X109021326Y-98522765D01*
X109066661Y-98518300D01*
X110153339Y-98518300D01*
X110198674Y-98522765D01*
X110198674Y-98522765D01*
G37*
G36*
X123122195Y-98223622D02*
G01*
X123171267Y-98233383D01*
X123309942Y-98290824D01*
X123434747Y-98374216D01*
X123540884Y-98480353D01*
X123624276Y-98605158D01*
X123681717Y-98743833D01*
X123690801Y-98789500D01*
X123711000Y-98891048D01*
X123711000Y-99041152D01*
X123705592Y-99068339D01*
X123681717Y-99188367D01*
X123624276Y-99327042D01*
X123540884Y-99451847D01*
X123434747Y-99557984D01*
X123309942Y-99641376D01*
X123171267Y-99698817D01*
X123122195Y-99708578D01*
X123024052Y-99728100D01*
X122873948Y-99728100D01*
X122775805Y-99708578D01*
X122726733Y-99698817D01*
X122588058Y-99641376D01*
X122463253Y-99557984D01*
X122357116Y-99451847D01*
X122273724Y-99327042D01*
X122216283Y-99188367D01*
X122192408Y-99068339D01*
X122187000Y-99041152D01*
X122187000Y-98891048D01*
X122207199Y-98789500D01*
X122216283Y-98743833D01*
X122273724Y-98605158D01*
X122357116Y-98480353D01*
X122463253Y-98374216D01*
X122588058Y-98290824D01*
X122726733Y-98233383D01*
X122775805Y-98223622D01*
X122873948Y-98204100D01*
X123024052Y-98204100D01*
X123122195Y-98223622D01*
X123122195Y-98223622D01*
G37*
G36*
X153602195Y-98223622D02*
G01*
X153651267Y-98233383D01*
X153789942Y-98290824D01*
X153914747Y-98374216D01*
X154020884Y-98480353D01*
X154104276Y-98605158D01*
X154161717Y-98743833D01*
X154170801Y-98789500D01*
X154191000Y-98891048D01*
X154191000Y-99041152D01*
X154185592Y-99068339D01*
X154161717Y-99188367D01*
X154104276Y-99327042D01*
X154020884Y-99451847D01*
X153914747Y-99557984D01*
X153789942Y-99641376D01*
X153651267Y-99698817D01*
X153602195Y-99708578D01*
X153504052Y-99728100D01*
X153353948Y-99728100D01*
X153255805Y-99708578D01*
X153206733Y-99698817D01*
X153068058Y-99641376D01*
X152943253Y-99557984D01*
X152837116Y-99451847D01*
X152753724Y-99327042D01*
X152696283Y-99188367D01*
X152672408Y-99068339D01*
X152667000Y-99041152D01*
X152667000Y-98891048D01*
X152687199Y-98789500D01*
X152696283Y-98743833D01*
X152753724Y-98605158D01*
X152837116Y-98480353D01*
X152943253Y-98374216D01*
X153068058Y-98290824D01*
X153206733Y-98233383D01*
X153255805Y-98223622D01*
X153353948Y-98204100D01*
X153504052Y-98204100D01*
X153602195Y-98223622D01*
X153602195Y-98223622D01*
G37*
G36*
X138362195Y-98223622D02*
G01*
X138411267Y-98233383D01*
X138549942Y-98290824D01*
X138674747Y-98374216D01*
X138780884Y-98480353D01*
X138864276Y-98605158D01*
X138921717Y-98743833D01*
X138930801Y-98789500D01*
X138951000Y-98891048D01*
X138951000Y-99041152D01*
X138945592Y-99068339D01*
X138921717Y-99188367D01*
X138864276Y-99327042D01*
X138780884Y-99451847D01*
X138674747Y-99557984D01*
X138549942Y-99641376D01*
X138411267Y-99698817D01*
X138362195Y-99708578D01*
X138264052Y-99728100D01*
X138113948Y-99728100D01*
X138015805Y-99708578D01*
X137966733Y-99698817D01*
X137828058Y-99641376D01*
X137703253Y-99557984D01*
X137597116Y-99451847D01*
X137513724Y-99327042D01*
X137456283Y-99188367D01*
X137432408Y-99068339D01*
X137427000Y-99041152D01*
X137427000Y-98891048D01*
X137447199Y-98789500D01*
X137456283Y-98743833D01*
X137513724Y-98605158D01*
X137597116Y-98480353D01*
X137703253Y-98374216D01*
X137828058Y-98290824D01*
X137966733Y-98233383D01*
X138015805Y-98223622D01*
X138113948Y-98204100D01*
X138264052Y-98204100D01*
X138362195Y-98223622D01*
X138362195Y-98223622D01*
G37*
G36*
X168842195Y-98223622D02*
G01*
X168891267Y-98233383D01*
X169029942Y-98290824D01*
X169154747Y-98374216D01*
X169260884Y-98480353D01*
X169344276Y-98605158D01*
X169401717Y-98743833D01*
X169410801Y-98789500D01*
X169431000Y-98891048D01*
X169431000Y-99041152D01*
X169425592Y-99068339D01*
X169401717Y-99188367D01*
X169344276Y-99327042D01*
X169260884Y-99451847D01*
X169154747Y-99557984D01*
X169029942Y-99641376D01*
X168891267Y-99698817D01*
X168842195Y-99708578D01*
X168744052Y-99728100D01*
X168593948Y-99728100D01*
X168495805Y-99708578D01*
X168446733Y-99698817D01*
X168308058Y-99641376D01*
X168183253Y-99557984D01*
X168077116Y-99451847D01*
X167993724Y-99327042D01*
X167936283Y-99188367D01*
X167912408Y-99068339D01*
X167907000Y-99041152D01*
X167907000Y-98891048D01*
X167927199Y-98789500D01*
X167936283Y-98743833D01*
X167993724Y-98605158D01*
X168077116Y-98480353D01*
X168183253Y-98374216D01*
X168308058Y-98290824D01*
X168446733Y-98233383D01*
X168495805Y-98223622D01*
X168593948Y-98204100D01*
X168744052Y-98204100D01*
X168842195Y-98223622D01*
X168842195Y-98223622D01*
G37*
G36*
X127449600Y-99716200D02*
G01*
X126046400Y-99716200D01*
X126046400Y-98013000D01*
X127449600Y-98013000D01*
X127449600Y-99716200D01*
X127449600Y-99716200D01*
G37*
G36*
X118713674Y-98028465D02*
G01*
X118751367Y-98039899D01*
X118786103Y-98058466D01*
X118816548Y-98083452D01*
X118841534Y-98113897D01*
X118860101Y-98148633D01*
X118871535Y-98186326D01*
X118876000Y-98231661D01*
X118876000Y-99068339D01*
X118871535Y-99113674D01*
X118860101Y-99151367D01*
X118841534Y-99186103D01*
X118816548Y-99216548D01*
X118786103Y-99241534D01*
X118751367Y-99260101D01*
X118713674Y-99271535D01*
X118668339Y-99276000D01*
X117581661Y-99276000D01*
X117536326Y-99271535D01*
X117498633Y-99260101D01*
X117463897Y-99241534D01*
X117433452Y-99216548D01*
X117408466Y-99186103D01*
X117389899Y-99151367D01*
X117378465Y-99113674D01*
X117374000Y-99068339D01*
X117374000Y-98231661D01*
X117378465Y-98186326D01*
X117389899Y-98148633D01*
X117408466Y-98113897D01*
X117433452Y-98083452D01*
X117463897Y-98058466D01*
X117498633Y-98039899D01*
X117536326Y-98028465D01*
X117581661Y-98024000D01*
X118668339Y-98024000D01*
X118713674Y-98028465D01*
X118713674Y-98028465D01*
G37*
G36*
X176427674Y-97541965D02*
G01*
X176465367Y-97553399D01*
X176500103Y-97571966D01*
X176530548Y-97596952D01*
X176555534Y-97627397D01*
X176574101Y-97662133D01*
X176585535Y-97699826D01*
X176590000Y-97745161D01*
X176590000Y-98581839D01*
X176585535Y-98627174D01*
X176574101Y-98664867D01*
X176555534Y-98699603D01*
X176530548Y-98730048D01*
X176500103Y-98755034D01*
X176465367Y-98773601D01*
X176427674Y-98785035D01*
X176382339Y-98789500D01*
X175295661Y-98789500D01*
X175250326Y-98785035D01*
X175212633Y-98773601D01*
X175177897Y-98755034D01*
X175147452Y-98730048D01*
X175122466Y-98699603D01*
X175103899Y-98664867D01*
X175092465Y-98627174D01*
X175088000Y-98581839D01*
X175088000Y-97745161D01*
X175092465Y-97699826D01*
X175103899Y-97662133D01*
X175122466Y-97627397D01*
X175147452Y-97596952D01*
X175177897Y-97571966D01*
X175212633Y-97553399D01*
X175250326Y-97541965D01*
X175295661Y-97537500D01*
X176382339Y-97537500D01*
X176427674Y-97541965D01*
X176427674Y-97541965D01*
G37*
G36*
X146384674Y-97431465D02*
G01*
X146422367Y-97442899D01*
X146457103Y-97461466D01*
X146487548Y-97486452D01*
X146512534Y-97516897D01*
X146531101Y-97551633D01*
X146542535Y-97589326D01*
X146547000Y-97634661D01*
X146547000Y-98471339D01*
X146542535Y-98516674D01*
X146531101Y-98554367D01*
X146512534Y-98589103D01*
X146487548Y-98619548D01*
X146457103Y-98644534D01*
X146422367Y-98663101D01*
X146384674Y-98674535D01*
X146339339Y-98679000D01*
X145252661Y-98679000D01*
X145207326Y-98674535D01*
X145169633Y-98663101D01*
X145134897Y-98644534D01*
X145104452Y-98619548D01*
X145079466Y-98589103D01*
X145060899Y-98554367D01*
X145049465Y-98516674D01*
X145045000Y-98471339D01*
X145045000Y-97634661D01*
X145049465Y-97589326D01*
X145060899Y-97551633D01*
X145079466Y-97516897D01*
X145104452Y-97486452D01*
X145134897Y-97461466D01*
X145169633Y-97442899D01*
X145207326Y-97431465D01*
X145252661Y-97427000D01*
X146339339Y-97427000D01*
X146384674Y-97431465D01*
X146384674Y-97431465D01*
G37*
G36*
X131398674Y-97431465D02*
G01*
X131436367Y-97442899D01*
X131471103Y-97461466D01*
X131501548Y-97486452D01*
X131526534Y-97516897D01*
X131545101Y-97551633D01*
X131556535Y-97589326D01*
X131561000Y-97634661D01*
X131561000Y-98471339D01*
X131556535Y-98516674D01*
X131545101Y-98554367D01*
X131526534Y-98589103D01*
X131501548Y-98619548D01*
X131471103Y-98644534D01*
X131436367Y-98663101D01*
X131398674Y-98674535D01*
X131353339Y-98679000D01*
X130266661Y-98679000D01*
X130221326Y-98674535D01*
X130183633Y-98663101D01*
X130148897Y-98644534D01*
X130118452Y-98619548D01*
X130093466Y-98589103D01*
X130074899Y-98554367D01*
X130063465Y-98516674D01*
X130059000Y-98471339D01*
X130059000Y-97634661D01*
X130063465Y-97589326D01*
X130074899Y-97551633D01*
X130093466Y-97516897D01*
X130118452Y-97486452D01*
X130148897Y-97461466D01*
X130183633Y-97442899D01*
X130221326Y-97431465D01*
X130266661Y-97427000D01*
X131353339Y-97427000D01*
X131398674Y-97431465D01*
X131398674Y-97431465D01*
G37*
G36*
X161624674Y-97431465D02*
G01*
X161662367Y-97442899D01*
X161697103Y-97461466D01*
X161727548Y-97486452D01*
X161752534Y-97516897D01*
X161771101Y-97551633D01*
X161782535Y-97589326D01*
X161787000Y-97634661D01*
X161787000Y-98471339D01*
X161782535Y-98516674D01*
X161771101Y-98554367D01*
X161752534Y-98589103D01*
X161727548Y-98619548D01*
X161697103Y-98644534D01*
X161662367Y-98663101D01*
X161624674Y-98674535D01*
X161579339Y-98679000D01*
X160492661Y-98679000D01*
X160447326Y-98674535D01*
X160409633Y-98663101D01*
X160374897Y-98644534D01*
X160344452Y-98619548D01*
X160319466Y-98589103D01*
X160300899Y-98554367D01*
X160289465Y-98516674D01*
X160285000Y-98471339D01*
X160285000Y-97634661D01*
X160289465Y-97589326D01*
X160300899Y-97551633D01*
X160319466Y-97516897D01*
X160344452Y-97486452D01*
X160374897Y-97461466D01*
X160409633Y-97442899D01*
X160447326Y-97431465D01*
X160492661Y-97427000D01*
X161579339Y-97427000D01*
X161624674Y-97431465D01*
X161624674Y-97431465D01*
G37*
G36*
X115749279Y-96805109D02*
G01*
X115819127Y-96834041D01*
X115917908Y-96874957D01*
X115917909Y-96874958D01*
X116069673Y-96976363D01*
X116198737Y-97105427D01*
X116248652Y-97180131D01*
X116300143Y-97257192D01*
X116341059Y-97355973D01*
X116369991Y-97425821D01*
X116405600Y-97604838D01*
X116405600Y-97787362D01*
X116369991Y-97966379D01*
X116344274Y-98028465D01*
X116300143Y-98135008D01*
X116300142Y-98135009D01*
X116198737Y-98286773D01*
X116069673Y-98415837D01*
X116003690Y-98459925D01*
X115917908Y-98517243D01*
X115832147Y-98552766D01*
X115749279Y-98587091D01*
X115570262Y-98622700D01*
X115387738Y-98622700D01*
X115208721Y-98587091D01*
X115125853Y-98552766D01*
X115040092Y-98517243D01*
X114954310Y-98459925D01*
X114888327Y-98415837D01*
X114759263Y-98286773D01*
X114657858Y-98135009D01*
X114657857Y-98135008D01*
X114613726Y-98028465D01*
X114588009Y-97966379D01*
X114552400Y-97787362D01*
X114552400Y-97604838D01*
X114588009Y-97425821D01*
X114616941Y-97355973D01*
X114657857Y-97257192D01*
X114709348Y-97180131D01*
X114759263Y-97105427D01*
X114888327Y-96976363D01*
X115040091Y-96874958D01*
X115040092Y-96874957D01*
X115138873Y-96834041D01*
X115208721Y-96805109D01*
X115387738Y-96769500D01*
X115570262Y-96769500D01*
X115749279Y-96805109D01*
X115749279Y-96805109D01*
G37*
G36*
X112749279Y-96805109D02*
G01*
X112819127Y-96834041D01*
X112917908Y-96874957D01*
X112917909Y-96874958D01*
X113069673Y-96976363D01*
X113198737Y-97105427D01*
X113248652Y-97180131D01*
X113300143Y-97257192D01*
X113341059Y-97355973D01*
X113369991Y-97425821D01*
X113405600Y-97604838D01*
X113405600Y-97787362D01*
X113369991Y-97966379D01*
X113344274Y-98028465D01*
X113300143Y-98135008D01*
X113300142Y-98135009D01*
X113198737Y-98286773D01*
X113069673Y-98415837D01*
X113003690Y-98459925D01*
X112917908Y-98517243D01*
X112832147Y-98552766D01*
X112749279Y-98587091D01*
X112570262Y-98622700D01*
X112387738Y-98622700D01*
X112208721Y-98587091D01*
X112125853Y-98552766D01*
X112040092Y-98517243D01*
X111954310Y-98459925D01*
X111888327Y-98415837D01*
X111759263Y-98286773D01*
X111657858Y-98135009D01*
X111657857Y-98135008D01*
X111613726Y-98028465D01*
X111588009Y-97966379D01*
X111552400Y-97787362D01*
X111552400Y-97604838D01*
X111588009Y-97425821D01*
X111616941Y-97355973D01*
X111657857Y-97257192D01*
X111709348Y-97180131D01*
X111759263Y-97105427D01*
X111888327Y-96976363D01*
X112040091Y-96874958D01*
X112040092Y-96874957D01*
X112138873Y-96834041D01*
X112208721Y-96805109D01*
X112387738Y-96769500D01*
X112570262Y-96769500D01*
X112749279Y-96805109D01*
X112749279Y-96805109D01*
G37*
G36*
X104249279Y-96805109D02*
G01*
X104319127Y-96834041D01*
X104417908Y-96874957D01*
X104417909Y-96874958D01*
X104569673Y-96976363D01*
X104698737Y-97105427D01*
X104748652Y-97180131D01*
X104800143Y-97257192D01*
X104841059Y-97355973D01*
X104869991Y-97425821D01*
X104905600Y-97604838D01*
X104905600Y-97787362D01*
X104869991Y-97966379D01*
X104844274Y-98028465D01*
X104800143Y-98135008D01*
X104800142Y-98135009D01*
X104698737Y-98286773D01*
X104569673Y-98415837D01*
X104503690Y-98459925D01*
X104417908Y-98517243D01*
X104332147Y-98552766D01*
X104249279Y-98587091D01*
X104070262Y-98622700D01*
X103887738Y-98622700D01*
X103708721Y-98587091D01*
X103625853Y-98552766D01*
X103540092Y-98517243D01*
X103454310Y-98459925D01*
X103388327Y-98415837D01*
X103259263Y-98286773D01*
X103157858Y-98135009D01*
X103157857Y-98135008D01*
X103113726Y-98028465D01*
X103088009Y-97966379D01*
X103052400Y-97787362D01*
X103052400Y-97604838D01*
X103088009Y-97425821D01*
X103116941Y-97355973D01*
X103157857Y-97257192D01*
X103209348Y-97180131D01*
X103259263Y-97105427D01*
X103388327Y-96976363D01*
X103540091Y-96874958D01*
X103540092Y-96874957D01*
X103638873Y-96834041D01*
X103708721Y-96805109D01*
X103887738Y-96769500D01*
X104070262Y-96769500D01*
X104249279Y-96805109D01*
X104249279Y-96805109D01*
G37*
G36*
X110198674Y-96472765D02*
G01*
X110236367Y-96484199D01*
X110271103Y-96502766D01*
X110301548Y-96527752D01*
X110326534Y-96558197D01*
X110345101Y-96592933D01*
X110356535Y-96630626D01*
X110361000Y-96675961D01*
X110361000Y-97512639D01*
X110356535Y-97557974D01*
X110345101Y-97595667D01*
X110326534Y-97630403D01*
X110301548Y-97660848D01*
X110271103Y-97685834D01*
X110236367Y-97704401D01*
X110198674Y-97715835D01*
X110153339Y-97720300D01*
X109066661Y-97720300D01*
X109021326Y-97715835D01*
X108983633Y-97704401D01*
X108948897Y-97685834D01*
X108918452Y-97660848D01*
X108893466Y-97630403D01*
X108874899Y-97595667D01*
X108863465Y-97557974D01*
X108859000Y-97512639D01*
X108859000Y-96675961D01*
X108863465Y-96630626D01*
X108874899Y-96592933D01*
X108893466Y-96558197D01*
X108918452Y-96527752D01*
X108948897Y-96502766D01*
X108983633Y-96484199D01*
X109021326Y-96472765D01*
X109066661Y-96468300D01*
X110153339Y-96468300D01*
X110198674Y-96472765D01*
X110198674Y-96472765D01*
G37*
G36*
X118713674Y-95978465D02*
G01*
X118751367Y-95989899D01*
X118786103Y-96008466D01*
X118816548Y-96033452D01*
X118841534Y-96063897D01*
X118860101Y-96098633D01*
X118871535Y-96136326D01*
X118876000Y-96181661D01*
X118876000Y-97018339D01*
X118871535Y-97063674D01*
X118860101Y-97101367D01*
X118841534Y-97136103D01*
X118816548Y-97166548D01*
X118786103Y-97191534D01*
X118751367Y-97210101D01*
X118713674Y-97221535D01*
X118668339Y-97226000D01*
X117581661Y-97226000D01*
X117536326Y-97221535D01*
X117498633Y-97210101D01*
X117463897Y-97191534D01*
X117433452Y-97166548D01*
X117408466Y-97136103D01*
X117389899Y-97101367D01*
X117378465Y-97063674D01*
X117374000Y-97018339D01*
X117374000Y-96181661D01*
X117378465Y-96136326D01*
X117389899Y-96098633D01*
X117408466Y-96063897D01*
X117433452Y-96033452D01*
X117463897Y-96008466D01*
X117498633Y-95989899D01*
X117536326Y-95978465D01*
X117581661Y-95974000D01*
X118668339Y-95974000D01*
X118713674Y-95978465D01*
X118713674Y-95978465D01*
G37*
G36*
X123122195Y-95683622D02*
G01*
X123171267Y-95693383D01*
X123309942Y-95750824D01*
X123434747Y-95834216D01*
X123540884Y-95940353D01*
X123624276Y-96065158D01*
X123681717Y-96203833D01*
X123681717Y-96203834D01*
X123711000Y-96351048D01*
X123711000Y-96501152D01*
X123701426Y-96549282D01*
X123681717Y-96648367D01*
X123624276Y-96787042D01*
X123540884Y-96911847D01*
X123434747Y-97017984D01*
X123309942Y-97101376D01*
X123171267Y-97158817D01*
X123132400Y-97166548D01*
X123024052Y-97188100D01*
X122873948Y-97188100D01*
X122765600Y-97166548D01*
X122726733Y-97158817D01*
X122588058Y-97101376D01*
X122463253Y-97017984D01*
X122357116Y-96911847D01*
X122273724Y-96787042D01*
X122216283Y-96648367D01*
X122196574Y-96549282D01*
X122187000Y-96501152D01*
X122187000Y-96351048D01*
X122216283Y-96203834D01*
X122216283Y-96203833D01*
X122273724Y-96065158D01*
X122357116Y-95940353D01*
X122463253Y-95834216D01*
X122588058Y-95750824D01*
X122726733Y-95693383D01*
X122775805Y-95683622D01*
X122873948Y-95664100D01*
X123024052Y-95664100D01*
X123122195Y-95683622D01*
X123122195Y-95683622D01*
G37*
G36*
X153602195Y-95683622D02*
G01*
X153651267Y-95693383D01*
X153789942Y-95750824D01*
X153914747Y-95834216D01*
X154020884Y-95940353D01*
X154104276Y-96065158D01*
X154161717Y-96203833D01*
X154161717Y-96203834D01*
X154191000Y-96351048D01*
X154191000Y-96501152D01*
X154181426Y-96549282D01*
X154161717Y-96648367D01*
X154104276Y-96787042D01*
X154020884Y-96911847D01*
X153914747Y-97017984D01*
X153789942Y-97101376D01*
X153651267Y-97158817D01*
X153612400Y-97166548D01*
X153504052Y-97188100D01*
X153353948Y-97188100D01*
X153245600Y-97166548D01*
X153206733Y-97158817D01*
X153068058Y-97101376D01*
X152943253Y-97017984D01*
X152837116Y-96911847D01*
X152753724Y-96787042D01*
X152696283Y-96648367D01*
X152676574Y-96549282D01*
X152667000Y-96501152D01*
X152667000Y-96351048D01*
X152696283Y-96203834D01*
X152696283Y-96203833D01*
X152753724Y-96065158D01*
X152837116Y-95940353D01*
X152943253Y-95834216D01*
X153068058Y-95750824D01*
X153206733Y-95693383D01*
X153255805Y-95683622D01*
X153353948Y-95664100D01*
X153504052Y-95664100D01*
X153602195Y-95683622D01*
X153602195Y-95683622D01*
G37*
G36*
X168842195Y-95683622D02*
G01*
X168891267Y-95693383D01*
X169029942Y-95750824D01*
X169154747Y-95834216D01*
X169260884Y-95940353D01*
X169344276Y-96065158D01*
X169401717Y-96203833D01*
X169401717Y-96203834D01*
X169431000Y-96351048D01*
X169431000Y-96501152D01*
X169421426Y-96549282D01*
X169401717Y-96648367D01*
X169344276Y-96787042D01*
X169260884Y-96911847D01*
X169154747Y-97017984D01*
X169029942Y-97101376D01*
X168891267Y-97158817D01*
X168852400Y-97166548D01*
X168744052Y-97188100D01*
X168593948Y-97188100D01*
X168485600Y-97166548D01*
X168446733Y-97158817D01*
X168308058Y-97101376D01*
X168183253Y-97017984D01*
X168077116Y-96911847D01*
X167993724Y-96787042D01*
X167936283Y-96648367D01*
X167916574Y-96549282D01*
X167907000Y-96501152D01*
X167907000Y-96351048D01*
X167936283Y-96203834D01*
X167936283Y-96203833D01*
X167993724Y-96065158D01*
X168077116Y-95940353D01*
X168183253Y-95834216D01*
X168308058Y-95750824D01*
X168446733Y-95693383D01*
X168495805Y-95683622D01*
X168593948Y-95664100D01*
X168744052Y-95664100D01*
X168842195Y-95683622D01*
X168842195Y-95683622D01*
G37*
G36*
X138362195Y-95683622D02*
G01*
X138411267Y-95693383D01*
X138549942Y-95750824D01*
X138674747Y-95834216D01*
X138780884Y-95940353D01*
X138864276Y-96065158D01*
X138921717Y-96203833D01*
X138921717Y-96203834D01*
X138951000Y-96351048D01*
X138951000Y-96501152D01*
X138941426Y-96549282D01*
X138921717Y-96648367D01*
X138864276Y-96787042D01*
X138780884Y-96911847D01*
X138674747Y-97017984D01*
X138549942Y-97101376D01*
X138411267Y-97158817D01*
X138372400Y-97166548D01*
X138264052Y-97188100D01*
X138113948Y-97188100D01*
X138005600Y-97166548D01*
X137966733Y-97158817D01*
X137828058Y-97101376D01*
X137703253Y-97017984D01*
X137597116Y-96911847D01*
X137513724Y-96787042D01*
X137456283Y-96648367D01*
X137436574Y-96549282D01*
X137427000Y-96501152D01*
X137427000Y-96351048D01*
X137456283Y-96203834D01*
X137456283Y-96203833D01*
X137513724Y-96065158D01*
X137597116Y-95940353D01*
X137703253Y-95834216D01*
X137828058Y-95750824D01*
X137966733Y-95693383D01*
X138015805Y-95683622D01*
X138113948Y-95664100D01*
X138264052Y-95664100D01*
X138362195Y-95683622D01*
X138362195Y-95683622D01*
G37*
G36*
X127449600Y-96816200D02*
G01*
X126046400Y-96816200D01*
X126046400Y-95113000D01*
X127449600Y-95113000D01*
X127449600Y-96816200D01*
X127449600Y-96816200D01*
G37*
G36*
X183437765Y-94756620D02*
G01*
X183627288Y-94835123D01*
X183797854Y-94949092D01*
X183942908Y-95094146D01*
X184014021Y-95200574D01*
X184056878Y-95264714D01*
X184135380Y-95454235D01*
X184175400Y-95655430D01*
X184175400Y-95860570D01*
X184135380Y-96061765D01*
X184085718Y-96181661D01*
X184056877Y-96251288D01*
X183942908Y-96421854D01*
X183797854Y-96566908D01*
X183627288Y-96680877D01*
X183627287Y-96680878D01*
X183627286Y-96680878D01*
X183437765Y-96759380D01*
X183236570Y-96799400D01*
X183031430Y-96799400D01*
X182830235Y-96759380D01*
X182640714Y-96680878D01*
X182640713Y-96680878D01*
X182640712Y-96680877D01*
X182470146Y-96566908D01*
X182325092Y-96421854D01*
X182211123Y-96251288D01*
X182182283Y-96181661D01*
X182132620Y-96061765D01*
X182092600Y-95860570D01*
X182092600Y-95655430D01*
X182132620Y-95454235D01*
X182211122Y-95264714D01*
X182253979Y-95200574D01*
X182325092Y-95094146D01*
X182470146Y-94949092D01*
X182640712Y-94835123D01*
X182830235Y-94756620D01*
X183031430Y-94716600D01*
X183236570Y-94716600D01*
X183437765Y-94756620D01*
X183437765Y-94756620D01*
G37*
G36*
X191057765Y-94756620D02*
G01*
X191247288Y-94835123D01*
X191417854Y-94949092D01*
X191562908Y-95094146D01*
X191634021Y-95200574D01*
X191676878Y-95264714D01*
X191755380Y-95454235D01*
X191795400Y-95655430D01*
X191795400Y-95860570D01*
X191755380Y-96061765D01*
X191705718Y-96181661D01*
X191676877Y-96251288D01*
X191562908Y-96421854D01*
X191417854Y-96566908D01*
X191247288Y-96680877D01*
X191247287Y-96680878D01*
X191247286Y-96680878D01*
X191057765Y-96759380D01*
X190856570Y-96799400D01*
X190651430Y-96799400D01*
X190450235Y-96759380D01*
X190260714Y-96680878D01*
X190260713Y-96680878D01*
X190260712Y-96680877D01*
X190090146Y-96566908D01*
X189945092Y-96421854D01*
X189831123Y-96251288D01*
X189802283Y-96181661D01*
X189752620Y-96061765D01*
X189712600Y-95860570D01*
X189712600Y-95655430D01*
X189752620Y-95454235D01*
X189831122Y-95264714D01*
X189873979Y-95200574D01*
X189945092Y-95094146D01*
X190090146Y-94949092D01*
X190260712Y-94835123D01*
X190450235Y-94756620D01*
X190651430Y-94716600D01*
X190856570Y-94716600D01*
X191057765Y-94756620D01*
X191057765Y-94756620D01*
G37*
G36*
X193597765Y-94756620D02*
G01*
X193787288Y-94835123D01*
X193957854Y-94949092D01*
X194102908Y-95094146D01*
X194174021Y-95200574D01*
X194216878Y-95264714D01*
X194295380Y-95454235D01*
X194335400Y-95655430D01*
X194335400Y-95860570D01*
X194295380Y-96061765D01*
X194245718Y-96181661D01*
X194216877Y-96251288D01*
X194102908Y-96421854D01*
X193957854Y-96566908D01*
X193787288Y-96680877D01*
X193787287Y-96680878D01*
X193787286Y-96680878D01*
X193597765Y-96759380D01*
X193396570Y-96799400D01*
X193191430Y-96799400D01*
X192990235Y-96759380D01*
X192800714Y-96680878D01*
X192800713Y-96680878D01*
X192800712Y-96680877D01*
X192630146Y-96566908D01*
X192485092Y-96421854D01*
X192371123Y-96251288D01*
X192342283Y-96181661D01*
X192292620Y-96061765D01*
X192252600Y-95860570D01*
X192252600Y-95655430D01*
X192292620Y-95454235D01*
X192371122Y-95264714D01*
X192413979Y-95200574D01*
X192485092Y-95094146D01*
X192630146Y-94949092D01*
X192800712Y-94835123D01*
X192990235Y-94756620D01*
X193191430Y-94716600D01*
X193396570Y-94716600D01*
X193597765Y-94756620D01*
X193597765Y-94756620D01*
G37*
G36*
X188517765Y-94756620D02*
G01*
X188707288Y-94835123D01*
X188877854Y-94949092D01*
X189022908Y-95094146D01*
X189094021Y-95200574D01*
X189136878Y-95264714D01*
X189215380Y-95454235D01*
X189255400Y-95655430D01*
X189255400Y-95860570D01*
X189215380Y-96061765D01*
X189165718Y-96181661D01*
X189136877Y-96251288D01*
X189022908Y-96421854D01*
X188877854Y-96566908D01*
X188707288Y-96680877D01*
X188707287Y-96680878D01*
X188707286Y-96680878D01*
X188517765Y-96759380D01*
X188316570Y-96799400D01*
X188111430Y-96799400D01*
X187910235Y-96759380D01*
X187720714Y-96680878D01*
X187720713Y-96680878D01*
X187720712Y-96680877D01*
X187550146Y-96566908D01*
X187405092Y-96421854D01*
X187291123Y-96251288D01*
X187262283Y-96181661D01*
X187212620Y-96061765D01*
X187172600Y-95860570D01*
X187172600Y-95655430D01*
X187212620Y-95454235D01*
X187291122Y-95264714D01*
X187333979Y-95200574D01*
X187405092Y-95094146D01*
X187550146Y-94949092D01*
X187720712Y-94835123D01*
X187910235Y-94756620D01*
X188111430Y-94716600D01*
X188316570Y-94716600D01*
X188517765Y-94756620D01*
X188517765Y-94756620D01*
G37*
G36*
X185977765Y-94756620D02*
G01*
X186167288Y-94835123D01*
X186337854Y-94949092D01*
X186482908Y-95094146D01*
X186554021Y-95200574D01*
X186596878Y-95264714D01*
X186675380Y-95454235D01*
X186715400Y-95655430D01*
X186715400Y-95860570D01*
X186675380Y-96061765D01*
X186625718Y-96181661D01*
X186596877Y-96251288D01*
X186482908Y-96421854D01*
X186337854Y-96566908D01*
X186167288Y-96680877D01*
X186167287Y-96680878D01*
X186167286Y-96680878D01*
X185977765Y-96759380D01*
X185776570Y-96799400D01*
X185571430Y-96799400D01*
X185370235Y-96759380D01*
X185180714Y-96680878D01*
X185180713Y-96680878D01*
X185180712Y-96680877D01*
X185010146Y-96566908D01*
X184865092Y-96421854D01*
X184751123Y-96251288D01*
X184722283Y-96181661D01*
X184672620Y-96061765D01*
X184632600Y-95860570D01*
X184632600Y-95655430D01*
X184672620Y-95454235D01*
X184751122Y-95264714D01*
X184793979Y-95200574D01*
X184865092Y-95094146D01*
X185010146Y-94949092D01*
X185180712Y-94835123D01*
X185370235Y-94756620D01*
X185571430Y-94716600D01*
X185776570Y-94716600D01*
X185977765Y-94756620D01*
X185977765Y-94756620D01*
G37*
G36*
X176427674Y-95491965D02*
G01*
X176465367Y-95503399D01*
X176500103Y-95521966D01*
X176530548Y-95546952D01*
X176555534Y-95577397D01*
X176574101Y-95612133D01*
X176585535Y-95649826D01*
X176590000Y-95695161D01*
X176590000Y-96531839D01*
X176585535Y-96577174D01*
X176574101Y-96614867D01*
X176555534Y-96649603D01*
X176530548Y-96680048D01*
X176500103Y-96705034D01*
X176465367Y-96723601D01*
X176427674Y-96735035D01*
X176382339Y-96739500D01*
X175295661Y-96739500D01*
X175250326Y-96735035D01*
X175212633Y-96723601D01*
X175177897Y-96705034D01*
X175147452Y-96680048D01*
X175122466Y-96649603D01*
X175103899Y-96614867D01*
X175092465Y-96577174D01*
X175088000Y-96531839D01*
X175088000Y-95695161D01*
X175092465Y-95649826D01*
X175103899Y-95612133D01*
X175122466Y-95577397D01*
X175147452Y-95546952D01*
X175177897Y-95521966D01*
X175212633Y-95503399D01*
X175250326Y-95491965D01*
X175295661Y-95487500D01*
X176382339Y-95487500D01*
X176427674Y-95491965D01*
X176427674Y-95491965D01*
G37*
G36*
X146384674Y-95381465D02*
G01*
X146422367Y-95392899D01*
X146457103Y-95411466D01*
X146487548Y-95436452D01*
X146512534Y-95466897D01*
X146531101Y-95501633D01*
X146542535Y-95539326D01*
X146547000Y-95584661D01*
X146547000Y-96421339D01*
X146542535Y-96466674D01*
X146531101Y-96504367D01*
X146512534Y-96539103D01*
X146487548Y-96569548D01*
X146457103Y-96594534D01*
X146422367Y-96613101D01*
X146384674Y-96624535D01*
X146339339Y-96629000D01*
X145252661Y-96629000D01*
X145207326Y-96624535D01*
X145169633Y-96613101D01*
X145134897Y-96594534D01*
X145104452Y-96569548D01*
X145079466Y-96539103D01*
X145060899Y-96504367D01*
X145049465Y-96466674D01*
X145045000Y-96421339D01*
X145045000Y-95584661D01*
X145049465Y-95539326D01*
X145060899Y-95501633D01*
X145079466Y-95466897D01*
X145104452Y-95436452D01*
X145134897Y-95411466D01*
X145169633Y-95392899D01*
X145207326Y-95381465D01*
X145252661Y-95377000D01*
X146339339Y-95377000D01*
X146384674Y-95381465D01*
X146384674Y-95381465D01*
G37*
G36*
X161624674Y-95381465D02*
G01*
X161662367Y-95392899D01*
X161697103Y-95411466D01*
X161727548Y-95436452D01*
X161752534Y-95466897D01*
X161771101Y-95501633D01*
X161782535Y-95539326D01*
X161787000Y-95584661D01*
X161787000Y-96421339D01*
X161782535Y-96466674D01*
X161771101Y-96504367D01*
X161752534Y-96539103D01*
X161727548Y-96569548D01*
X161697103Y-96594534D01*
X161662367Y-96613101D01*
X161624674Y-96624535D01*
X161579339Y-96629000D01*
X160492661Y-96629000D01*
X160447326Y-96624535D01*
X160409633Y-96613101D01*
X160374897Y-96594534D01*
X160344452Y-96569548D01*
X160319466Y-96539103D01*
X160300899Y-96504367D01*
X160289465Y-96466674D01*
X160285000Y-96421339D01*
X160285000Y-95584661D01*
X160289465Y-95539326D01*
X160300899Y-95501633D01*
X160319466Y-95466897D01*
X160344452Y-95436452D01*
X160374897Y-95411466D01*
X160409633Y-95392899D01*
X160447326Y-95381465D01*
X160492661Y-95377000D01*
X161579339Y-95377000D01*
X161624674Y-95381465D01*
X161624674Y-95381465D01*
G37*
G36*
X131398674Y-95381465D02*
G01*
X131436367Y-95392899D01*
X131471103Y-95411466D01*
X131501548Y-95436452D01*
X131526534Y-95466897D01*
X131545101Y-95501633D01*
X131556535Y-95539326D01*
X131561000Y-95584661D01*
X131561000Y-96421339D01*
X131556535Y-96466674D01*
X131545101Y-96504367D01*
X131526534Y-96539103D01*
X131501548Y-96569548D01*
X131471103Y-96594534D01*
X131436367Y-96613101D01*
X131398674Y-96624535D01*
X131353339Y-96629000D01*
X130266661Y-96629000D01*
X130221326Y-96624535D01*
X130183633Y-96613101D01*
X130148897Y-96594534D01*
X130118452Y-96569548D01*
X130093466Y-96539103D01*
X130074899Y-96504367D01*
X130063465Y-96466674D01*
X130059000Y-96421339D01*
X130059000Y-95584661D01*
X130063465Y-95539326D01*
X130074899Y-95501633D01*
X130093466Y-95466897D01*
X130118452Y-95436452D01*
X130148897Y-95411466D01*
X130183633Y-95392899D01*
X130221326Y-95381465D01*
X130266661Y-95377000D01*
X131353339Y-95377000D01*
X131398674Y-95381465D01*
X131398674Y-95381465D01*
G37*
G36*
X107097674Y-94146765D02*
G01*
X107135367Y-94158199D01*
X107170103Y-94176766D01*
X107200548Y-94201752D01*
X107225534Y-94232197D01*
X107244101Y-94266933D01*
X107255535Y-94304626D01*
X107260000Y-94349961D01*
X107260000Y-95186639D01*
X107255535Y-95231974D01*
X107244101Y-95269667D01*
X107225534Y-95304403D01*
X107200548Y-95334848D01*
X107170103Y-95359834D01*
X107135367Y-95378401D01*
X107097674Y-95389835D01*
X107052339Y-95394300D01*
X105965661Y-95394300D01*
X105920326Y-95389835D01*
X105882633Y-95378401D01*
X105847897Y-95359834D01*
X105817452Y-95334848D01*
X105792466Y-95304403D01*
X105773899Y-95269667D01*
X105762465Y-95231974D01*
X105758000Y-95186639D01*
X105758000Y-94349961D01*
X105762465Y-94304626D01*
X105773899Y-94266933D01*
X105792466Y-94232197D01*
X105817452Y-94201752D01*
X105847897Y-94176766D01*
X105882633Y-94158199D01*
X105920326Y-94146765D01*
X105965661Y-94142300D01*
X107052339Y-94142300D01*
X107097674Y-94146765D01*
X107097674Y-94146765D01*
G37*
G36*
X111198674Y-94115365D02*
G01*
X111236367Y-94126799D01*
X111271103Y-94145366D01*
X111301548Y-94170352D01*
X111326534Y-94200797D01*
X111345101Y-94235533D01*
X111356535Y-94273226D01*
X111361000Y-94318561D01*
X111361000Y-95155239D01*
X111356535Y-95200574D01*
X111345101Y-95238267D01*
X111326534Y-95273003D01*
X111301548Y-95303448D01*
X111271103Y-95328434D01*
X111236367Y-95347001D01*
X111198674Y-95358435D01*
X111153339Y-95362900D01*
X110066661Y-95362900D01*
X110021326Y-95358435D01*
X109983633Y-95347001D01*
X109948897Y-95328434D01*
X109918452Y-95303448D01*
X109893466Y-95273003D01*
X109874899Y-95238267D01*
X109863465Y-95200574D01*
X109859000Y-95155239D01*
X109859000Y-94318561D01*
X109863465Y-94273226D01*
X109874899Y-94235533D01*
X109893466Y-94200797D01*
X109918452Y-94170352D01*
X109948897Y-94145366D01*
X109983633Y-94126799D01*
X110021326Y-94115365D01*
X110066661Y-94110900D01*
X111153339Y-94110900D01*
X111198674Y-94115365D01*
X111198674Y-94115365D01*
G37*
G36*
X183437765Y-92216620D02*
G01*
X183590718Y-92279975D01*
X183627288Y-92295123D01*
X183797854Y-92409092D01*
X183942908Y-92554146D01*
X184053177Y-92719175D01*
X184056878Y-92724714D01*
X184135380Y-92914235D01*
X184175400Y-93115430D01*
X184175400Y-93320570D01*
X184135380Y-93521765D01*
X184059968Y-93703827D01*
X184056877Y-93711288D01*
X183942908Y-93881854D01*
X183797854Y-94026908D01*
X183627288Y-94140877D01*
X183627287Y-94140878D01*
X183627286Y-94140878D01*
X183437765Y-94219380D01*
X183236570Y-94259400D01*
X183031430Y-94259400D01*
X182830235Y-94219380D01*
X182640714Y-94140878D01*
X182640713Y-94140878D01*
X182640712Y-94140877D01*
X182470146Y-94026908D01*
X182325092Y-93881854D01*
X182211123Y-93711288D01*
X182208033Y-93703827D01*
X182132620Y-93521765D01*
X182092600Y-93320570D01*
X182092600Y-93115430D01*
X182132620Y-92914235D01*
X182211122Y-92724714D01*
X182214823Y-92719175D01*
X182325092Y-92554146D01*
X182470146Y-92409092D01*
X182640712Y-92295123D01*
X182677283Y-92279975D01*
X182830235Y-92216620D01*
X183031430Y-92176600D01*
X183236570Y-92176600D01*
X183437765Y-92216620D01*
X183437765Y-92216620D01*
G37*
G36*
X188517765Y-92216620D02*
G01*
X188670718Y-92279975D01*
X188707288Y-92295123D01*
X188877854Y-92409092D01*
X189022908Y-92554146D01*
X189133177Y-92719175D01*
X189136878Y-92724714D01*
X189215380Y-92914235D01*
X189255400Y-93115430D01*
X189255400Y-93320570D01*
X189215380Y-93521765D01*
X189139968Y-93703827D01*
X189136877Y-93711288D01*
X189022908Y-93881854D01*
X188877854Y-94026908D01*
X188707288Y-94140877D01*
X188707287Y-94140878D01*
X188707286Y-94140878D01*
X188517765Y-94219380D01*
X188316570Y-94259400D01*
X188111430Y-94259400D01*
X187910235Y-94219380D01*
X187720714Y-94140878D01*
X187720713Y-94140878D01*
X187720712Y-94140877D01*
X187550146Y-94026908D01*
X187405092Y-93881854D01*
X187291123Y-93711288D01*
X187288033Y-93703827D01*
X187212620Y-93521765D01*
X187172600Y-93320570D01*
X187172600Y-93115430D01*
X187212620Y-92914235D01*
X187291122Y-92724714D01*
X187294823Y-92719175D01*
X187405092Y-92554146D01*
X187550146Y-92409092D01*
X187720712Y-92295123D01*
X187757283Y-92279975D01*
X187910235Y-92216620D01*
X188111430Y-92176600D01*
X188316570Y-92176600D01*
X188517765Y-92216620D01*
X188517765Y-92216620D01*
G37*
G36*
X185977765Y-92216620D02*
G01*
X186130718Y-92279975D01*
X186167288Y-92295123D01*
X186337854Y-92409092D01*
X186482908Y-92554146D01*
X186593177Y-92719175D01*
X186596878Y-92724714D01*
X186675380Y-92914235D01*
X186715400Y-93115430D01*
X186715400Y-93320570D01*
X186675380Y-93521765D01*
X186599968Y-93703827D01*
X186596877Y-93711288D01*
X186482908Y-93881854D01*
X186337854Y-94026908D01*
X186167288Y-94140877D01*
X186167287Y-94140878D01*
X186167286Y-94140878D01*
X185977765Y-94219380D01*
X185776570Y-94259400D01*
X185571430Y-94259400D01*
X185370235Y-94219380D01*
X185180714Y-94140878D01*
X185180713Y-94140878D01*
X185180712Y-94140877D01*
X185010146Y-94026908D01*
X184865092Y-93881854D01*
X184751123Y-93711288D01*
X184748033Y-93703827D01*
X184672620Y-93521765D01*
X184632600Y-93320570D01*
X184632600Y-93115430D01*
X184672620Y-92914235D01*
X184751122Y-92724714D01*
X184754823Y-92719175D01*
X184865092Y-92554146D01*
X185010146Y-92409092D01*
X185180712Y-92295123D01*
X185217283Y-92279975D01*
X185370235Y-92216620D01*
X185571430Y-92176600D01*
X185776570Y-92176600D01*
X185977765Y-92216620D01*
X185977765Y-92216620D01*
G37*
G36*
X191057765Y-92216620D02*
G01*
X191210718Y-92279975D01*
X191247288Y-92295123D01*
X191417854Y-92409092D01*
X191562908Y-92554146D01*
X191673177Y-92719175D01*
X191676878Y-92724714D01*
X191755380Y-92914235D01*
X191795400Y-93115430D01*
X191795400Y-93320570D01*
X191755380Y-93521765D01*
X191679968Y-93703827D01*
X191676877Y-93711288D01*
X191562908Y-93881854D01*
X191417854Y-94026908D01*
X191247288Y-94140877D01*
X191247287Y-94140878D01*
X191247286Y-94140878D01*
X191057765Y-94219380D01*
X190856570Y-94259400D01*
X190651430Y-94259400D01*
X190450235Y-94219380D01*
X190260714Y-94140878D01*
X190260713Y-94140878D01*
X190260712Y-94140877D01*
X190090146Y-94026908D01*
X189945092Y-93881854D01*
X189831123Y-93711288D01*
X189828033Y-93703827D01*
X189752620Y-93521765D01*
X189712600Y-93320570D01*
X189712600Y-93115430D01*
X189752620Y-92914235D01*
X189831122Y-92724714D01*
X189834823Y-92719175D01*
X189945092Y-92554146D01*
X190090146Y-92409092D01*
X190260712Y-92295123D01*
X190297283Y-92279975D01*
X190450235Y-92216620D01*
X190651430Y-92176600D01*
X190856570Y-92176600D01*
X191057765Y-92216620D01*
X191057765Y-92216620D01*
G37*
G36*
X193597765Y-92216620D02*
G01*
X193750718Y-92279975D01*
X193787288Y-92295123D01*
X193957854Y-92409092D01*
X194102908Y-92554146D01*
X194213177Y-92719175D01*
X194216878Y-92724714D01*
X194295380Y-92914235D01*
X194335400Y-93115430D01*
X194335400Y-93320570D01*
X194295380Y-93521765D01*
X194219968Y-93703827D01*
X194216877Y-93711288D01*
X194102908Y-93881854D01*
X193957854Y-94026908D01*
X193787288Y-94140877D01*
X193787287Y-94140878D01*
X193787286Y-94140878D01*
X193597765Y-94219380D01*
X193396570Y-94259400D01*
X193191430Y-94259400D01*
X192990235Y-94219380D01*
X192800714Y-94140878D01*
X192800713Y-94140878D01*
X192800712Y-94140877D01*
X192630146Y-94026908D01*
X192485092Y-93881854D01*
X192371123Y-93711288D01*
X192368033Y-93703827D01*
X192292620Y-93521765D01*
X192252600Y-93320570D01*
X192252600Y-93115430D01*
X192292620Y-92914235D01*
X192371122Y-92724714D01*
X192374823Y-92719175D01*
X192485092Y-92554146D01*
X192630146Y-92409092D01*
X192800712Y-92295123D01*
X192837283Y-92279975D01*
X192990235Y-92216620D01*
X193191430Y-92176600D01*
X193396570Y-92176600D01*
X193597765Y-92216620D01*
X193597765Y-92216620D01*
G37*
G36*
X114767674Y-92504565D02*
G01*
X114805367Y-92515999D01*
X114840103Y-92534566D01*
X114870548Y-92559552D01*
X114895534Y-92589997D01*
X114914101Y-92624733D01*
X114925535Y-92662426D01*
X114930000Y-92707761D01*
X114930000Y-93794439D01*
X114925535Y-93839774D01*
X114914101Y-93877467D01*
X114895534Y-93912203D01*
X114870548Y-93942648D01*
X114840103Y-93967634D01*
X114805367Y-93986201D01*
X114767674Y-93997635D01*
X114722339Y-94002100D01*
X113885661Y-94002100D01*
X113840326Y-93997635D01*
X113802633Y-93986201D01*
X113767897Y-93967634D01*
X113737452Y-93942648D01*
X113712466Y-93912203D01*
X113693899Y-93877467D01*
X113682465Y-93839774D01*
X113678000Y-93794439D01*
X113678000Y-92707761D01*
X113682465Y-92662426D01*
X113693899Y-92624733D01*
X113712466Y-92589997D01*
X113737452Y-92559552D01*
X113767897Y-92534566D01*
X113802633Y-92515999D01*
X113840326Y-92504565D01*
X113885661Y-92500100D01*
X114722339Y-92500100D01*
X114767674Y-92504565D01*
X114767674Y-92504565D01*
G37*
G36*
X116817674Y-92504565D02*
G01*
X116855367Y-92515999D01*
X116890103Y-92534566D01*
X116920548Y-92559552D01*
X116945534Y-92589997D01*
X116964101Y-92624733D01*
X116975535Y-92662426D01*
X116980000Y-92707761D01*
X116980000Y-93794439D01*
X116975535Y-93839774D01*
X116964101Y-93877467D01*
X116945534Y-93912203D01*
X116920548Y-93942648D01*
X116890103Y-93967634D01*
X116855367Y-93986201D01*
X116817674Y-93997635D01*
X116772339Y-94002100D01*
X115935661Y-94002100D01*
X115890326Y-93997635D01*
X115852633Y-93986201D01*
X115817897Y-93967634D01*
X115787452Y-93942648D01*
X115762466Y-93912203D01*
X115743899Y-93877467D01*
X115732465Y-93839774D01*
X115728000Y-93794439D01*
X115728000Y-92707761D01*
X115732465Y-92662426D01*
X115743899Y-92624733D01*
X115762466Y-92589997D01*
X115787452Y-92559552D01*
X115817897Y-92534566D01*
X115852633Y-92515999D01*
X115890326Y-92504565D01*
X115935661Y-92500100D01*
X116772339Y-92500100D01*
X116817674Y-92504565D01*
X116817674Y-92504565D01*
G37*
G36*
X119813674Y-92478465D02*
G01*
X119851367Y-92489899D01*
X119886103Y-92508466D01*
X119916548Y-92533452D01*
X119941534Y-92563897D01*
X119960101Y-92598633D01*
X119971535Y-92636326D01*
X119976000Y-92681661D01*
X119976000Y-93768339D01*
X119971535Y-93813674D01*
X119960101Y-93851367D01*
X119941534Y-93886103D01*
X119916548Y-93916548D01*
X119886103Y-93941534D01*
X119851367Y-93960101D01*
X119813674Y-93971535D01*
X119768339Y-93976000D01*
X118931661Y-93976000D01*
X118886326Y-93971535D01*
X118848633Y-93960101D01*
X118813897Y-93941534D01*
X118783452Y-93916548D01*
X118758466Y-93886103D01*
X118739899Y-93851367D01*
X118728465Y-93813674D01*
X118724000Y-93768339D01*
X118724000Y-92681661D01*
X118728465Y-92636326D01*
X118739899Y-92598633D01*
X118758466Y-92563897D01*
X118783452Y-92533452D01*
X118813897Y-92508466D01*
X118848633Y-92489899D01*
X118886326Y-92478465D01*
X118931661Y-92474000D01*
X119768339Y-92474000D01*
X119813674Y-92478465D01*
X119813674Y-92478465D01*
G37*
G36*
X121863674Y-92478465D02*
G01*
X121901367Y-92489899D01*
X121936103Y-92508466D01*
X121966548Y-92533452D01*
X121991534Y-92563897D01*
X122010101Y-92598633D01*
X122021535Y-92636326D01*
X122026000Y-92681661D01*
X122026000Y-93768339D01*
X122021535Y-93813674D01*
X122010101Y-93851367D01*
X121991534Y-93886103D01*
X121966548Y-93916548D01*
X121936103Y-93941534D01*
X121901367Y-93960101D01*
X121863674Y-93971535D01*
X121818339Y-93976000D01*
X120981661Y-93976000D01*
X120936326Y-93971535D01*
X120898633Y-93960101D01*
X120863897Y-93941534D01*
X120833452Y-93916548D01*
X120808466Y-93886103D01*
X120789899Y-93851367D01*
X120778465Y-93813674D01*
X120774000Y-93768339D01*
X120774000Y-92681661D01*
X120778465Y-92636326D01*
X120789899Y-92598633D01*
X120808466Y-92563897D01*
X120833452Y-92533452D01*
X120863897Y-92508466D01*
X120898633Y-92489899D01*
X120936326Y-92478465D01*
X120981661Y-92474000D01*
X121818339Y-92474000D01*
X121863674Y-92478465D01*
X121863674Y-92478465D01*
G37*
G36*
X146079279Y-91805109D02*
G01*
X146149127Y-91834041D01*
X146247908Y-91874957D01*
X146247909Y-91874958D01*
X146399673Y-91976363D01*
X146528737Y-92105427D01*
X146542995Y-92126766D01*
X146630143Y-92257192D01*
X146671059Y-92355973D01*
X146699991Y-92425821D01*
X146725517Y-92554146D01*
X146735600Y-92604838D01*
X146735600Y-92787362D01*
X146699991Y-92966378D01*
X146630143Y-93135008D01*
X146579784Y-93210375D01*
X146528737Y-93286773D01*
X146399673Y-93415837D01*
X146323275Y-93466884D01*
X146247908Y-93517243D01*
X146149127Y-93558159D01*
X146079279Y-93587091D01*
X145900262Y-93622700D01*
X145717738Y-93622700D01*
X145538721Y-93587091D01*
X145468873Y-93558159D01*
X145370092Y-93517243D01*
X145294725Y-93466884D01*
X145218327Y-93415837D01*
X145089263Y-93286773D01*
X145038216Y-93210375D01*
X144987857Y-93135008D01*
X144918009Y-92966378D01*
X144882400Y-92787362D01*
X144882400Y-92604838D01*
X144892483Y-92554146D01*
X144918009Y-92425821D01*
X144946941Y-92355973D01*
X144987857Y-92257192D01*
X145075005Y-92126766D01*
X145089263Y-92105427D01*
X145218327Y-91976363D01*
X145370091Y-91874958D01*
X145370092Y-91874957D01*
X145468873Y-91834041D01*
X145538721Y-91805109D01*
X145717738Y-91769500D01*
X145900262Y-91769500D01*
X146079279Y-91805109D01*
X146079279Y-91805109D01*
G37*
G36*
X161319279Y-91805109D02*
G01*
X161389127Y-91834041D01*
X161487908Y-91874957D01*
X161487909Y-91874958D01*
X161639673Y-91976363D01*
X161768737Y-92105427D01*
X161782995Y-92126766D01*
X161870143Y-92257192D01*
X161911059Y-92355973D01*
X161939991Y-92425821D01*
X161965517Y-92554146D01*
X161975600Y-92604838D01*
X161975600Y-92787362D01*
X161939991Y-92966378D01*
X161870143Y-93135008D01*
X161819784Y-93210375D01*
X161768737Y-93286773D01*
X161639673Y-93415837D01*
X161563275Y-93466884D01*
X161487908Y-93517243D01*
X161389127Y-93558159D01*
X161319279Y-93587091D01*
X161140262Y-93622700D01*
X160957738Y-93622700D01*
X160778721Y-93587091D01*
X160708873Y-93558159D01*
X160610092Y-93517243D01*
X160534725Y-93466884D01*
X160458327Y-93415837D01*
X160329263Y-93286773D01*
X160278216Y-93210375D01*
X160227857Y-93135008D01*
X160158009Y-92966378D01*
X160122400Y-92787362D01*
X160122400Y-92604838D01*
X160132483Y-92554146D01*
X160158009Y-92425821D01*
X160186941Y-92355973D01*
X160227857Y-92257192D01*
X160315005Y-92126766D01*
X160329263Y-92105427D01*
X160458327Y-91976363D01*
X160610091Y-91874958D01*
X160610092Y-91874957D01*
X160708873Y-91834041D01*
X160778721Y-91805109D01*
X160957738Y-91769500D01*
X161140262Y-91769500D01*
X161319279Y-91805109D01*
X161319279Y-91805109D01*
G37*
G36*
X176559279Y-91805109D02*
G01*
X176629127Y-91834041D01*
X176727908Y-91874957D01*
X176727909Y-91874958D01*
X176879673Y-91976363D01*
X177008737Y-92105427D01*
X177022995Y-92126766D01*
X177110143Y-92257192D01*
X177151059Y-92355973D01*
X177179991Y-92425821D01*
X177205517Y-92554146D01*
X177215600Y-92604838D01*
X177215600Y-92787362D01*
X177179991Y-92966378D01*
X177110143Y-93135008D01*
X177059784Y-93210375D01*
X177008737Y-93286773D01*
X176879673Y-93415837D01*
X176803275Y-93466884D01*
X176727908Y-93517243D01*
X176629127Y-93558159D01*
X176559279Y-93587091D01*
X176380262Y-93622700D01*
X176197738Y-93622700D01*
X176018721Y-93587091D01*
X175948873Y-93558159D01*
X175850092Y-93517243D01*
X175774725Y-93466884D01*
X175698327Y-93415837D01*
X175569263Y-93286773D01*
X175518216Y-93210375D01*
X175467857Y-93135008D01*
X175398009Y-92966378D01*
X175362400Y-92787362D01*
X175362400Y-92604838D01*
X175372483Y-92554146D01*
X175398009Y-92425821D01*
X175426941Y-92355973D01*
X175467857Y-92257192D01*
X175555005Y-92126766D01*
X175569263Y-92105427D01*
X175698327Y-91976363D01*
X175850091Y-91874958D01*
X175850092Y-91874957D01*
X175948873Y-91834041D01*
X176018721Y-91805109D01*
X176197738Y-91769500D01*
X176380262Y-91769500D01*
X176559279Y-91805109D01*
X176559279Y-91805109D01*
G37*
G36*
X130839279Y-91805109D02*
G01*
X130909127Y-91834041D01*
X131007908Y-91874957D01*
X131007909Y-91874958D01*
X131159673Y-91976363D01*
X131288737Y-92105427D01*
X131302995Y-92126766D01*
X131390143Y-92257192D01*
X131431059Y-92355973D01*
X131459991Y-92425821D01*
X131485517Y-92554146D01*
X131495600Y-92604838D01*
X131495600Y-92787362D01*
X131459991Y-92966378D01*
X131390143Y-93135008D01*
X131339784Y-93210375D01*
X131288737Y-93286773D01*
X131159673Y-93415837D01*
X131083275Y-93466884D01*
X131007908Y-93517243D01*
X130909127Y-93558159D01*
X130839279Y-93587091D01*
X130660262Y-93622700D01*
X130477738Y-93622700D01*
X130298721Y-93587091D01*
X130228873Y-93558159D01*
X130130092Y-93517243D01*
X130054725Y-93466884D01*
X129978327Y-93415837D01*
X129849263Y-93286773D01*
X129798216Y-93210375D01*
X129747857Y-93135008D01*
X129678009Y-92966378D01*
X129642400Y-92787362D01*
X129642400Y-92604838D01*
X129652483Y-92554146D01*
X129678009Y-92425821D01*
X129706941Y-92355973D01*
X129747857Y-92257192D01*
X129835005Y-92126766D01*
X129849263Y-92105427D01*
X129978327Y-91976363D01*
X130130091Y-91874958D01*
X130130092Y-91874957D01*
X130228873Y-91834041D01*
X130298721Y-91805109D01*
X130477738Y-91769500D01*
X130660262Y-91769500D01*
X130839279Y-91805109D01*
X130839279Y-91805109D01*
G37*
G36*
X107097674Y-92096765D02*
G01*
X107135367Y-92108199D01*
X107170103Y-92126766D01*
X107200548Y-92151752D01*
X107225534Y-92182197D01*
X107244101Y-92216933D01*
X107255535Y-92254626D01*
X107260000Y-92299961D01*
X107260000Y-93136639D01*
X107255535Y-93181974D01*
X107244101Y-93219667D01*
X107225534Y-93254403D01*
X107200548Y-93284848D01*
X107170103Y-93309834D01*
X107135367Y-93328401D01*
X107097674Y-93339835D01*
X107052339Y-93344300D01*
X105965661Y-93344300D01*
X105920326Y-93339835D01*
X105882633Y-93328401D01*
X105847897Y-93309834D01*
X105817452Y-93284848D01*
X105792466Y-93254403D01*
X105773899Y-93219667D01*
X105762465Y-93181974D01*
X105758000Y-93136639D01*
X105758000Y-92299961D01*
X105762465Y-92254626D01*
X105773899Y-92216933D01*
X105792466Y-92182197D01*
X105817452Y-92151752D01*
X105847897Y-92126766D01*
X105882633Y-92108199D01*
X105920326Y-92096765D01*
X105965661Y-92092300D01*
X107052339Y-92092300D01*
X107097674Y-92096765D01*
X107097674Y-92096765D01*
G37*
G36*
X111198674Y-92065365D02*
G01*
X111236367Y-92076799D01*
X111271103Y-92095366D01*
X111301548Y-92120352D01*
X111326534Y-92150797D01*
X111345101Y-92185533D01*
X111356535Y-92223226D01*
X111361000Y-92268561D01*
X111361000Y-93105239D01*
X111356535Y-93150574D01*
X111345101Y-93188267D01*
X111326534Y-93223003D01*
X111301548Y-93253448D01*
X111271103Y-93278434D01*
X111236367Y-93297001D01*
X111198674Y-93308435D01*
X111153339Y-93312900D01*
X110066661Y-93312900D01*
X110021326Y-93308435D01*
X109983633Y-93297001D01*
X109948897Y-93278434D01*
X109918452Y-93253448D01*
X109893466Y-93223003D01*
X109874899Y-93188267D01*
X109863465Y-93150574D01*
X109859000Y-93105239D01*
X109859000Y-92268561D01*
X109863465Y-92223226D01*
X109874899Y-92185533D01*
X109893466Y-92150797D01*
X109918452Y-92120352D01*
X109948897Y-92095366D01*
X109983633Y-92076799D01*
X110021326Y-92065365D01*
X110066661Y-92060900D01*
X111153339Y-92060900D01*
X111198674Y-92065365D01*
X111198674Y-92065365D01*
G37*
M02*
