M48
; DRILL file {KiCad 5.1.4-e60b266~84~ubuntu18.04.1} date Sun 20 Oct 2019 18:50:47 BST
; FORMAT={-:-/ absolute / inch / decimal}
; #@! TF.CreationDate,2019-10-20T18:50:47+01:00
; #@! TF.GenerationSoftware,Kicad,Pcbnew,5.1.4-e60b266~84~ubuntu18.04.1
; #@! TF.FileFunction,Plated,1,2,PTH
FMAT,2
INCH
T1C0.0157
T2C0.0295
T3C0.0320
T4C0.0400
T5C0.0433
%
G90
G05
T1
X4.283Y-4.4466
X4.3907Y-3.8954
X4.4987Y-4.2326
X4.9415Y-4.3039
X5.4338Y-4.0567
X5.6774Y-4.2036
X7.3135Y-4.3149
X7.4739Y-3.9328
X7.5207Y-4.1865
T2
X7.24Y-4.59
X7.29Y-4.54
X7.34Y-4.59
T3
X5.4405Y-3.7963
X5.4405Y-3.8963
X6.3405Y-4.3713
X6.3405Y-4.4713
X4.8405Y-3.7963
X4.8405Y-3.8963
X5.1405Y-4.3713
X5.1405Y-4.4713
X6.6405Y-3.7963
X6.6405Y-3.8963
X6.9405Y-4.3713
X6.9405Y-4.4713
X5.7405Y-4.3713
X5.7405Y-4.4713
X6.0405Y-3.7963
X6.0405Y-3.8963
T4
X7.21Y-3.67
X7.21Y-3.77
X7.31Y-3.67
X7.31Y-3.77
X7.41Y-3.67
X7.41Y-3.77
X7.51Y-3.67
X7.51Y-3.77
X7.61Y-3.67
X7.61Y-3.77
T5
X5.4405Y-4.1654
X5.4405Y-4.2835
X5.4405Y-4.6181
X4.8405Y-4.1654
X4.8405Y-4.2835
X4.8405Y-4.6181
X6.9405Y-3.6495
X6.9405Y-3.9841
X6.9405Y-4.1022
X5.7405Y-3.6495
X5.7405Y-3.9841
X5.7405Y-4.1022
X6.0405Y-4.1654
X6.0405Y-4.2835
X6.0405Y-4.6181
X6.3405Y-3.6495
X6.3405Y-3.9841
X6.3405Y-4.1022
X5.1405Y-3.6495
X5.1405Y-3.9841
X5.1405Y-4.1022
X4.0937Y-3.8463
X4.4283Y-3.8463
X4.5464Y-3.8463
X4.0937Y-4.4213
X4.4283Y-4.4213
X4.5464Y-4.4213
X6.6405Y-4.1654
X6.6405Y-4.2835
X6.6405Y-4.6181
T0
M30
