G04 #@! TF.GenerationSoftware,KiCad,Pcbnew,5.1.4-e60b266~84~ubuntu18.04.1*
G04 #@! TF.CreationDate,2019-10-20T18:50:50+01:00*
G04 #@! TF.ProjectId,triggerseq,74726967-6765-4727-9365-712e6b696361,rev?*
G04 #@! TF.SameCoordinates,Original*
G04 #@! TF.FileFunction,Copper,L2,Bot*
G04 #@! TF.FilePolarity,Positive*
%FSLAX46Y46*%
G04 Gerber Fmt 4.6, Leading zero omitted, Abs format (unit mm)*
G04 Created by KiCad (PCBNEW 5.1.4-e60b266~84~ubuntu18.04.1) date 2019-10-20 18:50:50*
%MOMM*%
%LPD*%
G04 APERTURE LIST*
%ADD10R,0.660400X2.032000*%
%ADD11R,1.900000X0.800000*%
%ADD12R,1.300000X1.300000*%
%ADD13C,1.300000*%
%ADD14C,0.100000*%
%ADD15C,1.150000*%
%ADD16R,1.200000X1.500000*%
%ADD17C,1.320800*%
%ADD18C,1.879600*%
%ADD19C,1.650000*%
%ADD20R,1.500000X1.200000*%
%ADD21C,0.800000*%
%ADD22C,0.250000*%
G04 APERTURE END LIST*
D10*
X193167000Y-107975400D03*
X193167000Y-101828600D03*
X191897000Y-107975400D03*
X190627000Y-107975400D03*
X191897000Y-101828600D03*
X190627000Y-101828600D03*
X189357000Y-107975400D03*
X189357000Y-101828600D03*
X188087000Y-107975400D03*
X188087000Y-101828600D03*
X186817000Y-107975400D03*
X185547000Y-107975400D03*
X186817000Y-101828600D03*
X185547000Y-101828600D03*
X184277000Y-107975400D03*
X184277000Y-101828600D03*
D11*
X109675000Y-108500000D03*
X112675000Y-109450000D03*
X112675000Y-107550000D03*
X106375000Y-104750000D03*
X103375000Y-103800000D03*
X103375000Y-105700000D03*
X119725000Y-102800000D03*
X116725000Y-101850000D03*
X116725000Y-103750000D03*
D12*
X183896000Y-116586000D03*
D13*
X186436000Y-116586000D03*
X185166000Y-115316000D03*
D14*
G36*
X109874505Y-103226204D02*
G01*
X109898773Y-103229804D01*
X109922572Y-103235765D01*
X109945671Y-103244030D01*
X109967850Y-103254520D01*
X109988893Y-103267132D01*
X110008599Y-103281747D01*
X110026777Y-103298223D01*
X110043253Y-103316401D01*
X110057868Y-103336107D01*
X110070480Y-103357150D01*
X110080970Y-103379329D01*
X110089235Y-103402428D01*
X110095196Y-103426227D01*
X110098796Y-103450495D01*
X110100000Y-103474999D01*
X110100000Y-104125001D01*
X110098796Y-104149505D01*
X110095196Y-104173773D01*
X110089235Y-104197572D01*
X110080970Y-104220671D01*
X110070480Y-104242850D01*
X110057868Y-104263893D01*
X110043253Y-104283599D01*
X110026777Y-104301777D01*
X110008599Y-104318253D01*
X109988893Y-104332868D01*
X109967850Y-104345480D01*
X109945671Y-104355970D01*
X109922572Y-104364235D01*
X109898773Y-104370196D01*
X109874505Y-104373796D01*
X109850001Y-104375000D01*
X108949999Y-104375000D01*
X108925495Y-104373796D01*
X108901227Y-104370196D01*
X108877428Y-104364235D01*
X108854329Y-104355970D01*
X108832150Y-104345480D01*
X108811107Y-104332868D01*
X108791401Y-104318253D01*
X108773223Y-104301777D01*
X108756747Y-104283599D01*
X108742132Y-104263893D01*
X108729520Y-104242850D01*
X108719030Y-104220671D01*
X108710765Y-104197572D01*
X108704804Y-104173773D01*
X108701204Y-104149505D01*
X108700000Y-104125001D01*
X108700000Y-103474999D01*
X108701204Y-103450495D01*
X108704804Y-103426227D01*
X108710765Y-103402428D01*
X108719030Y-103379329D01*
X108729520Y-103357150D01*
X108742132Y-103336107D01*
X108756747Y-103316401D01*
X108773223Y-103298223D01*
X108791401Y-103281747D01*
X108811107Y-103267132D01*
X108832150Y-103254520D01*
X108854329Y-103244030D01*
X108877428Y-103235765D01*
X108901227Y-103229804D01*
X108925495Y-103226204D01*
X108949999Y-103225000D01*
X109850001Y-103225000D01*
X109874505Y-103226204D01*
X109874505Y-103226204D01*
G37*
D15*
X109400000Y-103800000D03*
D14*
G36*
X109874505Y-101176204D02*
G01*
X109898773Y-101179804D01*
X109922572Y-101185765D01*
X109945671Y-101194030D01*
X109967850Y-101204520D01*
X109988893Y-101217132D01*
X110008599Y-101231747D01*
X110026777Y-101248223D01*
X110043253Y-101266401D01*
X110057868Y-101286107D01*
X110070480Y-101307150D01*
X110080970Y-101329329D01*
X110089235Y-101352428D01*
X110095196Y-101376227D01*
X110098796Y-101400495D01*
X110100000Y-101424999D01*
X110100000Y-102075001D01*
X110098796Y-102099505D01*
X110095196Y-102123773D01*
X110089235Y-102147572D01*
X110080970Y-102170671D01*
X110070480Y-102192850D01*
X110057868Y-102213893D01*
X110043253Y-102233599D01*
X110026777Y-102251777D01*
X110008599Y-102268253D01*
X109988893Y-102282868D01*
X109967850Y-102295480D01*
X109945671Y-102305970D01*
X109922572Y-102314235D01*
X109898773Y-102320196D01*
X109874505Y-102323796D01*
X109850001Y-102325000D01*
X108949999Y-102325000D01*
X108925495Y-102323796D01*
X108901227Y-102320196D01*
X108877428Y-102314235D01*
X108854329Y-102305970D01*
X108832150Y-102295480D01*
X108811107Y-102282868D01*
X108791401Y-102268253D01*
X108773223Y-102251777D01*
X108756747Y-102233599D01*
X108742132Y-102213893D01*
X108729520Y-102192850D01*
X108719030Y-102170671D01*
X108710765Y-102147572D01*
X108704804Y-102123773D01*
X108701204Y-102099505D01*
X108700000Y-102075001D01*
X108700000Y-101424999D01*
X108701204Y-101400495D01*
X108704804Y-101376227D01*
X108710765Y-101352428D01*
X108719030Y-101329329D01*
X108729520Y-101307150D01*
X108742132Y-101286107D01*
X108756747Y-101266401D01*
X108773223Y-101248223D01*
X108791401Y-101231747D01*
X108811107Y-101217132D01*
X108832150Y-101204520D01*
X108854329Y-101194030D01*
X108877428Y-101185765D01*
X108901227Y-101179804D01*
X108925495Y-101176204D01*
X108949999Y-101175000D01*
X109850001Y-101175000D01*
X109874505Y-101176204D01*
X109874505Y-101176204D01*
G37*
D15*
X109400000Y-101750000D03*
D14*
G36*
X118599505Y-96026204D02*
G01*
X118623773Y-96029804D01*
X118647572Y-96035765D01*
X118670671Y-96044030D01*
X118692850Y-96054520D01*
X118713893Y-96067132D01*
X118733599Y-96081747D01*
X118751777Y-96098223D01*
X118768253Y-96116401D01*
X118782868Y-96136107D01*
X118795480Y-96157150D01*
X118805970Y-96179329D01*
X118814235Y-96202428D01*
X118820196Y-96226227D01*
X118823796Y-96250495D01*
X118825000Y-96274999D01*
X118825000Y-96925001D01*
X118823796Y-96949505D01*
X118820196Y-96973773D01*
X118814235Y-96997572D01*
X118805970Y-97020671D01*
X118795480Y-97042850D01*
X118782868Y-97063893D01*
X118768253Y-97083599D01*
X118751777Y-97101777D01*
X118733599Y-97118253D01*
X118713893Y-97132868D01*
X118692850Y-97145480D01*
X118670671Y-97155970D01*
X118647572Y-97164235D01*
X118623773Y-97170196D01*
X118599505Y-97173796D01*
X118575001Y-97175000D01*
X117674999Y-97175000D01*
X117650495Y-97173796D01*
X117626227Y-97170196D01*
X117602428Y-97164235D01*
X117579329Y-97155970D01*
X117557150Y-97145480D01*
X117536107Y-97132868D01*
X117516401Y-97118253D01*
X117498223Y-97101777D01*
X117481747Y-97083599D01*
X117467132Y-97063893D01*
X117454520Y-97042850D01*
X117444030Y-97020671D01*
X117435765Y-96997572D01*
X117429804Y-96973773D01*
X117426204Y-96949505D01*
X117425000Y-96925001D01*
X117425000Y-96274999D01*
X117426204Y-96250495D01*
X117429804Y-96226227D01*
X117435765Y-96202428D01*
X117444030Y-96179329D01*
X117454520Y-96157150D01*
X117467132Y-96136107D01*
X117481747Y-96116401D01*
X117498223Y-96098223D01*
X117516401Y-96081747D01*
X117536107Y-96067132D01*
X117557150Y-96054520D01*
X117579329Y-96044030D01*
X117602428Y-96035765D01*
X117626227Y-96029804D01*
X117650495Y-96026204D01*
X117674999Y-96025000D01*
X118575001Y-96025000D01*
X118599505Y-96026204D01*
X118599505Y-96026204D01*
G37*
D15*
X118125000Y-96600000D03*
D14*
G36*
X118599505Y-98076204D02*
G01*
X118623773Y-98079804D01*
X118647572Y-98085765D01*
X118670671Y-98094030D01*
X118692850Y-98104520D01*
X118713893Y-98117132D01*
X118733599Y-98131747D01*
X118751777Y-98148223D01*
X118768253Y-98166401D01*
X118782868Y-98186107D01*
X118795480Y-98207150D01*
X118805970Y-98229329D01*
X118814235Y-98252428D01*
X118820196Y-98276227D01*
X118823796Y-98300495D01*
X118825000Y-98324999D01*
X118825000Y-98975001D01*
X118823796Y-98999505D01*
X118820196Y-99023773D01*
X118814235Y-99047572D01*
X118805970Y-99070671D01*
X118795480Y-99092850D01*
X118782868Y-99113893D01*
X118768253Y-99133599D01*
X118751777Y-99151777D01*
X118733599Y-99168253D01*
X118713893Y-99182868D01*
X118692850Y-99195480D01*
X118670671Y-99205970D01*
X118647572Y-99214235D01*
X118623773Y-99220196D01*
X118599505Y-99223796D01*
X118575001Y-99225000D01*
X117674999Y-99225000D01*
X117650495Y-99223796D01*
X117626227Y-99220196D01*
X117602428Y-99214235D01*
X117579329Y-99205970D01*
X117557150Y-99195480D01*
X117536107Y-99182868D01*
X117516401Y-99168253D01*
X117498223Y-99151777D01*
X117481747Y-99133599D01*
X117467132Y-99113893D01*
X117454520Y-99092850D01*
X117444030Y-99070671D01*
X117435765Y-99047572D01*
X117429804Y-99023773D01*
X117426204Y-98999505D01*
X117425000Y-98975001D01*
X117425000Y-98324999D01*
X117426204Y-98300495D01*
X117429804Y-98276227D01*
X117435765Y-98252428D01*
X117444030Y-98229329D01*
X117454520Y-98207150D01*
X117467132Y-98186107D01*
X117481747Y-98166401D01*
X117498223Y-98148223D01*
X117516401Y-98131747D01*
X117536107Y-98117132D01*
X117557150Y-98104520D01*
X117579329Y-98094030D01*
X117602428Y-98085765D01*
X117626227Y-98079804D01*
X117650495Y-98076204D01*
X117674999Y-98075000D01*
X118575001Y-98075000D01*
X118599505Y-98076204D01*
X118599505Y-98076204D01*
G37*
D15*
X118125000Y-98650000D03*
D14*
G36*
X126071505Y-111945204D02*
G01*
X126095773Y-111948804D01*
X126119572Y-111954765D01*
X126142671Y-111963030D01*
X126164850Y-111973520D01*
X126185893Y-111986132D01*
X126205599Y-112000747D01*
X126223777Y-112017223D01*
X126240253Y-112035401D01*
X126254868Y-112055107D01*
X126267480Y-112076150D01*
X126277970Y-112098329D01*
X126286235Y-112121428D01*
X126292196Y-112145227D01*
X126295796Y-112169495D01*
X126297000Y-112193999D01*
X126297000Y-113094001D01*
X126295796Y-113118505D01*
X126292196Y-113142773D01*
X126286235Y-113166572D01*
X126277970Y-113189671D01*
X126267480Y-113211850D01*
X126254868Y-113232893D01*
X126240253Y-113252599D01*
X126223777Y-113270777D01*
X126205599Y-113287253D01*
X126185893Y-113301868D01*
X126164850Y-113314480D01*
X126142671Y-113324970D01*
X126119572Y-113333235D01*
X126095773Y-113339196D01*
X126071505Y-113342796D01*
X126047001Y-113344000D01*
X125396999Y-113344000D01*
X125372495Y-113342796D01*
X125348227Y-113339196D01*
X125324428Y-113333235D01*
X125301329Y-113324970D01*
X125279150Y-113314480D01*
X125258107Y-113301868D01*
X125238401Y-113287253D01*
X125220223Y-113270777D01*
X125203747Y-113252599D01*
X125189132Y-113232893D01*
X125176520Y-113211850D01*
X125166030Y-113189671D01*
X125157765Y-113166572D01*
X125151804Y-113142773D01*
X125148204Y-113118505D01*
X125147000Y-113094001D01*
X125147000Y-112193999D01*
X125148204Y-112169495D01*
X125151804Y-112145227D01*
X125157765Y-112121428D01*
X125166030Y-112098329D01*
X125176520Y-112076150D01*
X125189132Y-112055107D01*
X125203747Y-112035401D01*
X125220223Y-112017223D01*
X125238401Y-112000747D01*
X125258107Y-111986132D01*
X125279150Y-111973520D01*
X125301329Y-111963030D01*
X125324428Y-111954765D01*
X125348227Y-111948804D01*
X125372495Y-111945204D01*
X125396999Y-111944000D01*
X126047001Y-111944000D01*
X126071505Y-111945204D01*
X126071505Y-111945204D01*
G37*
D15*
X125722000Y-112644000D03*
D14*
G36*
X124021505Y-111945204D02*
G01*
X124045773Y-111948804D01*
X124069572Y-111954765D01*
X124092671Y-111963030D01*
X124114850Y-111973520D01*
X124135893Y-111986132D01*
X124155599Y-112000747D01*
X124173777Y-112017223D01*
X124190253Y-112035401D01*
X124204868Y-112055107D01*
X124217480Y-112076150D01*
X124227970Y-112098329D01*
X124236235Y-112121428D01*
X124242196Y-112145227D01*
X124245796Y-112169495D01*
X124247000Y-112193999D01*
X124247000Y-113094001D01*
X124245796Y-113118505D01*
X124242196Y-113142773D01*
X124236235Y-113166572D01*
X124227970Y-113189671D01*
X124217480Y-113211850D01*
X124204868Y-113232893D01*
X124190253Y-113252599D01*
X124173777Y-113270777D01*
X124155599Y-113287253D01*
X124135893Y-113301868D01*
X124114850Y-113314480D01*
X124092671Y-113324970D01*
X124069572Y-113333235D01*
X124045773Y-113339196D01*
X124021505Y-113342796D01*
X123997001Y-113344000D01*
X123346999Y-113344000D01*
X123322495Y-113342796D01*
X123298227Y-113339196D01*
X123274428Y-113333235D01*
X123251329Y-113324970D01*
X123229150Y-113314480D01*
X123208107Y-113301868D01*
X123188401Y-113287253D01*
X123170223Y-113270777D01*
X123153747Y-113252599D01*
X123139132Y-113232893D01*
X123126520Y-113211850D01*
X123116030Y-113189671D01*
X123107765Y-113166572D01*
X123101804Y-113142773D01*
X123098204Y-113118505D01*
X123097000Y-113094001D01*
X123097000Y-112193999D01*
X123098204Y-112169495D01*
X123101804Y-112145227D01*
X123107765Y-112121428D01*
X123116030Y-112098329D01*
X123126520Y-112076150D01*
X123139132Y-112055107D01*
X123153747Y-112035401D01*
X123170223Y-112017223D01*
X123188401Y-112000747D01*
X123208107Y-111986132D01*
X123229150Y-111973520D01*
X123251329Y-111963030D01*
X123274428Y-111954765D01*
X123298227Y-111948804D01*
X123322495Y-111945204D01*
X123346999Y-111944000D01*
X123997001Y-111944000D01*
X124021505Y-111945204D01*
X124021505Y-111945204D01*
G37*
D15*
X123672000Y-112644000D03*
D14*
G36*
X131284505Y-97479204D02*
G01*
X131308773Y-97482804D01*
X131332572Y-97488765D01*
X131355671Y-97497030D01*
X131377850Y-97507520D01*
X131398893Y-97520132D01*
X131418599Y-97534747D01*
X131436777Y-97551223D01*
X131453253Y-97569401D01*
X131467868Y-97589107D01*
X131480480Y-97610150D01*
X131490970Y-97632329D01*
X131499235Y-97655428D01*
X131505196Y-97679227D01*
X131508796Y-97703495D01*
X131510000Y-97727999D01*
X131510000Y-98378001D01*
X131508796Y-98402505D01*
X131505196Y-98426773D01*
X131499235Y-98450572D01*
X131490970Y-98473671D01*
X131480480Y-98495850D01*
X131467868Y-98516893D01*
X131453253Y-98536599D01*
X131436777Y-98554777D01*
X131418599Y-98571253D01*
X131398893Y-98585868D01*
X131377850Y-98598480D01*
X131355671Y-98608970D01*
X131332572Y-98617235D01*
X131308773Y-98623196D01*
X131284505Y-98626796D01*
X131260001Y-98628000D01*
X130359999Y-98628000D01*
X130335495Y-98626796D01*
X130311227Y-98623196D01*
X130287428Y-98617235D01*
X130264329Y-98608970D01*
X130242150Y-98598480D01*
X130221107Y-98585868D01*
X130201401Y-98571253D01*
X130183223Y-98554777D01*
X130166747Y-98536599D01*
X130152132Y-98516893D01*
X130139520Y-98495850D01*
X130129030Y-98473671D01*
X130120765Y-98450572D01*
X130114804Y-98426773D01*
X130111204Y-98402505D01*
X130110000Y-98378001D01*
X130110000Y-97727999D01*
X130111204Y-97703495D01*
X130114804Y-97679227D01*
X130120765Y-97655428D01*
X130129030Y-97632329D01*
X130139520Y-97610150D01*
X130152132Y-97589107D01*
X130166747Y-97569401D01*
X130183223Y-97551223D01*
X130201401Y-97534747D01*
X130221107Y-97520132D01*
X130242150Y-97507520D01*
X130264329Y-97497030D01*
X130287428Y-97488765D01*
X130311227Y-97482804D01*
X130335495Y-97479204D01*
X130359999Y-97478000D01*
X131260001Y-97478000D01*
X131284505Y-97479204D01*
X131284505Y-97479204D01*
G37*
D15*
X130810000Y-98053000D03*
D14*
G36*
X131284505Y-95429204D02*
G01*
X131308773Y-95432804D01*
X131332572Y-95438765D01*
X131355671Y-95447030D01*
X131377850Y-95457520D01*
X131398893Y-95470132D01*
X131418599Y-95484747D01*
X131436777Y-95501223D01*
X131453253Y-95519401D01*
X131467868Y-95539107D01*
X131480480Y-95560150D01*
X131490970Y-95582329D01*
X131499235Y-95605428D01*
X131505196Y-95629227D01*
X131508796Y-95653495D01*
X131510000Y-95677999D01*
X131510000Y-96328001D01*
X131508796Y-96352505D01*
X131505196Y-96376773D01*
X131499235Y-96400572D01*
X131490970Y-96423671D01*
X131480480Y-96445850D01*
X131467868Y-96466893D01*
X131453253Y-96486599D01*
X131436777Y-96504777D01*
X131418599Y-96521253D01*
X131398893Y-96535868D01*
X131377850Y-96548480D01*
X131355671Y-96558970D01*
X131332572Y-96567235D01*
X131308773Y-96573196D01*
X131284505Y-96576796D01*
X131260001Y-96578000D01*
X130359999Y-96578000D01*
X130335495Y-96576796D01*
X130311227Y-96573196D01*
X130287428Y-96567235D01*
X130264329Y-96558970D01*
X130242150Y-96548480D01*
X130221107Y-96535868D01*
X130201401Y-96521253D01*
X130183223Y-96504777D01*
X130166747Y-96486599D01*
X130152132Y-96466893D01*
X130139520Y-96445850D01*
X130129030Y-96423671D01*
X130120765Y-96400572D01*
X130114804Y-96376773D01*
X130111204Y-96352505D01*
X130110000Y-96328001D01*
X130110000Y-95677999D01*
X130111204Y-95653495D01*
X130114804Y-95629227D01*
X130120765Y-95605428D01*
X130129030Y-95582329D01*
X130139520Y-95560150D01*
X130152132Y-95539107D01*
X130166747Y-95519401D01*
X130183223Y-95501223D01*
X130201401Y-95484747D01*
X130221107Y-95470132D01*
X130242150Y-95457520D01*
X130264329Y-95447030D01*
X130287428Y-95438765D01*
X130311227Y-95432804D01*
X130335495Y-95429204D01*
X130359999Y-95428000D01*
X131260001Y-95428000D01*
X131284505Y-95429204D01*
X131284505Y-95429204D01*
G37*
D15*
X130810000Y-96003000D03*
D14*
G36*
X139631505Y-111958204D02*
G01*
X139655773Y-111961804D01*
X139679572Y-111967765D01*
X139702671Y-111976030D01*
X139724850Y-111986520D01*
X139745893Y-111999132D01*
X139765599Y-112013747D01*
X139783777Y-112030223D01*
X139800253Y-112048401D01*
X139814868Y-112068107D01*
X139827480Y-112089150D01*
X139837970Y-112111329D01*
X139846235Y-112134428D01*
X139852196Y-112158227D01*
X139855796Y-112182495D01*
X139857000Y-112206999D01*
X139857000Y-113107001D01*
X139855796Y-113131505D01*
X139852196Y-113155773D01*
X139846235Y-113179572D01*
X139837970Y-113202671D01*
X139827480Y-113224850D01*
X139814868Y-113245893D01*
X139800253Y-113265599D01*
X139783777Y-113283777D01*
X139765599Y-113300253D01*
X139745893Y-113314868D01*
X139724850Y-113327480D01*
X139702671Y-113337970D01*
X139679572Y-113346235D01*
X139655773Y-113352196D01*
X139631505Y-113355796D01*
X139607001Y-113357000D01*
X138956999Y-113357000D01*
X138932495Y-113355796D01*
X138908227Y-113352196D01*
X138884428Y-113346235D01*
X138861329Y-113337970D01*
X138839150Y-113327480D01*
X138818107Y-113314868D01*
X138798401Y-113300253D01*
X138780223Y-113283777D01*
X138763747Y-113265599D01*
X138749132Y-113245893D01*
X138736520Y-113224850D01*
X138726030Y-113202671D01*
X138717765Y-113179572D01*
X138711804Y-113155773D01*
X138708204Y-113131505D01*
X138707000Y-113107001D01*
X138707000Y-112206999D01*
X138708204Y-112182495D01*
X138711804Y-112158227D01*
X138717765Y-112134428D01*
X138726030Y-112111329D01*
X138736520Y-112089150D01*
X138749132Y-112068107D01*
X138763747Y-112048401D01*
X138780223Y-112030223D01*
X138798401Y-112013747D01*
X138818107Y-111999132D01*
X138839150Y-111986520D01*
X138861329Y-111976030D01*
X138884428Y-111967765D01*
X138908227Y-111961804D01*
X138932495Y-111958204D01*
X138956999Y-111957000D01*
X139607001Y-111957000D01*
X139631505Y-111958204D01*
X139631505Y-111958204D01*
G37*
D15*
X139282000Y-112657000D03*
D14*
G36*
X137581505Y-111958204D02*
G01*
X137605773Y-111961804D01*
X137629572Y-111967765D01*
X137652671Y-111976030D01*
X137674850Y-111986520D01*
X137695893Y-111999132D01*
X137715599Y-112013747D01*
X137733777Y-112030223D01*
X137750253Y-112048401D01*
X137764868Y-112068107D01*
X137777480Y-112089150D01*
X137787970Y-112111329D01*
X137796235Y-112134428D01*
X137802196Y-112158227D01*
X137805796Y-112182495D01*
X137807000Y-112206999D01*
X137807000Y-113107001D01*
X137805796Y-113131505D01*
X137802196Y-113155773D01*
X137796235Y-113179572D01*
X137787970Y-113202671D01*
X137777480Y-113224850D01*
X137764868Y-113245893D01*
X137750253Y-113265599D01*
X137733777Y-113283777D01*
X137715599Y-113300253D01*
X137695893Y-113314868D01*
X137674850Y-113327480D01*
X137652671Y-113337970D01*
X137629572Y-113346235D01*
X137605773Y-113352196D01*
X137581505Y-113355796D01*
X137557001Y-113357000D01*
X136906999Y-113357000D01*
X136882495Y-113355796D01*
X136858227Y-113352196D01*
X136834428Y-113346235D01*
X136811329Y-113337970D01*
X136789150Y-113327480D01*
X136768107Y-113314868D01*
X136748401Y-113300253D01*
X136730223Y-113283777D01*
X136713747Y-113265599D01*
X136699132Y-113245893D01*
X136686520Y-113224850D01*
X136676030Y-113202671D01*
X136667765Y-113179572D01*
X136661804Y-113155773D01*
X136658204Y-113131505D01*
X136657000Y-113107001D01*
X136657000Y-112206999D01*
X136658204Y-112182495D01*
X136661804Y-112158227D01*
X136667765Y-112134428D01*
X136676030Y-112111329D01*
X136686520Y-112089150D01*
X136699132Y-112068107D01*
X136713747Y-112048401D01*
X136730223Y-112030223D01*
X136748401Y-112013747D01*
X136768107Y-111999132D01*
X136789150Y-111986520D01*
X136811329Y-111976030D01*
X136834428Y-111967765D01*
X136858227Y-111961804D01*
X136882495Y-111958204D01*
X136906999Y-111957000D01*
X137557001Y-111957000D01*
X137581505Y-111958204D01*
X137581505Y-111958204D01*
G37*
D15*
X137232000Y-112657000D03*
D14*
G36*
X146270505Y-97479204D02*
G01*
X146294773Y-97482804D01*
X146318572Y-97488765D01*
X146341671Y-97497030D01*
X146363850Y-97507520D01*
X146384893Y-97520132D01*
X146404599Y-97534747D01*
X146422777Y-97551223D01*
X146439253Y-97569401D01*
X146453868Y-97589107D01*
X146466480Y-97610150D01*
X146476970Y-97632329D01*
X146485235Y-97655428D01*
X146491196Y-97679227D01*
X146494796Y-97703495D01*
X146496000Y-97727999D01*
X146496000Y-98378001D01*
X146494796Y-98402505D01*
X146491196Y-98426773D01*
X146485235Y-98450572D01*
X146476970Y-98473671D01*
X146466480Y-98495850D01*
X146453868Y-98516893D01*
X146439253Y-98536599D01*
X146422777Y-98554777D01*
X146404599Y-98571253D01*
X146384893Y-98585868D01*
X146363850Y-98598480D01*
X146341671Y-98608970D01*
X146318572Y-98617235D01*
X146294773Y-98623196D01*
X146270505Y-98626796D01*
X146246001Y-98628000D01*
X145345999Y-98628000D01*
X145321495Y-98626796D01*
X145297227Y-98623196D01*
X145273428Y-98617235D01*
X145250329Y-98608970D01*
X145228150Y-98598480D01*
X145207107Y-98585868D01*
X145187401Y-98571253D01*
X145169223Y-98554777D01*
X145152747Y-98536599D01*
X145138132Y-98516893D01*
X145125520Y-98495850D01*
X145115030Y-98473671D01*
X145106765Y-98450572D01*
X145100804Y-98426773D01*
X145097204Y-98402505D01*
X145096000Y-98378001D01*
X145096000Y-97727999D01*
X145097204Y-97703495D01*
X145100804Y-97679227D01*
X145106765Y-97655428D01*
X145115030Y-97632329D01*
X145125520Y-97610150D01*
X145138132Y-97589107D01*
X145152747Y-97569401D01*
X145169223Y-97551223D01*
X145187401Y-97534747D01*
X145207107Y-97520132D01*
X145228150Y-97507520D01*
X145250329Y-97497030D01*
X145273428Y-97488765D01*
X145297227Y-97482804D01*
X145321495Y-97479204D01*
X145345999Y-97478000D01*
X146246001Y-97478000D01*
X146270505Y-97479204D01*
X146270505Y-97479204D01*
G37*
D15*
X145796000Y-98053000D03*
D14*
G36*
X146270505Y-95429204D02*
G01*
X146294773Y-95432804D01*
X146318572Y-95438765D01*
X146341671Y-95447030D01*
X146363850Y-95457520D01*
X146384893Y-95470132D01*
X146404599Y-95484747D01*
X146422777Y-95501223D01*
X146439253Y-95519401D01*
X146453868Y-95539107D01*
X146466480Y-95560150D01*
X146476970Y-95582329D01*
X146485235Y-95605428D01*
X146491196Y-95629227D01*
X146494796Y-95653495D01*
X146496000Y-95677999D01*
X146496000Y-96328001D01*
X146494796Y-96352505D01*
X146491196Y-96376773D01*
X146485235Y-96400572D01*
X146476970Y-96423671D01*
X146466480Y-96445850D01*
X146453868Y-96466893D01*
X146439253Y-96486599D01*
X146422777Y-96504777D01*
X146404599Y-96521253D01*
X146384893Y-96535868D01*
X146363850Y-96548480D01*
X146341671Y-96558970D01*
X146318572Y-96567235D01*
X146294773Y-96573196D01*
X146270505Y-96576796D01*
X146246001Y-96578000D01*
X145345999Y-96578000D01*
X145321495Y-96576796D01*
X145297227Y-96573196D01*
X145273428Y-96567235D01*
X145250329Y-96558970D01*
X145228150Y-96548480D01*
X145207107Y-96535868D01*
X145187401Y-96521253D01*
X145169223Y-96504777D01*
X145152747Y-96486599D01*
X145138132Y-96466893D01*
X145125520Y-96445850D01*
X145115030Y-96423671D01*
X145106765Y-96400572D01*
X145100804Y-96376773D01*
X145097204Y-96352505D01*
X145096000Y-96328001D01*
X145096000Y-95677999D01*
X145097204Y-95653495D01*
X145100804Y-95629227D01*
X145106765Y-95605428D01*
X145115030Y-95582329D01*
X145125520Y-95560150D01*
X145138132Y-95539107D01*
X145152747Y-95519401D01*
X145169223Y-95501223D01*
X145187401Y-95484747D01*
X145207107Y-95470132D01*
X145228150Y-95457520D01*
X145250329Y-95447030D01*
X145273428Y-95438765D01*
X145297227Y-95432804D01*
X145321495Y-95429204D01*
X145345999Y-95428000D01*
X146246001Y-95428000D01*
X146270505Y-95429204D01*
X146270505Y-95429204D01*
G37*
D15*
X145796000Y-96003000D03*
D14*
G36*
X155078505Y-111615204D02*
G01*
X155102773Y-111618804D01*
X155126572Y-111624765D01*
X155149671Y-111633030D01*
X155171850Y-111643520D01*
X155192893Y-111656132D01*
X155212599Y-111670747D01*
X155230777Y-111687223D01*
X155247253Y-111705401D01*
X155261868Y-111725107D01*
X155274480Y-111746150D01*
X155284970Y-111768329D01*
X155293235Y-111791428D01*
X155299196Y-111815227D01*
X155302796Y-111839495D01*
X155304000Y-111863999D01*
X155304000Y-112764001D01*
X155302796Y-112788505D01*
X155299196Y-112812773D01*
X155293235Y-112836572D01*
X155284970Y-112859671D01*
X155274480Y-112881850D01*
X155261868Y-112902893D01*
X155247253Y-112922599D01*
X155230777Y-112940777D01*
X155212599Y-112957253D01*
X155192893Y-112971868D01*
X155171850Y-112984480D01*
X155149671Y-112994970D01*
X155126572Y-113003235D01*
X155102773Y-113009196D01*
X155078505Y-113012796D01*
X155054001Y-113014000D01*
X154403999Y-113014000D01*
X154379495Y-113012796D01*
X154355227Y-113009196D01*
X154331428Y-113003235D01*
X154308329Y-112994970D01*
X154286150Y-112984480D01*
X154265107Y-112971868D01*
X154245401Y-112957253D01*
X154227223Y-112940777D01*
X154210747Y-112922599D01*
X154196132Y-112902893D01*
X154183520Y-112881850D01*
X154173030Y-112859671D01*
X154164765Y-112836572D01*
X154158804Y-112812773D01*
X154155204Y-112788505D01*
X154154000Y-112764001D01*
X154154000Y-111863999D01*
X154155204Y-111839495D01*
X154158804Y-111815227D01*
X154164765Y-111791428D01*
X154173030Y-111768329D01*
X154183520Y-111746150D01*
X154196132Y-111725107D01*
X154210747Y-111705401D01*
X154227223Y-111687223D01*
X154245401Y-111670747D01*
X154265107Y-111656132D01*
X154286150Y-111643520D01*
X154308329Y-111633030D01*
X154331428Y-111624765D01*
X154355227Y-111618804D01*
X154379495Y-111615204D01*
X154403999Y-111614000D01*
X155054001Y-111614000D01*
X155078505Y-111615204D01*
X155078505Y-111615204D01*
G37*
D15*
X154729000Y-112314000D03*
D14*
G36*
X153028505Y-111615204D02*
G01*
X153052773Y-111618804D01*
X153076572Y-111624765D01*
X153099671Y-111633030D01*
X153121850Y-111643520D01*
X153142893Y-111656132D01*
X153162599Y-111670747D01*
X153180777Y-111687223D01*
X153197253Y-111705401D01*
X153211868Y-111725107D01*
X153224480Y-111746150D01*
X153234970Y-111768329D01*
X153243235Y-111791428D01*
X153249196Y-111815227D01*
X153252796Y-111839495D01*
X153254000Y-111863999D01*
X153254000Y-112764001D01*
X153252796Y-112788505D01*
X153249196Y-112812773D01*
X153243235Y-112836572D01*
X153234970Y-112859671D01*
X153224480Y-112881850D01*
X153211868Y-112902893D01*
X153197253Y-112922599D01*
X153180777Y-112940777D01*
X153162599Y-112957253D01*
X153142893Y-112971868D01*
X153121850Y-112984480D01*
X153099671Y-112994970D01*
X153076572Y-113003235D01*
X153052773Y-113009196D01*
X153028505Y-113012796D01*
X153004001Y-113014000D01*
X152353999Y-113014000D01*
X152329495Y-113012796D01*
X152305227Y-113009196D01*
X152281428Y-113003235D01*
X152258329Y-112994970D01*
X152236150Y-112984480D01*
X152215107Y-112971868D01*
X152195401Y-112957253D01*
X152177223Y-112940777D01*
X152160747Y-112922599D01*
X152146132Y-112902893D01*
X152133520Y-112881850D01*
X152123030Y-112859671D01*
X152114765Y-112836572D01*
X152108804Y-112812773D01*
X152105204Y-112788505D01*
X152104000Y-112764001D01*
X152104000Y-111863999D01*
X152105204Y-111839495D01*
X152108804Y-111815227D01*
X152114765Y-111791428D01*
X152123030Y-111768329D01*
X152133520Y-111746150D01*
X152146132Y-111725107D01*
X152160747Y-111705401D01*
X152177223Y-111687223D01*
X152195401Y-111670747D01*
X152215107Y-111656132D01*
X152236150Y-111643520D01*
X152258329Y-111633030D01*
X152281428Y-111624765D01*
X152305227Y-111618804D01*
X152329495Y-111615204D01*
X152353999Y-111614000D01*
X153004001Y-111614000D01*
X153028505Y-111615204D01*
X153028505Y-111615204D01*
G37*
D15*
X152679000Y-112314000D03*
D14*
G36*
X161510505Y-97479204D02*
G01*
X161534773Y-97482804D01*
X161558572Y-97488765D01*
X161581671Y-97497030D01*
X161603850Y-97507520D01*
X161624893Y-97520132D01*
X161644599Y-97534747D01*
X161662777Y-97551223D01*
X161679253Y-97569401D01*
X161693868Y-97589107D01*
X161706480Y-97610150D01*
X161716970Y-97632329D01*
X161725235Y-97655428D01*
X161731196Y-97679227D01*
X161734796Y-97703495D01*
X161736000Y-97727999D01*
X161736000Y-98378001D01*
X161734796Y-98402505D01*
X161731196Y-98426773D01*
X161725235Y-98450572D01*
X161716970Y-98473671D01*
X161706480Y-98495850D01*
X161693868Y-98516893D01*
X161679253Y-98536599D01*
X161662777Y-98554777D01*
X161644599Y-98571253D01*
X161624893Y-98585868D01*
X161603850Y-98598480D01*
X161581671Y-98608970D01*
X161558572Y-98617235D01*
X161534773Y-98623196D01*
X161510505Y-98626796D01*
X161486001Y-98628000D01*
X160585999Y-98628000D01*
X160561495Y-98626796D01*
X160537227Y-98623196D01*
X160513428Y-98617235D01*
X160490329Y-98608970D01*
X160468150Y-98598480D01*
X160447107Y-98585868D01*
X160427401Y-98571253D01*
X160409223Y-98554777D01*
X160392747Y-98536599D01*
X160378132Y-98516893D01*
X160365520Y-98495850D01*
X160355030Y-98473671D01*
X160346765Y-98450572D01*
X160340804Y-98426773D01*
X160337204Y-98402505D01*
X160336000Y-98378001D01*
X160336000Y-97727999D01*
X160337204Y-97703495D01*
X160340804Y-97679227D01*
X160346765Y-97655428D01*
X160355030Y-97632329D01*
X160365520Y-97610150D01*
X160378132Y-97589107D01*
X160392747Y-97569401D01*
X160409223Y-97551223D01*
X160427401Y-97534747D01*
X160447107Y-97520132D01*
X160468150Y-97507520D01*
X160490329Y-97497030D01*
X160513428Y-97488765D01*
X160537227Y-97482804D01*
X160561495Y-97479204D01*
X160585999Y-97478000D01*
X161486001Y-97478000D01*
X161510505Y-97479204D01*
X161510505Y-97479204D01*
G37*
D15*
X161036000Y-98053000D03*
D14*
G36*
X161510505Y-95429204D02*
G01*
X161534773Y-95432804D01*
X161558572Y-95438765D01*
X161581671Y-95447030D01*
X161603850Y-95457520D01*
X161624893Y-95470132D01*
X161644599Y-95484747D01*
X161662777Y-95501223D01*
X161679253Y-95519401D01*
X161693868Y-95539107D01*
X161706480Y-95560150D01*
X161716970Y-95582329D01*
X161725235Y-95605428D01*
X161731196Y-95629227D01*
X161734796Y-95653495D01*
X161736000Y-95677999D01*
X161736000Y-96328001D01*
X161734796Y-96352505D01*
X161731196Y-96376773D01*
X161725235Y-96400572D01*
X161716970Y-96423671D01*
X161706480Y-96445850D01*
X161693868Y-96466893D01*
X161679253Y-96486599D01*
X161662777Y-96504777D01*
X161644599Y-96521253D01*
X161624893Y-96535868D01*
X161603850Y-96548480D01*
X161581671Y-96558970D01*
X161558572Y-96567235D01*
X161534773Y-96573196D01*
X161510505Y-96576796D01*
X161486001Y-96578000D01*
X160585999Y-96578000D01*
X160561495Y-96576796D01*
X160537227Y-96573196D01*
X160513428Y-96567235D01*
X160490329Y-96558970D01*
X160468150Y-96548480D01*
X160447107Y-96535868D01*
X160427401Y-96521253D01*
X160409223Y-96504777D01*
X160392747Y-96486599D01*
X160378132Y-96466893D01*
X160365520Y-96445850D01*
X160355030Y-96423671D01*
X160346765Y-96400572D01*
X160340804Y-96376773D01*
X160337204Y-96352505D01*
X160336000Y-96328001D01*
X160336000Y-95677999D01*
X160337204Y-95653495D01*
X160340804Y-95629227D01*
X160346765Y-95605428D01*
X160355030Y-95582329D01*
X160365520Y-95560150D01*
X160378132Y-95539107D01*
X160392747Y-95519401D01*
X160409223Y-95501223D01*
X160427401Y-95484747D01*
X160447107Y-95470132D01*
X160468150Y-95457520D01*
X160490329Y-95447030D01*
X160513428Y-95438765D01*
X160537227Y-95432804D01*
X160561495Y-95429204D01*
X160585999Y-95428000D01*
X161486001Y-95428000D01*
X161510505Y-95429204D01*
X161510505Y-95429204D01*
G37*
D15*
X161036000Y-96003000D03*
D14*
G36*
X169742505Y-111386204D02*
G01*
X169766773Y-111389804D01*
X169790572Y-111395765D01*
X169813671Y-111404030D01*
X169835850Y-111414520D01*
X169856893Y-111427132D01*
X169876599Y-111441747D01*
X169894777Y-111458223D01*
X169911253Y-111476401D01*
X169925868Y-111496107D01*
X169938480Y-111517150D01*
X169948970Y-111539329D01*
X169957235Y-111562428D01*
X169963196Y-111586227D01*
X169966796Y-111610495D01*
X169968000Y-111634999D01*
X169968000Y-112535001D01*
X169966796Y-112559505D01*
X169963196Y-112583773D01*
X169957235Y-112607572D01*
X169948970Y-112630671D01*
X169938480Y-112652850D01*
X169925868Y-112673893D01*
X169911253Y-112693599D01*
X169894777Y-112711777D01*
X169876599Y-112728253D01*
X169856893Y-112742868D01*
X169835850Y-112755480D01*
X169813671Y-112765970D01*
X169790572Y-112774235D01*
X169766773Y-112780196D01*
X169742505Y-112783796D01*
X169718001Y-112785000D01*
X169067999Y-112785000D01*
X169043495Y-112783796D01*
X169019227Y-112780196D01*
X168995428Y-112774235D01*
X168972329Y-112765970D01*
X168950150Y-112755480D01*
X168929107Y-112742868D01*
X168909401Y-112728253D01*
X168891223Y-112711777D01*
X168874747Y-112693599D01*
X168860132Y-112673893D01*
X168847520Y-112652850D01*
X168837030Y-112630671D01*
X168828765Y-112607572D01*
X168822804Y-112583773D01*
X168819204Y-112559505D01*
X168818000Y-112535001D01*
X168818000Y-111634999D01*
X168819204Y-111610495D01*
X168822804Y-111586227D01*
X168828765Y-111562428D01*
X168837030Y-111539329D01*
X168847520Y-111517150D01*
X168860132Y-111496107D01*
X168874747Y-111476401D01*
X168891223Y-111458223D01*
X168909401Y-111441747D01*
X168929107Y-111427132D01*
X168950150Y-111414520D01*
X168972329Y-111404030D01*
X168995428Y-111395765D01*
X169019227Y-111389804D01*
X169043495Y-111386204D01*
X169067999Y-111385000D01*
X169718001Y-111385000D01*
X169742505Y-111386204D01*
X169742505Y-111386204D01*
G37*
D15*
X169393000Y-112085000D03*
D14*
G36*
X167692505Y-111386204D02*
G01*
X167716773Y-111389804D01*
X167740572Y-111395765D01*
X167763671Y-111404030D01*
X167785850Y-111414520D01*
X167806893Y-111427132D01*
X167826599Y-111441747D01*
X167844777Y-111458223D01*
X167861253Y-111476401D01*
X167875868Y-111496107D01*
X167888480Y-111517150D01*
X167898970Y-111539329D01*
X167907235Y-111562428D01*
X167913196Y-111586227D01*
X167916796Y-111610495D01*
X167918000Y-111634999D01*
X167918000Y-112535001D01*
X167916796Y-112559505D01*
X167913196Y-112583773D01*
X167907235Y-112607572D01*
X167898970Y-112630671D01*
X167888480Y-112652850D01*
X167875868Y-112673893D01*
X167861253Y-112693599D01*
X167844777Y-112711777D01*
X167826599Y-112728253D01*
X167806893Y-112742868D01*
X167785850Y-112755480D01*
X167763671Y-112765970D01*
X167740572Y-112774235D01*
X167716773Y-112780196D01*
X167692505Y-112783796D01*
X167668001Y-112785000D01*
X167017999Y-112785000D01*
X166993495Y-112783796D01*
X166969227Y-112780196D01*
X166945428Y-112774235D01*
X166922329Y-112765970D01*
X166900150Y-112755480D01*
X166879107Y-112742868D01*
X166859401Y-112728253D01*
X166841223Y-112711777D01*
X166824747Y-112693599D01*
X166810132Y-112673893D01*
X166797520Y-112652850D01*
X166787030Y-112630671D01*
X166778765Y-112607572D01*
X166772804Y-112583773D01*
X166769204Y-112559505D01*
X166768000Y-112535001D01*
X166768000Y-111634999D01*
X166769204Y-111610495D01*
X166772804Y-111586227D01*
X166778765Y-111562428D01*
X166787030Y-111539329D01*
X166797520Y-111517150D01*
X166810132Y-111496107D01*
X166824747Y-111476401D01*
X166841223Y-111458223D01*
X166859401Y-111441747D01*
X166879107Y-111427132D01*
X166900150Y-111414520D01*
X166922329Y-111404030D01*
X166945428Y-111395765D01*
X166969227Y-111389804D01*
X166993495Y-111386204D01*
X167017999Y-111385000D01*
X167668001Y-111385000D01*
X167692505Y-111386204D01*
X167692505Y-111386204D01*
G37*
D15*
X167343000Y-112085000D03*
D14*
G36*
X110084505Y-98570504D02*
G01*
X110108773Y-98574104D01*
X110132572Y-98580065D01*
X110155671Y-98588330D01*
X110177850Y-98598820D01*
X110198893Y-98611432D01*
X110218599Y-98626047D01*
X110236777Y-98642523D01*
X110253253Y-98660701D01*
X110267868Y-98680407D01*
X110280480Y-98701450D01*
X110290970Y-98723629D01*
X110299235Y-98746728D01*
X110305196Y-98770527D01*
X110308796Y-98794795D01*
X110310000Y-98819299D01*
X110310000Y-99469301D01*
X110308796Y-99493805D01*
X110305196Y-99518073D01*
X110299235Y-99541872D01*
X110290970Y-99564971D01*
X110280480Y-99587150D01*
X110267868Y-99608193D01*
X110253253Y-99627899D01*
X110236777Y-99646077D01*
X110218599Y-99662553D01*
X110198893Y-99677168D01*
X110177850Y-99689780D01*
X110155671Y-99700270D01*
X110132572Y-99708535D01*
X110108773Y-99714496D01*
X110084505Y-99718096D01*
X110060001Y-99719300D01*
X109159999Y-99719300D01*
X109135495Y-99718096D01*
X109111227Y-99714496D01*
X109087428Y-99708535D01*
X109064329Y-99700270D01*
X109042150Y-99689780D01*
X109021107Y-99677168D01*
X109001401Y-99662553D01*
X108983223Y-99646077D01*
X108966747Y-99627899D01*
X108952132Y-99608193D01*
X108939520Y-99587150D01*
X108929030Y-99564971D01*
X108920765Y-99541872D01*
X108914804Y-99518073D01*
X108911204Y-99493805D01*
X108910000Y-99469301D01*
X108910000Y-98819299D01*
X108911204Y-98794795D01*
X108914804Y-98770527D01*
X108920765Y-98746728D01*
X108929030Y-98723629D01*
X108939520Y-98701450D01*
X108952132Y-98680407D01*
X108966747Y-98660701D01*
X108983223Y-98642523D01*
X109001401Y-98626047D01*
X109021107Y-98611432D01*
X109042150Y-98598820D01*
X109064329Y-98588330D01*
X109087428Y-98580065D01*
X109111227Y-98574104D01*
X109135495Y-98570504D01*
X109159999Y-98569300D01*
X110060001Y-98569300D01*
X110084505Y-98570504D01*
X110084505Y-98570504D01*
G37*
D15*
X109610000Y-99144300D03*
D14*
G36*
X110084505Y-96520504D02*
G01*
X110108773Y-96524104D01*
X110132572Y-96530065D01*
X110155671Y-96538330D01*
X110177850Y-96548820D01*
X110198893Y-96561432D01*
X110218599Y-96576047D01*
X110236777Y-96592523D01*
X110253253Y-96610701D01*
X110267868Y-96630407D01*
X110280480Y-96651450D01*
X110290970Y-96673629D01*
X110299235Y-96696728D01*
X110305196Y-96720527D01*
X110308796Y-96744795D01*
X110310000Y-96769299D01*
X110310000Y-97419301D01*
X110308796Y-97443805D01*
X110305196Y-97468073D01*
X110299235Y-97491872D01*
X110290970Y-97514971D01*
X110280480Y-97537150D01*
X110267868Y-97558193D01*
X110253253Y-97577899D01*
X110236777Y-97596077D01*
X110218599Y-97612553D01*
X110198893Y-97627168D01*
X110177850Y-97639780D01*
X110155671Y-97650270D01*
X110132572Y-97658535D01*
X110108773Y-97664496D01*
X110084505Y-97668096D01*
X110060001Y-97669300D01*
X109159999Y-97669300D01*
X109135495Y-97668096D01*
X109111227Y-97664496D01*
X109087428Y-97658535D01*
X109064329Y-97650270D01*
X109042150Y-97639780D01*
X109021107Y-97627168D01*
X109001401Y-97612553D01*
X108983223Y-97596077D01*
X108966747Y-97577899D01*
X108952132Y-97558193D01*
X108939520Y-97537150D01*
X108929030Y-97514971D01*
X108920765Y-97491872D01*
X108914804Y-97468073D01*
X108911204Y-97443805D01*
X108910000Y-97419301D01*
X108910000Y-96769299D01*
X108911204Y-96744795D01*
X108914804Y-96720527D01*
X108920765Y-96696728D01*
X108929030Y-96673629D01*
X108939520Y-96651450D01*
X108952132Y-96630407D01*
X108966747Y-96610701D01*
X108983223Y-96592523D01*
X109001401Y-96576047D01*
X109021107Y-96561432D01*
X109042150Y-96548820D01*
X109064329Y-96538330D01*
X109087428Y-96530065D01*
X109111227Y-96524104D01*
X109135495Y-96520504D01*
X109159999Y-96519300D01*
X110060001Y-96519300D01*
X110084505Y-96520504D01*
X110084505Y-96520504D01*
G37*
D15*
X109610000Y-97094300D03*
D14*
G36*
X106983505Y-94194504D02*
G01*
X107007773Y-94198104D01*
X107031572Y-94204065D01*
X107054671Y-94212330D01*
X107076850Y-94222820D01*
X107097893Y-94235432D01*
X107117599Y-94250047D01*
X107135777Y-94266523D01*
X107152253Y-94284701D01*
X107166868Y-94304407D01*
X107179480Y-94325450D01*
X107189970Y-94347629D01*
X107198235Y-94370728D01*
X107204196Y-94394527D01*
X107207796Y-94418795D01*
X107209000Y-94443299D01*
X107209000Y-95093301D01*
X107207796Y-95117805D01*
X107204196Y-95142073D01*
X107198235Y-95165872D01*
X107189970Y-95188971D01*
X107179480Y-95211150D01*
X107166868Y-95232193D01*
X107152253Y-95251899D01*
X107135777Y-95270077D01*
X107117599Y-95286553D01*
X107097893Y-95301168D01*
X107076850Y-95313780D01*
X107054671Y-95324270D01*
X107031572Y-95332535D01*
X107007773Y-95338496D01*
X106983505Y-95342096D01*
X106959001Y-95343300D01*
X106058999Y-95343300D01*
X106034495Y-95342096D01*
X106010227Y-95338496D01*
X105986428Y-95332535D01*
X105963329Y-95324270D01*
X105941150Y-95313780D01*
X105920107Y-95301168D01*
X105900401Y-95286553D01*
X105882223Y-95270077D01*
X105865747Y-95251899D01*
X105851132Y-95232193D01*
X105838520Y-95211150D01*
X105828030Y-95188971D01*
X105819765Y-95165872D01*
X105813804Y-95142073D01*
X105810204Y-95117805D01*
X105809000Y-95093301D01*
X105809000Y-94443299D01*
X105810204Y-94418795D01*
X105813804Y-94394527D01*
X105819765Y-94370728D01*
X105828030Y-94347629D01*
X105838520Y-94325450D01*
X105851132Y-94304407D01*
X105865747Y-94284701D01*
X105882223Y-94266523D01*
X105900401Y-94250047D01*
X105920107Y-94235432D01*
X105941150Y-94222820D01*
X105963329Y-94212330D01*
X105986428Y-94204065D01*
X106010227Y-94198104D01*
X106034495Y-94194504D01*
X106058999Y-94193300D01*
X106959001Y-94193300D01*
X106983505Y-94194504D01*
X106983505Y-94194504D01*
G37*
D15*
X106509000Y-94768300D03*
D14*
G36*
X106983505Y-92144504D02*
G01*
X107007773Y-92148104D01*
X107031572Y-92154065D01*
X107054671Y-92162330D01*
X107076850Y-92172820D01*
X107097893Y-92185432D01*
X107117599Y-92200047D01*
X107135777Y-92216523D01*
X107152253Y-92234701D01*
X107166868Y-92254407D01*
X107179480Y-92275450D01*
X107189970Y-92297629D01*
X107198235Y-92320728D01*
X107204196Y-92344527D01*
X107207796Y-92368795D01*
X107209000Y-92393299D01*
X107209000Y-93043301D01*
X107207796Y-93067805D01*
X107204196Y-93092073D01*
X107198235Y-93115872D01*
X107189970Y-93138971D01*
X107179480Y-93161150D01*
X107166868Y-93182193D01*
X107152253Y-93201899D01*
X107135777Y-93220077D01*
X107117599Y-93236553D01*
X107097893Y-93251168D01*
X107076850Y-93263780D01*
X107054671Y-93274270D01*
X107031572Y-93282535D01*
X107007773Y-93288496D01*
X106983505Y-93292096D01*
X106959001Y-93293300D01*
X106058999Y-93293300D01*
X106034495Y-93292096D01*
X106010227Y-93288496D01*
X105986428Y-93282535D01*
X105963329Y-93274270D01*
X105941150Y-93263780D01*
X105920107Y-93251168D01*
X105900401Y-93236553D01*
X105882223Y-93220077D01*
X105865747Y-93201899D01*
X105851132Y-93182193D01*
X105838520Y-93161150D01*
X105828030Y-93138971D01*
X105819765Y-93115872D01*
X105813804Y-93092073D01*
X105810204Y-93067805D01*
X105809000Y-93043301D01*
X105809000Y-92393299D01*
X105810204Y-92368795D01*
X105813804Y-92344527D01*
X105819765Y-92320728D01*
X105828030Y-92297629D01*
X105838520Y-92275450D01*
X105851132Y-92254407D01*
X105865747Y-92234701D01*
X105882223Y-92216523D01*
X105900401Y-92200047D01*
X105920107Y-92185432D01*
X105941150Y-92172820D01*
X105963329Y-92162330D01*
X105986428Y-92154065D01*
X106010227Y-92148104D01*
X106034495Y-92144504D01*
X106058999Y-92143300D01*
X106959001Y-92143300D01*
X106983505Y-92144504D01*
X106983505Y-92144504D01*
G37*
D15*
X106509000Y-92718300D03*
D14*
G36*
X176313505Y-97589704D02*
G01*
X176337773Y-97593304D01*
X176361572Y-97599265D01*
X176384671Y-97607530D01*
X176406850Y-97618020D01*
X176427893Y-97630632D01*
X176447599Y-97645247D01*
X176465777Y-97661723D01*
X176482253Y-97679901D01*
X176496868Y-97699607D01*
X176509480Y-97720650D01*
X176519970Y-97742829D01*
X176528235Y-97765928D01*
X176534196Y-97789727D01*
X176537796Y-97813995D01*
X176539000Y-97838499D01*
X176539000Y-98488501D01*
X176537796Y-98513005D01*
X176534196Y-98537273D01*
X176528235Y-98561072D01*
X176519970Y-98584171D01*
X176509480Y-98606350D01*
X176496868Y-98627393D01*
X176482253Y-98647099D01*
X176465777Y-98665277D01*
X176447599Y-98681753D01*
X176427893Y-98696368D01*
X176406850Y-98708980D01*
X176384671Y-98719470D01*
X176361572Y-98727735D01*
X176337773Y-98733696D01*
X176313505Y-98737296D01*
X176289001Y-98738500D01*
X175388999Y-98738500D01*
X175364495Y-98737296D01*
X175340227Y-98733696D01*
X175316428Y-98727735D01*
X175293329Y-98719470D01*
X175271150Y-98708980D01*
X175250107Y-98696368D01*
X175230401Y-98681753D01*
X175212223Y-98665277D01*
X175195747Y-98647099D01*
X175181132Y-98627393D01*
X175168520Y-98606350D01*
X175158030Y-98584171D01*
X175149765Y-98561072D01*
X175143804Y-98537273D01*
X175140204Y-98513005D01*
X175139000Y-98488501D01*
X175139000Y-97838499D01*
X175140204Y-97813995D01*
X175143804Y-97789727D01*
X175149765Y-97765928D01*
X175158030Y-97742829D01*
X175168520Y-97720650D01*
X175181132Y-97699607D01*
X175195747Y-97679901D01*
X175212223Y-97661723D01*
X175230401Y-97645247D01*
X175250107Y-97630632D01*
X175271150Y-97618020D01*
X175293329Y-97607530D01*
X175316428Y-97599265D01*
X175340227Y-97593304D01*
X175364495Y-97589704D01*
X175388999Y-97588500D01*
X176289001Y-97588500D01*
X176313505Y-97589704D01*
X176313505Y-97589704D01*
G37*
D15*
X175839000Y-98163500D03*
D14*
G36*
X176313505Y-95539704D02*
G01*
X176337773Y-95543304D01*
X176361572Y-95549265D01*
X176384671Y-95557530D01*
X176406850Y-95568020D01*
X176427893Y-95580632D01*
X176447599Y-95595247D01*
X176465777Y-95611723D01*
X176482253Y-95629901D01*
X176496868Y-95649607D01*
X176509480Y-95670650D01*
X176519970Y-95692829D01*
X176528235Y-95715928D01*
X176534196Y-95739727D01*
X176537796Y-95763995D01*
X176539000Y-95788499D01*
X176539000Y-96438501D01*
X176537796Y-96463005D01*
X176534196Y-96487273D01*
X176528235Y-96511072D01*
X176519970Y-96534171D01*
X176509480Y-96556350D01*
X176496868Y-96577393D01*
X176482253Y-96597099D01*
X176465777Y-96615277D01*
X176447599Y-96631753D01*
X176427893Y-96646368D01*
X176406850Y-96658980D01*
X176384671Y-96669470D01*
X176361572Y-96677735D01*
X176337773Y-96683696D01*
X176313505Y-96687296D01*
X176289001Y-96688500D01*
X175388999Y-96688500D01*
X175364495Y-96687296D01*
X175340227Y-96683696D01*
X175316428Y-96677735D01*
X175293329Y-96669470D01*
X175271150Y-96658980D01*
X175250107Y-96646368D01*
X175230401Y-96631753D01*
X175212223Y-96615277D01*
X175195747Y-96597099D01*
X175181132Y-96577393D01*
X175168520Y-96556350D01*
X175158030Y-96534171D01*
X175149765Y-96511072D01*
X175143804Y-96487273D01*
X175140204Y-96463005D01*
X175139000Y-96438501D01*
X175139000Y-95788499D01*
X175140204Y-95763995D01*
X175143804Y-95739727D01*
X175149765Y-95715928D01*
X175158030Y-95692829D01*
X175168520Y-95670650D01*
X175181132Y-95649607D01*
X175195747Y-95629901D01*
X175212223Y-95611723D01*
X175230401Y-95595247D01*
X175250107Y-95580632D01*
X175271150Y-95568020D01*
X175293329Y-95557530D01*
X175316428Y-95549265D01*
X175340227Y-95543304D01*
X175364495Y-95539704D01*
X175388999Y-95538500D01*
X176289001Y-95538500D01*
X176313505Y-95539704D01*
X176313505Y-95539704D01*
G37*
D15*
X175839000Y-96113500D03*
D14*
G36*
X131943505Y-115412204D02*
G01*
X131967773Y-115415804D01*
X131991572Y-115421765D01*
X132014671Y-115430030D01*
X132036850Y-115440520D01*
X132057893Y-115453132D01*
X132077599Y-115467747D01*
X132095777Y-115484223D01*
X132112253Y-115502401D01*
X132126868Y-115522107D01*
X132139480Y-115543150D01*
X132149970Y-115565329D01*
X132158235Y-115588428D01*
X132164196Y-115612227D01*
X132167796Y-115636495D01*
X132169000Y-115660999D01*
X132169000Y-116561001D01*
X132167796Y-116585505D01*
X132164196Y-116609773D01*
X132158235Y-116633572D01*
X132149970Y-116656671D01*
X132139480Y-116678850D01*
X132126868Y-116699893D01*
X132112253Y-116719599D01*
X132095777Y-116737777D01*
X132077599Y-116754253D01*
X132057893Y-116768868D01*
X132036850Y-116781480D01*
X132014671Y-116791970D01*
X131991572Y-116800235D01*
X131967773Y-116806196D01*
X131943505Y-116809796D01*
X131919001Y-116811000D01*
X131268999Y-116811000D01*
X131244495Y-116809796D01*
X131220227Y-116806196D01*
X131196428Y-116800235D01*
X131173329Y-116791970D01*
X131151150Y-116781480D01*
X131130107Y-116768868D01*
X131110401Y-116754253D01*
X131092223Y-116737777D01*
X131075747Y-116719599D01*
X131061132Y-116699893D01*
X131048520Y-116678850D01*
X131038030Y-116656671D01*
X131029765Y-116633572D01*
X131023804Y-116609773D01*
X131020204Y-116585505D01*
X131019000Y-116561001D01*
X131019000Y-115660999D01*
X131020204Y-115636495D01*
X131023804Y-115612227D01*
X131029765Y-115588428D01*
X131038030Y-115565329D01*
X131048520Y-115543150D01*
X131061132Y-115522107D01*
X131075747Y-115502401D01*
X131092223Y-115484223D01*
X131110401Y-115467747D01*
X131130107Y-115453132D01*
X131151150Y-115440520D01*
X131173329Y-115430030D01*
X131196428Y-115421765D01*
X131220227Y-115415804D01*
X131244495Y-115412204D01*
X131268999Y-115411000D01*
X131919001Y-115411000D01*
X131943505Y-115412204D01*
X131943505Y-115412204D01*
G37*
D15*
X131594000Y-116111000D03*
D14*
G36*
X129893505Y-115412204D02*
G01*
X129917773Y-115415804D01*
X129941572Y-115421765D01*
X129964671Y-115430030D01*
X129986850Y-115440520D01*
X130007893Y-115453132D01*
X130027599Y-115467747D01*
X130045777Y-115484223D01*
X130062253Y-115502401D01*
X130076868Y-115522107D01*
X130089480Y-115543150D01*
X130099970Y-115565329D01*
X130108235Y-115588428D01*
X130114196Y-115612227D01*
X130117796Y-115636495D01*
X130119000Y-115660999D01*
X130119000Y-116561001D01*
X130117796Y-116585505D01*
X130114196Y-116609773D01*
X130108235Y-116633572D01*
X130099970Y-116656671D01*
X130089480Y-116678850D01*
X130076868Y-116699893D01*
X130062253Y-116719599D01*
X130045777Y-116737777D01*
X130027599Y-116754253D01*
X130007893Y-116768868D01*
X129986850Y-116781480D01*
X129964671Y-116791970D01*
X129941572Y-116800235D01*
X129917773Y-116806196D01*
X129893505Y-116809796D01*
X129869001Y-116811000D01*
X129218999Y-116811000D01*
X129194495Y-116809796D01*
X129170227Y-116806196D01*
X129146428Y-116800235D01*
X129123329Y-116791970D01*
X129101150Y-116781480D01*
X129080107Y-116768868D01*
X129060401Y-116754253D01*
X129042223Y-116737777D01*
X129025747Y-116719599D01*
X129011132Y-116699893D01*
X128998520Y-116678850D01*
X128988030Y-116656671D01*
X128979765Y-116633572D01*
X128973804Y-116609773D01*
X128970204Y-116585505D01*
X128969000Y-116561001D01*
X128969000Y-115660999D01*
X128970204Y-115636495D01*
X128973804Y-115612227D01*
X128979765Y-115588428D01*
X128988030Y-115565329D01*
X128998520Y-115543150D01*
X129011132Y-115522107D01*
X129025747Y-115502401D01*
X129042223Y-115484223D01*
X129060401Y-115467747D01*
X129080107Y-115453132D01*
X129101150Y-115440520D01*
X129123329Y-115430030D01*
X129146428Y-115421765D01*
X129170227Y-115415804D01*
X129194495Y-115412204D01*
X129218999Y-115411000D01*
X129869001Y-115411000D01*
X129893505Y-115412204D01*
X129893505Y-115412204D01*
G37*
D15*
X129544000Y-116111000D03*
D14*
G36*
X134822505Y-108105204D02*
G01*
X134846773Y-108108804D01*
X134870572Y-108114765D01*
X134893671Y-108123030D01*
X134915850Y-108133520D01*
X134936893Y-108146132D01*
X134956599Y-108160747D01*
X134974777Y-108177223D01*
X134991253Y-108195401D01*
X135005868Y-108215107D01*
X135018480Y-108236150D01*
X135028970Y-108258329D01*
X135037235Y-108281428D01*
X135043196Y-108305227D01*
X135046796Y-108329495D01*
X135048000Y-108353999D01*
X135048000Y-109004001D01*
X135046796Y-109028505D01*
X135043196Y-109052773D01*
X135037235Y-109076572D01*
X135028970Y-109099671D01*
X135018480Y-109121850D01*
X135005868Y-109142893D01*
X134991253Y-109162599D01*
X134974777Y-109180777D01*
X134956599Y-109197253D01*
X134936893Y-109211868D01*
X134915850Y-109224480D01*
X134893671Y-109234970D01*
X134870572Y-109243235D01*
X134846773Y-109249196D01*
X134822505Y-109252796D01*
X134798001Y-109254000D01*
X133897999Y-109254000D01*
X133873495Y-109252796D01*
X133849227Y-109249196D01*
X133825428Y-109243235D01*
X133802329Y-109234970D01*
X133780150Y-109224480D01*
X133759107Y-109211868D01*
X133739401Y-109197253D01*
X133721223Y-109180777D01*
X133704747Y-109162599D01*
X133690132Y-109142893D01*
X133677520Y-109121850D01*
X133667030Y-109099671D01*
X133658765Y-109076572D01*
X133652804Y-109052773D01*
X133649204Y-109028505D01*
X133648000Y-109004001D01*
X133648000Y-108353999D01*
X133649204Y-108329495D01*
X133652804Y-108305227D01*
X133658765Y-108281428D01*
X133667030Y-108258329D01*
X133677520Y-108236150D01*
X133690132Y-108215107D01*
X133704747Y-108195401D01*
X133721223Y-108177223D01*
X133739401Y-108160747D01*
X133759107Y-108146132D01*
X133780150Y-108133520D01*
X133802329Y-108123030D01*
X133825428Y-108114765D01*
X133849227Y-108108804D01*
X133873495Y-108105204D01*
X133897999Y-108104000D01*
X134798001Y-108104000D01*
X134822505Y-108105204D01*
X134822505Y-108105204D01*
G37*
D15*
X134348000Y-108679000D03*
D14*
G36*
X134822505Y-106055204D02*
G01*
X134846773Y-106058804D01*
X134870572Y-106064765D01*
X134893671Y-106073030D01*
X134915850Y-106083520D01*
X134936893Y-106096132D01*
X134956599Y-106110747D01*
X134974777Y-106127223D01*
X134991253Y-106145401D01*
X135005868Y-106165107D01*
X135018480Y-106186150D01*
X135028970Y-106208329D01*
X135037235Y-106231428D01*
X135043196Y-106255227D01*
X135046796Y-106279495D01*
X135048000Y-106303999D01*
X135048000Y-106954001D01*
X135046796Y-106978505D01*
X135043196Y-107002773D01*
X135037235Y-107026572D01*
X135028970Y-107049671D01*
X135018480Y-107071850D01*
X135005868Y-107092893D01*
X134991253Y-107112599D01*
X134974777Y-107130777D01*
X134956599Y-107147253D01*
X134936893Y-107161868D01*
X134915850Y-107174480D01*
X134893671Y-107184970D01*
X134870572Y-107193235D01*
X134846773Y-107199196D01*
X134822505Y-107202796D01*
X134798001Y-107204000D01*
X133897999Y-107204000D01*
X133873495Y-107202796D01*
X133849227Y-107199196D01*
X133825428Y-107193235D01*
X133802329Y-107184970D01*
X133780150Y-107174480D01*
X133759107Y-107161868D01*
X133739401Y-107147253D01*
X133721223Y-107130777D01*
X133704747Y-107112599D01*
X133690132Y-107092893D01*
X133677520Y-107071850D01*
X133667030Y-107049671D01*
X133658765Y-107026572D01*
X133652804Y-107002773D01*
X133649204Y-106978505D01*
X133648000Y-106954001D01*
X133648000Y-106303999D01*
X133649204Y-106279495D01*
X133652804Y-106255227D01*
X133658765Y-106231428D01*
X133667030Y-106208329D01*
X133677520Y-106186150D01*
X133690132Y-106165107D01*
X133704747Y-106145401D01*
X133721223Y-106127223D01*
X133739401Y-106110747D01*
X133759107Y-106096132D01*
X133780150Y-106083520D01*
X133802329Y-106073030D01*
X133825428Y-106064765D01*
X133849227Y-106058804D01*
X133873495Y-106055204D01*
X133897999Y-106054000D01*
X134798001Y-106054000D01*
X134822505Y-106055204D01*
X134822505Y-106055204D01*
G37*
D15*
X134348000Y-106629000D03*
D14*
G36*
X147183505Y-116047204D02*
G01*
X147207773Y-116050804D01*
X147231572Y-116056765D01*
X147254671Y-116065030D01*
X147276850Y-116075520D01*
X147297893Y-116088132D01*
X147317599Y-116102747D01*
X147335777Y-116119223D01*
X147352253Y-116137401D01*
X147366868Y-116157107D01*
X147379480Y-116178150D01*
X147389970Y-116200329D01*
X147398235Y-116223428D01*
X147404196Y-116247227D01*
X147407796Y-116271495D01*
X147409000Y-116295999D01*
X147409000Y-117196001D01*
X147407796Y-117220505D01*
X147404196Y-117244773D01*
X147398235Y-117268572D01*
X147389970Y-117291671D01*
X147379480Y-117313850D01*
X147366868Y-117334893D01*
X147352253Y-117354599D01*
X147335777Y-117372777D01*
X147317599Y-117389253D01*
X147297893Y-117403868D01*
X147276850Y-117416480D01*
X147254671Y-117426970D01*
X147231572Y-117435235D01*
X147207773Y-117441196D01*
X147183505Y-117444796D01*
X147159001Y-117446000D01*
X146508999Y-117446000D01*
X146484495Y-117444796D01*
X146460227Y-117441196D01*
X146436428Y-117435235D01*
X146413329Y-117426970D01*
X146391150Y-117416480D01*
X146370107Y-117403868D01*
X146350401Y-117389253D01*
X146332223Y-117372777D01*
X146315747Y-117354599D01*
X146301132Y-117334893D01*
X146288520Y-117313850D01*
X146278030Y-117291671D01*
X146269765Y-117268572D01*
X146263804Y-117244773D01*
X146260204Y-117220505D01*
X146259000Y-117196001D01*
X146259000Y-116295999D01*
X146260204Y-116271495D01*
X146263804Y-116247227D01*
X146269765Y-116223428D01*
X146278030Y-116200329D01*
X146288520Y-116178150D01*
X146301132Y-116157107D01*
X146315747Y-116137401D01*
X146332223Y-116119223D01*
X146350401Y-116102747D01*
X146370107Y-116088132D01*
X146391150Y-116075520D01*
X146413329Y-116065030D01*
X146436428Y-116056765D01*
X146460227Y-116050804D01*
X146484495Y-116047204D01*
X146508999Y-116046000D01*
X147159001Y-116046000D01*
X147183505Y-116047204D01*
X147183505Y-116047204D01*
G37*
D15*
X146834000Y-116746000D03*
D14*
G36*
X145133505Y-116047204D02*
G01*
X145157773Y-116050804D01*
X145181572Y-116056765D01*
X145204671Y-116065030D01*
X145226850Y-116075520D01*
X145247893Y-116088132D01*
X145267599Y-116102747D01*
X145285777Y-116119223D01*
X145302253Y-116137401D01*
X145316868Y-116157107D01*
X145329480Y-116178150D01*
X145339970Y-116200329D01*
X145348235Y-116223428D01*
X145354196Y-116247227D01*
X145357796Y-116271495D01*
X145359000Y-116295999D01*
X145359000Y-117196001D01*
X145357796Y-117220505D01*
X145354196Y-117244773D01*
X145348235Y-117268572D01*
X145339970Y-117291671D01*
X145329480Y-117313850D01*
X145316868Y-117334893D01*
X145302253Y-117354599D01*
X145285777Y-117372777D01*
X145267599Y-117389253D01*
X145247893Y-117403868D01*
X145226850Y-117416480D01*
X145204671Y-117426970D01*
X145181572Y-117435235D01*
X145157773Y-117441196D01*
X145133505Y-117444796D01*
X145109001Y-117446000D01*
X144458999Y-117446000D01*
X144434495Y-117444796D01*
X144410227Y-117441196D01*
X144386428Y-117435235D01*
X144363329Y-117426970D01*
X144341150Y-117416480D01*
X144320107Y-117403868D01*
X144300401Y-117389253D01*
X144282223Y-117372777D01*
X144265747Y-117354599D01*
X144251132Y-117334893D01*
X144238520Y-117313850D01*
X144228030Y-117291671D01*
X144219765Y-117268572D01*
X144213804Y-117244773D01*
X144210204Y-117220505D01*
X144209000Y-117196001D01*
X144209000Y-116295999D01*
X144210204Y-116271495D01*
X144213804Y-116247227D01*
X144219765Y-116223428D01*
X144228030Y-116200329D01*
X144238520Y-116178150D01*
X144251132Y-116157107D01*
X144265747Y-116137401D01*
X144282223Y-116119223D01*
X144300401Y-116102747D01*
X144320107Y-116088132D01*
X144341150Y-116075520D01*
X144363329Y-116065030D01*
X144386428Y-116056765D01*
X144410227Y-116050804D01*
X144434495Y-116047204D01*
X144458999Y-116046000D01*
X145109001Y-116046000D01*
X145133505Y-116047204D01*
X145133505Y-116047204D01*
G37*
D15*
X144784000Y-116746000D03*
D14*
G36*
X193260505Y-114488204D02*
G01*
X193284773Y-114491804D01*
X193308572Y-114497765D01*
X193331671Y-114506030D01*
X193353850Y-114516520D01*
X193374893Y-114529132D01*
X193394599Y-114543747D01*
X193412777Y-114560223D01*
X193429253Y-114578401D01*
X193443868Y-114598107D01*
X193456480Y-114619150D01*
X193466970Y-114641329D01*
X193475235Y-114664428D01*
X193481196Y-114688227D01*
X193484796Y-114712495D01*
X193486000Y-114736999D01*
X193486000Y-115387001D01*
X193484796Y-115411505D01*
X193481196Y-115435773D01*
X193475235Y-115459572D01*
X193466970Y-115482671D01*
X193456480Y-115504850D01*
X193443868Y-115525893D01*
X193429253Y-115545599D01*
X193412777Y-115563777D01*
X193394599Y-115580253D01*
X193374893Y-115594868D01*
X193353850Y-115607480D01*
X193331671Y-115617970D01*
X193308572Y-115626235D01*
X193284773Y-115632196D01*
X193260505Y-115635796D01*
X193236001Y-115637000D01*
X192335999Y-115637000D01*
X192311495Y-115635796D01*
X192287227Y-115632196D01*
X192263428Y-115626235D01*
X192240329Y-115617970D01*
X192218150Y-115607480D01*
X192197107Y-115594868D01*
X192177401Y-115580253D01*
X192159223Y-115563777D01*
X192142747Y-115545599D01*
X192128132Y-115525893D01*
X192115520Y-115504850D01*
X192105030Y-115482671D01*
X192096765Y-115459572D01*
X192090804Y-115435773D01*
X192087204Y-115411505D01*
X192086000Y-115387001D01*
X192086000Y-114736999D01*
X192087204Y-114712495D01*
X192090804Y-114688227D01*
X192096765Y-114664428D01*
X192105030Y-114641329D01*
X192115520Y-114619150D01*
X192128132Y-114598107D01*
X192142747Y-114578401D01*
X192159223Y-114560223D01*
X192177401Y-114543747D01*
X192197107Y-114529132D01*
X192218150Y-114516520D01*
X192240329Y-114506030D01*
X192263428Y-114497765D01*
X192287227Y-114491804D01*
X192311495Y-114488204D01*
X192335999Y-114487000D01*
X193236001Y-114487000D01*
X193260505Y-114488204D01*
X193260505Y-114488204D01*
G37*
D15*
X192786000Y-115062000D03*
D14*
G36*
X193260505Y-116538204D02*
G01*
X193284773Y-116541804D01*
X193308572Y-116547765D01*
X193331671Y-116556030D01*
X193353850Y-116566520D01*
X193374893Y-116579132D01*
X193394599Y-116593747D01*
X193412777Y-116610223D01*
X193429253Y-116628401D01*
X193443868Y-116648107D01*
X193456480Y-116669150D01*
X193466970Y-116691329D01*
X193475235Y-116714428D01*
X193481196Y-116738227D01*
X193484796Y-116762495D01*
X193486000Y-116786999D01*
X193486000Y-117437001D01*
X193484796Y-117461505D01*
X193481196Y-117485773D01*
X193475235Y-117509572D01*
X193466970Y-117532671D01*
X193456480Y-117554850D01*
X193443868Y-117575893D01*
X193429253Y-117595599D01*
X193412777Y-117613777D01*
X193394599Y-117630253D01*
X193374893Y-117644868D01*
X193353850Y-117657480D01*
X193331671Y-117667970D01*
X193308572Y-117676235D01*
X193284773Y-117682196D01*
X193260505Y-117685796D01*
X193236001Y-117687000D01*
X192335999Y-117687000D01*
X192311495Y-117685796D01*
X192287227Y-117682196D01*
X192263428Y-117676235D01*
X192240329Y-117667970D01*
X192218150Y-117657480D01*
X192197107Y-117644868D01*
X192177401Y-117630253D01*
X192159223Y-117613777D01*
X192142747Y-117595599D01*
X192128132Y-117575893D01*
X192115520Y-117554850D01*
X192105030Y-117532671D01*
X192096765Y-117509572D01*
X192090804Y-117485773D01*
X192087204Y-117461505D01*
X192086000Y-117437001D01*
X192086000Y-116786999D01*
X192087204Y-116762495D01*
X192090804Y-116738227D01*
X192096765Y-116714428D01*
X192105030Y-116691329D01*
X192115520Y-116669150D01*
X192128132Y-116648107D01*
X192142747Y-116628401D01*
X192159223Y-116610223D01*
X192177401Y-116593747D01*
X192197107Y-116579132D01*
X192218150Y-116566520D01*
X192240329Y-116556030D01*
X192263428Y-116547765D01*
X192287227Y-116541804D01*
X192311495Y-116538204D01*
X192335999Y-116537000D01*
X193236001Y-116537000D01*
X193260505Y-116538204D01*
X193260505Y-116538204D01*
G37*
D15*
X192786000Y-117112000D03*
D14*
G36*
X142463505Y-105218204D02*
G01*
X142487773Y-105221804D01*
X142511572Y-105227765D01*
X142534671Y-105236030D01*
X142556850Y-105246520D01*
X142577893Y-105259132D01*
X142597599Y-105273747D01*
X142615777Y-105290223D01*
X142632253Y-105308401D01*
X142646868Y-105328107D01*
X142659480Y-105349150D01*
X142669970Y-105371329D01*
X142678235Y-105394428D01*
X142684196Y-105418227D01*
X142687796Y-105442495D01*
X142689000Y-105466999D01*
X142689000Y-106117001D01*
X142687796Y-106141505D01*
X142684196Y-106165773D01*
X142678235Y-106189572D01*
X142669970Y-106212671D01*
X142659480Y-106234850D01*
X142646868Y-106255893D01*
X142632253Y-106275599D01*
X142615777Y-106293777D01*
X142597599Y-106310253D01*
X142577893Y-106324868D01*
X142556850Y-106337480D01*
X142534671Y-106347970D01*
X142511572Y-106356235D01*
X142487773Y-106362196D01*
X142463505Y-106365796D01*
X142439001Y-106367000D01*
X141538999Y-106367000D01*
X141514495Y-106365796D01*
X141490227Y-106362196D01*
X141466428Y-106356235D01*
X141443329Y-106347970D01*
X141421150Y-106337480D01*
X141400107Y-106324868D01*
X141380401Y-106310253D01*
X141362223Y-106293777D01*
X141345747Y-106275599D01*
X141331132Y-106255893D01*
X141318520Y-106234850D01*
X141308030Y-106212671D01*
X141299765Y-106189572D01*
X141293804Y-106165773D01*
X141290204Y-106141505D01*
X141289000Y-106117001D01*
X141289000Y-105466999D01*
X141290204Y-105442495D01*
X141293804Y-105418227D01*
X141299765Y-105394428D01*
X141308030Y-105371329D01*
X141318520Y-105349150D01*
X141331132Y-105328107D01*
X141345747Y-105308401D01*
X141362223Y-105290223D01*
X141380401Y-105273747D01*
X141400107Y-105259132D01*
X141421150Y-105246520D01*
X141443329Y-105236030D01*
X141466428Y-105227765D01*
X141490227Y-105221804D01*
X141514495Y-105218204D01*
X141538999Y-105217000D01*
X142439001Y-105217000D01*
X142463505Y-105218204D01*
X142463505Y-105218204D01*
G37*
D15*
X141989000Y-105792000D03*
D14*
G36*
X142463505Y-103168204D02*
G01*
X142487773Y-103171804D01*
X142511572Y-103177765D01*
X142534671Y-103186030D01*
X142556850Y-103196520D01*
X142577893Y-103209132D01*
X142597599Y-103223747D01*
X142615777Y-103240223D01*
X142632253Y-103258401D01*
X142646868Y-103278107D01*
X142659480Y-103299150D01*
X142669970Y-103321329D01*
X142678235Y-103344428D01*
X142684196Y-103368227D01*
X142687796Y-103392495D01*
X142689000Y-103416999D01*
X142689000Y-104067001D01*
X142687796Y-104091505D01*
X142684196Y-104115773D01*
X142678235Y-104139572D01*
X142669970Y-104162671D01*
X142659480Y-104184850D01*
X142646868Y-104205893D01*
X142632253Y-104225599D01*
X142615777Y-104243777D01*
X142597599Y-104260253D01*
X142577893Y-104274868D01*
X142556850Y-104287480D01*
X142534671Y-104297970D01*
X142511572Y-104306235D01*
X142487773Y-104312196D01*
X142463505Y-104315796D01*
X142439001Y-104317000D01*
X141538999Y-104317000D01*
X141514495Y-104315796D01*
X141490227Y-104312196D01*
X141466428Y-104306235D01*
X141443329Y-104297970D01*
X141421150Y-104287480D01*
X141400107Y-104274868D01*
X141380401Y-104260253D01*
X141362223Y-104243777D01*
X141345747Y-104225599D01*
X141331132Y-104205893D01*
X141318520Y-104184850D01*
X141308030Y-104162671D01*
X141299765Y-104139572D01*
X141293804Y-104115773D01*
X141290204Y-104091505D01*
X141289000Y-104067001D01*
X141289000Y-103416999D01*
X141290204Y-103392495D01*
X141293804Y-103368227D01*
X141299765Y-103344428D01*
X141308030Y-103321329D01*
X141318520Y-103299150D01*
X141331132Y-103278107D01*
X141345747Y-103258401D01*
X141362223Y-103240223D01*
X141380401Y-103223747D01*
X141400107Y-103209132D01*
X141421150Y-103196520D01*
X141443329Y-103186030D01*
X141466428Y-103177765D01*
X141490227Y-103171804D01*
X141514495Y-103168204D01*
X141538999Y-103167000D01*
X142439001Y-103167000D01*
X142463505Y-103168204D01*
X142463505Y-103168204D01*
G37*
D15*
X141989000Y-103742000D03*
D14*
G36*
X162423505Y-116682204D02*
G01*
X162447773Y-116685804D01*
X162471572Y-116691765D01*
X162494671Y-116700030D01*
X162516850Y-116710520D01*
X162537893Y-116723132D01*
X162557599Y-116737747D01*
X162575777Y-116754223D01*
X162592253Y-116772401D01*
X162606868Y-116792107D01*
X162619480Y-116813150D01*
X162629970Y-116835329D01*
X162638235Y-116858428D01*
X162644196Y-116882227D01*
X162647796Y-116906495D01*
X162649000Y-116930999D01*
X162649000Y-117831001D01*
X162647796Y-117855505D01*
X162644196Y-117879773D01*
X162638235Y-117903572D01*
X162629970Y-117926671D01*
X162619480Y-117948850D01*
X162606868Y-117969893D01*
X162592253Y-117989599D01*
X162575777Y-118007777D01*
X162557599Y-118024253D01*
X162537893Y-118038868D01*
X162516850Y-118051480D01*
X162494671Y-118061970D01*
X162471572Y-118070235D01*
X162447773Y-118076196D01*
X162423505Y-118079796D01*
X162399001Y-118081000D01*
X161748999Y-118081000D01*
X161724495Y-118079796D01*
X161700227Y-118076196D01*
X161676428Y-118070235D01*
X161653329Y-118061970D01*
X161631150Y-118051480D01*
X161610107Y-118038868D01*
X161590401Y-118024253D01*
X161572223Y-118007777D01*
X161555747Y-117989599D01*
X161541132Y-117969893D01*
X161528520Y-117948850D01*
X161518030Y-117926671D01*
X161509765Y-117903572D01*
X161503804Y-117879773D01*
X161500204Y-117855505D01*
X161499000Y-117831001D01*
X161499000Y-116930999D01*
X161500204Y-116906495D01*
X161503804Y-116882227D01*
X161509765Y-116858428D01*
X161518030Y-116835329D01*
X161528520Y-116813150D01*
X161541132Y-116792107D01*
X161555747Y-116772401D01*
X161572223Y-116754223D01*
X161590401Y-116737747D01*
X161610107Y-116723132D01*
X161631150Y-116710520D01*
X161653329Y-116700030D01*
X161676428Y-116691765D01*
X161700227Y-116685804D01*
X161724495Y-116682204D01*
X161748999Y-116681000D01*
X162399001Y-116681000D01*
X162423505Y-116682204D01*
X162423505Y-116682204D01*
G37*
D15*
X162074000Y-117381000D03*
D14*
G36*
X160373505Y-116682204D02*
G01*
X160397773Y-116685804D01*
X160421572Y-116691765D01*
X160444671Y-116700030D01*
X160466850Y-116710520D01*
X160487893Y-116723132D01*
X160507599Y-116737747D01*
X160525777Y-116754223D01*
X160542253Y-116772401D01*
X160556868Y-116792107D01*
X160569480Y-116813150D01*
X160579970Y-116835329D01*
X160588235Y-116858428D01*
X160594196Y-116882227D01*
X160597796Y-116906495D01*
X160599000Y-116930999D01*
X160599000Y-117831001D01*
X160597796Y-117855505D01*
X160594196Y-117879773D01*
X160588235Y-117903572D01*
X160579970Y-117926671D01*
X160569480Y-117948850D01*
X160556868Y-117969893D01*
X160542253Y-117989599D01*
X160525777Y-118007777D01*
X160507599Y-118024253D01*
X160487893Y-118038868D01*
X160466850Y-118051480D01*
X160444671Y-118061970D01*
X160421572Y-118070235D01*
X160397773Y-118076196D01*
X160373505Y-118079796D01*
X160349001Y-118081000D01*
X159698999Y-118081000D01*
X159674495Y-118079796D01*
X159650227Y-118076196D01*
X159626428Y-118070235D01*
X159603329Y-118061970D01*
X159581150Y-118051480D01*
X159560107Y-118038868D01*
X159540401Y-118024253D01*
X159522223Y-118007777D01*
X159505747Y-117989599D01*
X159491132Y-117969893D01*
X159478520Y-117948850D01*
X159468030Y-117926671D01*
X159459765Y-117903572D01*
X159453804Y-117879773D01*
X159450204Y-117855505D01*
X159449000Y-117831001D01*
X159449000Y-116930999D01*
X159450204Y-116906495D01*
X159453804Y-116882227D01*
X159459765Y-116858428D01*
X159468030Y-116835329D01*
X159478520Y-116813150D01*
X159491132Y-116792107D01*
X159505747Y-116772401D01*
X159522223Y-116754223D01*
X159540401Y-116737747D01*
X159560107Y-116723132D01*
X159581150Y-116710520D01*
X159603329Y-116700030D01*
X159626428Y-116691765D01*
X159650227Y-116685804D01*
X159674495Y-116682204D01*
X159698999Y-116681000D01*
X160349001Y-116681000D01*
X160373505Y-116682204D01*
X160373505Y-116682204D01*
G37*
D15*
X160024000Y-117381000D03*
D14*
G36*
X157296505Y-103696204D02*
G01*
X157320773Y-103699804D01*
X157344572Y-103705765D01*
X157367671Y-103714030D01*
X157389850Y-103724520D01*
X157410893Y-103737132D01*
X157430599Y-103751747D01*
X157448777Y-103768223D01*
X157465253Y-103786401D01*
X157479868Y-103806107D01*
X157492480Y-103827150D01*
X157502970Y-103849329D01*
X157511235Y-103872428D01*
X157517196Y-103896227D01*
X157520796Y-103920495D01*
X157522000Y-103944999D01*
X157522000Y-104595001D01*
X157520796Y-104619505D01*
X157517196Y-104643773D01*
X157511235Y-104667572D01*
X157502970Y-104690671D01*
X157492480Y-104712850D01*
X157479868Y-104733893D01*
X157465253Y-104753599D01*
X157448777Y-104771777D01*
X157430599Y-104788253D01*
X157410893Y-104802868D01*
X157389850Y-104815480D01*
X157367671Y-104825970D01*
X157344572Y-104834235D01*
X157320773Y-104840196D01*
X157296505Y-104843796D01*
X157272001Y-104845000D01*
X156371999Y-104845000D01*
X156347495Y-104843796D01*
X156323227Y-104840196D01*
X156299428Y-104834235D01*
X156276329Y-104825970D01*
X156254150Y-104815480D01*
X156233107Y-104802868D01*
X156213401Y-104788253D01*
X156195223Y-104771777D01*
X156178747Y-104753599D01*
X156164132Y-104733893D01*
X156151520Y-104712850D01*
X156141030Y-104690671D01*
X156132765Y-104667572D01*
X156126804Y-104643773D01*
X156123204Y-104619505D01*
X156122000Y-104595001D01*
X156122000Y-103944999D01*
X156123204Y-103920495D01*
X156126804Y-103896227D01*
X156132765Y-103872428D01*
X156141030Y-103849329D01*
X156151520Y-103827150D01*
X156164132Y-103806107D01*
X156178747Y-103786401D01*
X156195223Y-103768223D01*
X156213401Y-103751747D01*
X156233107Y-103737132D01*
X156254150Y-103724520D01*
X156276329Y-103714030D01*
X156299428Y-103705765D01*
X156323227Y-103699804D01*
X156347495Y-103696204D01*
X156371999Y-103695000D01*
X157272001Y-103695000D01*
X157296505Y-103696204D01*
X157296505Y-103696204D01*
G37*
D15*
X156822000Y-104270000D03*
D14*
G36*
X157296505Y-101646204D02*
G01*
X157320773Y-101649804D01*
X157344572Y-101655765D01*
X157367671Y-101664030D01*
X157389850Y-101674520D01*
X157410893Y-101687132D01*
X157430599Y-101701747D01*
X157448777Y-101718223D01*
X157465253Y-101736401D01*
X157479868Y-101756107D01*
X157492480Y-101777150D01*
X157502970Y-101799329D01*
X157511235Y-101822428D01*
X157517196Y-101846227D01*
X157520796Y-101870495D01*
X157522000Y-101894999D01*
X157522000Y-102545001D01*
X157520796Y-102569505D01*
X157517196Y-102593773D01*
X157511235Y-102617572D01*
X157502970Y-102640671D01*
X157492480Y-102662850D01*
X157479868Y-102683893D01*
X157465253Y-102703599D01*
X157448777Y-102721777D01*
X157430599Y-102738253D01*
X157410893Y-102752868D01*
X157389850Y-102765480D01*
X157367671Y-102775970D01*
X157344572Y-102784235D01*
X157320773Y-102790196D01*
X157296505Y-102793796D01*
X157272001Y-102795000D01*
X156371999Y-102795000D01*
X156347495Y-102793796D01*
X156323227Y-102790196D01*
X156299428Y-102784235D01*
X156276329Y-102775970D01*
X156254150Y-102765480D01*
X156233107Y-102752868D01*
X156213401Y-102738253D01*
X156195223Y-102721777D01*
X156178747Y-102703599D01*
X156164132Y-102683893D01*
X156151520Y-102662850D01*
X156141030Y-102640671D01*
X156132765Y-102617572D01*
X156126804Y-102593773D01*
X156123204Y-102569505D01*
X156122000Y-102545001D01*
X156122000Y-101894999D01*
X156123204Y-101870495D01*
X156126804Y-101846227D01*
X156132765Y-101822428D01*
X156141030Y-101799329D01*
X156151520Y-101777150D01*
X156164132Y-101756107D01*
X156178747Y-101736401D01*
X156195223Y-101718223D01*
X156213401Y-101701747D01*
X156233107Y-101687132D01*
X156254150Y-101674520D01*
X156276329Y-101664030D01*
X156299428Y-101655765D01*
X156323227Y-101649804D01*
X156347495Y-101646204D01*
X156371999Y-101645000D01*
X157272001Y-101645000D01*
X157296505Y-101646204D01*
X157296505Y-101646204D01*
G37*
D15*
X156822000Y-102220000D03*
D14*
G36*
X172044505Y-115633204D02*
G01*
X172068773Y-115636804D01*
X172092572Y-115642765D01*
X172115671Y-115651030D01*
X172137850Y-115661520D01*
X172158893Y-115674132D01*
X172178599Y-115688747D01*
X172196777Y-115705223D01*
X172213253Y-115723401D01*
X172227868Y-115743107D01*
X172240480Y-115764150D01*
X172250970Y-115786329D01*
X172259235Y-115809428D01*
X172265196Y-115833227D01*
X172268796Y-115857495D01*
X172270000Y-115881999D01*
X172270000Y-116782001D01*
X172268796Y-116806505D01*
X172265196Y-116830773D01*
X172259235Y-116854572D01*
X172250970Y-116877671D01*
X172240480Y-116899850D01*
X172227868Y-116920893D01*
X172213253Y-116940599D01*
X172196777Y-116958777D01*
X172178599Y-116975253D01*
X172158893Y-116989868D01*
X172137850Y-117002480D01*
X172115671Y-117012970D01*
X172092572Y-117021235D01*
X172068773Y-117027196D01*
X172044505Y-117030796D01*
X172020001Y-117032000D01*
X171369999Y-117032000D01*
X171345495Y-117030796D01*
X171321227Y-117027196D01*
X171297428Y-117021235D01*
X171274329Y-117012970D01*
X171252150Y-117002480D01*
X171231107Y-116989868D01*
X171211401Y-116975253D01*
X171193223Y-116958777D01*
X171176747Y-116940599D01*
X171162132Y-116920893D01*
X171149520Y-116899850D01*
X171139030Y-116877671D01*
X171130765Y-116854572D01*
X171124804Y-116830773D01*
X171121204Y-116806505D01*
X171120000Y-116782001D01*
X171120000Y-115881999D01*
X171121204Y-115857495D01*
X171124804Y-115833227D01*
X171130765Y-115809428D01*
X171139030Y-115786329D01*
X171149520Y-115764150D01*
X171162132Y-115743107D01*
X171176747Y-115723401D01*
X171193223Y-115705223D01*
X171211401Y-115688747D01*
X171231107Y-115674132D01*
X171252150Y-115661520D01*
X171274329Y-115651030D01*
X171297428Y-115642765D01*
X171321227Y-115636804D01*
X171345495Y-115633204D01*
X171369999Y-115632000D01*
X172020001Y-115632000D01*
X172044505Y-115633204D01*
X172044505Y-115633204D01*
G37*
D15*
X171695000Y-116332000D03*
D14*
G36*
X174094505Y-115633204D02*
G01*
X174118773Y-115636804D01*
X174142572Y-115642765D01*
X174165671Y-115651030D01*
X174187850Y-115661520D01*
X174208893Y-115674132D01*
X174228599Y-115688747D01*
X174246777Y-115705223D01*
X174263253Y-115723401D01*
X174277868Y-115743107D01*
X174290480Y-115764150D01*
X174300970Y-115786329D01*
X174309235Y-115809428D01*
X174315196Y-115833227D01*
X174318796Y-115857495D01*
X174320000Y-115881999D01*
X174320000Y-116782001D01*
X174318796Y-116806505D01*
X174315196Y-116830773D01*
X174309235Y-116854572D01*
X174300970Y-116877671D01*
X174290480Y-116899850D01*
X174277868Y-116920893D01*
X174263253Y-116940599D01*
X174246777Y-116958777D01*
X174228599Y-116975253D01*
X174208893Y-116989868D01*
X174187850Y-117002480D01*
X174165671Y-117012970D01*
X174142572Y-117021235D01*
X174118773Y-117027196D01*
X174094505Y-117030796D01*
X174070001Y-117032000D01*
X173419999Y-117032000D01*
X173395495Y-117030796D01*
X173371227Y-117027196D01*
X173347428Y-117021235D01*
X173324329Y-117012970D01*
X173302150Y-117002480D01*
X173281107Y-116989868D01*
X173261401Y-116975253D01*
X173243223Y-116958777D01*
X173226747Y-116940599D01*
X173212132Y-116920893D01*
X173199520Y-116899850D01*
X173189030Y-116877671D01*
X173180765Y-116854572D01*
X173174804Y-116830773D01*
X173171204Y-116806505D01*
X173170000Y-116782001D01*
X173170000Y-115881999D01*
X173171204Y-115857495D01*
X173174804Y-115833227D01*
X173180765Y-115809428D01*
X173189030Y-115786329D01*
X173199520Y-115764150D01*
X173212132Y-115743107D01*
X173226747Y-115723401D01*
X173243223Y-115705223D01*
X173261401Y-115688747D01*
X173281107Y-115674132D01*
X173302150Y-115661520D01*
X173324329Y-115651030D01*
X173347428Y-115642765D01*
X173371227Y-115636804D01*
X173395495Y-115633204D01*
X173419999Y-115632000D01*
X174070001Y-115632000D01*
X174094505Y-115633204D01*
X174094505Y-115633204D01*
G37*
D15*
X173745000Y-116332000D03*
D14*
G36*
X172594505Y-105290204D02*
G01*
X172618773Y-105293804D01*
X172642572Y-105299765D01*
X172665671Y-105308030D01*
X172687850Y-105318520D01*
X172708893Y-105331132D01*
X172728599Y-105345747D01*
X172746777Y-105362223D01*
X172763253Y-105380401D01*
X172777868Y-105400107D01*
X172790480Y-105421150D01*
X172800970Y-105443329D01*
X172809235Y-105466428D01*
X172815196Y-105490227D01*
X172818796Y-105514495D01*
X172820000Y-105538999D01*
X172820000Y-106189001D01*
X172818796Y-106213505D01*
X172815196Y-106237773D01*
X172809235Y-106261572D01*
X172800970Y-106284671D01*
X172790480Y-106306850D01*
X172777868Y-106327893D01*
X172763253Y-106347599D01*
X172746777Y-106365777D01*
X172728599Y-106382253D01*
X172708893Y-106396868D01*
X172687850Y-106409480D01*
X172665671Y-106419970D01*
X172642572Y-106428235D01*
X172618773Y-106434196D01*
X172594505Y-106437796D01*
X172570001Y-106439000D01*
X171669999Y-106439000D01*
X171645495Y-106437796D01*
X171621227Y-106434196D01*
X171597428Y-106428235D01*
X171574329Y-106419970D01*
X171552150Y-106409480D01*
X171531107Y-106396868D01*
X171511401Y-106382253D01*
X171493223Y-106365777D01*
X171476747Y-106347599D01*
X171462132Y-106327893D01*
X171449520Y-106306850D01*
X171439030Y-106284671D01*
X171430765Y-106261572D01*
X171424804Y-106237773D01*
X171421204Y-106213505D01*
X171420000Y-106189001D01*
X171420000Y-105538999D01*
X171421204Y-105514495D01*
X171424804Y-105490227D01*
X171430765Y-105466428D01*
X171439030Y-105443329D01*
X171449520Y-105421150D01*
X171462132Y-105400107D01*
X171476747Y-105380401D01*
X171493223Y-105362223D01*
X171511401Y-105345747D01*
X171531107Y-105331132D01*
X171552150Y-105318520D01*
X171574329Y-105308030D01*
X171597428Y-105299765D01*
X171621227Y-105293804D01*
X171645495Y-105290204D01*
X171669999Y-105289000D01*
X172570001Y-105289000D01*
X172594505Y-105290204D01*
X172594505Y-105290204D01*
G37*
D15*
X172120000Y-105864000D03*
D14*
G36*
X172594505Y-103240204D02*
G01*
X172618773Y-103243804D01*
X172642572Y-103249765D01*
X172665671Y-103258030D01*
X172687850Y-103268520D01*
X172708893Y-103281132D01*
X172728599Y-103295747D01*
X172746777Y-103312223D01*
X172763253Y-103330401D01*
X172777868Y-103350107D01*
X172790480Y-103371150D01*
X172800970Y-103393329D01*
X172809235Y-103416428D01*
X172815196Y-103440227D01*
X172818796Y-103464495D01*
X172820000Y-103488999D01*
X172820000Y-104139001D01*
X172818796Y-104163505D01*
X172815196Y-104187773D01*
X172809235Y-104211572D01*
X172800970Y-104234671D01*
X172790480Y-104256850D01*
X172777868Y-104277893D01*
X172763253Y-104297599D01*
X172746777Y-104315777D01*
X172728599Y-104332253D01*
X172708893Y-104346868D01*
X172687850Y-104359480D01*
X172665671Y-104369970D01*
X172642572Y-104378235D01*
X172618773Y-104384196D01*
X172594505Y-104387796D01*
X172570001Y-104389000D01*
X171669999Y-104389000D01*
X171645495Y-104387796D01*
X171621227Y-104384196D01*
X171597428Y-104378235D01*
X171574329Y-104369970D01*
X171552150Y-104359480D01*
X171531107Y-104346868D01*
X171511401Y-104332253D01*
X171493223Y-104315777D01*
X171476747Y-104297599D01*
X171462132Y-104277893D01*
X171449520Y-104256850D01*
X171439030Y-104234671D01*
X171430765Y-104211572D01*
X171424804Y-104187773D01*
X171421204Y-104163505D01*
X171420000Y-104139001D01*
X171420000Y-103488999D01*
X171421204Y-103464495D01*
X171424804Y-103440227D01*
X171430765Y-103416428D01*
X171439030Y-103393329D01*
X171449520Y-103371150D01*
X171462132Y-103350107D01*
X171476747Y-103330401D01*
X171493223Y-103312223D01*
X171511401Y-103295747D01*
X171531107Y-103281132D01*
X171552150Y-103268520D01*
X171574329Y-103258030D01*
X171597428Y-103249765D01*
X171621227Y-103243804D01*
X171645495Y-103240204D01*
X171669999Y-103239000D01*
X172570001Y-103239000D01*
X172594505Y-103240204D01*
X172594505Y-103240204D01*
G37*
D15*
X172120000Y-103814000D03*
D14*
G36*
X120956505Y-113810204D02*
G01*
X120980773Y-113813804D01*
X121004572Y-113819765D01*
X121027671Y-113828030D01*
X121049850Y-113838520D01*
X121070893Y-113851132D01*
X121090599Y-113865747D01*
X121108777Y-113882223D01*
X121125253Y-113900401D01*
X121139868Y-113920107D01*
X121152480Y-113941150D01*
X121162970Y-113963329D01*
X121171235Y-113986428D01*
X121177196Y-114010227D01*
X121180796Y-114034495D01*
X121182000Y-114058999D01*
X121182000Y-114959001D01*
X121180796Y-114983505D01*
X121177196Y-115007773D01*
X121171235Y-115031572D01*
X121162970Y-115054671D01*
X121152480Y-115076850D01*
X121139868Y-115097893D01*
X121125253Y-115117599D01*
X121108777Y-115135777D01*
X121090599Y-115152253D01*
X121070893Y-115166868D01*
X121049850Y-115179480D01*
X121027671Y-115189970D01*
X121004572Y-115198235D01*
X120980773Y-115204196D01*
X120956505Y-115207796D01*
X120932001Y-115209000D01*
X120281999Y-115209000D01*
X120257495Y-115207796D01*
X120233227Y-115204196D01*
X120209428Y-115198235D01*
X120186329Y-115189970D01*
X120164150Y-115179480D01*
X120143107Y-115166868D01*
X120123401Y-115152253D01*
X120105223Y-115135777D01*
X120088747Y-115117599D01*
X120074132Y-115097893D01*
X120061520Y-115076850D01*
X120051030Y-115054671D01*
X120042765Y-115031572D01*
X120036804Y-115007773D01*
X120033204Y-114983505D01*
X120032000Y-114959001D01*
X120032000Y-114058999D01*
X120033204Y-114034495D01*
X120036804Y-114010227D01*
X120042765Y-113986428D01*
X120051030Y-113963329D01*
X120061520Y-113941150D01*
X120074132Y-113920107D01*
X120088747Y-113900401D01*
X120105223Y-113882223D01*
X120123401Y-113865747D01*
X120143107Y-113851132D01*
X120164150Y-113838520D01*
X120186329Y-113828030D01*
X120209428Y-113819765D01*
X120233227Y-113813804D01*
X120257495Y-113810204D01*
X120281999Y-113809000D01*
X120932001Y-113809000D01*
X120956505Y-113810204D01*
X120956505Y-113810204D01*
G37*
D15*
X120607000Y-114509000D03*
D14*
G36*
X118906505Y-113810204D02*
G01*
X118930773Y-113813804D01*
X118954572Y-113819765D01*
X118977671Y-113828030D01*
X118999850Y-113838520D01*
X119020893Y-113851132D01*
X119040599Y-113865747D01*
X119058777Y-113882223D01*
X119075253Y-113900401D01*
X119089868Y-113920107D01*
X119102480Y-113941150D01*
X119112970Y-113963329D01*
X119121235Y-113986428D01*
X119127196Y-114010227D01*
X119130796Y-114034495D01*
X119132000Y-114058999D01*
X119132000Y-114959001D01*
X119130796Y-114983505D01*
X119127196Y-115007773D01*
X119121235Y-115031572D01*
X119112970Y-115054671D01*
X119102480Y-115076850D01*
X119089868Y-115097893D01*
X119075253Y-115117599D01*
X119058777Y-115135777D01*
X119040599Y-115152253D01*
X119020893Y-115166868D01*
X118999850Y-115179480D01*
X118977671Y-115189970D01*
X118954572Y-115198235D01*
X118930773Y-115204196D01*
X118906505Y-115207796D01*
X118882001Y-115209000D01*
X118231999Y-115209000D01*
X118207495Y-115207796D01*
X118183227Y-115204196D01*
X118159428Y-115198235D01*
X118136329Y-115189970D01*
X118114150Y-115179480D01*
X118093107Y-115166868D01*
X118073401Y-115152253D01*
X118055223Y-115135777D01*
X118038747Y-115117599D01*
X118024132Y-115097893D01*
X118011520Y-115076850D01*
X118001030Y-115054671D01*
X117992765Y-115031572D01*
X117986804Y-115007773D01*
X117983204Y-114983505D01*
X117982000Y-114959001D01*
X117982000Y-114058999D01*
X117983204Y-114034495D01*
X117986804Y-114010227D01*
X117992765Y-113986428D01*
X118001030Y-113963329D01*
X118011520Y-113941150D01*
X118024132Y-113920107D01*
X118038747Y-113900401D01*
X118055223Y-113882223D01*
X118073401Y-113865747D01*
X118093107Y-113851132D01*
X118114150Y-113838520D01*
X118136329Y-113828030D01*
X118159428Y-113819765D01*
X118183227Y-113813804D01*
X118207495Y-113810204D01*
X118231999Y-113809000D01*
X118882001Y-113809000D01*
X118906505Y-113810204D01*
X118906505Y-113810204D01*
G37*
D15*
X118557000Y-114509000D03*
D14*
G36*
X122824505Y-102176204D02*
G01*
X122848773Y-102179804D01*
X122872572Y-102185765D01*
X122895671Y-102194030D01*
X122917850Y-102204520D01*
X122938893Y-102217132D01*
X122958599Y-102231747D01*
X122976777Y-102248223D01*
X122993253Y-102266401D01*
X123007868Y-102286107D01*
X123020480Y-102307150D01*
X123030970Y-102329329D01*
X123039235Y-102352428D01*
X123045196Y-102376227D01*
X123048796Y-102400495D01*
X123050000Y-102424999D01*
X123050000Y-103325001D01*
X123048796Y-103349505D01*
X123045196Y-103373773D01*
X123039235Y-103397572D01*
X123030970Y-103420671D01*
X123020480Y-103442850D01*
X123007868Y-103463893D01*
X122993253Y-103483599D01*
X122976777Y-103501777D01*
X122958599Y-103518253D01*
X122938893Y-103532868D01*
X122917850Y-103545480D01*
X122895671Y-103555970D01*
X122872572Y-103564235D01*
X122848773Y-103570196D01*
X122824505Y-103573796D01*
X122800001Y-103575000D01*
X122149999Y-103575000D01*
X122125495Y-103573796D01*
X122101227Y-103570196D01*
X122077428Y-103564235D01*
X122054329Y-103555970D01*
X122032150Y-103545480D01*
X122011107Y-103532868D01*
X121991401Y-103518253D01*
X121973223Y-103501777D01*
X121956747Y-103483599D01*
X121942132Y-103463893D01*
X121929520Y-103442850D01*
X121919030Y-103420671D01*
X121910765Y-103397572D01*
X121904804Y-103373773D01*
X121901204Y-103349505D01*
X121900000Y-103325001D01*
X121900000Y-102424999D01*
X121901204Y-102400495D01*
X121904804Y-102376227D01*
X121910765Y-102352428D01*
X121919030Y-102329329D01*
X121929520Y-102307150D01*
X121942132Y-102286107D01*
X121956747Y-102266401D01*
X121973223Y-102248223D01*
X121991401Y-102231747D01*
X122011107Y-102217132D01*
X122032150Y-102204520D01*
X122054329Y-102194030D01*
X122077428Y-102185765D01*
X122101227Y-102179804D01*
X122125495Y-102176204D01*
X122149999Y-102175000D01*
X122800001Y-102175000D01*
X122824505Y-102176204D01*
X122824505Y-102176204D01*
G37*
D15*
X122475000Y-102875000D03*
D14*
G36*
X124874505Y-102176204D02*
G01*
X124898773Y-102179804D01*
X124922572Y-102185765D01*
X124945671Y-102194030D01*
X124967850Y-102204520D01*
X124988893Y-102217132D01*
X125008599Y-102231747D01*
X125026777Y-102248223D01*
X125043253Y-102266401D01*
X125057868Y-102286107D01*
X125070480Y-102307150D01*
X125080970Y-102329329D01*
X125089235Y-102352428D01*
X125095196Y-102376227D01*
X125098796Y-102400495D01*
X125100000Y-102424999D01*
X125100000Y-103325001D01*
X125098796Y-103349505D01*
X125095196Y-103373773D01*
X125089235Y-103397572D01*
X125080970Y-103420671D01*
X125070480Y-103442850D01*
X125057868Y-103463893D01*
X125043253Y-103483599D01*
X125026777Y-103501777D01*
X125008599Y-103518253D01*
X124988893Y-103532868D01*
X124967850Y-103545480D01*
X124945671Y-103555970D01*
X124922572Y-103564235D01*
X124898773Y-103570196D01*
X124874505Y-103573796D01*
X124850001Y-103575000D01*
X124199999Y-103575000D01*
X124175495Y-103573796D01*
X124151227Y-103570196D01*
X124127428Y-103564235D01*
X124104329Y-103555970D01*
X124082150Y-103545480D01*
X124061107Y-103532868D01*
X124041401Y-103518253D01*
X124023223Y-103501777D01*
X124006747Y-103483599D01*
X123992132Y-103463893D01*
X123979520Y-103442850D01*
X123969030Y-103420671D01*
X123960765Y-103397572D01*
X123954804Y-103373773D01*
X123951204Y-103349505D01*
X123950000Y-103325001D01*
X123950000Y-102424999D01*
X123951204Y-102400495D01*
X123954804Y-102376227D01*
X123960765Y-102352428D01*
X123969030Y-102329329D01*
X123979520Y-102307150D01*
X123992132Y-102286107D01*
X124006747Y-102266401D01*
X124023223Y-102248223D01*
X124041401Y-102231747D01*
X124061107Y-102217132D01*
X124082150Y-102204520D01*
X124104329Y-102194030D01*
X124127428Y-102185765D01*
X124151227Y-102179804D01*
X124175495Y-102176204D01*
X124199999Y-102175000D01*
X124850001Y-102175000D01*
X124874505Y-102176204D01*
X124874505Y-102176204D01*
G37*
D15*
X124525000Y-102875000D03*
D14*
G36*
X119699505Y-92526204D02*
G01*
X119723773Y-92529804D01*
X119747572Y-92535765D01*
X119770671Y-92544030D01*
X119792850Y-92554520D01*
X119813893Y-92567132D01*
X119833599Y-92581747D01*
X119851777Y-92598223D01*
X119868253Y-92616401D01*
X119882868Y-92636107D01*
X119895480Y-92657150D01*
X119905970Y-92679329D01*
X119914235Y-92702428D01*
X119920196Y-92726227D01*
X119923796Y-92750495D01*
X119925000Y-92774999D01*
X119925000Y-93675001D01*
X119923796Y-93699505D01*
X119920196Y-93723773D01*
X119914235Y-93747572D01*
X119905970Y-93770671D01*
X119895480Y-93792850D01*
X119882868Y-93813893D01*
X119868253Y-93833599D01*
X119851777Y-93851777D01*
X119833599Y-93868253D01*
X119813893Y-93882868D01*
X119792850Y-93895480D01*
X119770671Y-93905970D01*
X119747572Y-93914235D01*
X119723773Y-93920196D01*
X119699505Y-93923796D01*
X119675001Y-93925000D01*
X119024999Y-93925000D01*
X119000495Y-93923796D01*
X118976227Y-93920196D01*
X118952428Y-93914235D01*
X118929329Y-93905970D01*
X118907150Y-93895480D01*
X118886107Y-93882868D01*
X118866401Y-93868253D01*
X118848223Y-93851777D01*
X118831747Y-93833599D01*
X118817132Y-93813893D01*
X118804520Y-93792850D01*
X118794030Y-93770671D01*
X118785765Y-93747572D01*
X118779804Y-93723773D01*
X118776204Y-93699505D01*
X118775000Y-93675001D01*
X118775000Y-92774999D01*
X118776204Y-92750495D01*
X118779804Y-92726227D01*
X118785765Y-92702428D01*
X118794030Y-92679329D01*
X118804520Y-92657150D01*
X118817132Y-92636107D01*
X118831747Y-92616401D01*
X118848223Y-92598223D01*
X118866401Y-92581747D01*
X118886107Y-92567132D01*
X118907150Y-92554520D01*
X118929329Y-92544030D01*
X118952428Y-92535765D01*
X118976227Y-92529804D01*
X119000495Y-92526204D01*
X119024999Y-92525000D01*
X119675001Y-92525000D01*
X119699505Y-92526204D01*
X119699505Y-92526204D01*
G37*
D15*
X119350000Y-93225000D03*
D14*
G36*
X121749505Y-92526204D02*
G01*
X121773773Y-92529804D01*
X121797572Y-92535765D01*
X121820671Y-92544030D01*
X121842850Y-92554520D01*
X121863893Y-92567132D01*
X121883599Y-92581747D01*
X121901777Y-92598223D01*
X121918253Y-92616401D01*
X121932868Y-92636107D01*
X121945480Y-92657150D01*
X121955970Y-92679329D01*
X121964235Y-92702428D01*
X121970196Y-92726227D01*
X121973796Y-92750495D01*
X121975000Y-92774999D01*
X121975000Y-93675001D01*
X121973796Y-93699505D01*
X121970196Y-93723773D01*
X121964235Y-93747572D01*
X121955970Y-93770671D01*
X121945480Y-93792850D01*
X121932868Y-93813893D01*
X121918253Y-93833599D01*
X121901777Y-93851777D01*
X121883599Y-93868253D01*
X121863893Y-93882868D01*
X121842850Y-93895480D01*
X121820671Y-93905970D01*
X121797572Y-93914235D01*
X121773773Y-93920196D01*
X121749505Y-93923796D01*
X121725001Y-93925000D01*
X121074999Y-93925000D01*
X121050495Y-93923796D01*
X121026227Y-93920196D01*
X121002428Y-93914235D01*
X120979329Y-93905970D01*
X120957150Y-93895480D01*
X120936107Y-93882868D01*
X120916401Y-93868253D01*
X120898223Y-93851777D01*
X120881747Y-93833599D01*
X120867132Y-93813893D01*
X120854520Y-93792850D01*
X120844030Y-93770671D01*
X120835765Y-93747572D01*
X120829804Y-93723773D01*
X120826204Y-93699505D01*
X120825000Y-93675001D01*
X120825000Y-92774999D01*
X120826204Y-92750495D01*
X120829804Y-92726227D01*
X120835765Y-92702428D01*
X120844030Y-92679329D01*
X120854520Y-92657150D01*
X120867132Y-92636107D01*
X120881747Y-92616401D01*
X120898223Y-92598223D01*
X120916401Y-92581747D01*
X120936107Y-92567132D01*
X120957150Y-92554520D01*
X120979329Y-92544030D01*
X121002428Y-92535765D01*
X121026227Y-92529804D01*
X121050495Y-92526204D01*
X121074999Y-92525000D01*
X121725001Y-92525000D01*
X121749505Y-92526204D01*
X121749505Y-92526204D01*
G37*
D15*
X121400000Y-93225000D03*
D14*
G36*
X109621505Y-115744204D02*
G01*
X109645773Y-115747804D01*
X109669572Y-115753765D01*
X109692671Y-115762030D01*
X109714850Y-115772520D01*
X109735893Y-115785132D01*
X109755599Y-115799747D01*
X109773777Y-115816223D01*
X109790253Y-115834401D01*
X109804868Y-115854107D01*
X109817480Y-115875150D01*
X109827970Y-115897329D01*
X109836235Y-115920428D01*
X109842196Y-115944227D01*
X109845796Y-115968495D01*
X109847000Y-115992999D01*
X109847000Y-116643001D01*
X109845796Y-116667505D01*
X109842196Y-116691773D01*
X109836235Y-116715572D01*
X109827970Y-116738671D01*
X109817480Y-116760850D01*
X109804868Y-116781893D01*
X109790253Y-116801599D01*
X109773777Y-116819777D01*
X109755599Y-116836253D01*
X109735893Y-116850868D01*
X109714850Y-116863480D01*
X109692671Y-116873970D01*
X109669572Y-116882235D01*
X109645773Y-116888196D01*
X109621505Y-116891796D01*
X109597001Y-116893000D01*
X108696999Y-116893000D01*
X108672495Y-116891796D01*
X108648227Y-116888196D01*
X108624428Y-116882235D01*
X108601329Y-116873970D01*
X108579150Y-116863480D01*
X108558107Y-116850868D01*
X108538401Y-116836253D01*
X108520223Y-116819777D01*
X108503747Y-116801599D01*
X108489132Y-116781893D01*
X108476520Y-116760850D01*
X108466030Y-116738671D01*
X108457765Y-116715572D01*
X108451804Y-116691773D01*
X108448204Y-116667505D01*
X108447000Y-116643001D01*
X108447000Y-115992999D01*
X108448204Y-115968495D01*
X108451804Y-115944227D01*
X108457765Y-115920428D01*
X108466030Y-115897329D01*
X108476520Y-115875150D01*
X108489132Y-115854107D01*
X108503747Y-115834401D01*
X108520223Y-115816223D01*
X108538401Y-115799747D01*
X108558107Y-115785132D01*
X108579150Y-115772520D01*
X108601329Y-115762030D01*
X108624428Y-115753765D01*
X108648227Y-115747804D01*
X108672495Y-115744204D01*
X108696999Y-115743000D01*
X109597001Y-115743000D01*
X109621505Y-115744204D01*
X109621505Y-115744204D01*
G37*
D15*
X109147000Y-116318000D03*
D14*
G36*
X109621505Y-113694204D02*
G01*
X109645773Y-113697804D01*
X109669572Y-113703765D01*
X109692671Y-113712030D01*
X109714850Y-113722520D01*
X109735893Y-113735132D01*
X109755599Y-113749747D01*
X109773777Y-113766223D01*
X109790253Y-113784401D01*
X109804868Y-113804107D01*
X109817480Y-113825150D01*
X109827970Y-113847329D01*
X109836235Y-113870428D01*
X109842196Y-113894227D01*
X109845796Y-113918495D01*
X109847000Y-113942999D01*
X109847000Y-114593001D01*
X109845796Y-114617505D01*
X109842196Y-114641773D01*
X109836235Y-114665572D01*
X109827970Y-114688671D01*
X109817480Y-114710850D01*
X109804868Y-114731893D01*
X109790253Y-114751599D01*
X109773777Y-114769777D01*
X109755599Y-114786253D01*
X109735893Y-114800868D01*
X109714850Y-114813480D01*
X109692671Y-114823970D01*
X109669572Y-114832235D01*
X109645773Y-114838196D01*
X109621505Y-114841796D01*
X109597001Y-114843000D01*
X108696999Y-114843000D01*
X108672495Y-114841796D01*
X108648227Y-114838196D01*
X108624428Y-114832235D01*
X108601329Y-114823970D01*
X108579150Y-114813480D01*
X108558107Y-114800868D01*
X108538401Y-114786253D01*
X108520223Y-114769777D01*
X108503747Y-114751599D01*
X108489132Y-114731893D01*
X108476520Y-114710850D01*
X108466030Y-114688671D01*
X108457765Y-114665572D01*
X108451804Y-114641773D01*
X108448204Y-114617505D01*
X108447000Y-114593001D01*
X108447000Y-113942999D01*
X108448204Y-113918495D01*
X108451804Y-113894227D01*
X108457765Y-113870428D01*
X108466030Y-113847329D01*
X108476520Y-113825150D01*
X108489132Y-113804107D01*
X108503747Y-113784401D01*
X108520223Y-113766223D01*
X108538401Y-113749747D01*
X108558107Y-113735132D01*
X108579150Y-113722520D01*
X108601329Y-113712030D01*
X108624428Y-113703765D01*
X108648227Y-113697804D01*
X108672495Y-113694204D01*
X108696999Y-113693000D01*
X109597001Y-113693000D01*
X109621505Y-113694204D01*
X109621505Y-113694204D01*
G37*
D15*
X109147000Y-114268000D03*
D14*
G36*
X113263505Y-101177204D02*
G01*
X113287773Y-101180804D01*
X113311572Y-101186765D01*
X113334671Y-101195030D01*
X113356850Y-101205520D01*
X113377893Y-101218132D01*
X113397599Y-101232747D01*
X113415777Y-101249223D01*
X113432253Y-101267401D01*
X113446868Y-101287107D01*
X113459480Y-101308150D01*
X113469970Y-101330329D01*
X113478235Y-101353428D01*
X113484196Y-101377227D01*
X113487796Y-101401495D01*
X113489000Y-101425999D01*
X113489000Y-102076001D01*
X113487796Y-102100505D01*
X113484196Y-102124773D01*
X113478235Y-102148572D01*
X113469970Y-102171671D01*
X113459480Y-102193850D01*
X113446868Y-102214893D01*
X113432253Y-102234599D01*
X113415777Y-102252777D01*
X113397599Y-102269253D01*
X113377893Y-102283868D01*
X113356850Y-102296480D01*
X113334671Y-102306970D01*
X113311572Y-102315235D01*
X113287773Y-102321196D01*
X113263505Y-102324796D01*
X113239001Y-102326000D01*
X112338999Y-102326000D01*
X112314495Y-102324796D01*
X112290227Y-102321196D01*
X112266428Y-102315235D01*
X112243329Y-102306970D01*
X112221150Y-102296480D01*
X112200107Y-102283868D01*
X112180401Y-102269253D01*
X112162223Y-102252777D01*
X112145747Y-102234599D01*
X112131132Y-102214893D01*
X112118520Y-102193850D01*
X112108030Y-102171671D01*
X112099765Y-102148572D01*
X112093804Y-102124773D01*
X112090204Y-102100505D01*
X112089000Y-102076001D01*
X112089000Y-101425999D01*
X112090204Y-101401495D01*
X112093804Y-101377227D01*
X112099765Y-101353428D01*
X112108030Y-101330329D01*
X112118520Y-101308150D01*
X112131132Y-101287107D01*
X112145747Y-101267401D01*
X112162223Y-101249223D01*
X112180401Y-101232747D01*
X112200107Y-101218132D01*
X112221150Y-101205520D01*
X112243329Y-101195030D01*
X112266428Y-101186765D01*
X112290227Y-101180804D01*
X112314495Y-101177204D01*
X112338999Y-101176000D01*
X113239001Y-101176000D01*
X113263505Y-101177204D01*
X113263505Y-101177204D01*
G37*
D15*
X112789000Y-101751000D03*
D14*
G36*
X113263505Y-103227204D02*
G01*
X113287773Y-103230804D01*
X113311572Y-103236765D01*
X113334671Y-103245030D01*
X113356850Y-103255520D01*
X113377893Y-103268132D01*
X113397599Y-103282747D01*
X113415777Y-103299223D01*
X113432253Y-103317401D01*
X113446868Y-103337107D01*
X113459480Y-103358150D01*
X113469970Y-103380329D01*
X113478235Y-103403428D01*
X113484196Y-103427227D01*
X113487796Y-103451495D01*
X113489000Y-103475999D01*
X113489000Y-104126001D01*
X113487796Y-104150505D01*
X113484196Y-104174773D01*
X113478235Y-104198572D01*
X113469970Y-104221671D01*
X113459480Y-104243850D01*
X113446868Y-104264893D01*
X113432253Y-104284599D01*
X113415777Y-104302777D01*
X113397599Y-104319253D01*
X113377893Y-104333868D01*
X113356850Y-104346480D01*
X113334671Y-104356970D01*
X113311572Y-104365235D01*
X113287773Y-104371196D01*
X113263505Y-104374796D01*
X113239001Y-104376000D01*
X112338999Y-104376000D01*
X112314495Y-104374796D01*
X112290227Y-104371196D01*
X112266428Y-104365235D01*
X112243329Y-104356970D01*
X112221150Y-104346480D01*
X112200107Y-104333868D01*
X112180401Y-104319253D01*
X112162223Y-104302777D01*
X112145747Y-104284599D01*
X112131132Y-104264893D01*
X112118520Y-104243850D01*
X112108030Y-104221671D01*
X112099765Y-104198572D01*
X112093804Y-104174773D01*
X112090204Y-104150505D01*
X112089000Y-104126001D01*
X112089000Y-103475999D01*
X112090204Y-103451495D01*
X112093804Y-103427227D01*
X112099765Y-103403428D01*
X112108030Y-103380329D01*
X112118520Y-103358150D01*
X112131132Y-103337107D01*
X112145747Y-103317401D01*
X112162223Y-103299223D01*
X112180401Y-103282747D01*
X112200107Y-103268132D01*
X112221150Y-103255520D01*
X112243329Y-103245030D01*
X112266428Y-103236765D01*
X112290227Y-103230804D01*
X112314495Y-103227204D01*
X112338999Y-103226000D01*
X113239001Y-103226000D01*
X113263505Y-103227204D01*
X113263505Y-103227204D01*
G37*
D15*
X112789000Y-103801000D03*
D14*
G36*
X114653505Y-92552304D02*
G01*
X114677773Y-92555904D01*
X114701572Y-92561865D01*
X114724671Y-92570130D01*
X114746850Y-92580620D01*
X114767893Y-92593232D01*
X114787599Y-92607847D01*
X114805777Y-92624323D01*
X114822253Y-92642501D01*
X114836868Y-92662207D01*
X114849480Y-92683250D01*
X114859970Y-92705429D01*
X114868235Y-92728528D01*
X114874196Y-92752327D01*
X114877796Y-92776595D01*
X114879000Y-92801099D01*
X114879000Y-93701101D01*
X114877796Y-93725605D01*
X114874196Y-93749873D01*
X114868235Y-93773672D01*
X114859970Y-93796771D01*
X114849480Y-93818950D01*
X114836868Y-93839993D01*
X114822253Y-93859699D01*
X114805777Y-93877877D01*
X114787599Y-93894353D01*
X114767893Y-93908968D01*
X114746850Y-93921580D01*
X114724671Y-93932070D01*
X114701572Y-93940335D01*
X114677773Y-93946296D01*
X114653505Y-93949896D01*
X114629001Y-93951100D01*
X113978999Y-93951100D01*
X113954495Y-93949896D01*
X113930227Y-93946296D01*
X113906428Y-93940335D01*
X113883329Y-93932070D01*
X113861150Y-93921580D01*
X113840107Y-93908968D01*
X113820401Y-93894353D01*
X113802223Y-93877877D01*
X113785747Y-93859699D01*
X113771132Y-93839993D01*
X113758520Y-93818950D01*
X113748030Y-93796771D01*
X113739765Y-93773672D01*
X113733804Y-93749873D01*
X113730204Y-93725605D01*
X113729000Y-93701101D01*
X113729000Y-92801099D01*
X113730204Y-92776595D01*
X113733804Y-92752327D01*
X113739765Y-92728528D01*
X113748030Y-92705429D01*
X113758520Y-92683250D01*
X113771132Y-92662207D01*
X113785747Y-92642501D01*
X113802223Y-92624323D01*
X113820401Y-92607847D01*
X113840107Y-92593232D01*
X113861150Y-92580620D01*
X113883329Y-92570130D01*
X113906428Y-92561865D01*
X113930227Y-92555904D01*
X113954495Y-92552304D01*
X113978999Y-92551100D01*
X114629001Y-92551100D01*
X114653505Y-92552304D01*
X114653505Y-92552304D01*
G37*
D15*
X114304000Y-93251100D03*
D14*
G36*
X116703505Y-92552304D02*
G01*
X116727773Y-92555904D01*
X116751572Y-92561865D01*
X116774671Y-92570130D01*
X116796850Y-92580620D01*
X116817893Y-92593232D01*
X116837599Y-92607847D01*
X116855777Y-92624323D01*
X116872253Y-92642501D01*
X116886868Y-92662207D01*
X116899480Y-92683250D01*
X116909970Y-92705429D01*
X116918235Y-92728528D01*
X116924196Y-92752327D01*
X116927796Y-92776595D01*
X116929000Y-92801099D01*
X116929000Y-93701101D01*
X116927796Y-93725605D01*
X116924196Y-93749873D01*
X116918235Y-93773672D01*
X116909970Y-93796771D01*
X116899480Y-93818950D01*
X116886868Y-93839993D01*
X116872253Y-93859699D01*
X116855777Y-93877877D01*
X116837599Y-93894353D01*
X116817893Y-93908968D01*
X116796850Y-93921580D01*
X116774671Y-93932070D01*
X116751572Y-93940335D01*
X116727773Y-93946296D01*
X116703505Y-93949896D01*
X116679001Y-93951100D01*
X116028999Y-93951100D01*
X116004495Y-93949896D01*
X115980227Y-93946296D01*
X115956428Y-93940335D01*
X115933329Y-93932070D01*
X115911150Y-93921580D01*
X115890107Y-93908968D01*
X115870401Y-93894353D01*
X115852223Y-93877877D01*
X115835747Y-93859699D01*
X115821132Y-93839993D01*
X115808520Y-93818950D01*
X115798030Y-93796771D01*
X115789765Y-93773672D01*
X115783804Y-93749873D01*
X115780204Y-93725605D01*
X115779000Y-93701101D01*
X115779000Y-92801099D01*
X115780204Y-92776595D01*
X115783804Y-92752327D01*
X115789765Y-92728528D01*
X115798030Y-92705429D01*
X115808520Y-92683250D01*
X115821132Y-92662207D01*
X115835747Y-92642501D01*
X115852223Y-92624323D01*
X115870401Y-92607847D01*
X115890107Y-92593232D01*
X115911150Y-92580620D01*
X115933329Y-92570130D01*
X115956428Y-92561865D01*
X115980227Y-92555904D01*
X116004495Y-92552304D01*
X116028999Y-92551100D01*
X116679001Y-92551100D01*
X116703505Y-92552304D01*
X116703505Y-92552304D01*
G37*
D15*
X116354000Y-93251100D03*
D14*
G36*
X190720505Y-114479204D02*
G01*
X190744773Y-114482804D01*
X190768572Y-114488765D01*
X190791671Y-114497030D01*
X190813850Y-114507520D01*
X190834893Y-114520132D01*
X190854599Y-114534747D01*
X190872777Y-114551223D01*
X190889253Y-114569401D01*
X190903868Y-114589107D01*
X190916480Y-114610150D01*
X190926970Y-114632329D01*
X190935235Y-114655428D01*
X190941196Y-114679227D01*
X190944796Y-114703495D01*
X190946000Y-114727999D01*
X190946000Y-115378001D01*
X190944796Y-115402505D01*
X190941196Y-115426773D01*
X190935235Y-115450572D01*
X190926970Y-115473671D01*
X190916480Y-115495850D01*
X190903868Y-115516893D01*
X190889253Y-115536599D01*
X190872777Y-115554777D01*
X190854599Y-115571253D01*
X190834893Y-115585868D01*
X190813850Y-115598480D01*
X190791671Y-115608970D01*
X190768572Y-115617235D01*
X190744773Y-115623196D01*
X190720505Y-115626796D01*
X190696001Y-115628000D01*
X189795999Y-115628000D01*
X189771495Y-115626796D01*
X189747227Y-115623196D01*
X189723428Y-115617235D01*
X189700329Y-115608970D01*
X189678150Y-115598480D01*
X189657107Y-115585868D01*
X189637401Y-115571253D01*
X189619223Y-115554777D01*
X189602747Y-115536599D01*
X189588132Y-115516893D01*
X189575520Y-115495850D01*
X189565030Y-115473671D01*
X189556765Y-115450572D01*
X189550804Y-115426773D01*
X189547204Y-115402505D01*
X189546000Y-115378001D01*
X189546000Y-114727999D01*
X189547204Y-114703495D01*
X189550804Y-114679227D01*
X189556765Y-114655428D01*
X189565030Y-114632329D01*
X189575520Y-114610150D01*
X189588132Y-114589107D01*
X189602747Y-114569401D01*
X189619223Y-114551223D01*
X189637401Y-114534747D01*
X189657107Y-114520132D01*
X189678150Y-114507520D01*
X189700329Y-114497030D01*
X189723428Y-114488765D01*
X189747227Y-114482804D01*
X189771495Y-114479204D01*
X189795999Y-114478000D01*
X190696001Y-114478000D01*
X190720505Y-114479204D01*
X190720505Y-114479204D01*
G37*
D15*
X190246000Y-115053000D03*
D14*
G36*
X190720505Y-116529204D02*
G01*
X190744773Y-116532804D01*
X190768572Y-116538765D01*
X190791671Y-116547030D01*
X190813850Y-116557520D01*
X190834893Y-116570132D01*
X190854599Y-116584747D01*
X190872777Y-116601223D01*
X190889253Y-116619401D01*
X190903868Y-116639107D01*
X190916480Y-116660150D01*
X190926970Y-116682329D01*
X190935235Y-116705428D01*
X190941196Y-116729227D01*
X190944796Y-116753495D01*
X190946000Y-116777999D01*
X190946000Y-117428001D01*
X190944796Y-117452505D01*
X190941196Y-117476773D01*
X190935235Y-117500572D01*
X190926970Y-117523671D01*
X190916480Y-117545850D01*
X190903868Y-117566893D01*
X190889253Y-117586599D01*
X190872777Y-117604777D01*
X190854599Y-117621253D01*
X190834893Y-117635868D01*
X190813850Y-117648480D01*
X190791671Y-117658970D01*
X190768572Y-117667235D01*
X190744773Y-117673196D01*
X190720505Y-117676796D01*
X190696001Y-117678000D01*
X189795999Y-117678000D01*
X189771495Y-117676796D01*
X189747227Y-117673196D01*
X189723428Y-117667235D01*
X189700329Y-117658970D01*
X189678150Y-117648480D01*
X189657107Y-117635868D01*
X189637401Y-117621253D01*
X189619223Y-117604777D01*
X189602747Y-117586599D01*
X189588132Y-117566893D01*
X189575520Y-117545850D01*
X189565030Y-117523671D01*
X189556765Y-117500572D01*
X189550804Y-117476773D01*
X189547204Y-117452505D01*
X189546000Y-117428001D01*
X189546000Y-116777999D01*
X189547204Y-116753495D01*
X189550804Y-116729227D01*
X189556765Y-116705428D01*
X189565030Y-116682329D01*
X189575520Y-116660150D01*
X189588132Y-116639107D01*
X189602747Y-116619401D01*
X189619223Y-116601223D01*
X189637401Y-116584747D01*
X189657107Y-116570132D01*
X189678150Y-116557520D01*
X189700329Y-116547030D01*
X189723428Y-116538765D01*
X189747227Y-116532804D01*
X189771495Y-116529204D01*
X189795999Y-116528000D01*
X190696001Y-116528000D01*
X190720505Y-116529204D01*
X190720505Y-116529204D01*
G37*
D15*
X190246000Y-117103000D03*
D14*
G36*
X111084505Y-94163104D02*
G01*
X111108773Y-94166704D01*
X111132572Y-94172665D01*
X111155671Y-94180930D01*
X111177850Y-94191420D01*
X111198893Y-94204032D01*
X111218599Y-94218647D01*
X111236777Y-94235123D01*
X111253253Y-94253301D01*
X111267868Y-94273007D01*
X111280480Y-94294050D01*
X111290970Y-94316229D01*
X111299235Y-94339328D01*
X111305196Y-94363127D01*
X111308796Y-94387395D01*
X111310000Y-94411899D01*
X111310000Y-95061901D01*
X111308796Y-95086405D01*
X111305196Y-95110673D01*
X111299235Y-95134472D01*
X111290970Y-95157571D01*
X111280480Y-95179750D01*
X111267868Y-95200793D01*
X111253253Y-95220499D01*
X111236777Y-95238677D01*
X111218599Y-95255153D01*
X111198893Y-95269768D01*
X111177850Y-95282380D01*
X111155671Y-95292870D01*
X111132572Y-95301135D01*
X111108773Y-95307096D01*
X111084505Y-95310696D01*
X111060001Y-95311900D01*
X110159999Y-95311900D01*
X110135495Y-95310696D01*
X110111227Y-95307096D01*
X110087428Y-95301135D01*
X110064329Y-95292870D01*
X110042150Y-95282380D01*
X110021107Y-95269768D01*
X110001401Y-95255153D01*
X109983223Y-95238677D01*
X109966747Y-95220499D01*
X109952132Y-95200793D01*
X109939520Y-95179750D01*
X109929030Y-95157571D01*
X109920765Y-95134472D01*
X109914804Y-95110673D01*
X109911204Y-95086405D01*
X109910000Y-95061901D01*
X109910000Y-94411899D01*
X109911204Y-94387395D01*
X109914804Y-94363127D01*
X109920765Y-94339328D01*
X109929030Y-94316229D01*
X109939520Y-94294050D01*
X109952132Y-94273007D01*
X109966747Y-94253301D01*
X109983223Y-94235123D01*
X110001401Y-94218647D01*
X110021107Y-94204032D01*
X110042150Y-94191420D01*
X110064329Y-94180930D01*
X110087428Y-94172665D01*
X110111227Y-94166704D01*
X110135495Y-94163104D01*
X110159999Y-94161900D01*
X111060001Y-94161900D01*
X111084505Y-94163104D01*
X111084505Y-94163104D01*
G37*
D15*
X110610000Y-94736900D03*
D14*
G36*
X111084505Y-92113104D02*
G01*
X111108773Y-92116704D01*
X111132572Y-92122665D01*
X111155671Y-92130930D01*
X111177850Y-92141420D01*
X111198893Y-92154032D01*
X111218599Y-92168647D01*
X111236777Y-92185123D01*
X111253253Y-92203301D01*
X111267868Y-92223007D01*
X111280480Y-92244050D01*
X111290970Y-92266229D01*
X111299235Y-92289328D01*
X111305196Y-92313127D01*
X111308796Y-92337395D01*
X111310000Y-92361899D01*
X111310000Y-93011901D01*
X111308796Y-93036405D01*
X111305196Y-93060673D01*
X111299235Y-93084472D01*
X111290970Y-93107571D01*
X111280480Y-93129750D01*
X111267868Y-93150793D01*
X111253253Y-93170499D01*
X111236777Y-93188677D01*
X111218599Y-93205153D01*
X111198893Y-93219768D01*
X111177850Y-93232380D01*
X111155671Y-93242870D01*
X111132572Y-93251135D01*
X111108773Y-93257096D01*
X111084505Y-93260696D01*
X111060001Y-93261900D01*
X110159999Y-93261900D01*
X110135495Y-93260696D01*
X110111227Y-93257096D01*
X110087428Y-93251135D01*
X110064329Y-93242870D01*
X110042150Y-93232380D01*
X110021107Y-93219768D01*
X110001401Y-93205153D01*
X109983223Y-93188677D01*
X109966747Y-93170499D01*
X109952132Y-93150793D01*
X109939520Y-93129750D01*
X109929030Y-93107571D01*
X109920765Y-93084472D01*
X109914804Y-93060673D01*
X109911204Y-93036405D01*
X109910000Y-93011901D01*
X109910000Y-92361899D01*
X109911204Y-92337395D01*
X109914804Y-92313127D01*
X109920765Y-92289328D01*
X109929030Y-92266229D01*
X109939520Y-92244050D01*
X109952132Y-92223007D01*
X109966747Y-92203301D01*
X109983223Y-92185123D01*
X110001401Y-92168647D01*
X110021107Y-92154032D01*
X110042150Y-92141420D01*
X110064329Y-92130930D01*
X110087428Y-92122665D01*
X110111227Y-92116704D01*
X110135495Y-92113104D01*
X110159999Y-92111900D01*
X111060001Y-92111900D01*
X111084505Y-92113104D01*
X111084505Y-92113104D01*
G37*
D15*
X110610000Y-92686900D03*
D14*
G36*
X180306505Y-114479204D02*
G01*
X180330773Y-114482804D01*
X180354572Y-114488765D01*
X180377671Y-114497030D01*
X180399850Y-114507520D01*
X180420893Y-114520132D01*
X180440599Y-114534747D01*
X180458777Y-114551223D01*
X180475253Y-114569401D01*
X180489868Y-114589107D01*
X180502480Y-114610150D01*
X180512970Y-114632329D01*
X180521235Y-114655428D01*
X180527196Y-114679227D01*
X180530796Y-114703495D01*
X180532000Y-114727999D01*
X180532000Y-115378001D01*
X180530796Y-115402505D01*
X180527196Y-115426773D01*
X180521235Y-115450572D01*
X180512970Y-115473671D01*
X180502480Y-115495850D01*
X180489868Y-115516893D01*
X180475253Y-115536599D01*
X180458777Y-115554777D01*
X180440599Y-115571253D01*
X180420893Y-115585868D01*
X180399850Y-115598480D01*
X180377671Y-115608970D01*
X180354572Y-115617235D01*
X180330773Y-115623196D01*
X180306505Y-115626796D01*
X180282001Y-115628000D01*
X179381999Y-115628000D01*
X179357495Y-115626796D01*
X179333227Y-115623196D01*
X179309428Y-115617235D01*
X179286329Y-115608970D01*
X179264150Y-115598480D01*
X179243107Y-115585868D01*
X179223401Y-115571253D01*
X179205223Y-115554777D01*
X179188747Y-115536599D01*
X179174132Y-115516893D01*
X179161520Y-115495850D01*
X179151030Y-115473671D01*
X179142765Y-115450572D01*
X179136804Y-115426773D01*
X179133204Y-115402505D01*
X179132000Y-115378001D01*
X179132000Y-114727999D01*
X179133204Y-114703495D01*
X179136804Y-114679227D01*
X179142765Y-114655428D01*
X179151030Y-114632329D01*
X179161520Y-114610150D01*
X179174132Y-114589107D01*
X179188747Y-114569401D01*
X179205223Y-114551223D01*
X179223401Y-114534747D01*
X179243107Y-114520132D01*
X179264150Y-114507520D01*
X179286329Y-114497030D01*
X179309428Y-114488765D01*
X179333227Y-114482804D01*
X179357495Y-114479204D01*
X179381999Y-114478000D01*
X180282001Y-114478000D01*
X180306505Y-114479204D01*
X180306505Y-114479204D01*
G37*
D15*
X179832000Y-115053000D03*
D14*
G36*
X180306505Y-116529204D02*
G01*
X180330773Y-116532804D01*
X180354572Y-116538765D01*
X180377671Y-116547030D01*
X180399850Y-116557520D01*
X180420893Y-116570132D01*
X180440599Y-116584747D01*
X180458777Y-116601223D01*
X180475253Y-116619401D01*
X180489868Y-116639107D01*
X180502480Y-116660150D01*
X180512970Y-116682329D01*
X180521235Y-116705428D01*
X180527196Y-116729227D01*
X180530796Y-116753495D01*
X180532000Y-116777999D01*
X180532000Y-117428001D01*
X180530796Y-117452505D01*
X180527196Y-117476773D01*
X180521235Y-117500572D01*
X180512970Y-117523671D01*
X180502480Y-117545850D01*
X180489868Y-117566893D01*
X180475253Y-117586599D01*
X180458777Y-117604777D01*
X180440599Y-117621253D01*
X180420893Y-117635868D01*
X180399850Y-117648480D01*
X180377671Y-117658970D01*
X180354572Y-117667235D01*
X180330773Y-117673196D01*
X180306505Y-117676796D01*
X180282001Y-117678000D01*
X179381999Y-117678000D01*
X179357495Y-117676796D01*
X179333227Y-117673196D01*
X179309428Y-117667235D01*
X179286329Y-117658970D01*
X179264150Y-117648480D01*
X179243107Y-117635868D01*
X179223401Y-117621253D01*
X179205223Y-117604777D01*
X179188747Y-117586599D01*
X179174132Y-117566893D01*
X179161520Y-117545850D01*
X179151030Y-117523671D01*
X179142765Y-117500572D01*
X179136804Y-117476773D01*
X179133204Y-117452505D01*
X179132000Y-117428001D01*
X179132000Y-116777999D01*
X179133204Y-116753495D01*
X179136804Y-116729227D01*
X179142765Y-116705428D01*
X179151030Y-116682329D01*
X179161520Y-116660150D01*
X179174132Y-116639107D01*
X179188747Y-116619401D01*
X179205223Y-116601223D01*
X179223401Y-116584747D01*
X179243107Y-116570132D01*
X179264150Y-116557520D01*
X179286329Y-116547030D01*
X179309428Y-116538765D01*
X179333227Y-116532804D01*
X179357495Y-116529204D01*
X179381999Y-116528000D01*
X180282001Y-116528000D01*
X180306505Y-116529204D01*
X180306505Y-116529204D01*
G37*
D15*
X179832000Y-117103000D03*
D16*
X117850000Y-107700000D03*
X117850000Y-110600000D03*
X126722000Y-105802000D03*
X126722000Y-108702000D03*
X126748000Y-95964600D03*
X126748000Y-98864600D03*
D17*
X176289000Y-111031000D03*
X176289000Y-113571000D03*
X168669000Y-96426100D03*
X168669000Y-98966100D03*
X161049000Y-111031000D03*
X161049000Y-113571000D03*
X153429000Y-96426100D03*
X153429000Y-98966100D03*
X145809000Y-111031000D03*
X145809000Y-113571000D03*
X138189000Y-96426100D03*
X138189000Y-98966100D03*
X130569000Y-111031000D03*
X130569000Y-113571000D03*
X122949000Y-96426100D03*
X122949000Y-98966100D03*
D18*
X193294000Y-95758000D03*
X193294000Y-93218000D03*
X190754000Y-95758000D03*
X190754000Y-93218000D03*
X188214000Y-95758000D03*
X188214000Y-93218000D03*
X185674000Y-95758000D03*
X185674000Y-93218000D03*
X183134000Y-95758000D03*
X183134000Y-93218000D03*
D19*
X176289000Y-104196100D03*
X176289000Y-101196100D03*
X176289000Y-92696100D03*
X168669000Y-105801000D03*
X168669000Y-108801000D03*
X168669000Y-117301000D03*
X161049000Y-104196100D03*
X161049000Y-101196100D03*
X161049000Y-92696100D03*
X153429000Y-105801000D03*
X153429000Y-108801000D03*
X153429000Y-117301000D03*
X145809000Y-104196100D03*
X145809000Y-101196100D03*
X145809000Y-92696100D03*
X138189000Y-105801000D03*
X138189000Y-108801000D03*
X138189000Y-117301000D03*
X130569000Y-104196100D03*
X130569000Y-101196100D03*
X130569000Y-92696100D03*
X122949000Y-105801000D03*
X122949000Y-108801000D03*
X122949000Y-117301000D03*
X115479000Y-112301000D03*
X112479000Y-112301000D03*
X103979000Y-112301000D03*
X115479000Y-97696100D03*
X112479000Y-97696100D03*
X103979000Y-97696100D03*
D20*
X185240000Y-111760000D03*
X188140000Y-111760000D03*
D21*
X111524600Y-98943400D03*
X108789400Y-112943300D03*
X125514900Y-109318100D03*
X191026300Y-106337500D03*
X144205100Y-106770500D03*
X189837600Y-99894300D03*
X138018600Y-103040600D03*
X185761700Y-109598400D03*
X114267400Y-107507700D03*
D22*
X192786000Y-115062000D02*
X194329600Y-113518400D01*
X194329600Y-113518400D02*
X194329600Y-96793600D01*
X194329600Y-96793600D02*
X193294000Y-95758000D01*
X193294000Y-93218000D02*
X193294000Y-95758000D01*
X183134000Y-93218000D02*
X183134000Y-95758000D01*
X191883000Y-117092300D02*
X190911400Y-118063900D01*
X190911400Y-118063900D02*
X180792900Y-118063900D01*
X180792900Y-118063900D02*
X179832000Y-117103000D01*
X192786000Y-117112000D02*
X192766300Y-117092300D01*
X192766300Y-117092300D02*
X191883000Y-117092300D01*
X188140000Y-116036800D02*
X190827500Y-116036800D01*
X190827500Y-116036800D02*
X191883000Y-117092300D01*
X186436000Y-116586000D02*
X186985200Y-116036800D01*
X186985200Y-116036800D02*
X188140000Y-116036800D01*
X188140000Y-112685300D02*
X188140000Y-116036800D01*
X188140000Y-111760000D02*
X188140000Y-112685300D01*
X176289000Y-113571000D02*
X172120000Y-109402000D01*
X172120000Y-109402000D02*
X172120000Y-105864000D01*
X168669000Y-98966100D02*
X170294400Y-100591500D01*
X170294400Y-100591500D02*
X170294400Y-114931400D01*
X170294400Y-114931400D02*
X171695000Y-116332000D01*
X161049000Y-113571000D02*
X156822000Y-109344000D01*
X156822000Y-109344000D02*
X156822000Y-104270000D01*
X153429000Y-98966100D02*
X153429000Y-102465700D01*
X153429000Y-102465700D02*
X155729100Y-104765800D01*
X155729100Y-104765800D02*
X155729100Y-111036100D01*
X155729100Y-111036100D02*
X162074000Y-117381000D01*
X145809000Y-113571000D02*
X141989000Y-109751000D01*
X141989000Y-109751000D02*
X141989000Y-105792000D01*
X138189000Y-98966100D02*
X139339400Y-100116500D01*
X139339400Y-100116500D02*
X139339400Y-109251400D01*
X139339400Y-109251400D02*
X146834000Y-116746000D01*
X130569000Y-113571000D02*
X134348000Y-109792000D01*
X134348000Y-109792000D02*
X134348000Y-108679000D01*
X131594000Y-116111000D02*
X128416100Y-112933100D01*
X128416100Y-112933100D02*
X128416100Y-108579800D01*
X128416100Y-108579800D02*
X126713700Y-106877400D01*
X126713700Y-106877400D02*
X125987300Y-106877400D01*
X125987300Y-106877400D02*
X125796700Y-106686800D01*
X125796700Y-106686800D02*
X125796700Y-104313200D01*
X125796700Y-104313200D02*
X125909300Y-104200600D01*
X125909300Y-104200600D02*
X125909300Y-101926400D01*
X125909300Y-101926400D02*
X122949000Y-98966100D01*
X103979000Y-112301000D02*
X107996000Y-116318000D01*
X107996000Y-116318000D02*
X109147000Y-116318000D01*
X193167000Y-106634100D02*
X193822500Y-105978600D01*
X193822500Y-105978600D02*
X193822500Y-98097500D01*
X193822500Y-98097500D02*
X192024000Y-96299000D01*
X192024000Y-96299000D02*
X192024000Y-95209500D01*
X192024000Y-95209500D02*
X191307300Y-94492800D01*
X191307300Y-94492800D02*
X187655800Y-94492800D01*
X187655800Y-94492800D02*
X186948800Y-93785800D01*
X186948800Y-93785800D02*
X186948800Y-92688600D01*
X186948800Y-92688600D02*
X185326100Y-91065900D01*
X185326100Y-91065900D02*
X140914500Y-91065900D01*
X140914500Y-91065900D02*
X134952400Y-97028000D01*
X134952400Y-97028000D02*
X130235000Y-97028000D01*
X130235000Y-97028000D02*
X129153500Y-98109500D01*
X129153500Y-98109500D02*
X129153500Y-104295800D01*
X129153500Y-104295800D02*
X127647300Y-105802000D01*
X193167000Y-107975400D02*
X193167000Y-106634100D01*
X126722000Y-105802000D02*
X127647300Y-105802000D01*
X121069700Y-112894300D02*
X120607000Y-113357000D01*
X120607000Y-113357000D02*
X120607000Y-114509000D01*
X124771700Y-111585700D02*
X122378300Y-111585700D01*
X122378300Y-111585700D02*
X121069700Y-112894300D01*
X118775300Y-110600000D02*
X121069700Y-112894300D01*
X117850000Y-110600000D02*
X118775300Y-110600000D01*
X124771700Y-111585700D02*
X124771700Y-113338600D01*
X124771700Y-113338600D02*
X130383600Y-118950500D01*
X130383600Y-118950500D02*
X173617000Y-118950500D01*
X173617000Y-118950500D02*
X182466900Y-110100600D01*
X182466900Y-110100600D02*
X182466900Y-107962100D01*
X182466900Y-107962100D02*
X183794900Y-106634100D01*
X183794900Y-106634100D02*
X185547000Y-106634100D01*
X126722000Y-109777300D02*
X124913600Y-111585700D01*
X124913600Y-111585700D02*
X124771700Y-111585700D01*
X126722000Y-108702000D02*
X125344600Y-107324600D01*
X125344600Y-107324600D02*
X125344600Y-103903100D01*
X125344600Y-103903100D02*
X125459000Y-103788700D01*
X125459000Y-103788700D02*
X125459000Y-102175300D01*
X125459000Y-102175300D02*
X124647100Y-101363400D01*
X124647100Y-101363400D02*
X123947600Y-101363400D01*
X123947600Y-101363400D02*
X121916000Y-99331800D01*
X121916000Y-99331800D02*
X121916000Y-98592300D01*
X121916000Y-98592300D02*
X122546300Y-97962000D01*
X122546300Y-97962000D02*
X124920100Y-97962000D01*
X124920100Y-97962000D02*
X125822700Y-98864600D01*
X126748000Y-98864600D02*
X125822700Y-98864600D01*
X126722000Y-108702000D02*
X126722000Y-109777300D01*
X185547000Y-107975400D02*
X185547000Y-106634100D01*
X126748000Y-95964600D02*
X125822700Y-95964600D01*
X125822700Y-95964600D02*
X124329100Y-94471000D01*
X124329100Y-94471000D02*
X117573900Y-94471000D01*
X117573900Y-94471000D02*
X116354000Y-93251100D01*
X176289000Y-92696100D02*
X175839000Y-93146100D01*
X175839000Y-93146100D02*
X175839000Y-96113500D01*
X168669000Y-117301000D02*
X167343000Y-115975000D01*
X167343000Y-115975000D02*
X167343000Y-112085000D01*
X161049000Y-92696100D02*
X161036000Y-92709100D01*
X161036000Y-92709100D02*
X161036000Y-96003000D01*
X153429000Y-117301000D02*
X152679000Y-116551000D01*
X152679000Y-116551000D02*
X152679000Y-112314000D01*
X145809000Y-92696100D02*
X145796000Y-92709100D01*
X145796000Y-92709100D02*
X145796000Y-96003000D01*
X138189000Y-117301000D02*
X137232000Y-116344000D01*
X137232000Y-116344000D02*
X137232000Y-112657000D01*
X130569000Y-92696100D02*
X130810000Y-92937100D01*
X130810000Y-92937100D02*
X130810000Y-96003000D01*
X122949000Y-117301000D02*
X123672000Y-116578000D01*
X123672000Y-116578000D02*
X123672000Y-112644000D01*
X112789000Y-101751000D02*
X112789000Y-102016900D01*
X112789000Y-102016900D02*
X109330200Y-105475700D01*
X109330200Y-105475700D02*
X105263600Y-105475700D01*
X105263600Y-105475700D02*
X104875000Y-105087100D01*
X104875000Y-105087100D02*
X104875000Y-98592100D01*
X104875000Y-98592100D02*
X103979000Y-97696100D01*
X119350000Y-93225000D02*
X118340200Y-92215200D01*
X118340200Y-92215200D02*
X112784200Y-92215200D01*
X112784200Y-92215200D02*
X111287500Y-93711900D01*
X111287500Y-93711900D02*
X110025900Y-93711900D01*
X110025900Y-93711900D02*
X109539100Y-94198700D01*
X109539100Y-94198700D02*
X109539100Y-95263600D01*
X109539100Y-95263600D02*
X110921900Y-96646400D01*
X110921900Y-96646400D02*
X110921900Y-98211500D01*
X110921900Y-98211500D02*
X111524600Y-98814200D01*
X111524600Y-98814200D02*
X111524600Y-98943400D01*
X111524600Y-98943400D02*
X112887200Y-98943400D01*
X112887200Y-98943400D02*
X113871200Y-97959400D01*
X113871200Y-97959400D02*
X113871200Y-96977700D01*
X113871200Y-96977700D02*
X115170500Y-95678400D01*
X115170500Y-95678400D02*
X118879400Y-95678400D01*
X118879400Y-95678400D02*
X119186000Y-95985000D01*
X119186000Y-95985000D02*
X119186000Y-97589000D01*
X119186000Y-97589000D02*
X118125000Y-98650000D01*
X109147000Y-114268000D02*
X108789400Y-113910400D01*
X108789400Y-113910400D02*
X108789400Y-112943300D01*
X116725000Y-103750000D02*
X116725000Y-103024700D01*
X118125000Y-96600000D02*
X118022000Y-96497000D01*
X118022000Y-96497000D02*
X115015100Y-96497000D01*
X115015100Y-96497000D02*
X114321600Y-97190500D01*
X114321600Y-97190500D02*
X114321600Y-98443700D01*
X114321600Y-98443700D02*
X114724400Y-98846500D01*
X114724400Y-98846500D02*
X114724400Y-101749400D01*
X114724400Y-101749400D02*
X115999700Y-103024700D01*
X115999700Y-103024700D02*
X116725000Y-103024700D01*
X106375000Y-104750000D02*
X106375000Y-104024700D01*
X109400000Y-101750000D02*
X107125300Y-104024700D01*
X107125300Y-104024700D02*
X106375000Y-104024700D01*
X109610000Y-99144300D02*
X109610000Y-101540000D01*
X109610000Y-101540000D02*
X109400000Y-101750000D01*
X103375000Y-105700000D02*
X104650300Y-105700000D01*
X112789000Y-103801000D02*
X110618500Y-105971500D01*
X110618500Y-105971500D02*
X104921800Y-105971500D01*
X104921800Y-105971500D02*
X104650300Y-105700000D01*
X112675000Y-107550000D02*
X112675000Y-106824700D01*
X109400000Y-103800000D02*
X109400000Y-103550100D01*
X109400000Y-103550100D02*
X112104400Y-100845700D01*
X112104400Y-100845700D02*
X113487200Y-100845700D01*
X113487200Y-100845700D02*
X113817000Y-101175500D01*
X113817000Y-101175500D02*
X113817000Y-105682700D01*
X113817000Y-105682700D02*
X112675000Y-106824700D01*
X190754000Y-95758000D02*
X193167000Y-98171000D01*
X193167000Y-98171000D02*
X193167000Y-101828600D01*
X167667600Y-104196100D02*
X167667600Y-104799600D01*
X167667600Y-104799600D02*
X168669000Y-105801000D01*
X168669000Y-96426100D02*
X167667600Y-97427500D01*
X167667600Y-97427500D02*
X167667600Y-104196100D01*
X167667600Y-104196100D02*
X161049000Y-104196100D01*
X161049000Y-104196100D02*
X161049000Y-111031000D01*
X188146000Y-109929300D02*
X190246000Y-112029400D01*
X190246000Y-112029400D02*
X190246000Y-115053000D01*
X188087000Y-109204100D02*
X188087000Y-109870400D01*
X188087000Y-109870400D02*
X188146000Y-109929300D01*
X186315300Y-111760000D02*
X188146000Y-109929300D01*
X185240000Y-111760000D02*
X186315300Y-111760000D01*
X185240000Y-111760000D02*
X185240000Y-112110000D01*
X188087000Y-107975400D02*
X188087000Y-109204100D01*
X188087000Y-107975400D02*
X188087000Y-106634100D01*
X193167000Y-101828600D02*
X193167000Y-103169900D01*
X193167000Y-103169900D02*
X189702800Y-106634100D01*
X189702800Y-106634100D02*
X188087000Y-106634100D01*
X120747900Y-96841500D02*
X118827800Y-94921400D01*
X118827800Y-94921400D02*
X115974300Y-94921400D01*
X115974300Y-94921400D02*
X114304000Y-93251100D01*
X117387600Y-99604700D02*
X118819900Y-99604700D01*
X118819900Y-99604700D02*
X120747900Y-97676700D01*
X120747900Y-97676700D02*
X120747900Y-96841500D01*
X122949000Y-96426100D02*
X122533600Y-96841500D01*
X122533600Y-96841500D02*
X120747900Y-96841500D01*
X115108900Y-110608600D02*
X114675600Y-110175300D01*
X114675600Y-110175300D02*
X112675000Y-110175300D01*
X115479000Y-112301000D02*
X115479000Y-110978700D01*
X115479000Y-110978700D02*
X115108900Y-110608600D01*
X115108900Y-110608600D02*
X116893900Y-108823600D01*
X112675000Y-109450000D02*
X112675000Y-110175300D01*
X103375000Y-103800000D02*
X103375000Y-104525300D01*
X112675000Y-109450000D02*
X105313300Y-109450000D01*
X105313300Y-109450000D02*
X102099600Y-106236300D01*
X102099600Y-106236300D02*
X102099600Y-105075400D01*
X102099600Y-105075400D02*
X102649700Y-104525300D01*
X102649700Y-104525300D02*
X103375000Y-104525300D01*
X145809000Y-111031000D02*
X145809000Y-104196100D01*
X185240000Y-112110000D02*
X185240000Y-112685300D01*
X116893900Y-108823600D02*
X119926400Y-108823600D01*
X119926400Y-108823600D02*
X122949000Y-105801000D01*
X116725000Y-101717500D02*
X118000300Y-102992800D01*
X118000300Y-102992800D02*
X118000300Y-105400000D01*
X118000300Y-105400000D02*
X116893900Y-106506400D01*
X116893900Y-106506400D02*
X116893900Y-108823600D01*
X116725000Y-101717500D02*
X116725000Y-101585000D01*
X116725000Y-101850000D02*
X116725000Y-101717500D01*
X151824100Y-104196100D02*
X145809000Y-104196100D01*
X153429000Y-105801000D02*
X151824100Y-104196100D01*
X151824100Y-104196100D02*
X151824100Y-98031000D01*
X151824100Y-98031000D02*
X153429000Y-96426100D01*
X185166000Y-115053000D02*
X185166000Y-112759300D01*
X185166000Y-112759300D02*
X185240000Y-112685300D01*
X185166000Y-115316000D02*
X185166000Y-115053000D01*
X185166000Y-115053000D02*
X179832000Y-115053000D01*
X130569000Y-104196100D02*
X130569000Y-111031000D01*
X117387600Y-99604700D02*
X117387600Y-100922400D01*
X117387600Y-100922400D02*
X116725000Y-101585000D01*
X115479000Y-97696100D02*
X117387600Y-99604700D01*
X115479000Y-112301000D02*
X116349000Y-112301000D01*
X116349000Y-112301000D02*
X118557000Y-114509000D01*
X110610000Y-94736900D02*
X112818200Y-94736900D01*
X112818200Y-94736900D02*
X114304000Y-93251100D01*
X185674000Y-93218000D02*
X185674000Y-95758000D01*
X176289000Y-104196100D02*
X176289000Y-111031000D01*
X110610000Y-92686900D02*
X111541600Y-91755300D01*
X111541600Y-91755300D02*
X119930300Y-91755300D01*
X119930300Y-91755300D02*
X121400000Y-93225000D01*
X110610000Y-92686900D02*
X109115500Y-92686900D01*
X109115500Y-92686900D02*
X109084100Y-92718300D01*
X124525000Y-102875000D02*
X121413100Y-99763100D01*
X121413100Y-99763100D02*
X121413100Y-98442400D01*
X121413100Y-98442400D02*
X122343900Y-97511600D01*
X122343900Y-97511600D02*
X127054900Y-97511600D01*
X127054900Y-97511600D02*
X127728700Y-96837800D01*
X127728700Y-96837800D02*
X127728700Y-95073100D01*
X127728700Y-95073100D02*
X125880600Y-93225000D01*
X125880600Y-93225000D02*
X121400000Y-93225000D01*
X125514900Y-109318100D02*
X124525000Y-108328200D01*
X124525000Y-108328200D02*
X124525000Y-102875000D01*
X182920700Y-116586000D02*
X182412700Y-116078000D01*
X182412700Y-116078000D02*
X179236500Y-116078000D01*
X179236500Y-116078000D02*
X178778400Y-115619900D01*
X178778400Y-115619900D02*
X178778400Y-114426000D01*
X178778400Y-114426000D02*
X183887700Y-109316700D01*
X183887700Y-109316700D02*
X184277000Y-109316700D01*
X109084100Y-92718300D02*
X109084100Y-96568400D01*
X109084100Y-96568400D02*
X109610000Y-97094300D01*
X109084100Y-92718300D02*
X106509000Y-92718300D01*
X183896000Y-116586000D02*
X182920700Y-116586000D01*
X184277000Y-107975400D02*
X184277000Y-109316700D01*
X183896000Y-116586000D02*
X184247200Y-116586000D01*
X184247200Y-116586000D02*
X185274700Y-117613500D01*
X185274700Y-117613500D02*
X189735500Y-117613500D01*
X189735500Y-117613500D02*
X190246000Y-117103000D01*
X119725000Y-102800000D02*
X121000300Y-102800000D01*
X122475000Y-102875000D02*
X121075300Y-102875000D01*
X121075300Y-102875000D02*
X121000300Y-102800000D01*
X119725000Y-102800000D02*
X119725000Y-103525300D01*
X117850000Y-107700000D02*
X118775300Y-107700000D01*
X118775300Y-107700000D02*
X118775300Y-104475000D01*
X118775300Y-104475000D02*
X119725000Y-103525300D01*
X191897000Y-107975400D02*
X191897000Y-106634100D01*
X191897000Y-106634100D02*
X191322900Y-106634100D01*
X191322900Y-106634100D02*
X191026300Y-106337500D01*
X141989000Y-103742000D02*
X144205100Y-105958100D01*
X144205100Y-105958100D02*
X144205100Y-106770500D01*
X141989000Y-103742000D02*
X141989000Y-101860000D01*
X141989000Y-101860000D02*
X145796000Y-98053000D01*
X191897000Y-103169900D02*
X186622200Y-103169900D01*
X186622200Y-103169900D02*
X179641700Y-110150400D01*
X179641700Y-110150400D02*
X179641700Y-112272600D01*
X179641700Y-112272600D02*
X173463000Y-118451300D01*
X173463000Y-118451300D02*
X161094300Y-118451300D01*
X161094300Y-118451300D02*
X160024000Y-117381000D01*
X191897000Y-101828600D02*
X191897000Y-103169900D01*
X154729000Y-112314000D02*
X154957000Y-112314000D01*
X154957000Y-112314000D02*
X160024000Y-117381000D01*
X129544000Y-116111000D02*
X130578200Y-117145200D01*
X130578200Y-117145200D02*
X132196200Y-117145200D01*
X132196200Y-117145200D02*
X136047200Y-113294200D01*
X136047200Y-113294200D02*
X136047200Y-105012000D01*
X136047200Y-105012000D02*
X138018600Y-103040600D01*
X125722000Y-112644000D02*
X129189000Y-116111000D01*
X129189000Y-116111000D02*
X129544000Y-116111000D01*
X190627000Y-101828600D02*
X190627000Y-100487300D01*
X190627000Y-100487300D02*
X190430600Y-100487300D01*
X190430600Y-100487300D02*
X189837600Y-99894300D01*
X189357000Y-101828600D02*
X189357000Y-100487300D01*
X134259000Y-101502000D02*
X138064900Y-97696100D01*
X138064900Y-97696100D02*
X141966400Y-97696100D01*
X141966400Y-97696100D02*
X142634500Y-97028000D01*
X142634500Y-97028000D02*
X150829200Y-97028000D01*
X150829200Y-97028000D02*
X156340900Y-91516300D01*
X156340900Y-91516300D02*
X177103200Y-91516300D01*
X177103200Y-91516300D02*
X183134100Y-97547200D01*
X183134100Y-97547200D02*
X186416900Y-97547200D01*
X186416900Y-97547200D02*
X189357000Y-100487300D01*
X134348000Y-106629000D02*
X134348000Y-101591000D01*
X134348000Y-101591000D02*
X134259000Y-101502000D01*
X134259000Y-101502000D02*
X130810000Y-98053000D01*
X161036000Y-98053000D02*
X164153900Y-94935100D01*
X164153900Y-94935100D02*
X169410300Y-94935100D01*
X169410300Y-94935100D02*
X171490100Y-97014900D01*
X171490100Y-97014900D02*
X181484000Y-97014900D01*
X181484000Y-97014900D02*
X183681000Y-99211900D01*
X183681000Y-99211900D02*
X186811600Y-99211900D01*
X186811600Y-99211900D02*
X188087000Y-100487300D01*
X156822000Y-102220000D02*
X160989000Y-98053000D01*
X160989000Y-98053000D02*
X161036000Y-98053000D01*
X188087000Y-101828600D02*
X188087000Y-100487300D01*
X106509000Y-94768300D02*
X106509000Y-95635900D01*
X106509000Y-95635900D02*
X109078800Y-98205700D01*
X109078800Y-98205700D02*
X110265200Y-98205700D01*
X110265200Y-98205700D02*
X110799300Y-98739800D01*
X110799300Y-98739800D02*
X110799300Y-99243800D01*
X110799300Y-99243800D02*
X111591600Y-100036100D01*
X111591600Y-100036100D02*
X113383200Y-100036100D01*
X113383200Y-100036100D02*
X114267400Y-100920300D01*
X114267400Y-100920300D02*
X114267400Y-107507700D01*
X186817000Y-107975400D02*
X186817000Y-109316700D01*
X114267400Y-107507700D02*
X114267400Y-107828000D01*
X114267400Y-107828000D02*
X113595400Y-108500000D01*
X113595400Y-108500000D02*
X109675000Y-108500000D01*
X186817000Y-109316700D02*
X186043400Y-109316700D01*
X186043400Y-109316700D02*
X185761700Y-109598400D01*
X175839000Y-99832900D02*
X186162600Y-99832900D01*
X186162600Y-99832900D02*
X186817000Y-100487300D01*
X172120000Y-103814000D02*
X172120000Y-103551900D01*
X172120000Y-103551900D02*
X175839000Y-99832900D01*
X175839000Y-98163500D02*
X175839000Y-99832900D01*
X186817000Y-101828600D02*
X186817000Y-100487300D01*
X185547000Y-103169900D02*
X178582100Y-110134800D01*
X178582100Y-110134800D02*
X178582100Y-112683300D01*
X178582100Y-112683300D02*
X174933400Y-116332000D01*
X174933400Y-116332000D02*
X173745000Y-116332000D01*
X185547000Y-101828600D02*
X185547000Y-103169900D01*
X173745000Y-116332000D02*
X172673000Y-117404000D01*
X172673000Y-117404000D02*
X171152700Y-117404000D01*
X171152700Y-117404000D02*
X169393000Y-115644300D01*
X169393000Y-115644300D02*
X169393000Y-112085000D01*
X144784000Y-116746000D02*
X143371000Y-116746000D01*
X143371000Y-116746000D02*
X139282000Y-112657000D01*
X184277000Y-103169900D02*
X183621500Y-103169900D01*
X183621500Y-103169900D02*
X183450000Y-102998400D01*
X183450000Y-102998400D02*
X174536300Y-102998400D01*
X174536300Y-102998400D02*
X172818100Y-104716600D01*
X172818100Y-104716600D02*
X171406700Y-104716600D01*
X171406700Y-104716600D02*
X171039700Y-104349600D01*
X171039700Y-104349600D02*
X171039700Y-97344400D01*
X171039700Y-97344400D02*
X169134200Y-95438900D01*
X169134200Y-95438900D02*
X168135200Y-95438900D01*
X168135200Y-95438900D02*
X163975200Y-99598900D01*
X163975200Y-99598900D02*
X160972000Y-99598900D01*
X160972000Y-99598900D02*
X159877600Y-100693300D01*
X159877600Y-100693300D02*
X159877600Y-100785800D01*
X159877600Y-100785800D02*
X157540600Y-103122800D01*
X157540600Y-103122800D02*
X156134800Y-103122800D01*
X156134800Y-103122800D02*
X155296600Y-102284600D01*
X155296600Y-102284600D02*
X155296600Y-99384700D01*
X155296600Y-99384700D02*
X153860100Y-97948200D01*
X153860100Y-97948200D02*
X152989100Y-97948200D01*
X152989100Y-97948200D02*
X152428000Y-98509300D01*
X152428000Y-98509300D02*
X152428000Y-103173100D01*
X152428000Y-103173100D02*
X154579500Y-105324600D01*
X154579500Y-105324600D02*
X154579500Y-106344700D01*
X154579500Y-106344700D02*
X153948400Y-106975800D01*
X153948400Y-106975800D02*
X153569800Y-106975800D01*
X153569800Y-106975800D02*
X151545800Y-108999800D01*
X151545800Y-108999800D02*
X151545800Y-113679500D01*
X151545800Y-113679500D02*
X147449500Y-117775800D01*
X147449500Y-117775800D02*
X145813800Y-117775800D01*
X145813800Y-117775800D02*
X144784000Y-116746000D01*
X184277000Y-101828600D02*
X184277000Y-103169900D01*
M02*
